<svg xmlns="http://www.w3.org/2000/svg" viewBox="0 0 62.5 62.5"><defs><style>.cls-1{fill:#fff;}.cls-2{fill:#bfa060;}</style></defs><g id="レイヤー_2" data-name="レイヤー 2"><g id="footer"><g id="add_newplan"><circle class="cls-1" cx="30" cy="32.5" r="30"/><g id="new"><path class="cls-2" d="M11.64,26.16h2.15l4.39,7.78,1.39,2.81h.09c-.11-1.37-.27-3-.27-4.41V26.16h2V39.41H19.22L14.83,31.6l-1.39-2.77h-.09c.11,1.36.27,2.89.27,4.34v6.24h-2Z"/><path class="cls-2" d="M24.29,26.16h7.83v1.75H26.38V31.6h4.86v1.76H26.38v4.29h5.94v1.76h-8Z"/><path class="cls-2" d="M33.9,26.16h2.16l1.24,6.9.7,4.25h.08c.28-1.43.59-2.85.9-4.25l1.71-6.9h1.83l1.73,6.9c.31,1.38.6,2.81.9,4.25h.09c.22-1.44.45-2.87.67-4.25l1.26-6.9h2L46.56,39.41H44L42.2,32.05c-.23-1-.43-2-.61-3H41.5c-.18,1-.4,2-.61,3l-1.75,7.36H36.62Z"/></g><g id="plus"><path class="cls-1" d="M60,8H54.5V2.5a2.5,2.5,0,0,0-5,0V8H44a2.5,2.5,0,0,0,0,5h5.5v5.5a2.5,2.5,0,0,0,5,0V13H60a2.5,2.5,0,0,0,0-5Z"/><path class="cls-2" d="M60,9.5H53v-7a1,1,0,0,0-2,0v7H44a1,1,0,0,0,0,2h7v7a1,1,0,0,0,2,0v-7h7a1,1,0,0,0,0-2Z"/></g></g></g></g></svg>