<svg xmlns="http://www.w3.org/2000/svg" viewBox="0 0 59 32"><defs><style>.cls-1{fill:#de7274;}.cls-2{isolation:isolate;}.cls-3{fill:#fff;}</style></defs><g id="レイヤー_2" data-name="レイヤー 2"><g id="レイヤー_1-2" data-name="レイヤー 1"><g id="グループ_145" data-name="グループ 145"><rect id="長方形_30" data-name="長方形 30" class="cls-1" width="59" height="32" rx="6"/><g id="プラン_に入れる" data-name="プラン に入れる" class="cls-2"><g class="cls-2"><path class="cls-3" d="M22,7.85a.86.86,0,0,1,0-.16,1.15,1.15,0,1,1,1.15,1.16,1.13,1.13,0,0,1-.32,0,1.42,1.42,0,0,0-.06.21,8.68,8.68,0,0,1-2.49,4.39,9.68,9.68,0,0,1-3.18,2,2.92,2.92,0,0,0-.72-1,8.07,8.07,0,0,0,2.22-1,7.19,7.19,0,0,0,3.08-4.52H16.92a8.94,8.94,0,0,0-1.33.07V7.77a7.88,7.88,0,0,0,1.35.08Zm.47-.16A.67.67,0,1,0,23.16,7,.68.68,0,0,0,22.49,7.69Z"/><path class="cls-3" d="M24.92,9.66a10.49,10.49,0,0,0,1.38.07h4.78A3,3,0,0,0,32,9.65l.49.56a3.56,3.56,0,0,0-.27.63,7,7,0,0,1-2.37,3.36,9,9,0,0,1-2.53,1.27,3,3,0,0,0-.64-1,6.21,6.21,0,0,0,2.83-1.37,5.37,5.37,0,0,0,1.64-2.48H26.28a10.37,10.37,0,0,0-1.36,0Zm.85-2.37A6.74,6.74,0,0,0,27,7.36h3.17a7.81,7.81,0,0,0,1.26-.07v1a10.73,10.73,0,0,0-1.25-.05H27a12.35,12.35,0,0,0-1.24.05Z"/><path class="cls-3" d="M33.81,13.93a9,9,0,0,0,2.94-.75,6.87,6.87,0,0,0,3-2.43,8.76,8.76,0,0,0,1.05-2,3.38,3.38,0,0,0,.87.82,8.68,8.68,0,0,1-3.12,3.88,10.35,10.35,0,0,1-3.78,1.5,4.22,4.22,0,0,0-.63.16Zm.76-6.2a13.66,13.66,0,0,1,2.52,1.91l-.72.89a10.89,10.89,0,0,0-2.49-2Z"/></g><g class="cls-2"><path class="cls-3" d="M12.68,18.2a10.89,10.89,0,0,0-.55,2.44,23.87,23.87,0,0,0-.19,2.73v.9h0a6.55,6.55,0,0,1,.54-1.54l.69.31A8.21,8.21,0,0,0,12.33,26a2.13,2.13,0,0,0,0,.22l-1,.07a4.24,4.24,0,0,0-.05-.44A16.29,16.29,0,0,1,11,22.85a17.69,17.69,0,0,1,.43-3.9,6.66,6.66,0,0,0,.14-.89Zm2.63,4.13a2.3,2.3,0,0,0-.72,1.46c0,.62.59.95,1.72.95a6.7,6.7,0,0,0,2.35-.37l.09,1.07-.38.06a11.78,11.78,0,0,1-2.06.19,2.85,2.85,0,0,1-2.4-.82,1.61,1.61,0,0,1-.31-1,3.15,3.15,0,0,1,.9-2Zm-1.5-3.17a6.86,6.86,0,0,0,1.7.16,10.52,10.52,0,0,0,2.8-.28l.05,1-.7.08a17.36,17.36,0,0,1-2.12.13,10.6,10.6,0,0,1-1.46-.08l-.28,0Z"/><path class="cls-3" d="M22.5,19.05c-.24,0-.51,0-.87.05v-1a4.87,4.87,0,0,0,.86,0H24a5.29,5.29,0,0,0,.92,0c0,.23,0,.43,0,.63a7.65,7.65,0,0,0,1,3.77,8.39,8.39,0,0,0,1.56,2A7.4,7.4,0,0,0,29,25.71a3.4,3.4,0,0,0-.72.94,10,10,0,0,1-2.61-2.59,8.27,8.27,0,0,1-1.29-2.86A8.42,8.42,0,0,1,23,24.31a9.81,9.81,0,0,1-2.53,2.36,2.45,2.45,0,0,0-.71-.86,7.89,7.89,0,0,0,2.13-1.73,7.57,7.57,0,0,0,1.65-2.93,8.1,8.1,0,0,0,.33-2.1Z"/><path class="cls-3" d="M29.73,23.9a5.1,5.1,0,0,0,.64-.54c.92-.93.92-.93,1.13-1.16,0-.11,0-.66.05-1.66a13.46,13.46,0,0,0-1.55.14L30,19.73h.36c.18,0,.85,0,1.27-.06,0-.15,0-.15,0-.41s0-.65,0-1a4.22,4.22,0,0,0,0-.43l1.07,0c0,.24-.08.78-.12,1.7a.37.37,0,0,0,.16-.05l.33.38a2.73,2.73,0,0,0-.54.63,1,1,0,0,1,0,.19l0,.75a9.11,9.11,0,0,1,1.26-1.11,3.75,3.75,0,0,1,2.18-1,1.21,1.21,0,0,1,1.29,1.24,11.19,11.19,0,0,1-.47,2.53,7.09,7.09,0,0,0-.2,1.3c0,.37.18.58.49.58a1.07,1.07,0,0,0,.76-.53,4.65,4.65,0,0,0,.58-1.13,3.65,3.65,0,0,0,.57,1,5.26,5.26,0,0,1-.65,1,1.9,1.9,0,0,1-1.43.72,1.43,1.43,0,0,1-.81-.24,1.33,1.33,0,0,1-.51-1.2,10.24,10.24,0,0,1,.42-2.5,7.34,7.34,0,0,0,.21-1.3.41.41,0,0,0-.47-.45,2.54,2.54,0,0,0-1.34.6,13.44,13.44,0,0,0-1.87,1.66c0,.44,0,.73,0,1,0,1.39,0,2.53.06,2.84H31.41A16.34,16.34,0,0,0,31.48,24a4,4,0,0,1,0-.61,8.51,8.51,0,0,1-.79.91,5,5,0,0,0-.48.59Z"/><path class="cls-3" d="M40.78,18.36a5.9,5.9,0,0,0,1.06.06c.91,0,2.09-.05,3.07-.13a1.1,1.1,0,0,0,.56-.12l.54.75a2.14,2.14,0,0,0-.51.41A21.44,21.44,0,0,1,42.33,22l0,0a4.9,4.9,0,0,1,2.25-.53c1.68,0,2.77.86,2.77,2.19A2.38,2.38,0,0,1,46,25.8a4.83,4.83,0,0,1-2.35.55,3.37,3.37,0,0,1-1.85-.42,1.36,1.36,0,0,1-.6-1.13,1.45,1.45,0,0,1,1.61-1.32,2.09,2.09,0,0,1,1.7.83,2.81,2.81,0,0,1,.46.92,2.5,2.5,0,0,0,.75-.36,1.46,1.46,0,0,0,.61-1.19c0-.88-.78-1.41-2-1.41A6.31,6.31,0,0,0,40.15,24l-.58-.89a28.46,28.46,0,0,0,4.55-3.74l.17-.17h0c-.36.05-1.43.12-3,.18a3.85,3.85,0,0,0-.5.05Zm2.06,5.92c-.41,0-.67.2-.67.52s.51.71,1.35.71a3.31,3.31,0,0,0,.57,0C43.89,24.68,43.47,24.28,42.84,24.28Z"/></g></g></g></g></g></svg>