<svg xmlns="http://www.w3.org/2000/svg" viewBox="0 0 59 32"><defs><style>.cls-1{fill:#de7274;}.cls-2{fill:#fff;}</style></defs><g id="レイヤー_2" data-name="レイヤー 2"><g id="レイヤー_1-2" data-name="レイヤー 1"><g id="グループ_145" data-name="グループ 145"><rect id="長方形_30" data-name="長方形 30" class="cls-1" width="59" height="32" rx="6"/></g><path class="cls-2" d="M20.55,15H19.3a.53.53,0,0,1-.34-.1.63.63,0,0,1-.2-.26l-.65-1.77H14.52l-.65,1.77a.54.54,0,0,1-.19.25.48.48,0,0,1-.34.11H12.08L15.5,6.3h1.64ZM17.7,11.7,16.64,8.81c-.05-.13-.1-.28-.16-.45s-.11-.37-.17-.57c0,.2-.1.39-.16.57s-.11.33-.16.46L14.94,11.7Z"/><path class="cls-2" d="M26.56,6.06V15h-.91a.35.35,0,0,1-.37-.27l-.12-.59a3.35,3.35,0,0,1-.86.69,2.26,2.26,0,0,1-1.12.26,2,2,0,0,1-1.65-.81,3,3,0,0,1-.47-1,5,5,0,0,1-.16-1.35,4.33,4.33,0,0,1,.18-1.27,3.11,3.11,0,0,1,.54-1A2.43,2.43,0,0,1,22.45,9a2.3,2.3,0,0,1,1.09-.25,2.19,2.19,0,0,1,1.54.6V6.06Zm-1.48,4.33a1.45,1.45,0,0,0-.55-.43,1.53,1.53,0,0,0-.64-.13,1.36,1.36,0,0,0-.61.13,1.19,1.19,0,0,0-.46.38,1.78,1.78,0,0,0-.29.65,3.6,3.6,0,0,0-.1.92,4.09,4.09,0,0,0,.08.92,1.81,1.81,0,0,0,.25.61.93.93,0,0,0,.4.34,1.24,1.24,0,0,0,.52.11,1.62,1.62,0,0,0,.79-.19,2.38,2.38,0,0,0,.61-.55Z"/><path class="cls-2" d="M33.37,6.06V15h-.91a.35.35,0,0,1-.37-.27L32,14.11a3.35,3.35,0,0,1-.86.69,2.26,2.26,0,0,1-1.12.26,2,2,0,0,1-1.65-.81,3,3,0,0,1-.47-1,5,5,0,0,1-.16-1.35,4.33,4.33,0,0,1,.18-1.27,3.11,3.11,0,0,1,.54-1A2.43,2.43,0,0,1,29.26,9a2.3,2.3,0,0,1,1.09-.25,2.19,2.19,0,0,1,1.54.6V6.06Zm-1.48,4.33a1.45,1.45,0,0,0-.55-.43,1.53,1.53,0,0,0-.64-.13,1.36,1.36,0,0,0-.61.13,1.19,1.19,0,0,0-.46.38,1.78,1.78,0,0,0-.29.65,3.6,3.6,0,0,0-.1.92,4.09,4.09,0,0,0,.08.92,1.81,1.81,0,0,0,.25.61.93.93,0,0,0,.4.34,1.24,1.24,0,0,0,.52.11,1.62,1.62,0,0,0,.79-.19,2.38,2.38,0,0,0,.61-.55Z"/><path class="cls-2" d="M39.8,15.07a1.62,1.62,0,0,1-1.23-.45,1.74,1.74,0,0,1-.43-1.25V9.93h-.63a.28.28,0,0,1-.2-.08.29.29,0,0,1-.09-.23V9l1-.16.31-1.68A.31.31,0,0,1,38.64,7a.35.35,0,0,1,.21-.07h.77V8.87h1.65V9.93H39.62v3.33a.65.65,0,0,0,.14.45.51.51,0,0,0,.39.17.73.73,0,0,0,.23,0,.59.59,0,0,0,.16-.07l.13-.06a.14.14,0,0,1,.1,0,.14.14,0,0,1,.11,0l.09.09.45.72a2.28,2.28,0,0,1-.75.41A2.83,2.83,0,0,1,39.8,15.07Z"/><path class="cls-2" d="M44.94,8.72a3.51,3.51,0,0,1,1.24.22,2.67,2.67,0,0,1,1,.63,2.91,2.91,0,0,1,.62,1,4.22,4.22,0,0,1,0,2.63,2.87,2.87,0,0,1-.62,1,2.67,2.67,0,0,1-1,.63,3.3,3.3,0,0,1-1.24.22,3.4,3.4,0,0,1-1.26-.22A2.68,2.68,0,0,1,42.1,13.2a4,4,0,0,1,0-2.63,2.91,2.91,0,0,1,.62-1,2.86,2.86,0,0,1,1-.63A3.62,3.62,0,0,1,44.94,8.72Zm0,5.2a1.29,1.29,0,0,0,1.13-.51,2.57,2.57,0,0,0,.37-1.51,2.58,2.58,0,0,0-.37-1.52,1.27,1.27,0,0,0-1.13-.52,1.33,1.33,0,0,0-1.16.52,2.61,2.61,0,0,0-.37,1.52,2.52,2.52,0,0,0,.37,1.5A1.33,1.33,0,0,0,44.94,13.92Z"/><path class="cls-2" d="M22.41,17.3a5.16,5.16,0,0,1,1.51.2,3.1,3.1,0,0,1,1,.57,2.22,2.22,0,0,1,.61.88,2.89,2.89,0,0,1,.21,1.11,3.11,3.11,0,0,1-.21,1.16,2.37,2.37,0,0,1-.63.9,3,3,0,0,1-1.06.59,4.68,4.68,0,0,1-1.48.21h-1.2v3H19.59V17.3Zm0,4.36a2.57,2.57,0,0,0,.78-.11,1.56,1.56,0,0,0,.55-.32,1.38,1.38,0,0,0,.32-.5,1.78,1.78,0,0,0,.11-.67,1.61,1.61,0,0,0-.11-.63,1.39,1.39,0,0,0-.32-.48,1.45,1.45,0,0,0-.55-.3,2.59,2.59,0,0,0-.78-.1h-1.2v3.11Z"/><path class="cls-2" d="M28.29,17.06V26H26.81V17.06Z"/><path class="cls-2" d="M29.62,20.68a3.67,3.67,0,0,1,2.56-1,2.5,2.5,0,0,1,1,.18,2.14,2.14,0,0,1,.72.49,2.11,2.11,0,0,1,.44.76,2.69,2.69,0,0,1,.16,1V26h-.68a.73.73,0,0,1-.32-.06.45.45,0,0,1-.18-.25l-.13-.45c-.16.14-.31.26-.46.37a2.13,2.13,0,0,1-.46.27,2.76,2.76,0,0,1-.51.16,2.8,2.8,0,0,1-.61.06,2.3,2.3,0,0,1-.71-.11,1.71,1.71,0,0,1-.58-.31,1.53,1.53,0,0,1-.37-.52,2,2,0,0,1-.13-.73,1.48,1.48,0,0,1,.08-.46,1.39,1.39,0,0,1,.25-.44,2.28,2.28,0,0,1,.46-.4,3.05,3.05,0,0,1,.7-.32,5.3,5.3,0,0,1,.95-.23,9,9,0,0,1,1.25-.1v-.36a1.38,1.38,0,0,0-.26-.92,1,1,0,0,0-.76-.3,1.69,1.69,0,0,0-.6.09,2,2,0,0,0-.42.19l-.33.19a.66.66,0,0,1-.32.08.48.48,0,0,1-.27-.08.75.75,0,0,1-.17-.19ZM33,23.35a7.22,7.22,0,0,0-1.08.11,3,3,0,0,0-.7.2,1,1,0,0,0-.38.3.66.66,0,0,0-.11.36.63.63,0,0,0,.23.56,1,1,0,0,0,.6.17,1.62,1.62,0,0,0,.79-.17,2.23,2.23,0,0,0,.65-.5Z"/><path class="cls-2" d="M37.25,20.57a3.17,3.17,0,0,1,.39-.34,2,2,0,0,1,.44-.27,2.6,2.6,0,0,1,.49-.18,2.65,2.65,0,0,1,.58-.06,2.28,2.28,0,0,1,.89.17,1.87,1.87,0,0,1,.65.48,2,2,0,0,1,.4.74,3.16,3.16,0,0,1,.13.95V26H39.74V22.06a1.36,1.36,0,0,0-.26-.88,1,1,0,0,0-.78-.31,1.48,1.48,0,0,0-.72.18,2.34,2.34,0,0,0-.64.47V26H35.86V19.82h.91a.36.36,0,0,1,.37.27Z"/></g></g></svg>