<?xml version="1.0" encoding="UTF-8"?>
<svg id="_レイヤー_2" data-name="レイヤー 2" xmlns="http://www.w3.org/2000/svg" viewBox="0 0 43 20">
  <defs>
    <style>
      .cls-1 {
        fill: #fff;
      }

      .cls-2 {
        fill: #8c8c8c;
      }
    </style>
  </defs>
  <g id="_レイヤー_2-2" data-name="レイヤー 2">
    <rect class="cls-2" y="0" width="43" height="20" rx="10" ry="10"/>
    <g>
      <path class="cls-1" d="m20.54,11.94h-2.29c.7,1.39,1.65,1.93,2.96,2.35-.26.24-.54.62-.66.96-1.33-.52-2.33-1.17-3.07-2.6-.47,1.03-1.44,1.98-3.38,2.61-.11-.24-.43-.67-.62-.86,2.03-.64,2.84-1.51,3.18-2.46h-2.36v-3.23h2.55v-.97h-1.7v-.6c-.34.23-.67.43-1.02.61-.06-.13-.14-.3-.24-.47v.29h-1.22v.77c.34.43,1.24,1.76,1.43,2.08l-.61.89c-.16-.38-.5-1.03-.82-1.61v5.49h-1.06v-5.17c-.37,1.16-.84,2.24-1.33,2.94-.12-.3-.37-.74-.55-1,.73-1.01,1.44-2.82,1.8-4.39h-1.54v-1.06h1.62v-2.55l1.33.07c-.01.1-.1.17-.28.19v2.29h1.22v.17c1.22-.66,2.39-1.74,2.96-2.71.08.01.18.01,1.33.05-.02.08-.11.14-.2.17.76,1.02,2.11,2.04,3.32,2.55-.22.26-.46.68-.6,1-.34-.17-.68-.37-1.02-.61v.61h-1.8v.97h2.66v3.23Zm-5.25-.89h1.54c.02-.18.02-.36.02-.54v-.91h-1.56v1.45Zm3.92-4.26c-.72-.55-1.39-1.2-1.83-1.82-.41.6-1.04,1.26-1.76,1.82h3.6Zm.3,2.81h-1.63v.94c0,.17,0,.35-.01.52h1.64v-1.45Z"/>
      <path class="cls-1" d="m26,13.05c-.06.08-.18.11-.3.08-.77.7-1.94,1.46-2.96,1.94-.2-.22-.58-.58-.83-.76,1.02-.42,2.17-1.12,2.87-1.8l1.22.53Zm3.77-3.15c1.02.62,2.34,1.55,3,2.18l-.8.67c-.17-.17-.37-.36-.61-.56-1.12.04-2.27.08-3.37.11v2.93h-1.14v-2.89c-1.56.05-2.97.07-4.07.1-.02.11-.11.17-.2.18l-.41-1.2c.71,0,1.58,0,2.58-.01.26-.14.54-.31.82-.48-.6-.46-1.44-.98-2.16-1.35l.74-.64c.18.08.37.19.58.3.46-.36.97-.82,1.37-1.22h-2.76v1.46h-1.08v-2.43h4.59v-1.06h-4.55v-1h4.55v-1.02l1.4.08c-.01.1-.1.17-.28.19v.74h4.59v1h-4.59v1.06h4.71v2.43h-1.13v-1.46h-4.38l.43.23c-.05.07-.16.1-.31.08-.46.42-1.13.97-1.74,1.39.35.2.67.42.94.61.96-.64,1.9-1.33,2.57-1.93l1.13.66c-.05.07-.17.1-.32.1-.89.68-2.16,1.54-3.36,2.24,1.2-.01,2.48-.04,3.74-.05-.41-.3-.84-.6-1.24-.84l.76-.6Zm.05,2.62c1,.5,2.33,1.31,3.02,1.88-.41.3-.68.48-.95.66-.61-.58-1.92-1.42-2.95-1.97l.88-.58Z"/>
    </g>
  </g>
</svg>