<svg xmlns="http://www.w3.org/2000/svg" viewBox="0 0 88 23"><defs><style>.cls-1{fill:#f6c57d;}.cls-2{isolation:isolate;}.cls-3{fill:#fff;}.cls-4{fill:#6cc;}</style></defs><g id="レイヤー_2" data-name="レイヤー 2"><g id="レイヤー_1-2" data-name="レイヤー 1"><rect class="cls-1" width="88" height="23" rx="11.5"/><g id="グループ_149" data-name="グループ 149"><g id="Plan" class="cls-2"><g class="cls-2"><path class="cls-3" d="M44.35,6.45a4.14,4.14,0,0,1,2.84.81,2.86,2.86,0,0,1,.89,2.24,3.49,3.49,0,0,1-.37,1.6,2.74,2.74,0,0,1-1.22,1.21,5.07,5.07,0,0,1-2.33.46h-1v3.68H41.37v-10Zm-.11,1.49H43.16v3.34H44a3,3,0,0,0,1.69-.4,1.44,1.44,0,0,0,.6-1.3,1.53,1.53,0,0,0-.49-1.24A2.39,2.39,0,0,0,44.24,7.94Z"/><path class="cls-3" d="M51.63,16.45H49.87V5.81h1.76Z"/><path class="cls-3" d="M56.91,8.72a3.37,3.37,0,0,1,2.23.65,2.43,2.43,0,0,1,.77,2v5.1H58.66l-.35-1h-.06a2.78,2.78,0,0,1-2.52,1.19A2.52,2.52,0,0,1,54,16a2.22,2.22,0,0,1-.67-1.78,2,2,0,0,1,.86-1.77,5,5,0,0,1,2.61-.65l1.32-.05V11.4a1.33,1.33,0,0,0-.35-1,1.42,1.42,0,0,0-1-.31,4,4,0,0,0-1.1.16,9,9,0,0,0-1,.4l-.56-1.23a5.58,5.58,0,0,1,1.29-.48A6.16,6.16,0,0,1,56.91,8.72Zm1.25,4.15-.93,0a2.86,2.86,0,0,0-1.61.4,1.17,1.17,0,0,0-.45,1,.91.91,0,0,0,.32.78,1.41,1.41,0,0,0,.83.23,2,2,0,0,0,1.3-.44,1.6,1.6,0,0,0,.54-1.31Z"/><path class="cls-3" d="M66.18,8.72a2.83,2.83,0,0,1,2,.66,2.77,2.77,0,0,1,.72,2.13v4.94H67.13V11.86a2,2,0,0,0-.34-1.28,1.24,1.24,0,0,0-1.06-.43,1.55,1.55,0,0,0-1.46.67,3.88,3.88,0,0,0-.39,1.92v3.71H62.12V8.86h1.36l.25,1h.1a2.12,2.12,0,0,1,1-.87A3.39,3.39,0,0,1,66.18,8.72Z"/></g></g><g id="keiro"><path id="パス_87" data-name="パス 87" class="cls-4" d="M15.7,15a39,39,0,0,0,2.62-3.64A2.85,2.85,0,0,0,17.76,8a2.91,2.91,0,0,0-4.12,0,2.84,2.84,0,0,0-.55,3.35A38.9,38.9,0,0,0,15.7,15Zm0-6.7a1.77,1.77,0,0,1,0,3.54A1.79,1.79,0,0,1,13.93,10h0A1.78,1.78,0,0,1,15.7,8.25Z"/><path id="パス_88" data-name="パス 88" class="cls-3" d="M33.13,11.28a40.78,40.78,0,0,0,2.62-3.63,2.84,2.84,0,0,0-.56-3.35,2.91,2.91,0,0,0-4.12,0,2.84,2.84,0,0,0-.55,3.35A38.76,38.76,0,0,0,33.13,11.28Zm0-6.7a1.77,1.77,0,1,1-1.77,1.78h0a1.78,1.78,0,0,1,1.77-1.76Z"/><path id="パス_89" data-name="パス 89" class="cls-3" d="M15.89,18.41a.76.76,0,0,1-.2-1.5l2.45-.65a.75.75,0,0,1,.92.55.76.76,0,0,1-.53.92l-2.45.65A.58.58,0,0,1,15.89,18.41Zm4.9-1.31a.76.76,0,0,1-.2-1.5L23,14.94a.76.76,0,0,1,.39,1.47L21,17.07a.63.63,0,0,1-.19,0Zm4.9-1.31a.76.76,0,0,1-.2-1.5l2.45-.66a.76.76,0,0,1,.39,1.47l-2.45.66a.63.63,0,0,1-.19,0Zm4.9-1.32a.76.76,0,0,1-.78-.74.77.77,0,0,1,.58-.76l2.45-.65a.76.76,0,0,1,.39,1.47l-2.45.65a.63.63,0,0,1-.19,0Z"/></g></g></g></g></svg>