<svg xmlns="http://www.w3.org/2000/svg" viewBox="0 0 88 23"><defs><style>.cls-1{fill:#abd9d9;}.cls-2{isolation:isolate;}.cls-3{fill:#fff;}.cls-4{fill:#6cc;}</style></defs><g id="レイヤー_2" data-name="レイヤー 2"><g id="レイヤー_1-2" data-name="レイヤー 1"><rect class="cls-1" width="88" height="23" rx="11.5"/><g id="グループ_150" data-name="グループ 150"><g id="Spot" class="cls-2"><g class="cls-2"><path class="cls-3" d="M41.18,12.72a2.52,2.52,0,0,1-1,2.1,4.18,4.18,0,0,1-2.67.77,6.41,6.41,0,0,1-2.8-.56V13.35a10.66,10.66,0,0,0,1.39.51,5.42,5.42,0,0,0,1.54.23A2,2,0,0,0,39,13.73a1.12,1.12,0,0,0,.41-.91,1.14,1.14,0,0,0-.53-1,8,8,0,0,0-1.55-.8,7.15,7.15,0,0,1-1.19-.63,3.06,3.06,0,0,1-.92-.94A2.58,2.58,0,0,1,34.85,8a2.42,2.42,0,0,1,.91-2,3.74,3.74,0,0,1,2.41-.73,6.54,6.54,0,0,1,1.49.17A7.15,7.15,0,0,1,41.05,6L40.48,7.4A8.65,8.65,0,0,0,39.28,7a4.47,4.47,0,0,0-1.17-.15,1.62,1.62,0,0,0-1.1.32,1.07,1.07,0,0,0-.38.85,1.13,1.13,0,0,0,.21.69,1.88,1.88,0,0,0,.65.53c.3.16.68.34,1.14.55A8,8,0,0,1,40,10.5a2.78,2.78,0,0,1,.87.91A2.62,2.62,0,0,1,41.18,12.72Z"/><path class="cls-3" d="M46.89,7.72a2.66,2.66,0,0,1,2.15,1,4.53,4.53,0,0,1,.81,2.93A4.49,4.49,0,0,1,49,14.59a2.66,2.66,0,0,1-2.16,1,2.61,2.61,0,0,1-1.36-.31,2.74,2.74,0,0,1-.82-.71h-.12c0,.17.06.37.08.57s0,.4,0,.59v3.08H42.9V7.86h1.43l.25,1h.09a2.71,2.71,0,0,1,.84-.81A2.43,2.43,0,0,1,46.89,7.72Zm-.5,1.43a1.48,1.48,0,0,0-1.32.56,3,3,0,0,0-.4,1.69v.23A3.82,3.82,0,0,0,45,13.5a1.46,1.46,0,0,0,1.38.65,1.32,1.32,0,0,0,1.22-.68,3.62,3.62,0,0,0,.4-1.86,3.44,3.44,0,0,0-.4-1.82A1.35,1.35,0,0,0,46.39,9.15Z"/><path class="cls-3" d="M58.44,11.64a4,4,0,0,1-1,2.92,3.48,3.48,0,0,1-2.66,1A3.62,3.62,0,0,1,53,15.13a3.21,3.21,0,0,1-1.28-1.35,4.51,4.51,0,0,1-.46-2.14,4,4,0,0,1,1-2.9,3.49,3.49,0,0,1,2.65-1,3.7,3.7,0,0,1,1.87.46A3.14,3.14,0,0,1,58,9.51,4.47,4.47,0,0,1,58.44,11.64Zm-5.41,0a3.46,3.46,0,0,0,.42,1.86,1.53,1.53,0,0,0,1.38.66,1.52,1.52,0,0,0,1.37-.66,3.36,3.36,0,0,0,.44-1.86,3.3,3.3,0,0,0-.44-1.85,1.54,1.54,0,0,0-1.38-.64,1.49,1.49,0,0,0-1.37.64A3.4,3.4,0,0,0,53,11.64Z"/><path class="cls-3" d="M63.2,14.17a3.39,3.39,0,0,0,.64-.06,4.45,4.45,0,0,0,.58-.15v1.32a2.43,2.43,0,0,1-.73.22,4.76,4.76,0,0,1-.94.09,3.18,3.18,0,0,1-1.18-.21,1.65,1.65,0,0,1-.83-.74,3,3,0,0,1-.31-1.5v-4h-1V8.42l1.12-.61.56-1.61h1.1V7.86h2.16V9.19H62.19v3.93a.94.94,0,0,0,1,1.05Z"/></g></g><g id="keiro"><path id="パス_87" data-name="パス 87" class="cls-4" d="M23.57,20a86.19,86.19,0,0,0,5.78-8,6.28,6.28,0,0,0-1.22-7.41,6.45,6.45,0,0,0-9.12,0,6.28,6.28,0,0,0-1.22,7.41A86.19,86.19,0,0,0,23.57,20Zm0-14.82a3.92,3.92,0,1,1-3.92,3.92h0A3.92,3.92,0,0,1,23.57,5.13Z"/></g></g></g></g></svg>