<svg xmlns="http://www.w3.org/2000/svg" viewBox="0 0 96 23"><defs><style>.cls-1{fill:#abd9d9;}.cls-2{isolation:isolate;}.cls-3{fill:#fff;}.cls-4{fill:#6cc;}</style></defs><g id="レイヤー_2" data-name="レイヤー 2"><g id="レイヤー_1-2" data-name="レイヤー 1"><g id="グループ_150" data-name="グループ 150"><rect id="長方形_64" data-name="長方形 64" class="cls-1" width="96" height="23" rx="11"/><g id="Spot" class="cls-2"><g class="cls-2"><path class="cls-3" d="M45.11,14.27a2.54,2.54,0,0,1-1,2.1,4.23,4.23,0,0,1-2.68.77,6.41,6.41,0,0,1-2.8-.56V14.9a11.22,11.22,0,0,0,1.39.51,5.09,5.09,0,0,0,1.54.23,2,2,0,0,0,1.32-.35,1.21,1.21,0,0,0-.12-1.91,8.62,8.62,0,0,0-1.55-.8A7.15,7.15,0,0,1,40.06,12a3.06,3.06,0,0,1-.92-.94,2.58,2.58,0,0,1-.36-1.42,2.43,2.43,0,0,1,.91-2,3.74,3.74,0,0,1,2.41-.73A6.54,6.54,0,0,1,43.59,7a7.48,7.48,0,0,1,1.4.48L44.41,9a8.65,8.65,0,0,0-1.2-.42,4.45,4.45,0,0,0-1.16-.15,1.63,1.63,0,0,0-1.11.32,1.07,1.07,0,0,0-.38.85,1.18,1.18,0,0,0,.21.7,2,2,0,0,0,.65.52c.3.16.68.34,1.14.55a8,8,0,0,1,1.38.73,2.78,2.78,0,0,1,.87.91A2.62,2.62,0,0,1,45.11,14.27Z"/><path class="cls-3" d="M50.82,9.27a2.66,2.66,0,0,1,2.15,1,4.53,4.53,0,0,1,.81,2.93,4.49,4.49,0,0,1-.84,3,2.66,2.66,0,0,1-2.16,1,2.61,2.61,0,0,1-1.36-.31,2.74,2.74,0,0,1-.82-.71h-.11c0,.17,0,.37.07.57a4.08,4.08,0,0,1,0,.59v3.08H46.83V9.41h1.43l.25,1h.09a2.71,2.71,0,0,1,.84-.81A2.45,2.45,0,0,1,50.82,9.27Zm-.5,1.43a1.48,1.48,0,0,0-1.32.56A3,3,0,0,0,48.6,13v.23A3.82,3.82,0,0,0,49,15.05a1.46,1.46,0,0,0,1.38.65A1.32,1.32,0,0,0,51.57,15a3.62,3.62,0,0,0,.4-1.86,3.44,3.44,0,0,0-.4-1.82A1.35,1.35,0,0,0,50.32,10.7Z"/><path class="cls-3" d="M62.37,13.19a4,4,0,0,1-1,2.92,3.48,3.48,0,0,1-2.66,1,3.62,3.62,0,0,1-1.84-.46,3.21,3.21,0,0,1-1.28-1.35,4.51,4.51,0,0,1-.46-2.14,4,4,0,0,1,1-2.9,3.51,3.51,0,0,1,2.66-1,3.67,3.67,0,0,1,1.86.46,3.14,3.14,0,0,1,1.27,1.33A4.47,4.47,0,0,1,62.37,13.19Zm-5.41,0a3.42,3.42,0,0,0,.42,1.86,1.53,1.53,0,0,0,1.38.66,1.52,1.52,0,0,0,1.37-.66,3.32,3.32,0,0,0,.44-1.86,3.3,3.3,0,0,0-.44-1.85,1.54,1.54,0,0,0-1.38-.64,1.5,1.5,0,0,0-1.37.64A3.4,3.4,0,0,0,57,13.19Z"/><path class="cls-3" d="M67.13,15.73a2.73,2.73,0,0,0,.64-.07c.21,0,.4-.09.58-.14v1.31a2.73,2.73,0,0,1-.73.23,5.64,5.64,0,0,1-.93.08,3.19,3.19,0,0,1-1.19-.21,1.7,1.7,0,0,1-.83-.74,3,3,0,0,1-.31-1.5V10.74h-1V10l1.12-.61L65,7.75h1.11V9.41h2.15v1.33H66.13v3.94a1,1,0,0,0,.28.79A1,1,0,0,0,67.13,15.73Z"/></g></g><g id="keiro"><path id="パス_87" data-name="パス 87" class="cls-4" d="M27.5,21.5a86.19,86.19,0,0,0,5.78-8A6.28,6.28,0,0,0,32.06,6a6.45,6.45,0,0,0-9.12,0,6.28,6.28,0,0,0-1.22,7.41A86.19,86.19,0,0,0,27.5,21.5Zm0-14.82a3.92,3.92,0,1,1-3.92,3.92h0A3.92,3.92,0,0,1,27.5,6.68Z"/></g></g></g></g></svg>