<svg xmlns="http://www.w3.org/2000/svg" viewBox="0 0 96 23"><defs><style>.cls-1{fill:#f6c57d;}.cls-2{isolation:isolate;}.cls-3{fill:#fff;}.cls-4{fill:#6cc;}</style></defs><g id="レイヤー_2" data-name="レイヤー 2"><g id="レイヤー_1-2" data-name="レイヤー 1"><g id="グループ_149" data-name="グループ 149"><rect id="長方形_65" data-name="長方形 65" class="cls-1" width="96" height="23" rx="11"/><g id="Plan" class="cls-2"><g class="cls-2"><path class="cls-3" d="M48.28,7a4.14,4.14,0,0,1,2.84.81A2.89,2.89,0,0,1,52,10.06a3.47,3.47,0,0,1-.37,1.59,2.74,2.74,0,0,1-1.22,1.21,5,5,0,0,1-2.33.46h-1V17H45.3V7Zm-.11,1.49H47.09v3.34h.82a3,3,0,0,0,1.68-.4,1.44,1.44,0,0,0,.6-1.3,1.55,1.55,0,0,0-.49-1.24A2.39,2.39,0,0,0,48.17,8.49Z"/><path class="cls-3" d="M55.56,17H53.8V6.36h1.76Z"/><path class="cls-3" d="M60.84,9.27a3.35,3.35,0,0,1,2.23.65,2.45,2.45,0,0,1,.77,2V17H62.59L62.24,16h-.05a3.41,3.41,0,0,1-1,.9,3.21,3.21,0,0,1-1.48.29,2.53,2.53,0,0,1-1.7-.57,2.22,2.22,0,0,1-.67-1.78A2,2,0,0,1,58.16,13a5,5,0,0,1,2.61-.65l1.32,0V12a1.34,1.34,0,0,0-.35-1,1.47,1.47,0,0,0-1-.31,4,4,0,0,0-1.1.16,8.24,8.24,0,0,0-1,.4l-.56-1.23a6,6,0,0,1,1.28-.48A6.16,6.16,0,0,1,60.84,9.27Zm1.25,4.15-.93,0a2.94,2.94,0,0,0-1.61.4,1.19,1.19,0,0,0-.44,1,.9.9,0,0,0,.31.78,1.41,1.41,0,0,0,.83.23,2,2,0,0,0,1.31-.44,1.61,1.61,0,0,0,.53-1.31Z"/><path class="cls-3" d="M70.11,9.27a2.83,2.83,0,0,1,2,.66,2.73,2.73,0,0,1,.73,2.13V17H71.06V12.41a2.06,2.06,0,0,0-.33-1.28,1.27,1.27,0,0,0-1.07-.43,1.52,1.52,0,0,0-1.45.67,3.76,3.76,0,0,0-.4,1.92V17H66.05V9.41h1.36l.25,1h.1a2.12,2.12,0,0,1,1-.87A3.39,3.39,0,0,1,70.11,9.27Z"/></g></g><g id="keiro"><path id="パス_87" data-name="パス 87" class="cls-4" d="M19.63,15.5a39,39,0,0,0,2.62-3.64,2.83,2.83,0,0,0-.56-3.35,2.91,2.91,0,0,0-4.12,0A2.86,2.86,0,0,0,17,11.86,40.83,40.83,0,0,0,19.63,15.5Zm0-6.7a1.77,1.77,0,1,1-1.76,1.77h0A1.76,1.76,0,0,1,19.63,8.8Z"/><path id="パス_88" data-name="パス 88" class="cls-3" d="M37.06,11.83A38.86,38.86,0,0,0,39.68,8.2a2.84,2.84,0,0,0-.56-3.35,2.91,2.91,0,0,0-4.12,0,2.84,2.84,0,0,0-.55,3.35A38.76,38.76,0,0,0,37.06,11.83Zm0-6.7a1.77,1.77,0,1,1-1.77,1.78h0a1.78,1.78,0,0,1,1.77-1.76Z"/><path id="パス_89" data-name="パス 89" class="cls-3" d="M19.82,19a.76.76,0,0,1-.2-1.5l2.45-.65a.76.76,0,0,1,.39,1.47L20,18.93A.58.58,0,0,1,19.82,19Zm4.9-1.31a.76.76,0,0,1-.2-1.5L27,15.49a.77.77,0,0,1,.91.58.76.76,0,0,1-.52.89l-2.45.66a.58.58,0,0,1-.19,0Zm4.9-1.31a.76.76,0,0,1-.2-1.5l2.45-.66a.76.76,0,0,1,.39,1.47l-2.45.66a.58.58,0,0,1-.19,0ZM34.52,15a.77.77,0,0,1-.78-.75.75.75,0,0,1,.58-.75l2.45-.66a.76.76,0,0,1,.39,1.47L34.71,15l-.19,0Z"/></g></g></g></g></svg>