<svg xmlns="http://www.w3.org/2000/svg" viewBox="0 0 80 80"><defs><style>.cls-1{fill:#ae9a65;}.cls-2{fill:#fff;}</style></defs><g id="レイヤー_2" data-name="レイヤー 2"><g id="出発_終了"><g id="add_newplan"><circle class="cls-1" cx="40" cy="40" r="40"/><g id="new"><path class="cls-2" d="M15.52,31.55h2.86l5.86,10.37,1.85,3.74h.12c-.15-1.82-.36-4-.36-5.88V31.55h2.64V49.22H25.63L19.77,38.8l-1.85-3.7h-.11c.14,1.83.36,3.87.36,5.79v8.33H15.52Z"/><path class="cls-2" d="M32.38,31.55H42.83v2.33H35.17V38.8h6.48v2.35H35.17v5.71h7.92v2.36H32.38Z"/><path class="cls-2" d="M45.2,31.55h2.88l1.66,9.19.93,5.67h.1c.38-1.9.79-3.79,1.2-5.67l2.28-9.19H56.7L59,40.74c.41,1.85.8,3.75,1.2,5.67h.12c.29-1.92.6-3.82.89-5.67l1.68-9.19h2.67L62.08,49.22H58.64L56.27,39.4c-.32-1.39-.58-2.71-.82-4.06h-.12c-.24,1.35-.53,2.67-.82,4.06l-2.32,9.82H48.82Z"/></g><g id="plus"><path class="cls-2" d="M76.67,10.67H69.33V3.33a3.33,3.33,0,1,0-6.66,0v7.34H55.33a3.33,3.33,0,1,0,0,6.66h7.34v7.34a3.33,3.33,0,1,0,6.66,0V17.33h7.34a3.33,3.33,0,0,0,0-6.66Z"/><path class="cls-1" d="M76.67,12.67H67.33V3.33a1.33,1.33,0,1,0-2.66,0v9.34H55.33a1.33,1.33,0,1,0,0,2.66h9.34v9.34a1.33,1.33,0,1,0,2.66,0V15.33h9.34a1.33,1.33,0,0,0,0-2.66Z"/></g></g></g></g></svg>