<svg xmlns="http://www.w3.org/2000/svg" viewBox="0 0 80 80"><defs><style>.cls-1{fill:#ae9a65;}.cls-2{fill:#fff;}</style></defs><g id="レイヤー_2" data-name="レイヤー 2"><g id="出発_終了"><g id="button_shear"><circle class="cls-1" cx="40" cy="40" r="40"/><g id="shear"><path class="cls-2" d="M51.18,37.76a8.88,8.88,0,1,0-8.88-8.88,9,9,0,0,0,.39,2.61l-9,5.43a7.91,7.91,0,1,0,.19,10.48L40.67,51a6.87,6.87,0,0,0-.32,2.09A7,7,0,1,0,42,48.55l-6.64-3.87a7.69,7.69,0,0,0,.37-2.41,7.84,7.84,0,0,0-.35-2.34l9.24-5A8.87,8.87,0,0,0,51.18,37.76ZM46.92,24.62A6,6,0,1,1,51.18,34.9a5.93,5.93,0,0,1-3.9-1.44h0l-.35-.32a6.05,6.05,0,0,1-1.67-3.2,6.23,6.23,0,0,1-.09-1.06A6,6,0,0,1,46.92,24.62ZM32.82,43.18a5,5,0,0,1-1.39,2.66l-.19.17a5,5,0,0,1-3.38,1.31,5.05,5.05,0,1,1,0-10.1,5,5,0,0,1,3.3,1.23,3.2,3.2,0,0,1,.27.25,5.09,5.09,0,0,1,1.39,2.64,4.73,4.73,0,0,1,.09.93A4.6,4.6,0,0,1,32.82,43.18Zm10.45,9.18a4,4,0,0,1,1.14-2.18l.16-.15a4.07,4.07,0,1,1-1.36,3A4.08,4.08,0,0,1,43.27,52.36Z"/></g></g></g></g></svg>