<svg xmlns="http://www.w3.org/2000/svg" viewBox="0 0 30 30"><defs><style>.cls-1{fill:#bfa060;}.cls-2{fill:#fff;}</style></defs><g id="レイヤー_2" data-name="レイヤー 2"><g id="spot01"><circle class="cls-1" cx="15" cy="15" r="15"/><path class="cls-2" d="M9.22,8.14A1,1,0,0,1,9,7.56a.87.87,0,0,1,.89-.83,1,1,0,0,1,.76.41l4.35,6,4.35-6a1,1,0,0,1,.76-.43.89.89,0,0,1,.89.85,1,1,0,0,1-.22.58l-4.49,5.8h4a.55.55,0,0,1,.54.59.54.54,0,0,1-.54.6H15.87v2.48h4.41a.55.55,0,0,1,.54.6.53.53,0,0,1-.54.59H15.87v3.74a.79.79,0,0,1-.87.75.79.79,0,0,1-.87-.75V18.8H9.72a.53.53,0,0,1-.54-.59.55.55,0,0,1,.54-.6h4.41V15.13H9.72a.54.54,0,0,1-.54-.6.55.55,0,0,1,.54-.59h4Z"/></g></g></svg>