<svg xmlns="http://www.w3.org/2000/svg" viewBox="0 0 30 30"><defs><style>.cls-1{fill:#e58e90;}.cls-2{fill:#fff;stroke:#fff;stroke-miterlimit:10;stroke-width:0.5px;}</style></defs><g id="レイヤー_2" data-name="レイヤー 2"><g id="spot_detail"><g id="spot_info"><g id="lunch"><circle class="cls-1" cx="15" cy="15" r="15"/><g id="sun"><path class="cls-2" d="M10.37,11.79a5.68,5.68,0,0,0-1.15,3.47,5.79,5.79,0,1,0,2.92-5,.33.33,0,0,0-.12.44.33.33,0,0,0,.45.13,5.12,5.12,0,1,1-1.58,1.39.33.33,0,0,0-.06-.46A.32.32,0,0,0,10.37,11.79Z"/><path class="cls-2" d="M15.06,5h0a.33.33,0,0,0-.33.33c0,1.36,0,1.39,0,1.41a.32.32,0,0,0,.32.3h0a.32.32,0,0,0,.3-.34c0-.08,0-.87,0-1.36A.33.33,0,0,0,15.06,5Z"/><path class="cls-2" d="M8.87,9.26,7.69,8.57a.33.33,0,0,0-.33.56l1.22.72a.35.35,0,0,0,.14,0A.31.31,0,0,0,9,9.69.33.33,0,0,0,8.87,9.26Z"/><path class="cls-2" d="M11.5,7.86a.33.33,0,0,0,.16-.05.33.33,0,0,0,.13-.43c0-.07-.37-.8-.57-1.24A.33.33,0,0,0,10.79,6a.32.32,0,0,0-.16.43l.58,1.29A.32.32,0,0,0,11.5,7.86Z"/><path class="cls-2" d="M22.43,8.57l-1.18.69a.33.33,0,0,0,.16.62.31.31,0,0,0,.13,0l1.22-.72a.33.33,0,0,0,.12-.45A.33.33,0,0,0,22.43,8.57Z"/><path class="cls-2" d="M18.63,7.86a.32.32,0,0,0,.28-.17s0,0,.59-1.29A.33.33,0,0,0,19.34,6a.34.34,0,0,0-.44.17l-.56,1.24a.32.32,0,0,0,.13.43A.3.3,0,0,0,18.63,7.86Z"/><path class="cls-2" d="M24.36,12.33l-1.4.19a.33.33,0,0,0,.07.65h.06L24.45,13a.32.32,0,0,0,.27-.37A.32.32,0,0,0,24.36,12.33Z"/><path class="cls-2" d="M24.43,17.16a.33.33,0,0,0,.07-.65l-1.34-.26a.34.34,0,0,0-.4.23.32.32,0,0,0,.23.4l1.38.27Z"/><path class="cls-2" d="M5.64,12.33a.32.32,0,0,0-.36.27.32.32,0,0,0,.27.37l1.36.19H7A.33.33,0,0,0,7,12.52Z"/><path class="cls-2" d="M5.63,17.15,7,16.88a.32.32,0,0,0,.23-.4.34.34,0,0,0-.4-.23l-1.34.26a.33.33,0,0,0,.07.65Z"/><path class="cls-2" d="M15.06,25h0a.33.33,0,0,0,.33-.33V23.26A.33.33,0,0,0,15,23a.32.32,0,0,0-.29.34v1.36A.32.32,0,0,0,15.06,25Z"/><path class="cls-2" d="M21.25,20.74l1.18.69a.34.34,0,0,0,.17.05.33.33,0,0,0,.28-.16.33.33,0,0,0-.12-.45l-1.22-.72a.33.33,0,0,0-.43.16A.33.33,0,0,0,21.25,20.74Z"/><path class="cls-2" d="M18.47,22.19a.32.32,0,0,0-.13.43l.56,1.24a.33.33,0,0,0,.44.17.33.33,0,0,0,.16-.43c-.56-1.25-.58-1.27-.59-1.29A.32.32,0,0,0,18.47,22.19Z"/><path class="cls-2" d="M7.53,21.48a.33.33,0,0,0,.16-.05l1.18-.69A.33.33,0,0,0,9,20.31a.33.33,0,0,0-.43-.16l-1.22.72a.32.32,0,0,0-.11.45A.33.33,0,0,0,7.53,21.48Z"/><path class="cls-2" d="M11.21,22.31l-.58,1.29a.32.32,0,0,0,.16.43.31.31,0,0,0,.13,0,.33.33,0,0,0,.3-.2c.2-.44.53-1.17.57-1.24a.33.33,0,0,0-.58-.31Z"/></g></g></g></g></g></svg>