<svg xmlns="http://www.w3.org/2000/svg" viewBox="0 0 30 30"><defs><style>.cls-1{fill:#abd9d9;}.cls-2{fill:#fff;stroke:#fff;stroke-miterlimit:10;stroke-width:0.5px;}</style></defs><g id="レイヤー_2" data-name="レイヤー 2"><g id="spot_detail"><g id="spot_info"><g id="dinner"><circle class="cls-1" cx="15" cy="15" r="15"/><g id="moon"><path class="cls-2" d="M15.27,25a9.48,9.48,0,0,0,8.88-6.24.4.4,0,0,0-.09-.42.39.39,0,0,0-.43-.1,8.62,8.62,0,0,1-11.4-8.17,8.55,8.55,0,0,1,.51-2.92.4.4,0,0,0-.09-.42.4.4,0,0,0-.42-.11,9.44,9.44,0,0,0,3,18.38ZM11.72,7.7a9.45,9.45,0,0,0,9.14,11.81,9.59,9.59,0,0,0,2.2-.26A8.62,8.62,0,1,1,11.72,7.7Z"/><path class="cls-2" d="M22.83,7.42a.41.41,0,0,0-.33-.28l-1.82-.26-.81-1.65A.41.41,0,0,0,19.5,5a.4.4,0,0,0-.36.23l-.82,1.65-1.82.26a.41.41,0,0,0-.33.28.43.43,0,0,0,.11.42l1.31,1.28-.31,1.81a.43.43,0,0,0,.16.4.42.42,0,0,0,.43,0l1.63-.85,1.63.85a.41.41,0,0,0,.19.05.43.43,0,0,0,.24-.08.41.41,0,0,0,.16-.4l-.31-1.81,1.32-1.28A.41.41,0,0,0,22.83,7.42ZM20.69,8.68a.42.42,0,0,0-.12.37l.21,1.2-1.09-.57a.41.41,0,0,0-.19,0,.43.43,0,0,0-.19,0l-1.08.57.2-1.2a.42.42,0,0,0-.11-.37l-.88-.85,1.21-.18A.42.42,0,0,0,19,7.43l.54-1.1L20,7.43a.42.42,0,0,0,.31.22l1.22.18Z"/></g></g></g></g></g></svg>