<svg xmlns="http://www.w3.org/2000/svg" width="43.73" height="26" viewBox="0 0 43.73 26">
  <g id="グループ_404" data-name="グループ 404" transform="translate(-1617.182 -552.646)">
    <path id="パス_1793" data-name="パス 1793" d="M1654.679,552.646h-32.41a2.451,2.451,0,0,0-2.326,1.691l-2.415,7.414a7.042,7.042,0,0,0-.346,2.215v10.55h7.379a4.406,4.406,0,0,0,8.794,0h11.886a4.4,4.4,0,0,0,8.792,0h6.879V558.879A6.236,6.236,0,0,0,1654.679,552.646Zm-23.851,21.87a1.9,1.9,0,0,1-3.75,0,2.023,2.023,0,0,1-.023-.278,1.646,1.646,0,0,1,.212-.834,1.873,1.873,0,0,1,3.383,0,1.767,1.767,0,0,1,.2.834A2.39,2.39,0,0,1,1630.828,574.516Zm20.69,0a1.9,1.9,0,0,1-3.75,0,2.417,2.417,0,0,1-.022-.278,1.767,1.767,0,0,1,.2-.834,1.873,1.873,0,0,1,3.383,0,1.646,1.646,0,0,1,.212.834A2.165,2.165,0,0,1,1651.518,574.516Zm8.282-1.112h-5.832a4.41,4.41,0,0,0-8.66,0h-12.02a4.41,4.41,0,0,0-8.66,0H1618.3v-9.438a6.393,6.393,0,0,1,.29-1.882l2.415-7.4a1.341,1.341,0,0,1,1.269-.923h32.41a5.132,5.132,0,0,1,5.121,5.12V573.4Z" fill="#fff"/>
    <path id="パス_1794" data-name="パス 1794" d="M1654.093,555.95h-3.414a.631.631,0,0,0-.631.631v5.383a.632.632,0,0,0,.631.631h5.817a.632.632,0,0,0,.631-.631v-2.98A3.038,3.038,0,0,0,1654.093,555.95Z" fill="#fff"/>
    <path id="パス_1795" data-name="パス 1795" d="M1625.106,555.95h-1.292a.632.632,0,0,0-.6.436l-2.053,6.321a3.886,3.886,0,0,0-.194,1.219v3.236a.631.631,0,0,0,.632.629h3.508a.631.631,0,0,0,.631-.629V556.581A.632.632,0,0,0,1625.106,555.95Z" fill="#fff"/>
    <path id="パス_1796" data-name="パス 1796" d="M1635.841,555.95h-7.264a.316.316,0,0,0-.314.317v6.012a.315.315,0,0,0,.314.316h7.264a.316.316,0,0,0,.317-.316v-6.012A.316.316,0,0,0,1635.841,555.95Z" fill="#fff"/>
    <path id="パス_1797" data-name="パス 1797" d="M1646.666,555.95h-7.534a.317.317,0,0,0-.316.317v6.012a.316.316,0,0,0,.316.316h7.534a.315.315,0,0,0,.315-.316v-6.012A.316.316,0,0,0,1646.666,555.95Z" fill="#fff"/>
  </g>
</svg>
