<svg xmlns="http://www.w3.org/2000/svg" viewBox="0 0 30 30"><defs><style>.cls-1{fill:#bfa060;}.cls-2{fill:#fff;}</style></defs><g id="レイヤー_2" data-name="レイヤー 2"><g id="spot01"><circle class="cls-1" cx="15" cy="15" r="15"/><path class="cls-2" d="M14.92,14.46a.64.64,0,0,0-.64.63.64.64,0,0,0,.64.64.64.64,0,0,0,.63-.64A.63.63,0,0,0,14.92,14.46Z"/><path class="cls-2" d="M20,9.25l-4.43,4.42a1.59,1.59,0,0,0-1.41,0l-2.58-2.47a.47.47,0,0,0-.66,0l-.23.23a.48.48,0,0,0,0,.67l2.58,2.58a.18.18,0,0,0,.07.05,1.39,1.39,0,0,0,0,.35,1.58,1.58,0,0,0,3.16,0,1.49,1.49,0,0,0-.2-.76l4.41-4.42a.45.45,0,0,0,0-.66A.46.46,0,0,0,20,9.25Zm-5.12,6.48a.64.64,0,0,1-.64-.64.64.64,0,0,1,.64-.63.63.63,0,0,1,.63.63A.64.64,0,0,1,14.92,15.73Z"/><path class="cls-2" d="M15,5A10,10,0,1,0,25,15,10,10,0,0,0,15,5Zm8.51,10.5H24A9.05,9.05,0,0,1,15.39,24v-.45a.47.47,0,1,0-.94,0V24A9.06,9.06,0,0,1,6,15v-.16h.56a.48.48,0,0,0,0-.95H6A9.07,9.07,0,0,1,14.45,6v.32a.47.47,0,0,0,.94,0V6A9,9,0,0,1,24,14.56h-.53a.47.47,0,1,0,0,.94Z"/></g></g></svg>