<svg xmlns="http://www.w3.org/2000/svg" viewBox="0 0 123.16 135.88"><defs><style>.cls-1{fill:#fff;}</style></defs><g id="レイヤー_2" data-name="レイヤー 2"><g id="レイヤー_1-2" data-name="レイヤー 1"><path class="cls-1" d="M88.45,73.25H34.71v61.21a1.43,1.43,0,0,0,1.42,1.42H87a1.42,1.42,0,0,0,1.41-1.42Z"/><path class="cls-1" d="M27.08,35.21h7.63v4.12h13L62.14,17.72,50.29,0H42.07c-5.28,0-8.75.51-13.19,3.37,0,0-24.69,16.85-25.6,17.65C1.34,22.74,0,24.6,0,27V75.26a6.22,6.22,0,0,0,6.22,6.22H27.08Z"/><path class="cls-1" d="M119.88,21C119,20.22,94.29,3.37,94.29,3.37,89.84.51,86.37,0,81.09,0H80.8L54.49,39.33h34V35.21h7.63V81.48h20.86a6.22,6.22,0,0,0,6.22-6.22V27C123.16,24.6,121.83,22.74,119.88,21Z"/><rect class="cls-1" x="34.71" y="44.98" width="53.74" height="22.62"/></g></g></svg>