<svg xmlns="http://www.w3.org/2000/svg" viewBox="0 0 122.19 136.75"><defs><style>.cls-1{fill:#fff;}</style></defs><g id="レイヤー_2" data-name="レイヤー 2"><g id="レイヤー_1-2" data-name="レイヤー 1"><path class="cls-1" d="M119.15,0H42.34a3.05,3.05,0,0,0-3.05,3v98.73H0v10.14H6v24.84H16.1V111.91H39.29v24.84h82.9V3A3.05,3.05,0,0,0,119.15,0ZM46.3,7.37h4.11v4.94h4.48V7.37H59V21.66H54.89V16.3H50.41v5.36H46.3Zm17,105.47H49.48V99H63.31Zm0-22.82H49.48V76.2H63.31Zm0-22.81H49.48V53.38H63.31Zm0-22.82H49.48V30.56H63.31ZM61.52,14.56a7.07,7.07,0,0,1,7.38-7.4c4.94,0,7.15,3.61,7.15,7.19,0,4.63-2.82,7.5-7.36,7.5C64.41,21.85,61.52,18.92,61.52,14.56Zm26.14,98.28H73.83V99H87.66Zm0-22.82H73.83V76.2H87.66Zm0-22.81H73.83V53.38H87.66Zm0-22.82H73.83V30.56H87.66Zm2.62-33.08h-4V21.66H82.19V11.31h-4V7.37h12Zm2.18-3.94h9.69v3.15H96.58v2.2h5.25v3.1H96.58V18.5h5.9v3.16h-10ZM112,112.84H98.17V99H112ZM112,90H98.17V76.2H112Zm0-22.81H98.17V53.38H112Zm0-22.82H98.17V30.56H112Zm3.19-22.73h-9.88V7.37h4.12v10.4h5.76Z"/><path class="cls-1" d="M68.82,10.27c-2.24,0-3,2.28-3,4.24s.78,4.24,3,4.24,3-2.22,3-4.3C71.79,12.52,71,10.27,68.82,10.27Z"/></g></g></svg>