<svg xmlns="http://www.w3.org/2000/svg" viewBox="0 0 122.01 144.5"><defs><style>.cls-1{fill:#fff;}</style></defs><g id="レイヤー_2" data-name="レイヤー 2"><g id="レイヤー_1-2" data-name="レイヤー 1"><path class="cls-1" d="M89,140.69a3.62,3.62,0,1,1-3.62-3.62A3.62,3.62,0,0,1,89,140.69Z"/><path class="cls-1" d="M115.8,140.69a3.62,3.62,0,1,1-3.62-3.62A3.62,3.62,0,0,1,115.8,140.69Z"/><path class="cls-1" d="M115.8,81.8h-34a6.22,6.22,0,0,0-6.2,6.2v46.07a6.22,6.22,0,0,0,3.3,5.48,6.55,6.55,0,0,1,13,.73h13.72a6.55,6.55,0,0,1,13-.7,6.22,6.22,0,0,0,3.38-5.51V88A6.23,6.23,0,0,0,115.8,81.8ZM88.32,126.73a1.09,1.09,0,0,1-1.09,1.08H85.14a1.09,1.09,0,0,1-1.09-1.08v-36a1.09,1.09,0,0,1,1.09-1.09h2.09a1.09,1.09,0,0,1,1.09,1.09Zm12.63,0a1.08,1.08,0,0,1-1.08,1.08h-2.1a1.09,1.09,0,0,1-1.08-1.08v-36a1.09,1.09,0,0,1,1.08-1.09h2.1A1.08,1.08,0,0,1,101,90.74Zm12.64,0a1.09,1.09,0,0,1-1.08,1.08h-2.1a1.08,1.08,0,0,1-1.08-1.08v-36a1.08,1.08,0,0,1,1.08-1.09h2.1a1.09,1.09,0,0,1,1.08,1.09Z"/><path class="cls-1" d="M91.64,67.13h0c-.32,0-.65,0-1,0L89.34,67v11.4h4.48V66.88A9.22,9.22,0,0,1,91.64,67.13Z"/><path class="cls-1" d="M108.86,51.84H99.4a9.62,9.62,0,0,1,1.77,7h2.65V78.35h4.48V58.84h.56a1.74,1.74,0,0,0,1.73-1.73V53.57A1.74,1.74,0,0,0,108.86,51.84Z"/><path class="cls-1" d="M41.6,22.81a11.41,11.41,0,1,0-11.41-11.4A11.39,11.39,0,0,0,41.6,22.81Z"/><path class="cls-1" d="M93.08,53.46,72.77,46.25,56.66,29.44a11.23,11.23,0,0,0-7.93-3.59H36.15c-4.78,0-9.8,4.09-11.79,7.62L.78,70.49A5,5,0,0,0,9,76.36L26.14,55l.36,16.81c-.09.52,1.78,67.91,1.78,67.91a4.94,4.94,0,0,0,9.87.15l3.4-58.24h.33l3.4,58.24a4.94,4.94,0,0,0,9.87-.15S57,72.07,56.92,71.75l.44-20.84,6.15,6.41.51.53a5,5,0,0,0,3.1,1.51L91.21,61.8a4.3,4.3,0,0,0,1.87-8.34Z"/></g></g></svg>