<svg xmlns="http://www.w3.org/2000/svg" viewBox="0 0 137.41 137.41"><defs><style>.cls-1{fill:#fff;}</style></defs><g id="レイヤー_2" data-name="レイヤー 2"><g id="レイヤー_1-2" data-name="レイヤー 1"><path class="cls-1" d="M99.24,31.15C99.24,44.66,92.83,56,84,60.31v77.1H68.71V60.31C59.85,56,53.44,44.66,53.44,31.15,53.51,14,63.74,0,76.34,0S99.24,14,99.24,31.15ZM106.88,0V137.41h15.26V76.34h15.27V30.54C137.41,17.1,128,0,106.88,0ZM40.31,0a5.47,5.47,0,0,0-5.5,5.5v25H28.4V5.5a5.5,5.5,0,1,0-11,0v25H11V5.5a5.5,5.5,0,1,0-11,0V45.8A15.31,15.31,0,0,0,15.27,61.07v76.34H30.54V61.07A15.31,15.31,0,0,0,45.8,45.8V5.5A5.47,5.47,0,0,0,40.31,0Z"/></g></g></svg>