<svg xmlns="http://www.w3.org/2000/svg" viewBox="0 0 134.31 125.35"><defs><style>.cls-1{fill:#fff;}</style></defs><g id="レイヤー_2" data-name="レイヤー 2"><g id="レイヤー_1-2" data-name="レイヤー 1"><path class="cls-1" d="M0,4.48A4.47,4.47,0,0,1,4.48,0H17.91a4.48,4.48,0,0,1,4.34,3.39l3.63,14.52h104a4.45,4.45,0,0,1,4.34,5.56L120.74,77.19a4.48,4.48,0,0,1-4.34,3.39H35.82a4.48,4.48,0,0,1-4.35-3.39L14.42,9H4.48A4.47,4.47,0,0,1,0,4.48ZM28.11,26.86l4.48,17.91H44.77V26.86Zm25.61,0V44.77H71.63V26.86Zm26.86,0V44.77H98.49V26.86Zm26.87,0V44.77h12.17l4.48-17.91Zm9.93,26.86h-9.93V71.63h5.46Zm-18.89,0H80.58V71.63H98.49Zm-26.86,0H53.72V71.63H71.63Zm-26.86,0H34.83l4.48,17.91h5.46Zm0,44.77a9,9,0,1,0,8.95,9A8.95,8.95,0,0,0,44.77,98.49Zm-17.91,9a17.91,17.91,0,1,1,17.91,17.9A17.91,17.91,0,0,1,26.86,107.45Zm80.59-9a9,9,0,1,0,9,9A9,9,0,0,0,107.45,98.49Zm-17.91,9a17.91,17.91,0,1,1,17.91,17.9A17.91,17.91,0,0,1,89.54,107.45Z"/></g></g></svg>