<svg xmlns="http://www.w3.org/2000/svg" width="25.635" height="29" viewBox="0 0 25.635 29">
  <g id="clear" transform="translate(-1163.484 -3924.69)">
    <path id="パス_1764" data-name="パス 1764" d="M1166.644,3952.435a1.7,1.7,0,0,0,1.179,1.22,2,2,0,0,0,.367.035h16.251c1.631-.1,1.8-2.268,1.8-3.195l.63-15.28h-21.136l.631,15.28A5.872,5.872,0,0,0,1166.644,3952.435Zm13.583-14.7h4.086v13.438h-4.086Zm-5.969,0h4.087v13.438h-4.087Zm-5.969,0h4.092v13.438h-4.092Z" fill="#dfdbd8"/>
    <path id="パス_1765" data-name="パス 1765" d="M1163.484,3929.923v2.667h25.635v-2.667h-6.737l.027-.642c0-.071.008-.143.008-.216v-.327a4.052,4.052,0,0,0-4.047-4.048h-4.143a4.052,4.052,0,0,0-4.046,4.048v.327c0,.1.008.2.016.3l.042.539-.539.017Zm8.551-1.185a2.2,2.2,0,0,1,2.192-2.193h4.143a2.2,2.2,0,0,1,2.193,2.193v.327a2.267,2.267,0,0,1-.048.46l-.083.4h-8.266l-.083-.4a2.267,2.267,0,0,1-.048-.46Z" fill="#dfdbd8"/>
  </g>
</svg>
