<svg xmlns="http://www.w3.org/2000/svg" viewBox="0 0 153.44 153.44"><defs><style>.cls-1{fill:#3f3f3f;}.cls-2{fill:none;stroke:#fff;stroke-miterlimit:10;stroke-width:1.5px;}.cls-3{fill:#fff;}</style></defs><g id="レイヤー_2" data-name="レイヤー 2"><g id="レイヤー_1-2" data-name="レイヤー 1"><g id="btn_plan" data-name="btn plan"><g id="楕円形_5-2" data-name="楕円形 5-2"><circle class="cls-1" cx="76.72" cy="76.72" r="76.72"/></g></g><line class="cls-2" x1="48.98" y1="57.43" x2="100.98" y2="57.43"/><polyline class="cls-2" points="60.15 46.84 49.15 57.84 60.15 68.09"/><path class="cls-3" d="M50.78,84a14.76,14.76,0,0,1,3.9.44,7.21,7.21,0,0,1,2.67,1.26,5.1,5.1,0,0,1,1.55,2,6.73,6.73,0,0,1,.49,2.65,5.29,5.29,0,0,1-.27,1.69,5,5,0,0,1-.82,1.51,6.09,6.09,0,0,1-1.4,1.25,8.34,8.34,0,0,1-2,.93c3.52.7,5.27,2.53,5.27,5.51a6.85,6.85,0,0,1-.57,2.83,6.16,6.16,0,0,1-1.67,2.2,7.93,7.93,0,0,1-2.69,1.43,12.06,12.06,0,0,1-3.65.51H42.89V84Zm-4.3,2.81v7.93h4.13a6.12,6.12,0,0,0,3.94-1.07,4.08,4.08,0,0,0,.05-5.91,6.26,6.26,0,0,0-3.82-1Zm5.06,18.55a7.53,7.53,0,0,0,2.33-.32,4.48,4.48,0,0,0,1.59-.88,3.31,3.31,0,0,0,.9-1.32,4.82,4.82,0,0,0,.28-1.68,3.5,3.5,0,0,0-1.24-2.84,6,6,0,0,0-3.86-1H46.48v8.08Z"/><path class="cls-3" d="M63.4,93.51a10,10,0,0,1,3.11-2,9.81,9.81,0,0,1,3.69-.67,6.54,6.54,0,0,1,2.59.48,5.36,5.36,0,0,1,1.91,1.34,5.61,5.61,0,0,1,1.17,2,8.52,8.52,0,0,1,.4,2.65v10.93H74.8a1.45,1.45,0,0,1-.74-.16,1.12,1.12,0,0,1-.41-.6L73.3,106a15,15,0,0,1-1.3,1.07,8.26,8.26,0,0,1-1.34.79,7.05,7.05,0,0,1-1.49.5,8.62,8.62,0,0,1-1.75.16,6.46,6.46,0,0,1-1.9-.27,4.36,4.36,0,0,1-1.54-.85,4,4,0,0,1-1-1.44,5,5,0,0,1-.38-2,3.74,3.74,0,0,1,.55-2,5,5,0,0,1,1.79-1.68,11.39,11.39,0,0,1,3.23-1.21,23.48,23.48,0,0,1,4.92-.54V97.32a4.36,4.36,0,0,0-.83-2.9,3,3,0,0,0-2.43-1,5.27,5.27,0,0,0-1.81.27,6.74,6.74,0,0,0-1.26.6q-.54.33-.93.6a1.43,1.43,0,0,1-.82.27.9.9,0,0,1-.58-.19,1.68,1.68,0,0,1-.4-.44Zm9.65,7.13a26.47,26.47,0,0,0-3.41.31,9.6,9.6,0,0,0-2.27.65,3.06,3.06,0,0,0-1.27,1,2,2,0,0,0-.39,1.22,2.63,2.63,0,0,0,.21,1.1,2.11,2.11,0,0,0,.58.76,2.2,2.2,0,0,0,.85.43,3.94,3.94,0,0,0,1.06.14,6,6,0,0,0,1.39-.16,5.27,5.27,0,0,0,1.19-.43,5.77,5.77,0,0,0,1.06-.68,9.51,9.51,0,0,0,1-.93Z"/><path class="cls-3" d="M92.69,94.32a2.82,2.82,0,0,1-.3.3.67.67,0,0,1-.41.11,1,1,0,0,1-.57-.22,6.2,6.2,0,0,0-.74-.45,8.14,8.14,0,0,0-1.08-.46,5.61,5.61,0,0,0-3.7.23,4.08,4.08,0,0,0-1.54,1.25,5.91,5.91,0,0,0-.94,2,10,10,0,0,0-.32,2.61,9.86,9.86,0,0,0,.34,2.68,5.94,5.94,0,0,0,1,2,4,4,0,0,0,1.52,1.21,4.61,4.61,0,0,0,2,.42,4.84,4.84,0,0,0,1.75-.27,5.61,5.61,0,0,0,1.15-.56c.3-.2.55-.39.76-.56a.93.93,0,0,1,.62-.27.7.7,0,0,1,.62.31l1,1.21A6.7,6.7,0,0,1,92.42,107a7.45,7.45,0,0,1-1.55.83,9.21,9.21,0,0,1-1.73.47,11.11,11.11,0,0,1-1.83.15,7.6,7.6,0,0,1-3-.59,6.75,6.75,0,0,1-2.41-1.72,8.19,8.19,0,0,1-1.61-2.77,10.87,10.87,0,0,1-.59-3.74,11.05,11.05,0,0,1,.53-3.52,7.76,7.76,0,0,1,1.56-2.79,7.46,7.46,0,0,1,2.56-1.84,8.63,8.63,0,0,1,3.47-.66,8.36,8.36,0,0,1,3.24.59,7.85,7.85,0,0,1,2.49,1.67Z"/><path class="cls-3" d="M100.1,83.36V97.91h.78a1.49,1.49,0,0,0,.59-.1,1.51,1.51,0,0,0,.49-.4l5.12-5.65a1.66,1.66,0,0,1,.52-.48,1.46,1.46,0,0,1,.73-.16h3l-6,6.62a3.89,3.89,0,0,1-1,1,3.1,3.1,0,0,1,.57.51c.16.19.32.4.48.62l6.44,8.42h-3a1.65,1.65,0,0,1-.7-.14,1.23,1.23,0,0,1-.53-.49l-5.3-6.88a1.21,1.21,0,0,0-.5-.49,1.87,1.87,0,0,0-.76-.11h-.88v8.11H96.82V83.36Z"/></g></g></svg>