<svg xmlns="http://www.w3.org/2000/svg" viewBox="0 0 30 30"><defs><style>.cls-1{fill:#bfa060;}.cls-2{fill:#fff;}</style></defs><g id="レイヤー_2" data-name="レイヤー 2"><g id="spot01"><circle class="cls-1" cx="15" cy="15" r="15"/><path class="cls-2" d="M22.3,7.61a4.6,4.6,0,0,0-2.37-1.85A13.42,13.42,0,0,0,15,5,11.09,11.09,0,0,0,9,6.29,3.9,3.9,0,0,0,7.7,7.61a2.87,2.87,0,0,0-.4,1.45V19.19a3,3,0,0,0,3,2.95h.86L9.07,25H10.7l.49-.79h7.62l.49.79h1.63l-2-2.86h.86a3,3,0,0,0,2.95-2.95V9.06A2.87,2.87,0,0,0,22.3,7.61ZM11.66,23.44l.5-.81h5.68l.5.81Zm10.1-4.25a2,2,0,0,1-.59,1.42,2,2,0,0,1-1.42.58h-9.5a2,2,0,0,1-1.42-.58,2,2,0,0,1-.59-1.42V9.06a1.94,1.94,0,0,1,.28-1,3.65,3.65,0,0,1,1.9-1.44A12.56,12.56,0,0,1,15,5.94a10.4,10.4,0,0,1,5.47,1.14,3.19,3.19,0,0,1,1,1,1.94,1.94,0,0,1,.28,1V19.19Z"/><path class="cls-2" d="M12.38,9h5.24a.64.64,0,0,0,0-1.27H12.38a.64.64,0,0,0,0,1.27Z"/><circle class="cls-2" cx="11.25" cy="18.72" r="0.79"/><circle class="cls-2" cx="18.75" cy="18.72" r="0.79"/><rect class="cls-2" x="10.16" y="11" width="4.2" height="3.84"/><rect class="cls-2" x="15.46" y="11" width="4.39" height="3.84"/></g></g></svg>