<svg xmlns="http://www.w3.org/2000/svg" viewBox="0 0 68.48 36"><defs><style>.cls-1{fill:#e58e90;}</style></defs><g id="レイヤー_2" data-name="レイヤー 2"><g id="contents"><g id="flag"><polygon class="cls-1" points="0 0 0 36 4.5 36 4.5 20.25 28.12 20.25 28.12 0 4.5 0 0 0"/><path class="cls-1" d="M43.73,27.08v5.13a7.5,7.5,0,0,1-4.5,1.4,7.82,7.82,0,0,1-2.85-.49,6.32,6.32,0,0,1-2.18-1.37,5.87,5.87,0,0,1-1.38-2.09A7,7,0,0,1,32.33,27a7.47,7.47,0,0,1,.47-2.68,5.86,5.86,0,0,1,3.45-3.46A7.56,7.56,0,0,1,39,20.36a8.26,8.26,0,0,1,1.45.12,7.6,7.6,0,0,1,1.25.34,5.8,5.8,0,0,1,1.06.52,6,6,0,0,1,.89.69l-.6,1a.63.63,0,0,1-.37.28.67.67,0,0,1-.49-.11l-.55-.32a4.18,4.18,0,0,0-.67-.32,5.36,5.36,0,0,0-.87-.25A6.63,6.63,0,0,0,39,22.18a4.73,4.73,0,0,0-1.85.34,3.85,3.85,0,0,0-1.41,1,4.26,4.26,0,0,0-.9,1.52,6.41,6.41,0,0,0,0,4.06,4.33,4.33,0,0,0,.94,1.55,4,4,0,0,0,1.48,1,5.23,5.23,0,0,0,1.94.34,5.61,5.61,0,0,0,1.43-.17,7.45,7.45,0,0,0,1.23-.48V28.69H40a.45.45,0,0,1-.33-.12.4.4,0,0,1-.11-.29v-1.2Z"/><path class="cls-1" d="M50.35,24.14a5,5,0,0,1,1.85.33,4,4,0,0,1,2.3,2.43,5.82,5.82,0,0,1,.31,2,5.76,5.76,0,0,1-.31,2,4.22,4.22,0,0,1-.9,1.49,4.14,4.14,0,0,1-1.4,1,5,5,0,0,1-1.85.33,4.87,4.87,0,0,1-1.84-.33,4.08,4.08,0,0,1-1.41-1,4.22,4.22,0,0,1-.9-1.49,5.75,5.75,0,0,1-.32-2,5.81,5.81,0,0,1,.32-2,4.17,4.17,0,0,1,.9-1.48,4.08,4.08,0,0,1,1.41-1A4.87,4.87,0,0,1,50.35,24.14Zm0,8a2.14,2.14,0,0,0,1.85-.83,4,4,0,0,0,.61-2.39,4,4,0,0,0-.61-2.38,2.11,2.11,0,0,0-1.85-.85,2.16,2.16,0,0,0-1.87.85,4,4,0,0,0-.61,2.38,4,4,0,0,0,.61,2.39A2.19,2.19,0,0,0,50.35,32.09Z"/><path class="cls-1" d="M56.83,25.56a5.28,5.28,0,0,1,3.71-1.45,3.64,3.64,0,0,1,1.4.26,2.86,2.86,0,0,1,1,.72,3.34,3.34,0,0,1,.64,1.12,4.27,4.27,0,0,1,.22,1.42v5.83H63a.83.83,0,0,1-.42-.08.65.65,0,0,1-.24-.35l-.19-.74c-.23.21-.47.39-.69.56a5.75,5.75,0,0,1-.71.42,3.24,3.24,0,0,1-.78.25,4.45,4.45,0,0,1-.93.09,3.42,3.42,0,0,1-1-.15,2.38,2.38,0,0,1-.84-.47,2.08,2.08,0,0,1-.55-.77,2.54,2.54,0,0,1-.2-1.08,2,2,0,0,1,.28-1,2.57,2.57,0,0,1,.94-.91,6.31,6.31,0,0,1,1.72-.66,13.07,13.07,0,0,1,2.63-.3v-.61a2.13,2.13,0,0,0-.43-1.47,1.53,1.53,0,0,0-1.24-.49,2.76,2.76,0,0,0-.93.14,3.71,3.71,0,0,0-.66.3l-.5.3a.75.75,0,0,1-.45.14.53.53,0,0,1-.34-.1.82.82,0,0,1-.23-.26ZM62,29.45a12.8,12.8,0,0,0-1.75.17,4.85,4.85,0,0,0-1.15.33,1.68,1.68,0,0,0-.64.48,1.12,1.12,0,0,0-.19.61,1.56,1.56,0,0,0,.1.56,1.1,1.1,0,0,0,.29.38,1.28,1.28,0,0,0,.44.21,1.81,1.81,0,0,0,.54.07A2.9,2.9,0,0,0,60.9,32,4.15,4.15,0,0,0,62,31.15Z"/><path class="cls-1" d="M68.48,20.15V33.46H66.54V20.15Z"/></g></g></g></svg>