<svg xmlns="http://www.w3.org/2000/svg" viewBox="0 0 72.13 36"><defs><style>.cls-1{fill:#6cc;}</style></defs><g id="レイヤー_2" data-name="レイヤー 2"><g id="contents"><g id="flag"><polygon class="cls-1" points="0 0 0 36 4.5 36 4.5 20.25 28.12 20.25 28.12 0 4.5 0 0 0"/><path class="cls-1" d="M39.89,23.72a.63.63,0,0,1-.21.24.45.45,0,0,1-.27.07.66.66,0,0,1-.38-.14c-.14-.1-.31-.2-.52-.32a4.56,4.56,0,0,0-.73-.32,3.07,3.07,0,0,0-1-.15,3,3,0,0,0-1,.13,2.09,2.09,0,0,0-.69.38,1.69,1.69,0,0,0-.42.57,1.89,1.89,0,0,0-.14.72,1.3,1.3,0,0,0,.26.82,2.26,2.26,0,0,0,.69.56,4.89,4.89,0,0,0,1,.41l1.12.38a11.9,11.9,0,0,1,1.12.45,3.86,3.86,0,0,1,1,.64,3,3,0,0,1,.69.94,3.27,3.27,0,0,1,.26,1.36,4.32,4.32,0,0,1-.3,1.62,4,4,0,0,1-.86,1.32,4.2,4.2,0,0,1-1.39.89,5.2,5.2,0,0,1-1.87.32A6,6,0,0,1,35,34.49a6.74,6.74,0,0,1-1.13-.34,5.64,5.64,0,0,1-1-.54,5.2,5.2,0,0,1-.84-.7l.61-1a.8.8,0,0,1,.21-.2.53.53,0,0,1,.28-.07.77.77,0,0,1,.46.19c.17.13.37.27.61.43a4.6,4.6,0,0,0,.86.42,3.28,3.28,0,0,0,1.2.19,2.59,2.59,0,0,0,1.77-.55,2,2,0,0,0,.63-1.54,1.42,1.42,0,0,0-.27-.9,2.16,2.16,0,0,0-.68-.58,4.89,4.89,0,0,0-1-.4c-.37-.1-.74-.22-1.12-.34s-.75-.27-1.11-.43a3.89,3.89,0,0,1-1-.65,3.25,3.25,0,0,1-.69-1A3.75,3.75,0,0,1,32.61,25a3.38,3.38,0,0,1,.28-1.36,3.44,3.44,0,0,1,.8-1.17,3.78,3.78,0,0,1,1.3-.81,4.61,4.61,0,0,1,1.76-.31,5.88,5.88,0,0,1,2,.35,4.92,4.92,0,0,1,1.61,1Z"/><path class="cls-1" d="M45.63,34.61A2.32,2.32,0,0,1,43.87,34a2.54,2.54,0,0,1-.61-1.82V26.81h-1A.41.41,0,0,1,42,26.7a.39.39,0,0,1-.12-.31v-.78l1.49-.22.42-2.65a.53.53,0,0,1,.15-.25.46.46,0,0,1,.29-.09h1v3h2.55v1.4H45.19V32a1.06,1.06,0,0,0,.24.75.84.84,0,0,0,.65.26,1.15,1.15,0,0,0,.39-.05,1.46,1.46,0,0,0,.28-.13l.2-.13a.37.37,0,0,1,.17,0,.31.31,0,0,1,.26.18l.57.94a3.17,3.17,0,0,1-1.06.61A3.87,3.87,0,0,1,45.63,34.61Z"/><path class="cls-1" d="M49.66,26.56a5.26,5.26,0,0,1,3.7-1.45,3.65,3.65,0,0,1,1.41.26,2.76,2.76,0,0,1,1,.73,3.2,3.2,0,0,1,.64,1.11,4.55,4.55,0,0,1,.22,1.42v5.84H55.8a.79.79,0,0,1-.42-.09.6.6,0,0,1-.24-.35L55,33.29c-.24.21-.47.39-.7.56a5,5,0,0,1-.7.42,3.47,3.47,0,0,1-.79.25,4.28,4.28,0,0,1-.92.09,3.49,3.49,0,0,1-1-.15A2.33,2.33,0,0,1,50,34a2.08,2.08,0,0,1-.55-.77,2.54,2.54,0,0,1-.21-1.08,2.06,2.06,0,0,1,.29-1,2.62,2.62,0,0,1,.93-.91,6.58,6.58,0,0,1,1.72-.66,12.53,12.53,0,0,1,2.63-.29v-.62a2.19,2.19,0,0,0-.42-1.47,1.53,1.53,0,0,0-1.24-.49,2.86,2.86,0,0,0-.94.14,3.59,3.59,0,0,0-.65.3l-.5.3a.76.76,0,0,1-.46.14.52.52,0,0,1-.33-.1.72.72,0,0,1-.23-.26Zm5.12,3.89a12.63,12.63,0,0,0-1.74.17,5.21,5.21,0,0,0-1.15.33,1.6,1.6,0,0,0-.64.48,1,1,0,0,0-.19.61,1.37,1.37,0,0,0,.1.56,1.1,1.1,0,0,0,.29.38,1.23,1.23,0,0,0,.43.21,1.93,1.93,0,0,0,.55.07,2.8,2.8,0,0,0,1.3-.28,4.11,4.11,0,0,0,1.05-.83Z"/><path class="cls-1" d="M61.18,27a4,4,0,0,1,1-1.38,2.28,2.28,0,0,1,1.47-.5,2.52,2.52,0,0,1,.56.07,1.6,1.6,0,0,1,.46.2l-.13,1.46a.41.41,0,0,1-.11.21.33.33,0,0,1-.21.06,1.58,1.58,0,0,1-.38-.05,3.07,3.07,0,0,0-.53,0,2,2,0,0,0-.72.12,1.79,1.79,0,0,0-.56.34,2.38,2.38,0,0,0-.43.55,5.1,5.1,0,0,0-.36.74v5.71H59.35V25.29h1.12a.6.6,0,0,1,.43.11.65.65,0,0,1,.16.39Z"/><path class="cls-1" d="M69.81,34.61A2.3,2.3,0,0,1,68.05,34a2.54,2.54,0,0,1-.62-1.82V26.81h-1a.41.41,0,0,1-.28-.11.38.38,0,0,1-.11-.31v-.78l1.48-.22.42-2.65a.47.47,0,0,1,.16-.25.41.41,0,0,1,.28-.09h1v3h2.54v1.4H69.37V32a1.06,1.06,0,0,0,.24.75.82.82,0,0,0,.65.26,1.09,1.09,0,0,0,.38-.05,1.46,1.46,0,0,0,.28-.13l.2-.13a.41.41,0,0,1,.17,0,.29.29,0,0,1,.26.18l.58.94a3.27,3.27,0,0,1-1.06.61A3.87,3.87,0,0,1,69.81,34.61Z"/></g></g></g></svg>