<svg xmlns="http://www.w3.org/2000/svg" viewBox="0 0 16 15.12"><defs><style>.cls-1{fill:#9b9b9b;}</style></defs><g id="レイヤー_2" data-name="レイヤー 2"><g id="レイヤー_1-2" data-name="レイヤー 1"><g id="bookmark_none" data-name="bookmark none"><path id="heart" class="cls-1" d="M11.86,0A4.32,4.32,0,0,0,8,2.2,4.34,4.34,0,0,0,4.15,0,4.24,4.24,0,0,0,0,4.3C0,7,1.42,8.9,2.88,10.67A29.5,29.5,0,0,0,6.46,14l.09-.1h0l-.09.1h0c.51.42,1,.79,1.16,1a.47.47,0,0,0,.35.15H8A.47.47,0,0,0,8.36,15c.21-.2.65-.56,1.17-1a28.2,28.2,0,0,0,3.59-3.32C14.57,8.89,16,6.94,16,4.29A4.23,4.23,0,0,0,11.86,0ZM4.15,1A3.41,3.41,0,0,1,7.51,3.59.52.52,0,0,0,8,4a.5.5,0,0,0,.48-.36A3.38,3.38,0,0,1,11.85,1,3.22,3.22,0,0,1,15,4.3c0,2.32-1.26,4-2.65,5.72A28,28,0,0,1,8.89,13.2c-.35.29-.66.54-.89.75l-.89-.74A28.17,28.17,0,0,1,3.66,10C2.27,8.33,1,6.62,1,4.3A3.24,3.24,0,0,1,4.15,1Z"/></g></g></g></svg>