<svg xmlns="http://www.w3.org/2000/svg" viewBox="0 0 36.75 32.51"><defs><style>.cls-1{fill:none;stroke:#a3a3a3;stroke-linejoin:round;stroke-width:3px;}</style></defs><title>heart</title><g id="レイヤー_2" data-name="レイヤー 2"><g id="レイヤー_1-2" data-name="レイヤー 1"><path class="cls-1" d="M26.59,1.5a8.18,8.18,0,0,0-8.22,7.05,8.16,8.16,0,0,0-8.21-7C5.42,1.41,1.5,5.06,1.5,11.71c0,8.54,9.66,12.49,16.27,18.87.23.22.17.22.17.22a.58.58,0,0,0,.43.21h0a.54.54,0,0,0,.42-.21s-.05,0,.18-.22c6.61-6.38,16.27-10.33,16.27-18.87C35.25,5.06,31.33,1.41,26.59,1.5Z"/></g></g></svg>