<svg xmlns="http://www.w3.org/2000/svg" viewBox="0 0 50 50"><defs><style>.cls-1{fill:#b89b7e;}.cls-2{fill:#fff;}</style></defs><g id="レイヤー_2" data-name="レイヤー 2"><g id="spot01"><circle class="cls-1" cx="25" cy="25" r="25"/><g id="user"><path class="cls-2" d="M25.17,32.53a11,11,0,1,1,11-11A11,11,0,0,1,25.17,32.53Zm0-20.36A9.33,9.33,0,1,0,34.5,21.5,9.34,9.34,0,0,0,25.17,12.17Z"/><path class="cls-2" d="M12,40.9h-.14a.85.85,0,0,1-.69-1,14.35,14.35,0,0,1,.77-2.84,16.07,16.07,0,0,1,5.93-7.34.86.86,0,0,1,1.18.21.85.85,0,0,1-.21,1.18,14.36,14.36,0,0,0-5.32,6.56,13.3,13.3,0,0,0-.69,2.51A.84.84,0,0,1,12,40.9Z"/><path class="cls-2" d="M38,40.9a.84.84,0,0,1-.83-.71,13.3,13.3,0,0,0-.69-2.51,14.36,14.36,0,0,0-5.32-6.56.85.85,0,0,1,1-1.39,16.07,16.07,0,0,1,5.93,7.34,14.35,14.35,0,0,1,.77,2.84.85.85,0,0,1-.69,1Z"/></g></g></g></svg>