<svg xmlns="http://www.w3.org/2000/svg" viewBox="0 0 30 31"><defs><style>.cls-1{fill:#fff;}.cls-2{fill:none;}</style></defs><g id="レイヤー_2" data-name="レイヤー 2"><g id="レイヤー_1-2" data-name="レイヤー 1"><path id="パス_143" data-name="パス 143" class="cls-1" d="M14.82,30.45V25.71A12.52,12.52,0,1,1,28,13.21c0,6.52-4.53,13.08-11.29,16.34Zm.66-27.13a9.89,9.89,0,0,0,0,19.77h2v3c4.8-3,7.91-8,7.91-12.92a9.9,9.9,0,0,0-9.89-9.88ZM14.17,18.48H16.8v2.63H14.17Zm2.63-2H14.17c0-4.28,4-3.95,4-6.59a2.64,2.64,0,0,0-5.27,0H10.21a5.27,5.27,0,0,1,10.54,0c0,3.3-3.95,3.63-3.95,6.59Z"/><g id="グループ_183" data-name="グループ 183"><rect id="長方形_244" data-name="長方形 244" class="cls-2" width="30" height="31"/></g></g></g></svg>