<svg xmlns="http://www.w3.org/2000/svg" viewBox="0 0 40.48 28.5"><defs><style>.cls-1{fill:none;stroke:#fff;stroke-miterlimit:10;stroke-width:0.5px;}</style></defs><title>icon-note-ol</title><g id="レイヤー_2" data-name="レイヤー 2"><g id="レイヤー_1-2" data-name="レイヤー 1"><path class="cls-1" d="M19.22,2.58A19.77,19.77,0,0,0,9.86.25,22.94,22.94,0,0,0,2.18,2,3.08,3.08,0,0,0,.25,4.68V26a1.75,1.75,0,0,0,2.29,1.66A21,21,0,0,1,9.86,26,20.46,20.46,0,0,1,19,28.23a.31.31,0,0,0,.31-.05.35.35,0,0,0,.15-.28v-25A.34.34,0,0,0,19.22,2.58Z"/><path class="cls-1" d="M38.3,2A22.94,22.94,0,0,0,30.62.25a19.77,19.77,0,0,0-9.36,2.33.34.34,0,0,0-.25.33v25a.35.35,0,0,0,.46.33A20.46,20.46,0,0,1,30.62,26a21,21,0,0,1,7.32,1.65A1.75,1.75,0,0,0,40.23,26V4.68A3.08,3.08,0,0,0,38.3,2Z"/></g></g></svg>