<svg xmlns="http://www.w3.org/2000/svg" viewBox="0 0 27.79 30.39"><defs><style>.cls-1{fill:#725521;}</style></defs><g id="レイヤー_2" data-name="レイヤー 2"><g id="header"><g id="レイヤー_2-2" data-name="レイヤー 2"><g id="mypage_nav" data-name="mypage nav"><g id="user"><path class="cls-1" d="M14,22A11,11,0,1,1,25,11,11,11,0,0,1,14,22ZM14,1.64A9.34,9.34,0,1,0,23.38,11,9.34,9.34,0,0,0,14,1.64Z"/><path class="cls-1" d="M.86,30.38H.71a.83.83,0,0,1-.7-.94s0,0,0-.06A15.41,15.41,0,0,1,.8,26.55a15.93,15.93,0,0,1,5.93-7.34.86.86,0,0,1,1,1.39,14.41,14.41,0,0,0-5.31,6.56,13.51,13.51,0,0,0-.69,2.51A.85.85,0,0,1,.86,30.38Z"/><path class="cls-1" d="M26.89,30.38a.85.85,0,0,1-.83-.71,13.51,13.51,0,0,0-.69-2.51,14.47,14.47,0,0,0-5.31-6.56.86.86,0,1,1,1-1.39A15.93,15.93,0,0,1,27,26.55a15.51,15.51,0,0,1,.78,2.84.83.83,0,0,1-.63,1h-.25Z"/></g></g></g></g></g></svg>