<svg xmlns="http://www.w3.org/2000/svg" width="31" height="31" viewBox="0 0 31 31"><g transform="translate(-0.291)"><rect width="31" height="31" transform="translate(0.291)" fill="none"/><g transform="translate(2.568 2.568)"><path d="M14.84,2a12.84,12.84,0,1,0,12.84,12.84A12.844,12.844,0,0,0,14.84,2Zm0,23.112A10.272,10.272,0,1,1,25.112,14.84,10.285,10.285,0,0,1,14.84,25.112Z" transform="translate(-2 -2)" fill="#fff"/><path d="M19.84,11.42H13.947l.745-4.378V6.785a1.4,1.4,0,0,0-.385-.9L13.42,5,7.514,11.42A1.658,1.658,0,0,0,7,12.7v6.42a2.575,2.575,0,0,0,2.568,2.568H16.63A1.716,1.716,0,0,0,18.3,20.664L21,14.373a1.116,1.116,0,0,0,.128-.642V12.7A1.288,1.288,0,0,0,19.84,11.42Z" transform="translate(-0.581 -1.148)" fill="#fff"/></g></g></svg>