<svg xmlns="http://www.w3.org/2000/svg" viewBox="0 0 50 50"><defs><style>.cls-1{fill:#b89b7e;}.cls-2{fill:#fff;}</style></defs><g id="レイヤー_2" data-name="レイヤー 2"><g id="spot01"><circle class="cls-1" cx="25" cy="25" r="25"/><path class="cls-2" d="M22.46,38.05c.89.74,1.67,1.38,2,1.76A.66.66,0,0,0,25,40H25a.7.7,0,0,0,.47-.19c.37-.38,1.14-1,2-1.76a49.54,49.54,0,0,0,6.25-5.77c2.52-3.06,5-6.43,5-11a7.17,7.17,0,0,0-7-7.29A7.33,7.33,0,0,0,25,18.08,7.37,7.37,0,0,0,18.26,14a7.17,7.17,0,0,0-7,7.29c0,4.56,2.46,7.93,5,11A49.39,49.39,0,0,0,22.46,38.05Zm-4.2-22.72A6.16,6.16,0,0,1,24.35,20a.67.67,0,0,0,.63.46h0a.66.66,0,0,0,.63-.47,6.13,6.13,0,0,1,6.09-4.65,5.84,5.84,0,0,1,5.7,6c0,4.13-2.21,7.16-4.68,10.15A49.79,49.79,0,0,1,26.69,37c-.68.56-1.27,1-1.7,1.43-.43-.38-1-.86-1.69-1.43a48.91,48.91,0,0,1-6.06-5.59c-2.47-3-4.68-6-4.68-10.15A5.84,5.84,0,0,1,18.26,15.33Z"/></g></g></svg>