<svg xmlns="http://www.w3.org/2000/svg" viewBox="0 0 47.56 26.35"><defs><style>.cls-1{fill:#f6c243;}.cls-2{isolation:isolate;}.cls-3{fill:#fff;}</style></defs><g id="レイヤー_2" data-name="レイヤー 2"><g id="レイヤー_1-2" data-name="レイヤー 1"><rect id="長方形_127" data-name="長方形 127" class="cls-1" x="0.28" y="4.67" width="47.01" height="17" rx="5" transform="translate(-2.6 6.61) rotate(-15.01)"/><g id="Point_" data-name="Point " class="cls-2"><g class="cls-2"><path class="cls-3" d="M10.33,12.57a3.51,3.51,0,0,1,2.53,0,2.43,2.43,0,0,1,1.23,1.66,2.89,2.89,0,0,1,.05,1.4,2.39,2.39,0,0,1-.74,1.27,4.34,4.34,0,0,1-1.83.9l-.82.22.81,3.05-1.48.4L7.86,13.23Zm.24,1.25-.89.24.74,2.77.67-.18A2.66,2.66,0,0,0,12.4,16a1.25,1.25,0,0,0,.2-1.22,1.3,1.3,0,0,0-.68-.91A2,2,0,0,0,10.57,13.82Z"/><path class="cls-3" d="M21.88,15a3.49,3.49,0,0,1-.16,2.64,3,3,0,0,1-2,1.44,3.27,3.27,0,0,1-1.64,0,2.79,2.79,0,0,1-1.35-.83,4,4,0,0,1-.86-1.67A3.43,3.43,0,0,1,16.06,14a3,3,0,0,1,2-1.43,3.2,3.2,0,0,1,1.65,0A2.74,2.74,0,0,1,21,13.3,3.84,3.84,0,0,1,21.88,15ZM17.4,16.17a2.88,2.88,0,0,0,.76,1.44,1.32,1.32,0,0,0,1.29.24,1.3,1.3,0,0,0,1-.85,3,3,0,0,0-.05-1.64,2.88,2.88,0,0,0-.77-1.43,1.31,1.31,0,0,0-1.29-.22,1.31,1.31,0,0,0-1,.83A3,3,0,0,0,17.4,16.17Z"/><path class="cls-3" d="M22.63,8.81a1,1,0,0,1,.61,0,.69.69,0,0,1,.41.53.75.75,0,0,1-.08.67,1,1,0,0,1-.53.32.94.94,0,0,1-.62,0,.72.72,0,0,1-.4-.54.72.72,0,0,1,.08-.66A1.06,1.06,0,0,1,22.63,8.81ZM24,11l1.68,6.28-1.46.39-1.68-6.28Z"/><path class="cls-3" d="M29.21,9.52a2.48,2.48,0,0,1,1.8.1,2.36,2.36,0,0,1,1.06,1.6l1.1,4.1-1.46.39-1-3.8a1.76,1.76,0,0,0-.56-1,1.08,1.08,0,0,0-1-.12,1.31,1.31,0,0,0-1,.88,3.22,3.22,0,0,0,.1,1.68L29,16.43l-1.46.39-1.68-6.28,1.12-.3.43.76.08,0a1.85,1.85,0,0,1,.64-.93A2.86,2.86,0,0,1,29.21,9.52Z"/><path class="cls-3" d="M37.15,13.12a2.54,2.54,0,0,0,.52-.2,4.79,4.79,0,0,0,.45-.25l.29,1.09a2.49,2.49,0,0,1-.55.35,4.57,4.57,0,0,1-.76.28,2.87,2.87,0,0,1-1,.09,1.42,1.42,0,0,1-.85-.43,2.55,2.55,0,0,1-.59-1.18l-.88-3.26-.84.22-.17-.63.79-.76L33.63,7l.92-.25.37,1.38,1.78-.48L37,8.74l-1.79.48.88,3.25a.86.86,0,0,0,.41.59A.91.91,0,0,0,37.15,13.12Z"/><path class="cls-3" d="M40.26,10.65l-1.12.29L37.33,5.33,39,4.88Zm-1,2.23a.86.86,0,0,1,.08-.76,1.08,1.08,0,0,1,.58-.38,1,1,0,0,1,.67,0,.88.88,0,0,1,.45.62.91.91,0,0,1-.08.76,1,1,0,0,1-.57.37,1,1,0,0,1-.68,0A.86.86,0,0,1,39.3,12.88Z"/></g></g></g></g></svg>