<svg xmlns="http://www.w3.org/2000/svg" viewBox="0 0 39.98 28"><defs><style>.cls-1{fill:#74bcc1;}.cls-2{fill:#fff;}</style></defs><title>icon-note</title><g id="レイヤー_2" data-name="レイヤー 2"><g id="レイヤー_1-2" data-name="レイヤー 1"><path class="cls-1" d="M19,2.33A19.77,19.77,0,0,0,9.61,0,22.94,22.94,0,0,0,1.93,1.77,3.08,3.08,0,0,0,0,4.43V25.72a1.75,1.75,0,0,0,2.29,1.66,21,21,0,0,1,7.32-1.65A20.46,20.46,0,0,1,18.76,28a.31.31,0,0,0,.31-.05.35.35,0,0,0,.15-.28v-25A.34.34,0,0,0,19,2.33Z"/><path class="cls-1" d="M38.05,1.77A22.94,22.94,0,0,0,30.37,0,19.77,19.77,0,0,0,21,2.33a.34.34,0,0,0-.25.33v25a.35.35,0,0,0,.46.33,20.46,20.46,0,0,1,9.15-2.25,21,21,0,0,1,7.32,1.65A1.75,1.75,0,0,0,40,25.72V4.43A3.08,3.08,0,0,0,38.05,1.77Z"/><path class="cls-2" d="M9.6,15.23a5.41,5.41,0,0,0-.17-.62l-.58,0V20H7.52V15.81a.25.25,0,0,1-.24.07,11.39,11.39,0,0,1-.7,3.06,8,8,0,0,0-1.06-.51,11,11,0,0,0,.58-3l1.42.32v-1l-1.43.08a.26.26,0,0,1-.23.19l-.3-1.55h.89c.21-.27.42-.55.62-.85a11.6,11.6,0,0,0-1.47-1.8c.3-.39.53-.73.76-1.06l.27.26a16.89,16.89,0,0,0,.92-2.22L9,8.37c0,.09-.15.14-.33.14A20.32,20.32,0,0,1,7.46,10.9a6,6,0,0,1,.41.5A22.21,22.21,0,0,0,9,9.32l1.45.64a.39.39,0,0,1-.36.14c-.4.68-.95,1.52-1.52,2.31l1-.4a10.52,10.52,0,0,1,1.17,2.72ZM9,13.42c-.14-.32-.3-.64-.45-.92-.24.32-.48.64-.73.94Zm8.58.86v4.35c0,.82-.14,1.32-1.4,1.32a4.52,4.52,0,0,0-.36-1.17v1.08h-1V17.63h-.51v2.23h-.94V17.63h-.49V20H11.82V17.46a8.06,8.06,0,0,1-1,2.42,5.3,5.3,0,0,0-1.13-.81,5.93,5.93,0,0,0,.68-1.49l-.85.29a14.33,14.33,0,0,0-.62-2.15L10,15.37c.19.49.4,1.07.54,1.57a16.37,16.37,0,0,0,.39-4V10.18h6.27v3.36H12.29l0,.74Zm-7.38-6h7.59V9.57H10.17Zm5.58,3.15H12.29v.92h3.46Zm-2.86,5.13h.49V15.42h-.49Zm1.43,0h.51V15.42h-.51Zm2-1.11h-.5v1.11h.5Zm-.5,2.21v1.09a3.6,3.6,0,0,0,.41,0c.06,0,.09,0,.09-.13v-1Z"/><path class="cls-2" d="M33.87,17H30a14.73,14.73,0,0,0,4.18,1.58,5.65,5.65,0,0,0-1,1.23,14.69,14.69,0,0,1-4.46-2.14v2.29H27.19V17.72a14.9,14.9,0,0,1-4.41,2.14,6.65,6.65,0,0,0-1-1.28A14.84,14.84,0,0,0,26,17h-3.9V15.75h5.06v-.58H23.62V11.9c-.27.27-.55.53-.85.79a4.77,4.77,0,0,0-1-1.12,11.13,11.13,0,0,0,3.12-3.81l1.79.33c0,.11-.14.19-.33.2-.17.3-.35.6-.54.91h1.78c.24-.47.46-1,.62-1.42l1.88.36c0,.1-.14.15-.35.17-.14.27-.32.58-.52.89H33v1.19H29v.52h3.37v1H29v.52h3.37v1H29V14H33.5v1.18H29a.63.63,0,0,1-.28.1v.48h5.14Zm-6.32-6.07v-.52H25.09v.52Zm0,1.53v-.52H25.09v.52Zm-2.46,1V14h2.46v-.54Z"/></g></g></svg>