<svg xmlns="http://www.w3.org/2000/svg" viewBox="0 0 32 32"><defs><style>.cls-1{fill:#de7274;}.cls-2{fill:#fff;}</style></defs><g id="レイヤー_2" data-name="レイヤー 2"><g id="レイヤー_1-2" data-name="レイヤー 1"><g id="レイヤー_2-2" data-name="レイヤー 2"><g id="alert"><circle class="cls-1" cx="16" cy="16" r="16"/></g><path class="cls-2" d="M21.12,20.5a2.91,2.91,0,0,0-2,.77L12,17.12a2.77,2.77,0,0,0,0-1.4l7-4.11a3,3,0,1,0-1-2.19,3.27,3.27,0,0,0,.09.7l-7,4.11a3,3,0,1,0,0,4.38l7.12,4.16a2.82,2.82,0,0,0-.08.65,2.92,2.92,0,1,0,2.92-2.92Zm0-12.08a1,1,0,1,1-1,1A1,1,0,0,1,21.12,8.42Zm-12,9a1,1,0,1,1,1-1A1,1,0,0,1,9.12,17.42Zm12,7a1,1,0,1,1,1-1A1,1,0,0,1,21.12,24.44Z"/></g></g></g></svg>