<svg xmlns="http://www.w3.org/2000/svg" viewBox="0 0 41.73 24"><defs><style>.cls-1{fill:#e58e90;}</style></defs><title>icon-handle</title><g id="レイヤー_2" data-name="レイヤー 2"><g id="root_展開後"><g id="exchange"><path class="cls-1" d="M41.29,15.08a1.49,1.49,0,0,0-2.12,0l-3.81,3.8V1.5a1.5,1.5,0,0,0-3,0V18.88l-3.8-3.8a1.5,1.5,0,0,0-2.12,2.12l6.36,6.36a1.63,1.63,0,0,0,.49.33h0a1.41,1.41,0,0,0,1.09,0h0a1.41,1.41,0,0,0,.49-.33l6.37-6.36A1.51,1.51,0,0,0,41.29,15.08Z"/><path class="cls-1" d="M15.29,6.8,8.92.44A1.41,1.41,0,0,0,8.43.11h0a1.41,1.41,0,0,0-1.09,0h0A1.63,1.63,0,0,0,6.8.44L.44,6.8A1.5,1.5,0,0,0,2.56,8.92l3.8-3.8V22.5a1.5,1.5,0,1,0,3,0V5.12l3.81,3.8a1.49,1.49,0,0,0,2.12,0A1.51,1.51,0,0,0,15.29,6.8Z"/></g></g></g></svg>