<?xml version="1.0" encoding="UTF-8"?><svg xmlns="http://www.w3.org/2000/svg" viewBox="0 0 24 24"><defs><style>.d{fill:#5e5e5e;}.d,.e{isolation:isolate;}.e{fill:#d3c39e;}</style></defs><g id="a"/><g id="b"><g id="c"><circle class="e" cx="12" cy="12" r="12"/><path class="d" d="M7.32,16.17v.89c0,.14-.05,.26-.14,.35-.09,.09-.21,.14-.35,.14h-.33c-.14,0-.26-.05-.35-.14-.09-.09-.14-.21-.14-.35v-5.34l1.4-4.22c.05-.15,.15-.27,.27-.36,.13-.09,.27-.13,.44-.13h7.65c.16,0,.31,.04,.44,.13,.13,.09,.22,.21,.27,.36l1.4,4.22v5.34c0,.14-.05,.26-.14,.35s-.21,.14-.35,.14h-.35c-.14,0-.26-.05-.35-.14s-.14-.21-.14-.35v-.89H7.32Zm.05-5.44h9.14l-.91-2.74h-7.32l-.91,2.74Zm1.37,3.63c.25,0,.46-.09,.63-.26,.17-.18,.26-.38,.26-.63s-.09-.47-.26-.65c-.17-.18-.38-.27-.63-.27-.25,0-.47,.09-.65,.27-.18,.18-.27,.4-.27,.65s.09,.46,.27,.63c.18,.17,.4,.26,.65,.26Zm6.42,0c.25,0,.47-.09,.65-.26s.27-.38,.27-.63-.09-.47-.27-.65-.4-.27-.65-.27c-.25,0-.46,.09-.63,.27-.17,.18-.26,.4-.26,.65,0,.25,.09,.46,.26,.63,.18,.17,.38,.26,.63,.26Z"/></g></g></svg>