<?xml version="1.0" encoding="utf-8"?>
<!-- Generator: Adobe Illustrator 25.0.1, SVG Export Plug-In . SVG Version: 6.00 Build 0)  -->
<svg version="1.1" id="レイヤー_1" xmlns="http://www.w3.org/2000/svg" xmlns:xlink="http://www.w3.org/1999/xlink" x="0px"
	 y="0px" viewBox="0 0 42.4 40.1" style="enable-background:new 0 0 42.4 40.1;" xml:space="preserve">
<style type="text/css">
	.st0{fill:#DE7274;}
	.st1{fill:#DE7D7F;}
</style>
<g id="レイヤー_2_1_">
	<g id="レイヤー_1-2">
		<path class="st0" d="M31.5,0c-4.2-0.1-8.1,2.2-10.2,5.8C19.1,2.2,15.2-0.1,11,0C4.8,0.1-0.1,5.2,0,11.4c0,7,3.8,12.2,7.6,16.9
			c2.9,3.2,6.1,6.1,9.5,8.8l0.2-0.3l0,0l-0.2,0.3l0,0c1.4,1.1,2.5,2.1,3.1,2.6c0.2,0.2,0.6,0.4,0.9,0.4h0.1c0.4,0,0.7-0.1,1-0.4
			c0.5-0.5,1.7-1.5,3.1-2.6c3.4-2.7,6.6-5.6,9.5-8.8c3.9-4.7,7.6-9.9,7.6-16.9C42.6,5.2,37.7,0.1,31.5,0C31.5,0,31.5,0,31.5,0z"/>
		<path class="st1" d="M11,2.7c4.3,0,7.5,2.5,8.9,6.8c0.2,0.6,0.7,0.9,1.3,0.9c0.6,0,1.1-0.4,1.3-0.9c1.4-4.3,4.6-6.8,8.9-6.8
			c4.7,0.1,8.4,4,8.3,8.7c0,6.1-3.3,10.7-7,15.2c-2.8,3.1-5.9,5.9-9.2,8.4c-0.9,0.8-1.7,1.4-2.4,2c-0.6-0.6-1.5-1.2-2.4-2
			c-3.3-2.6-6.3-5.4-9.1-8.5c-3.7-4.5-7-9-7-15.2C2.6,6.7,6.3,2.8,11,2.7z"/>
	</g>
</g>
</svg>
