<svg xmlns="http://www.w3.org/2000/svg" viewBox="0 0 24 24"><defs><style>.cls-1{fill:#fff;}</style></defs><g id="レイヤー_2" data-name="レイヤー 2"><g id="nav_2"><g id="time_w"><path class="cls-1" d="M11.9,12.87a.76.76,0,1,0-.76-.76A.76.76,0,0,0,11.9,12.87Z"/><path class="cls-1" d="M10,11.63l.08.06a2,2,0,0,0-.05.42,1.9,1.9,0,1,0,3.56-.92L18.85,5.9a.56.56,0,0,0,0-.81.57.57,0,0,0-.8,0l-5.31,5.32a1.86,1.86,0,0,0-.84-.2,1.92,1.92,0,0,0-.86.21L8,7.45a.56.56,0,0,0-.79,0l-.28.27a.58.58,0,0,0,0,.81Zm1.93-.28a.76.76,0,1,1-.76.76A.76.76,0,0,1,11.9,11.35Z"/><path class="cls-1" d="M12,24A12,12,0,1,0,0,12,12,12,0,0,0,12,24ZM1.14,11.81h.67a.57.57,0,0,0,0-1.14H1.22A10.87,10.87,0,0,1,11.33,1.16v.38a.58.58,0,0,0,.57.57.57.57,0,0,0,.57-.57V1.15A10.87,10.87,0,0,1,22.85,11.47h-.63a.57.57,0,1,0,0,1.13h.63A10.88,10.88,0,0,1,12.47,22.85v-.54a.56.56,0,0,0-.57-.57.57.57,0,0,0-.57.57v.53A10.87,10.87,0,0,1,1.13,12C1.13,11.93,1.14,11.87,1.14,11.81Z"/></g></g></g></svg>