<svg xmlns="http://www.w3.org/2000/svg" viewBox="0 0 30 31"><defs><style>.cls-1{fill:none;}.cls-2{fill:#fff;}</style></defs><g id="レイヤー_2" data-name="レイヤー 2"><g id="レイヤー_1-2" data-name="レイヤー 1"><g id="グループ_183" data-name="グループ 183"><rect id="長方形_244" data-name="長方形 244" class="cls-1" width="30" height="31"/></g><g id="グループ_185" data-name="グループ 185"><g id="グループ_184" data-name="グループ 184"><path id="パス_148" data-name="パス 148" class="cls-2" d="M14.75,2.16,3.69,7.07v7.38c0,6.82,4.72,13.2,11.06,14.75,6.35-1.54,11.07-7.93,11.07-14.75V7.07Zm8.61,12.29a13.21,13.21,0,0,1-1.7,6.41l-1.78-1.79a6.15,6.15,0,1,0-1.75,1.75l2.11,2.11a11.63,11.63,0,0,1-5.5,3.74,12.91,12.91,0,0,1-8.6-12.22V8.67l8.6-3.82,8.61,3.82Zm-8.61,4.92a3.69,3.69,0,1,1,3.69-3.69,3.69,3.69,0,0,1-3.69,3.69Z"/></g></g></g></g></svg>