<svg xmlns="http://www.w3.org/2000/svg" viewBox="0 0 20.83 24"><defs><style>.cls-1{fill:#fff;}</style></defs><g id="レイヤー_2" data-name="レイヤー 2"><g id="map"><g id="map-2" data-name="map"><path class="cls-1" d="M20.83,9.91a.37.37,0,0,0-.23-.34L14.67,7.23c-.13.2-.26.41-.41.62l5.85,2.3v13l-7.06-2.78V9.53c-.25.34-.49.67-.72,1v9.9L8.59,21.67V10.6c-.22-.28-.47-.6-.72-.95v.72L.73,17.51c0-.46,0-1,0-1.63a.24.24,0,0,0,.15-.09L7.51,9.16c-.15-.19-.29-.39-.43-.59L.72,14.93c0-.51,0-1,0-1.62a.29.29,0,0,0,.16-.09L6.09,8l.79.33c-.26-.37-.51-.74-.73-1.08L.55,4.93A.33.33,0,0,0,.22,5a.37.37,0,0,0-.16.3S0,8.7,0,12.08c0,7,0,7,.15,7.16a.28.28,0,0,0,.12.08h0l7.79,3.19a.31.31,0,0,0,.25,0L12.79,21l7.55,3a.31.31,0,0,0,.13,0,.37.37,0,0,0,.34-.23.36.36,0,0,0,0-.27.4.4,0,0,0,0-.15ZM.77,5.79l.94.39-.95,1C.77,6.67.77,6.23.77,5.79Zm0,2.33A.36.36,0,0,0,.87,8L2.44,6.48l1.11.45L.74,9.74C.75,9.19.75,8.65.75,8.12Zm0,2.59a.38.38,0,0,0,.13-.09l3.4-3.39,1.1.45L.73,12.36C.73,11.82.73,11.26.74,10.71ZM7.87,21.65l-1.78-.72,1.78-1.78Zm0-3.51,0,0L5.37,20.63l-1.12-.46,3.62-3.61Zm0-2.57-.09.06L3.53,19.88l-1.11-.46L7.87,14Zm0-2.61h0L1.7,19.13l-.95-.39c0-.07,0-.17,0-.28a.22.22,0,0,0,.13-.08l7-7Z"/><path class="cls-1" d="M13.29,1.19a4.07,4.07,0,0,0-5.75,0,4,4,0,0,0-.78,4.68A56,56,0,0,0,10.41,11a55.51,55.51,0,0,0,3.66-5.08A4,4,0,0,0,13.29,1.19ZM10.41,6.54a2.47,2.47,0,1,1,2.48-2.47A2.48,2.48,0,0,1,10.41,6.54Z"/></g></g></g></svg>