<svg xmlns="http://www.w3.org/2000/svg" viewBox="0 0 22.02 20.8"><defs><style>.cls-1{fill:#dd7274;}</style></defs><g id="レイヤー_2" data-name="レイヤー 2"><g id="nav_okini_spot"><g id="heart_p"><path class="cls-1" d="M9,19.24c.71.6,1.33,1.11,1.63,1.4a.52.52,0,0,0,.37.16h0a.55.55,0,0,0,.38-.16c.3-.29.92-.81,1.64-1.4a40.5,40.5,0,0,0,5-4.62c2-2.44,4-5.14,4-8.79A5.73,5.73,0,0,0,16.4,0,5.86,5.86,0,0,0,11,3.27,5.89,5.89,0,0,0,5.62,0,5.73,5.73,0,0,0,0,5.83c0,3.65,2,6.35,4,8.79A39.74,39.74,0,0,0,9,19.24ZM5.62,1.06a4.93,4.93,0,0,1,4.87,3.73.54.54,0,0,0,.51.37h0a.53.53,0,0,0,.51-.37A4.91,4.91,0,0,1,16.4,1.06,4.67,4.67,0,0,1,21,5.83c0,3.31-1.77,5.73-3.74,8.12a39.1,39.1,0,0,1-4.86,4.47L11,19.56c-.34-.3-.8-.68-1.35-1.13A40.55,40.55,0,0,1,4.8,14c-2-2.39-3.74-4.81-3.74-8.12A4.68,4.68,0,0,1,5.62,1.06Z"/></g></g></g></svg>