<svg xmlns="http://www.w3.org/2000/svg" viewBox="0 0 32 32"><defs><style>.cls-1{fill:#de7274;}.cls-2{fill:#fff;}</style></defs><g id="レイヤー_2" data-name="レイヤー 2"><g id="レイヤー_1-2" data-name="レイヤー 1"><g id="レイヤー_2-2" data-name="レイヤー 2"><g id="alert"><circle class="cls-1" cx="16" cy="16" r="16"/></g><path class="cls-2" d="M16.28,6.5c-6.07,0-11,4-11,8.93a7.9,7.9,0,0,0,2.28,5.43,11,11,0,0,1-2,3.15,1,1,0,0,0-.19,1.11,1,1,0,0,0,.94.63,10.45,10.45,0,0,0,6-2,13.28,13.28,0,0,0,4,.61c6.08,0,11-4,11-8.94S22.36,6.5,16.28,6.5Zm0,15.81a11.29,11.29,0,0,1-3.37-.52l-1-.31-.84.59a9.15,9.15,0,0,1-2.47,1.25,11.62,11.62,0,0,0,.86-1.73l.45-1.21-.88-.93a5.9,5.9,0,0,1-1.71-4c0-3.79,4-6.87,8.93-6.87s8.94,3.08,8.94,6.87S21.21,22.31,16.28,22.31Z"/></g></g></g></svg>