<?xml version="1.0" encoding="UTF-8"?><svg xmlns="http://www.w3.org/2000/svg" viewBox="0 0 16 13.13"><defs><style>.e{fill:#66babe;}</style></defs><g id="a"/><g id="b"><g id="c"><path id="d" class="e" d="M8.5,1.82c.87-.71,2.01-.99,3.11-.75,1.17,.14,2.31,.44,3.39,.89V11.89c-1.06-.41-2.16-.68-3.29-.81-1.1-.17-2.22,0-3.21,.49V1.82Zm-.5-.9C6.93,.15,5.59-.15,4.29,.07,2.91,.24,1.56,.61,.29,1.18,.11,1.26,0,1.44,0,1.63V12.63c0,.28,.22,.5,.5,.5,.07,0,.14-.02,.21-.04,1.17-.52,2.41-.87,3.68-1.02,1.41-.14,2.59,.09,3.22,.88,.17,.22,.49,.25,.7,.08,.03-.02,.05-.05,.08-.08,.63-.79,1.81-1.02,3.22-.88,1.27,.15,2.51,.5,3.68,1.02,.25,.11,.55,0,.66-.25,.03-.06,.04-.14,.04-.21V1.63c0-.2-.11-.37-.29-.45-1.27-.57-2.61-.94-3.99-1.11-1.3-.23-2.64,.07-3.71,.84h0Z"/></g></g></svg>