<?xml version="1.0" encoding="UTF-8"?>
<svg id="_レイヤー_2" data-name="レイヤー 2" xmlns="http://www.w3.org/2000/svg" viewBox="0 0 25 21.87">
  <defs>
    <style>
      .cls-1 {
        fill: #de7274;
      }
    </style>
  </defs>
  <g id="_レイヤー_1-2" data-name="レイヤー 1">
    <path class="cls-1" d="m15.3.05c1.27.25,2.09,1.49,1.84,2.76l-.11.56c-.26,1.3-.74,2.54-1.41,3.67h7.03c1.29,0,2.34,1.05,2.34,2.34,0,.9-.51,1.69-1.26,2.08.53.43.87,1.09.87,1.83,0,1.14-.82,2.09-1.9,2.3.21.36.34.77.34,1.22,0,1.04-.68,1.92-1.62,2.23.03.16.05.33.05.51,0,1.29-1.05,2.34-2.34,2.34h-4.76c-.93,0-1.83-.27-2.6-.79l-1.88-1.25c-1.3-.87-2.08-2.33-2.08-3.9v-5.43c0-1.43.65-2.77,1.76-3.66l.36-.29c1.29-1.03,2.18-2.49,2.5-4.11l.11-.56c.25-1.27,1.49-2.09,2.76-1.84h0ZM1.56,7.81h3.12c.86,0,1.56.7,1.56,1.56v10.94c0,.86-.7,1.56-1.56,1.56H1.56c-.86,0-1.56-.7-1.56-1.56v-10.94c0-.86.7-1.56,1.56-1.56Z"/>
  </g>
</svg>