<?xml version="1.0" encoding="UTF-8"?>
<svg id="_レイヤー_2" data-name="レイヤー 2" xmlns="http://www.w3.org/2000/svg" viewBox="0 0 42.41 40.06">
  <defs>
    <style>
      .cls-1 {
        fill: #dc7274;
      }

      .cls-1, .cls-2 {
        stroke-width: 0px;
      }

      .cls-2 {
        fill: #fff;
      }
    </style>
  </defs>
  <g id="_レイヤー_1-2" data-name="レイヤー 1">
    <g id="_レイヤー_2-2" data-name="レイヤー 2">
      <g id="_レイヤー_1-2" data-name="レイヤー 1-2">
        <g id="_レイヤー_2-2" data-name="レイヤー 2-2">
          <g id="_レイヤー_2-2-2" data-name="レイヤー 2-2-2">
            <g id="_レイヤー_1-2-2-2" data-name="レイヤー 1-2-2-2">
              <path class="cls-1" d="m31.5,0c-4.2-.06-8.1,2.16-10.2,5.8C19.15,2.17,15.22-.04,11,0,4.83.1-.1,5.18,0,11.36c0,0,0,0,0,0H0C0,18.36,3.8,23.56,7.6,28.26c2.92,3.19,6.1,6.13,9.5,8.8l.2-.3h0l-.2.3h0c1.4,1.1,2.5,2.1,3.1,2.6.25.23.56.37.9.4h.1c.38.02.74-.12,1-.4.5-.5,1.7-1.5,3.1-2.6,3.4-2.67,6.58-5.61,9.5-8.8,3.9-4.7,7.6-9.9,7.6-16.9C42.6,5.3,37.87.22,31.81,0h-.31Z"/>
              <path class="cls-2" d="m11,2.7c4.3,0,7.5,2.5,8.9,6.8.18.56.71.93,1.3.9.58,0,1.09-.36,1.3-.9,1.4-4.3,4.6-6.8,8.9-6.8,4.69.11,8.41,4,8.3,8.7,0,0,0,0,0,0h0c0,6.1-3.3,10.7-7,15.2-2.79,3.09-5.87,5.9-9.2,8.4-.9.8-1.7,1.4-2.4,2-.6-.6-1.5-1.2-2.4-2-3.27-2.57-6.31-5.41-9.1-8.5-3.7-4.5-7-9-7-15.2,0-4.67,3.73-8.48,8.4-8.6Z"/>
            </g>
          </g>
        </g>
      </g>
    </g>
  </g>
</svg>