<svg xmlns="http://www.w3.org/2000/svg" viewBox="0 0 32 32.13"><defs><style>.cls-1{fill:#ae9a65;}.cls-2{fill:none;}.cls-2,.cls-3{stroke:#ae9a65;stroke-linecap:round;stroke-linejoin:round;stroke-width:3px;}.cls-3{fill:#f4787e;}</style></defs><g id="レイヤー_2" data-name="レイヤー 2"><g id="edit_出発_到着"><path class="cls-1" d="M26.06,32.13H5.94A6,6,0,0,1,0,26.19V9.32A6,6,0,0,1,5.94,3.38H26.06A6,6,0,0,1,32,9.32V26.19A6,6,0,0,1,26.06,32.13ZM5.94,6.12a3.21,3.21,0,0,0-3.2,3.2V26.19a3.21,3.21,0,0,0,3.2,3.2H26.06a3.21,3.21,0,0,0,3.2-3.2V9.32a3.21,3.21,0,0,0-3.2-3.2Z"/><line class="cls-2" x1="10.15" y1="1.5" x2="10.15" y2="8"/><line class="cls-3" x1="21.85" y1="1.5" x2="21.85" y2="8"/><rect class="cls-1" x="13.07" y="12.07" width="5.85" height="3.25" rx="1"/><rect class="cls-1" x="20.39" y="12.07" width="5.85" height="3.25" rx="1"/><rect class="cls-1" x="5.76" y="16.94" width="5.85" height="3.25" rx="1"/><rect class="cls-1" x="13.07" y="16.94" width="5.85" height="3.25" rx="1"/><rect class="cls-1" x="20.39" y="16.94" width="5.85" height="3.25" rx="1"/><rect class="cls-1" x="5.76" y="21.82" width="5.85" height="3.25" rx="1"/><rect class="cls-1" x="13.07" y="21.82" width="5.85" height="3.25" rx="1"/></g></g></svg>