<svg xmlns="http://www.w3.org/2000/svg" viewBox="0 0 33 33"><defs><style>.cls-1{fill:#a6a6a6;}.cls-2{fill:none;}</style></defs><title>icon-meal</title><g id="レイヤー_2" data-name="レイヤー 2"><g id="レイヤー_1-2" data-name="レイヤー 1"><path class="cls-1" d="M3.93,4.26C2.49,2.61-.14,4.17,1,6.77c.78,1.74,2.3,6,4.41,9s4.37,2.73,6.64,3.47l1.64.84L24.91,33l2.27-2h0L12.66,14.3Z"/><path class="cls-1" d="M30.77,6.67l-3.9,4.49a.68.68,0,0,1-1,.07l-.14-.12a.69.69,0,0,1-.07-1l3.93-4.51a1.18,1.18,0,0,0-.14-1.81,1.17,1.17,0,0,0-1.82.11L23.74,8.44a.68.68,0,0,1-1,.07l-.14-.12a.69.69,0,0,1-.06-1l3.9-4.49a1.25,1.25,0,1,0-1.9-1.63L20.84,5.59c-2.08,2.37-2.05,3.48-1.75,5,.24,1.26.59,2.16-.7,3.65l-1.91,2.19,2,2.29,2.18-2.51c1.29-1.48,2.23-1.26,3.51-1.2,1.59.08,2.69-.05,4.75-2.44l3.73-4.28A1.25,1.25,0,1,0,30.77,6.67Z"/><polygon class="cls-1" points="12.45 21.11 3.84 31.01 6.11 32.99 14.54 23.29 12.81 21.29 12.45 21.11"/><rect class="cls-2" width="33" height="33"/></g></g></svg>