<svg xmlns="http://www.w3.org/2000/svg" viewBox="0 0 42.44 40.12"><defs><style>.cls-1{fill:#fff;}</style></defs><g id="レイヤー_2" data-name="レイヤー 2"><g id="レイヤー_1-2" data-name="レイヤー 1"><g id="レイヤー_2-2" data-name="レイヤー 2"><g id="spot02"><path id="heart_w" data-name="heart w" class="cls-1" d="M31.45,0A11.51,11.51,0,0,0,21.22,5.83,11.5,11.5,0,0,0,11,0,11.22,11.22,0,0,0,0,11.4c0,7,3.77,12.21,7.64,16.9a77.52,77.52,0,0,0,9.5,8.8l.23-.26h0l-.22.26h0c1.35,1.12,2.51,2.08,3.06,2.63a1.31,1.31,0,0,0,.93.39h.1a1.34,1.34,0,0,0,1-.39c.55-.55,1.71-1.5,3.09-2.64a77,77,0,0,0,9.53-8.81c3.86-4.68,7.63-9.85,7.63-16.89A11.21,11.21,0,0,0,31.45,0ZM11,2.69c4.29,0,7.54,2.49,8.92,6.84a1.36,1.36,0,0,0,1.33.93,1.32,1.32,0,0,0,1.28-.94c1.36-4.34,4.61-6.83,8.92-6.83a8.53,8.53,0,0,1,8.31,8.71c0,6.15-3.32,10.69-7,15.18A74.71,74.71,0,0,1,23.58,35c-.92.76-1.73,1.43-2.37,2-.64-.56-1.47-1.25-2.35-2a74.69,74.69,0,0,1-9.15-8.45c-3.7-4.49-7-9-7-15.18A8.54,8.54,0,0,1,11,2.69Z"/></g></g></g></g></svg>