<svg xmlns="http://www.w3.org/2000/svg" width="26" height="26" viewBox="0 0 26 26"><g transform="translate(-3022 789)"><circle cx="13" cy="13" r="13" transform="translate(3022 -789)" fill="#d17877"/><g transform="translate(1527.744 -1335.288)"><path d="M1499.52,565.961a34.971,34.971,0,0,0,2.319-3.227,2.521,2.521,0,0,0-.491-2.975,2.587,2.587,0,0,0-3.658,0,2.523,2.523,0,0,0-.49,2.975,34.9,34.9,0,0,0,2.319,3.227Zm0-5.944a1.571,1.571,0,1,1-1.571,1.572,1.571,1.571,0,0,1,1.571-1.572Z" transform="translate(0 -3.109)" fill="#fff"/><path d="M1529.8,559.605a34.987,34.987,0,0,0,2.319-3.227,2.521,2.521,0,0,0-.491-2.974,2.587,2.587,0,0,0-3.657,0,2.523,2.523,0,0,0-.491,2.974A34.952,34.952,0,0,0,1529.8,559.605Zm0-5.944a1.571,1.571,0,1,1-1.571,1.571,1.571,1.571,0,0,1,1.571-1.571Z" transform="translate(-14.812)" fill="#fff"/><path d="M1501.685,573.451a.675.675,0,0,1-.174-1.328l2.174-.583a.675.675,0,0,1,.349,1.3l-2.174.582a.668.668,0,0,1-.175.024Zm4.349-1.165a.675.675,0,0,1-.174-1.328l2.174-.583a.675.675,0,1,1,.349,1.3l-2.174.582A.669.669,0,0,1,1506.034,572.285Zm4.349-1.165a.675.675,0,0,1-.174-1.328l2.174-.583a.675.675,0,0,1,.35,1.3l-2.175.582A.673.673,0,0,1,1510.384,571.12Zm4.349-1.165a.675.675,0,0,1-.174-1.328l2.174-.583a.675.675,0,0,1,.35,1.3l-2.175.583a.667.667,0,0,1-.175.022Z" transform="translate(-2 -7.521)" fill="#fff"/></g></g></svg>