<svg xmlns="http://www.w3.org/2000/svg" viewBox="0 0 60 24"><defs><style>.cls-1{fill:#4a4a4a;}.cls-2{fill:none;}.cls-3{fill:#fff;}</style></defs><g id="レイヤー_2" data-name="レイヤー 2"><g id="レイヤー_1-2" data-name="レイヤー 1"><rect id="長方形_237" data-name="長方形 237" class="cls-1" width="60" height="24" rx="2"/><g id="swap_vert_black_24dp" data-name="swap vert black 24dp"><path id="パス_131" data-name="パス 131" class="cls-2" d="M33,0H57V24H33Z"/><path id="パス_132" data-name="パス 132" class="cls-3" d="M49,17V10H47v7H44l4,4,4-4ZM42,3,38,7h3v7h2V7h3Zm7,14V10H47v7H44l4,4,4-4ZM42,3,38,7h3v7h2V7h3Z"/></g><g id="image_black_24dp" data-name="image black 24dp"><path id="パス_133" data-name="パス 133" class="cls-2" d="M3,0H27V24H3Z"/><path id="パス_134" data-name="パス 134" class="cls-3" d="M22,5V19H8V5H22m0-2H8A2,2,0,0,0,6,5V19a2,2,0,0,0,2,2H22a2,2,0,0,0,2-2V5A2,2,0,0,0,22,3Zm-4.86,8.86-3,3.87L12,13.14,9,17H21Z"/></g></g></g></svg>