<svg xmlns="http://www.w3.org/2000/svg" viewBox="0 0 106 17"><defs><style>.cls-1{fill:#057639;}.cls-2{isolation:isolate;}.cls-3{fill:#fff;}</style></defs><g id="レイヤー_2" data-name="レイヤー 2"><g id="レイヤー_1-2" data-name="レイヤー 1"><path id="長方形_146" data-name="長方形 146" class="cls-1" d="M5,0h96a5,5,0,0,1,5,5v7a5,5,0,0,1-5,5H0V5A5,5,0,0,1,5,0Z"/><g id="いかがでしたか" class="cls-2"><g class="cls-2"><path class="cls-3" d="M12.68,4.16c.38,0,.48.21.48.51V6.2c0,.77,0,1.49.05,2a8.38,8.38,0,0,0,.68,3.08.94.94,0,0,0,.73.54.75.75,0,0,0,.68-.37,4.44,4.44,0,0,0,.59-1.82c0-.3.18-.44.43-.44a.3.3,0,0,1,.13,0,.44.44,0,0,1,.45.46.37.37,0,0,1,0,.11A5.36,5.36,0,0,1,16,12.27a1.69,1.69,0,0,1-1.33.71,1.73,1.73,0,0,1-1.45-.84,8.2,8.2,0,0,1-1-3.83c-.07-1-.08-2.36-.08-3.64A.48.48,0,0,1,12.68,4.16Zm6.62.61a.47.47,0,0,1,.41.24,12.78,12.78,0,0,1,2.17,6v.09a.52.52,0,0,1-.42.58h-.13a.48.48,0,0,1-.5-.47,12.07,12.07,0,0,0-2-5.7.49.49,0,0,1-.1-.3A.43.43,0,0,1,19,4.86.55.55,0,0,1,19.3,4.77Z"/><path class="cls-3" d="M26.3,3.62a.41.41,0,0,1,.45-.42h.11c.28,0,.43.17.43.41a.41.41,0,0,1,0,.11,20.06,20.06,0,0,1-.4,2.05l.93,0c1.64,0,2.36.84,2.36,2.71a12.17,12.17,0,0,1-.42,3.2,1.9,1.9,0,0,1-2,1.61A3.77,3.77,0,0,1,26,12.84a.51.51,0,0,1-.26-.44.41.41,0,0,1,.06-.24.41.41,0,0,1,.38-.26.66.66,0,0,1,.32.08,3,3,0,0,0,1.27.3c.5,0,.81-.22,1-1a11.84,11.84,0,0,0,.35-2.88c0-1.33-.35-1.78-1.48-1.78-.41,0-.73,0-1,.05-.19.7-.41,1.4-.65,2.1a21.94,21.94,0,0,1-1.94,4.26.53.53,0,0,1-.46.3.45.45,0,0,1-.26-.09.47.47,0,0,1-.26-.42.57.57,0,0,1,.09-.31,20.77,20.77,0,0,0,1.91-4c.19-.56.39-1.14.55-1.73-.61,0-1.46.17-2.15.27h-.1A.4.4,0,0,1,23,6.66a.31.31,0,0,1,0-.1.43.43,0,0,1,.4-.44c.72-.11,1.72-.23,2.5-.29C26.06,5.1,26.19,4.35,26.3,3.62Zm7.29,6a.42.42,0,0,1-.3.43.48.48,0,0,1-.23.05.47.47,0,0,1-.45-.37,15,15,0,0,0-2.22-4.27.38.38,0,0,1-.09-.24.54.54,0,0,1,.52-.48.54.54,0,0,1,.43.22,14.49,14.49,0,0,1,2.3,4.45A.56.56,0,0,1,33.59,9.58Z"/><path class="cls-3" d="M37.7,3.67a.41.41,0,0,1,.45-.42h.12c.28,0,.42.18.42.41v.11c-.09.68-.25,1.39-.4,2.05l.92,0c1.64,0,2.36.84,2.36,2.71a12.25,12.25,0,0,1-.42,3.21,1.89,1.89,0,0,1-2,1.6,3.76,3.76,0,0,1-1.74-.43.51.51,0,0,1-.26-.44.48.48,0,0,1,.06-.24.42.42,0,0,1,.38-.27.68.68,0,0,1,.32.09,3,3,0,0,0,1.27.3c.5,0,.81-.22,1-1a11.76,11.76,0,0,0,.35-2.87c0-1.34-.35-1.78-1.48-1.78-.41,0-.73,0-1,0-.19.7-.41,1.4-.65,2.1a21.94,21.94,0,0,1-1.94,4.26.48.48,0,0,1-.72.21.47.47,0,0,1-.26-.42.61.61,0,0,1,.09-.31,20.77,20.77,0,0,0,1.91-4c.19-.57.39-1.14.55-1.73-.61.05-1.46.17-2.15.27h-.11a.4.4,0,0,1-.4-.39.28.28,0,0,1,0-.09.44.44,0,0,1,.4-.45c.72-.1,1.72-.22,2.5-.28C37.46,5.14,37.59,4.4,37.7,3.67Zm4.15,1.74A.45.45,0,0,1,42.1,5a.51.51,0,0,1,.26-.07.52.52,0,0,1,.43.21A14.82,14.82,0,0,1,45,9.41a.6.6,0,0,1,0,.22.43.43,0,0,1-.3.43.68.68,0,0,1-.23,0A.46.46,0,0,1,44,9.74a14.91,14.91,0,0,0-2.08-4.09A.37.37,0,0,1,41.85,5.41ZM43,3.3a.37.37,0,0,1,.31.13,7.35,7.35,0,0,1,1,1.34.69.69,0,0,1,.08.31.37.37,0,0,1-.4.34.32.32,0,0,1-.31-.2,7.31,7.31,0,0,0-1-1.31.44.44,0,0,1-.11-.29A.34.34,0,0,1,43,3.3Zm1.32-.77a.49.49,0,0,1,.33.14,7.46,7.46,0,0,1,1,1.31.6.6,0,0,1,.07.3.37.37,0,0,1-.37.34.33.33,0,0,1-.31-.2,8.2,8.2,0,0,0-.9-1.27A.35.35,0,0,1,44,2.84.37.37,0,0,1,44.34,2.53Z"/><path class="cls-3" d="M53.2,5a14.72,14.72,0,0,1-1.5.22c-1.71.14-3.39.3-4.92.42h-.06a.46.46,0,0,1-.51-.46v0a.48.48,0,0,1,.44-.5c2.93-.23,6.09-.43,9-.57h0a.48.48,0,0,1,.52.47v0a.46.46,0,0,1-.47.51l-.67.1c-2.59.43-4.4,2.16-4.4,4.09a2.41,2.41,0,0,0,1.53,2.31,5.58,5.58,0,0,0,2.25.45.47.47,0,0,1,.52.49v.06a.51.51,0,0,1-.57.54,6.35,6.35,0,0,1-2.7-.55,3.44,3.44,0,0,1-2.06-3.22c0-1.81,1.27-3.45,3.58-4.28Zm1,1.74a.42.42,0,0,1,.31.13,7.75,7.75,0,0,1,1,1.34.62.62,0,0,1,.08.32.36.36,0,0,1-.39.33.31.31,0,0,1-.31-.2,7.83,7.83,0,0,0-1-1.31.45.45,0,0,1-.12-.29A.36.36,0,0,1,54.21,6.74ZM55.53,6a.44.44,0,0,1,.32.15,6.93,6.93,0,0,1,1,1.3.63.63,0,0,1,.08.3.37.37,0,0,1-.38.34.35.35,0,0,1-.31-.19,6.4,6.4,0,0,0-.9-1.27.37.37,0,0,1-.14-.32A.37.37,0,0,1,55.53,6Z"/><path class="cls-3" d="M60.15,3.9v0C60.09,5.7,60,7.82,60,9.74c0,1.13.15,1.75.53,2.12a2.6,2.6,0,0,0,1.83.5,3.5,3.5,0,0,0,2.56-1A5.72,5.72,0,0,0,66.18,9c.09-.28.26-.41.46-.41a.63.63,0,0,1,.19,0,.51.51,0,0,1,.37.5.75.75,0,0,1,0,.2,6.72,6.72,0,0,1-1.6,2.88,4.55,4.55,0,0,1-3.25,1.27,3.47,3.47,0,0,1-2.55-.83c-.56-.54-.81-1.32-.81-2.84,0-1.86.06-4.08.15-5.84a.48.48,0,0,1,.51-.5h0A.45.45,0,0,1,60.15,3.9Z"/><path class="cls-3" d="M69.08,6.2h-.24a.41.41,0,0,1-.43-.47v0a.42.42,0,0,1,.45-.45c.65,0,1.46,0,2.23-.06.14-.56.26-1.13.35-1.69a.42.42,0,0,1,.46-.38H72a.42.42,0,0,1,.43.42.41.41,0,0,1,0,.1c-.09.46-.18.95-.3,1.47.8-.07,1.59-.17,2.23-.29h.12a.4.4,0,0,1,.43.38.53.53,0,0,1,0,.12.43.43,0,0,1-.35.44c-.77.13-1.71.24-2.68.31a39.64,39.64,0,0,1-2.34,6.83.52.52,0,0,1-.46.33.68.68,0,0,1-.27-.07.48.48,0,0,1-.27-.44,1,1,0,0,1,.07-.3,34.6,34.6,0,0,0,2.26-6.28C70.27,6.16,69.63,6.2,69.08,6.2Zm4.1,5.07a.86.86,0,0,0,.54.84,4,4,0,0,0,1.64.23A14.16,14.16,0,0,0,78,12.1h.16a.42.42,0,0,1,.45.37.53.53,0,0,1,0,.12.49.49,0,0,1-.44.5,12.38,12.38,0,0,1-2.71.26A5,5,0,0,1,73.21,13a1.62,1.62,0,0,1-1-1.62A2.29,2.29,0,0,1,73,9.73a.47.47,0,0,1,.32-.15.54.54,0,0,1,.27.09.4.4,0,0,1,.19.34.39.39,0,0,1-.12.28A1.35,1.35,0,0,0,73.18,11.27Zm4.46-4.7a.47.47,0,0,1,.47.51.43.43,0,0,1-.45.46H76.54a17.13,17.13,0,0,0-2.79.25h-.11a.44.44,0,0,1-.47-.41.34.34,0,0,1,0-.1.45.45,0,0,1,.38-.46,18.81,18.81,0,0,1,3.06-.28Z"/><path class="cls-3" d="M82.9,3.62a.42.42,0,0,1,.46-.42h.11c.27,0,.43.17.43.41a.41.41,0,0,1,0,.11c-.1.68-.24,1.39-.4,2.05l.92,0c1.65,0,2.37.84,2.37,2.71a12.17,12.17,0,0,1-.42,3.2,1.91,1.91,0,0,1-2,1.61,3.71,3.71,0,0,1-1.74-.44.53.53,0,0,1-.21-.68.42.42,0,0,1,.39-.26.65.65,0,0,1,.31.08,3.08,3.08,0,0,0,1.27.3c.51,0,.82-.22,1-1a11.84,11.84,0,0,0,.35-2.88c0-1.33-.35-1.78-1.47-1.78-.41,0-.74,0-1,.05-.19.7-.4,1.4-.64,2.1a21.94,21.94,0,0,1-1.95,4.26.52.52,0,0,1-.45.3.48.48,0,0,1-.27-.09.49.49,0,0,1-.26-.42.51.51,0,0,1,.1-.31,20.76,20.76,0,0,0,1.9-4c.19-.56.4-1.14.55-1.73-.61,0-1.46.17-2.14.27H80a.41.41,0,0,1-.41-.38.31.31,0,0,1,0-.1A.44.44,0,0,1,80,6.12c.72-.11,1.71-.23,2.49-.29C82.66,5.1,82.79,4.35,82.9,3.62Zm7.29,6a.41.41,0,0,1-.3.43.44.44,0,0,1-.22.05.47.47,0,0,1-.46-.37A14.51,14.51,0,0,0,87,5.42a.37.37,0,0,1-.08-.24.47.47,0,0,1,.26-.41.5.5,0,0,1,.25-.07.56.56,0,0,1,.44.22,14.71,14.71,0,0,1,2.3,4.45A.82.82,0,0,1,90.19,9.58Z"/></g></g></g></g></svg>