<svg xmlns="http://www.w3.org/2000/svg" viewBox="0 0 42.45 40.13"><defs><style>.cls-1{fill:gray;}</style></defs><g id="レイヤー_2" data-name="レイヤー 2"><g id="spot02"><path id="heart_w" class="cls-1" d="M31.45,0A11.48,11.48,0,0,0,21.22,5.83,11.5,11.5,0,0,0,11,0,11.21,11.21,0,0,0,0,11.4c0,7,3.77,12.21,7.64,16.9a77.52,77.52,0,0,0,9.5,8.8l.23-.26h0l-.22.26h0c1.35,1.12,2.51,2.08,3.06,2.63a1.31,1.31,0,0,0,.93.39h.1a1.36,1.36,0,0,0,.95-.39c.55-.55,1.71-1.5,3.09-2.64,3-2.45,7-5.8,9.53-8.81,3.86-4.68,7.63-9.85,7.63-16.89A11.21,11.21,0,0,0,31.45,0ZM11,2.69c4.29,0,7.54,2.49,8.92,6.84a1.35,1.35,0,0,0,1.33.93,1.33,1.33,0,0,0,1.28-.94c1.36-4.34,4.61-6.83,8.92-6.83a8.53,8.53,0,0,1,8.31,8.71c0,6.15-3.32,10.69-7,15.18A75.25,75.25,0,0,1,23.58,35c-.92.76-1.73,1.43-2.37,2-.64-.56-1.47-1.25-2.35-2a75.17,75.17,0,0,1-9.15-8.45c-3.7-4.49-7-9-7-15.18A8.53,8.53,0,0,1,11,2.69Z"/></g></g></svg>