<svg xmlns="http://www.w3.org/2000/svg" viewBox="0 0 27.51 26"><defs><style>.cls-1{fill:#725521;}</style></defs><g id="レイヤー_2" data-name="レイヤー 2"><g id="header"><g id="レイヤー_2-2" data-name="レイヤー 2"><g id="mypage_nav" data-name="mypage nav"><path id="heart" class="cls-1" d="M11.22,24.05a21.5,21.5,0,0,1,2,1.76.66.66,0,0,0,.46.19h.06a.68.68,0,0,0,.47-.19c.37-.38,1.15-1,2.05-1.76a50.17,50.17,0,0,0,6.25-5.77c2.52-3.06,5-6.43,5-11A7.17,7.17,0,0,0,20.5,0a7.34,7.34,0,0,0-6.74,4.08A7.38,7.38,0,0,0,7,0,7.17,7.17,0,0,0,0,7.29c0,4.56,2.46,7.93,5,11A49.84,49.84,0,0,0,11.22,24.05ZM7,1.33A6.14,6.14,0,0,1,13.11,6a.67.67,0,0,0,.64.46h0A.65.65,0,0,0,14.41,6,6.14,6.14,0,0,1,20.5,1.33a5.84,5.84,0,0,1,5.7,6v0c0,4.13-2.21,7.16-4.68,10.15A48.77,48.77,0,0,1,15.46,23c-.69.56-1.27,1-1.7,1.43-.43-.38-1-.86-1.7-1.43A49.09,49.09,0,0,1,6,17.44c-2.46-3-4.67-6-4.67-10.15A5.83,5.83,0,0,1,7,1.33Z"/></g></g></g></g></svg>