<svg xmlns="http://www.w3.org/2000/svg" viewBox="0 0 33 33"><defs><style>.cls-1{fill:#fcc;}.cls-2{fill:none;}</style></defs><title>icon-sightseeing</title><g id="レイヤー_2" data-name="レイヤー 2"><g id="レイヤー_1-2" data-name="レイヤー 1"><path class="cls-1" d="M16.75,15.91a5.49,5.49,0,0,0-3.91,1.63,5.61,5.61,0,0,0,0,7.89,5.49,5.49,0,0,0,7.81,0,5.61,5.61,0,0,0,0-7.89A5.49,5.49,0,0,0,16.75,15.91Zm0,9a3.44,3.44,0,1,1,3.4-3.44A3.42,3.42,0,0,1,16.75,24.93Z"/><path class="cls-1" d="M32,11.91a3.29,3.29,0,0,0-2.34-1H26.11a.75.75,0,0,1-.68-.45L24.36,8.08a3.32,3.32,0,0,0-3-2H12.15a3.32,3.32,0,0,0-3,2L8.06,10.49a.75.75,0,0,1-.68.45H3.8a3.33,3.33,0,0,0-2.35,1,3.36,3.36,0,0,0-1,2.35V29.67A3.31,3.31,0,0,0,3.8,33H29.69A3.33,3.33,0,0,0,33,29.67V14.26A3.33,3.33,0,0,0,32,11.91ZM22,26.82a7.45,7.45,0,0,1-10.59,0,7.57,7.57,0,0,1,0-10.67,7.45,7.45,0,0,1,10.59,0,7.57,7.57,0,0,1,0,10.67Zm7.78-9.89H27.55V14.65h2.27Z"/><rect class="cls-2" width="33" height="33"/></g></g></svg>