<svg xmlns="http://www.w3.org/2000/svg" viewBox="0 0 33 33"><defs><style>.cls-1{fill:none;}.cls-2{fill:#64ccdd;}</style></defs><title>icon-experience</title><g id="レイヤー_2" data-name="レイヤー 2"><g id="レイヤー_1-2" data-name="レイヤー 1"><rect class="cls-1" width="33" height="33"/><path class="cls-2" d="M17,6.25a3.13,3.13,0,1,0-3.13-3.13A3.13,3.13,0,0,0,17,6.25Z"/><path class="cls-2" d="M23.78,25.67,22.34,18l-.65-6.77c-.41-4.48-4.76-4.16-6.88-2.08L11.28,12.8,8,13.87l-.65-3.69a.75.75,0,0,0-.86-.6.73.73,0,0,0-.6.86l.68,3.89-.08,0A1.29,1.29,0,0,0,5.68,16l0,.05a1.29,1.29,0,0,0,1.3.9L9.71,32.28A.74.74,0,1,0,11.17,32L8.46,16.59l2.94-.67a5.64,5.64,0,0,0,1.93-.84l1.92-1.29L15.93,19a12.07,12.07,0,0,1-.5,2.34l-2.89,9.8a1.5,1.5,0,0,0,1,1.84h.06a1.48,1.48,0,0,0,1.8-.91l3.9-9.57,1,4.35a2.67,2.67,0,0,0,.56.77l4.61,4.89a1.45,1.45,0,0,0,2,.06l.07-.06a1.46,1.46,0,0,0,.49-1,1.43,1.43,0,0,0-.37-1.06Z"/><path class="cls-2" d="M26.4,17.51a2,2,0,0,0,1.35-.71,2,2,0,0,0,.45-1.46l-.43-4.68a2,2,0,0,0-2.16-1.8l-2.4.22L24,17.72Z"/></g></g></svg>