<svg xmlns="http://www.w3.org/2000/svg" viewBox="0 0 33 33"><defs><style>.cls-1{fill:#d5d5d5;}.cls-2{fill:#fff;}</style></defs><title>icon-blank</title><g id="レイヤー_2" data-name="レイヤー 2"><g id="レイヤー_1-2" data-name="レイヤー 1"><g id="グループ_38" data-name="グループ 38"><circle id="楕円形_25" data-name="楕円形 25" class="cls-1" cx="16.5" cy="16.5" r="16.5"/><path id="パス_59" data-name="パス 59" class="cls-2" d="M8.6,24h0l-.28-.08a1.33,1.33,0,0,1-.26-1.47A1.36,1.36,0,0,1,8.4,22a2,2,0,0,1,1.74-.34,20.62,20.62,0,0,0,1.33-4.28,37.93,37.93,0,0,0,.45-5.32C12,10.5,12,9.22,12,8.34a22.06,22.06,0,0,1,2.7-.29,11.56,11.56,0,0,1,4.1.29,5.6,5.6,0,0,1,3,1.62A5.09,5.09,0,0,1,23,13.14a4.61,4.61,0,0,1-1,3.32,4.35,4.35,0,0,1-2.35,1.39,11.17,11.17,0,0,0,1.74,2.08,12.18,12.18,0,0,0,2.67,1.89c-.75.75-2.44,3-3.47,2.87-1.41-.2-1.31-1.64-.71-2.43a16.16,16.16,0,0,1-3.66-4.16H15.4l-.81,0a13.53,13.53,0,0,1-2.33,6.37,12.93,12.93,0,0,1-2-.08A8.9,8.9,0,0,1,8.6,24Zm6.23-8.67c.35,0,1,.13,1.26.13a10.31,10.31,0,0,0,1.47,0,2,2,0,0,0,2.07-1.95,1.38,1.38,0,0,0,0-.29c0-1.25-.45-2.41-2.58-2.51-.39,0-1.06,0-1.19,0l-.83.06c-.07,1.48-.12,3-.19,4.52Z"/></g></g></g></svg>