<svg xmlns="http://www.w3.org/2000/svg" viewBox="0 0 42.41 40.1"><defs><style>.cls-1{fill:#fff;}</style></defs><g id="レイヤー_2" data-name="レイヤー 2"><g id="レイヤー_1-2" data-name="レイヤー 1"><g id="レイヤー_2-2" data-name="レイヤー 2"><g id="レイヤー_1-2-2" data-name="レイヤー 1-2"><path class="cls-1" d="M31.5,0A11.58,11.58,0,0,0,21.3,5.8,11.86,11.86,0,0,0,11,0,11.18,11.18,0,0,0,0,11.4c0,7,3.8,12.2,7.6,16.9a79.24,79.24,0,0,0,9.5,8.8l.2-.3h0l-.2.3h0c1.4,1.1,2.5,2.1,3.1,2.6a1.49,1.49,0,0,0,.9.4h.1a1.28,1.28,0,0,0,1-.4c.5-.5,1.7-1.5,3.1-2.6a79.24,79.24,0,0,0,9.5-8.8c3.9-4.7,7.6-9.9,7.6-16.9A11,11,0,0,0,31.5,0Z"/><path class="cls-1" d="M11,2.7c4.3,0,7.5,2.5,8.9,6.8a1.29,1.29,0,0,0,1.3.9,1.42,1.42,0,0,0,1.3-.9c1.4-4.3,4.6-6.8,8.9-6.8a8.5,8.5,0,0,1,8.3,8.7c0,6.1-3.3,10.7-7,15.2A66.45,66.45,0,0,1,23.5,35c-.9.8-1.7,1.4-2.4,2-.6-.6-1.5-1.2-2.4-2a73.27,73.27,0,0,1-9.1-8.5c-3.7-4.5-7-9-7-15.2A8.62,8.62,0,0,1,11,2.7Z"/></g></g></g></g></svg>