<svg xmlns="http://www.w3.org/2000/svg" viewBox="0 0 33.92 8.41"><defs><style>.cls-1{fill:#7e9e9f;}.cls-2{fill:#fff;}</style></defs><g id="レイヤー_2" data-name="レイヤー 2"><g id="レイヤー_1-2" data-name="レイヤー 1"><path class="cls-1" d="M5,8.4a1,1,0,0,1-.84-.47L4,8.09a1,1,0,0,1-.72.31H1.9a1,1,0,0,1-.7-.29L.3,7.23A1,1,0,0,1,0,6.51V4.8a1,1,0,0,1,.28-.69l.63-.65a1,1,0,0,1-.87-1v-.6a1,1,0,0,1,1-1H2.51A1,1,0,0,1,3.5,0h.61A1,1,0,0,1,5,.55a1,1,0,0,1,.61-.2h.86a1,1,0,0,1,.71.29L8,1.47a1,1,0,0,1,.28.7V3a1,1,0,0,1-.44.83L8,4a1,1,0,0,1,.28.7v1.8A1,1,0,0,1,8,7.24l-.88.87a1,1,0,0,1-.7.29Zm.64-2.59V5.45H5.11v.36Z"/><path class="cls-2" d="M6.41,7.4H5V6.81H6.15l.53-.53V5l-.53-.53h-2V6.58l-.79.82H1.9L1,6.51V4.8l1-1H3.5V2.47H1v-.6H3.5V1h.61v.86H5.26v.6H4.11V3.83h2.3l.87.9v1.8ZM3.5,4.45H2.19l-.6.62v1.2l.53.55H3l.49-.5ZM6.7,3V2.45L6.21,2h-.6V1.35h.86l.81.82V3Z"/><path class="cls-1" d="M12.93,8.41a1,1,0,0,1-1-.71H9.74A1,1,0,0,1,9,7.41L8.1,6.49a1,1,0,0,1-.3-.71V4.21a1,1,0,0,1,.3-.71l.13-.13a1,1,0,0,1-.89-1V1.79a1,1,0,0,1,1-1H12a1,1,0,0,1,1-.79h.61a1,1,0,0,1,1,.79h.12a1,1,0,0,1,1,1v.59a1,1,0,0,1-1,1h-.09v4a1,1,0,0,1-1,1Zm-1-3.31V4.88H10.41V5.1Z"/><path class="cls-2" d="M13.54,2.38v5h-.61V6.7H9.74L8.8,5.78V4.21l.94-.92h3.19V2.38H8.34V1.79h4.59V1h.61v.79h1.09v.59Zm-.61,1.5H10l-.57.57V5.54L10,6.1h2.95Z"/><path class="cls-1" d="M20.26,8.41a1,1,0,0,1-1-.71H17.07a1,1,0,0,1-.71-.29l-.93-.92a1,1,0,0,1-.29-.71V4.21a1,1,0,0,1,.29-.71l.13-.13a1,1,0,0,1-.89-1V1.79a1,1,0,0,1,1-1h3.61a1,1,0,0,1,1-.79h.61a1,1,0,0,1,1,.79H22a1,1,0,0,1,1,1v.59a1,1,0,0,1-1,1h-.09v4a1,1,0,0,1-1,1Zm-1-3.31V4.88H17.74V5.1Z"/><path class="cls-2" d="M20.87,2.38v5h-.61V6.7H17.07l-.93-.92V4.21l.93-.92h3.19V2.38H15.67V1.79h4.59V1h.61v.79H22v.59Zm-.61,1.5H17.32l-.58.57V5.54l.58.56h2.94Z"/><path class="cls-1" d="M27,8.41a1,1,0,0,1-.57-.18,1.07,1.07,0,0,1-.58.18h-1.7a1,1,0,0,1-.72-.31L22.29,6.87a1,1,0,0,1-.28-.7V3.37a1,1,0,0,1,.29-.7l.77-.78-.19-.59A1,1,0,0,1,23,.41,1,1,0,0,1,23.84,0h.58a1,1,0,0,1,1,.71l.08.24h1.35L27,.62A1,1,0,0,1,27.87,0h.62a1,1,0,0,1,.83.44,1,1,0,0,1,.1.93l-.2.51.79.79a1,1,0,0,1,.3.71V6.24a1,1,0,0,1-.27.67L29,8.08a1,1,0,0,1-.74.33Zm.66-2.79v0Z"/><path class="cls-2" d="M28.24,7.41H27v-.6H28L28.7,6V3.63l-.91-.91-1.9,4.69h-1.7L23,6.17V3.37l1.19-1.2L23.84,1h.58l.3,1h2.76L27.87,1h.62L28,2.12l1.27,1.26V6.24ZM24.91,2.56l1,3.13h-.56l-.91-2.88-.82.81v2.3l.85.89h1l1.75-4.25Z"/><path class="cls-1" d="M29.7,8.06a1,1,0,0,1-.57-1.29l.36-.95a1.49,1.49,0,0,1,.18-.3.84.84,0,0,1,.07-.35L31.43.78a1,1,0,0,1,1.3-.57l.55.22a1,1,0,0,1,.57,1.29L32.16,6.1a.92.92,0,0,1-.18.3,1.07,1.07,0,0,1-.06.35l-.37,1a1,1,0,0,1-1.3.57Z"/><path class="cls-2" d="M30.67,5.53l1.7-4.39.55.22L31.23,5.74Zm-.61,1.6.37-1,.55.21-.37,1Z"/></g></g></svg>