<svg xmlns="http://www.w3.org/2000/svg" width="30.815" height="30.815" viewBox="0 0 30.815 30.815"><path d="M0,0H30.815V30.815H0Z" fill="none"/><path d="M14.84,2a12.84,12.84,0,1,0,12.84,12.84A12.844,12.844,0,0,0,14.84,2ZM8.51,22.9c.552-1.156,3.916-2.285,6.33-2.285s5.791,1.13,6.33,2.285a10.176,10.176,0,0,1-12.66,0Zm14.5-1.862c-1.836-2.234-6.291-2.992-8.166-2.992s-6.33.758-8.166,2.992a10.272,10.272,0,1,1,16.332,0ZM14.84,7.136a4.494,4.494,0,1,0,4.494,4.494A4.482,4.482,0,0,0,14.84,7.136Zm0,6.42a1.926,1.926,0,1,1,1.926-1.926A1.923,1.923,0,0,1,14.84,13.556Z" transform="translate(0.568 0.568)" fill="#fff"/></svg>