<?xml version="1.0" encoding="UTF-8"?>
<svg id="_レイヤー_2" data-name="レイヤー 2" xmlns="http://www.w3.org/2000/svg" viewBox="0 0 25 21.87">
  <defs>
    <style>
      .cls-1 {
        fill: #848484;
      }
    </style>
  </defs>
  <g id="_レイヤー_1-2" data-name="レイヤー 1">
    <path class="cls-1" d="m15.81.14c-1.86-.53-3.81.55-4.34,2.41l-.28.98c-.18.63-.51,1.22-.95,1.71l-2.5,2.75c-.43.48-.4,1.22.08,1.65s1.22.4,1.65-.08l2.5-2.75c.69-.76,1.19-1.66,1.47-2.64l.28-.98c.18-.62.83-.98,1.45-.81s.98.83.81,1.45l-.28.98c-.28.97-.72,1.89-1.3,2.71-.25.36-.28.83-.08,1.22s.6.63,1.04.63h6.52c.43,0,.78.35.78.78,0,.33-.21.62-.51.73-.36.14-.63.44-.73.82s0,.77.26,1.06c.12.14.2.32.2.52,0,.38-.27.7-.63.77-.4.08-.74.36-.88.74s-.08.82.18,1.14c.1.13.17.3.17.48,0,.33-.21.62-.5.73-.56.22-.86.83-.7,1.41.02.06.03.14.03.21,0,.43-.35.78-.78.78h-4.76c-.62,0-1.22-.18-1.73-.52l-3.01-2.01c-.54-.36-1.26-.21-1.63.33s-.21,1.26.33,1.63l3.01,2.01c.9.6,1.95.92,3.03.92h4.76c1.69,0,3.07-1.35,3.12-3.03.71-.57,1.17-1.45,1.17-2.44,0-.22-.02-.43-.06-.63.75-.57,1.24-1.47,1.24-2.49,0-.32-.05-.62-.14-.91.57-.57.92-1.35.92-2.22,0-1.72-1.4-3.12-3.12-3.12h-4.51c.23-.51.42-1.03.58-1.57l.28-.98c.53-1.86-.55-3.81-2.41-4.34h0ZM1.56,7.81c-.86,0-1.56.7-1.56,1.56v10.94c0,.86.7,1.56,1.56,1.56h3.12c.86,0,1.56-.7,1.56-1.56v-10.94c0-.86-.7-1.56-1.56-1.56H1.56Z"/>
  </g>
</svg>