<?xml version="1.0" encoding="UTF-8"?>
<svg id="_レイヤー_2" data-name="レイヤー 2" xmlns="http://www.w3.org/2000/svg" viewBox="0 0 32 33">
  <defs>
    <style>
      .cls-1, .cls-2 {
        fill: none;
      }

      .cls-2 {
        stroke: #725521;
        stroke-linejoin: round;
        stroke-width: 3px;
      }
    </style>
  </defs>
  <g id="_レイヤー_1-2" data-name="レイヤー 1">
    <g id="_レイヤー_2-2" data-name="レイヤー 2">
      <g id="_レイヤー_1-2" data-name="レイヤー 1-2">
        <path class="cls-2" d="m22.6,7.18c-3.29-.05-6.11,2.36-6.56,5.63-.47-3.25-3.27-5.64-6.55-5.59-3.78-.11-6.91,2.8-6.91,8.11,0,6.82,7.71,9.97,12.99,15.06.18.18.14.18.14.18.08.1.21.16.34.17h0c.13,0,.25-.06.34-.17,0,0-.04,0,.14-.18,5.28-5.09,12.99-8.24,12.99-15.06,0-5.31-3.12-8.22-6.9-8.15Z"/>
      </g>
    </g>
    <rect class="cls-1" width="32" height="33"/>
  </g>
</svg>