<svg xmlns="http://www.w3.org/2000/svg" viewBox="0 0 32.02 32.02"><defs><style>.cls-1{fill:#4285f4;}.cls-1,.cls-2,.cls-3,.cls-4{fill-rule:evenodd;}.cls-2{fill:#34a853;}.cls-3{fill:#fbbc05;}.cls-4{fill:#ea4335;}.cls-5{fill:none;}</style></defs><g id="レイヤー_2" data-name="レイヤー 2"><g id="レイヤー_1-2" data-name="レイヤー 1"><g id="グループ_40" data-name="グループ 40"><path id="Shape" class="cls-1" d="M31.37,16.37a17.07,17.07,0,0,0-.29-3.27H16v6.19h8.61a7.36,7.36,0,0,1-3.19,4.83v4H26.6a15.56,15.56,0,0,0,4.77-11.76Z"/><path id="Shape-2" class="cls-2" d="M16,32A15.29,15.29,0,0,0,26.6,28.14l-5.17-4A9.66,9.66,0,0,1,7.05,19.05H1.7V23.2A16,16,0,0,0,16,32Z"/><path id="Shape-3" class="cls-3" d="M7.05,19.05a9.45,9.45,0,0,1,0-6.08V8.82H1.7a16,16,0,0,0,0,14.38Z"/><path id="Shape-4" class="cls-4" d="M16,6.37a8.66,8.66,0,0,1,6.12,2.39l4.59-4.59A15.38,15.38,0,0,0,16,0,16,16,0,0,0,1.7,8.82L7.05,13a9.52,9.52,0,0,1,9-6.6Z"/><path id="Shape-5" class="cls-5" d="M0,0H32V32H0Z"/></g></g></g></svg>