<svg xmlns="http://www.w3.org/2000/svg" viewBox="0 0 32 32"><defs><style>.cls-1{fill:#de7274;}</style></defs><g id="レイヤー_2" data-name="レイヤー 2"><g id="レイヤー_1-2" data-name="レイヤー 1"><path class="cls-1" d="M16,0A16,16,0,1,0,32,16,16,16,0,0,0,16,0Zm-.73,15.5a1,1,0,0,1-.89.5h0a1.06,1.06,0,0,0-.73.3l-.36.37a.52.52,0,0,0,0,.73l.36.36a1,1,0,0,1,.31.73v.61a1,1,0,0,1-1,1h-.39a1,1,0,0,1-.92-.57l-1.46-2.92a.52.52,0,0,0-.83-.13L8,17.76a1,1,0,0,1-.73.3h-4A12.72,12.72,0,0,1,3.1,16,12.9,12.9,0,0,1,20,3.73L16.74,6.22a.51.51,0,0,0,.06.89l.69.35a1,1,0,0,1,.57.92v5a.52.52,0,0,1-.51.52h-.2a.52.52,0,0,1-.46-.29.29.29,0,0,0-.5,0L15.27,15.5Zm11.05,7.11a1.06,1.06,0,0,1-.3.73L25.4,24a1,1,0,0,1-.73.3h-1A1,1,0,0,1,23,24l-.84-.84a1.73,1.73,0,0,0-1.64-.46L19.11,23a1,1,0,0,1-.25,0H18.2a1,1,0,0,1-.73-.31L16.7,22a.51.51,0,0,1-.15-.37v-.66a.53.53,0,0,1,.32-.48l2.54-1a1.58,1.58,0,0,0,.36-.2l1.53-1.09a.53.53,0,0,1,.3-.09h.78a.52.52,0,0,1,.48.31l.34.83a.26.26,0,0,0,.24.16h.24a.26.26,0,0,0,.25-.18l.27-.94a.27.27,0,0,1,.25-.18h.39a.26.26,0,0,1,.26.25v.84a.49.49,0,0,0,.15.36l.77.77a1.06,1.06,0,0,1,.3.73v1.59Z"/></g></g></svg>