<svg xmlns="http://www.w3.org/2000/svg" width="30.815" height="30.815" viewBox="0 0 30.815 30.815"><path d="M0,0H30.815V30.815H0Z" fill="none"/><path d="M20.618,3A7.689,7.689,0,0,0,14.84,5.684,7.689,7.689,0,0,0,9.062,3,6.993,6.993,0,0,0,2,10.062c0,4.853,4.366,8.808,10.978,14.817l1.862,1.682L16.7,24.866c6.612-6,10.978-9.951,10.978-14.8A6.993,6.993,0,0,0,20.618,3ZM14.968,22.966l-.128.128-.128-.128C8.6,17.432,4.568,13.773,4.568,10.062A4.388,4.388,0,0,1,9.062,5.568,5.02,5.02,0,0,1,13.646,8.6h2.4a4.988,4.988,0,0,1,4.571-3.03,4.388,4.388,0,0,1,4.494,4.494C25.112,13.773,21.08,17.432,14.968,22.966Z" transform="translate(0.568 0.852)" fill="#fff"/></svg>