<svg xmlns="http://www.w3.org/2000/svg" viewBox="0 0 60 60"><defs><style>.cls-1{fill:#fff;}.cls-2{fill:#dccda9;}</style></defs><g id="レイヤー_2" data-name="レイヤー 2"><g id="spot_detail"><g id="nav"><g id="root"><circle class="cls-1" cx="30" cy="30" r="30"/><g id="root-2" data-name="root"><path class="cls-2" d="M30,14.59,45.41,30,30,45.41,14.59,30,30,14.59M30,13a1.6,1.6,0,0,0-1.13.47l-15.4,15.4a1.59,1.59,0,0,0,0,2.26l15.4,15.4a1.59,1.59,0,0,0,2.26,0l15.4-15.4a1.59,1.59,0,0,0,0-2.26l-15.4-15.4A1.6,1.6,0,0,0,30,13Z"/><path class="cls-2" d="M28.74,23.89l1.07,1.38A12.64,12.64,0,0,0,27,28a10.59,10.59,0,0,0-2.08,6.25v3.62h2.79V34.29a7.79,7.79,0,0,1,1.54-4.61,9.61,9.61,0,0,1,2.25-2.2L32.69,29l2.23-5.73c.08-.2,0-.35-.25-.31Z"/></g></g></g></g></g></svg>