<?xml version="1.0" encoding="UTF-8"?><svg id="_レイヤー_2" xmlns="http://www.w3.org/2000/svg" viewBox="0 0 24.2 24.2"><defs><style>.cls-1{fill:#725521;}</style></defs><g id="_レイヤー_1-2"><path class="cls-1" d="M2.13,24.2c-.57,0-1.07-.21-1.49-.63-.42-.42-.64-.93-.64-1.49V3.52H2.5V21.71H20.68v2.5H2.13Zm3.52-3.52c-.57,0-1.07-.21-1.49-.64-.42-.42-.64-.92-.64-1.49V2.13c0-.57,.21-1.07,.64-1.49,.42-.42,.92-.64,1.49-.64H22.08c.57,0,1.07,.21,1.49,.64s.64,.92,.64,1.49V18.55c0,.57-.21,1.07-.64,1.49-.42,.42-.93,.64-1.49,.64H5.65Zm16.06-2.5V2.5h-1.02V10.94l-3.1-1.9-3.1,1.9V2.5H6.02v15.69h15.69Z"/></g></svg>