<svg xmlns="http://www.w3.org/2000/svg" viewBox="0 0 33 33.05"><defs><style>.cls-1,.cls-4{fill:none;}.cls-2{fill:#85b8df;}.cls-3{fill:#fff;}.cls-4{stroke:#85b8df;stroke-linecap:round;stroke-miterlimit:10;stroke-width:2.1px;}</style></defs><title>icon-shopping</title><g id="レイヤー_2" data-name="レイヤー 2"><g id="レイヤー_1-2" data-name="レイヤー 1"><rect class="cls-1" y="0.05" width="33" height="33"/><path class="cls-2" d="M3.17,11.79a1.31,1.31,0,0,1,1.28-1.16h24a1.32,1.32,0,0,1,1.28,1.16l2.05,20.1a1,1,0,0,1-1.05,1.16H2.16a1,1,0,0,1-1-1.16Z"/><ellipse class="cls-3" cx="9.59" cy="15.31" rx="1.91" ry="1.97"/><ellipse class="cls-3" cx="23.9" cy="15.31" rx="1.91" ry="1.97"/><path class="cls-4" d="M9.59,15.82V8.43a7.27,7.27,0,0,1,7.15-7.38h0A7.28,7.28,0,0,1,23.9,8.43v7.39"/></g></g></svg>