<svg xmlns="http://www.w3.org/2000/svg" viewBox="0 0 60 60"><defs><style>.cls-1{fill:#db7274;}.cls-2{fill:#fff;}</style></defs><g id="レイヤー_2" data-name="レイヤー 2"><g id="map_spot"><g id="bookmark"><g id="bookmark_active"><circle class="cls-1" cx="30" cy="30" r="30"/><path id="heart_w" class="cls-2" d="M37.52,16.75A8.45,8.45,0,0,0,30,21a8.44,8.44,0,0,0-7.51-4.29,8.25,8.25,0,0,0-8.08,8.38c0,5.18,2.77,9,5.61,12.42A57,57,0,0,0,27,44l.16-.19h0L27,44h0c1,.82,1.85,1.53,2.25,1.93a1.05,1.05,0,0,0,.69.29H30a1,1,0,0,0,.7-.29c.4-.4,1.25-1.1,2.27-1.94a57.1,57.1,0,0,0,7-6.47c2.84-3.45,5.61-7.24,5.61-12.42A8.25,8.25,0,0,0,37.52,16.75Zm-15,2a6.64,6.64,0,0,1,6.56,5,1,1,0,0,0,1,.69,1,1,0,0,0,.94-.69,6.62,6.62,0,0,1,6.56-5,6.26,6.26,0,0,1,6.1,6.4c0,4.52-2.44,7.86-5.16,11.16a54.55,54.55,0,0,1-6.73,6.2L30,43.94c-.47-.41-1.08-.91-1.72-1.44a54.56,54.56,0,0,1-6.73-6.21c-2.72-3.3-5.16-6.64-5.16-11.16A6.26,6.26,0,0,1,22.48,18.73Z"/></g></g></g></g></svg>