<?xml version="1.0" encoding="UTF-8"?>
<svg id="_レイヤー_2" data-name="レイヤー 2" xmlns="http://www.w3.org/2000/svg" viewBox="0 0 37.5 11">
  <defs>
    <style>
      .cls-1 {
        fill: #fff;
      }

      .cls-2 {
        fill: #81c5b4;
        stroke: #bfebff;
        stroke-miterlimit: 10;
      }
    </style>
  </defs>
  <g id="_レイヤー_2-2" data-name="レイヤー 2">
    <rect class="cls-2" x=".5" y=".5" width="36.5" height="10" rx="5" ry="5"/>
    <g>
      <path class="cls-1" d="m9.54,8.51V2.47h2.69c.36,0,.68.13.94.4.26.26.39.58.39.95v.33c0,.4-.11.71-.33.93s-.56.36-1,.41c.45,0,.78.14,1,.41.22.27.33.58.33.94v.33c0,.37-.13.68-.39.95s-.58.4-.94.4h-2.69Zm1.34-3.36h.67c.19,0,.35-.07.48-.2.13-.13.2-.29.2-.47v-.67c0-.19-.07-.35-.2-.48-.13-.13-.29-.2-.48-.2h-.67v2.01Zm0,2.69h.67c.19,0,.35-.07.48-.2.13-.13.2-.29.2-.47v-.67c0-.45-.23-.67-.68-.67h-.67v2.01Z"/>
      <path class="cls-1" d="m15.1,8.51V2.47h3.35v.67h-2.01v2.01h1.34v.68h-1.34v2.01h2.01v.67h-3.35Z"/>
      <path class="cls-1" d="m20.96,8.51V3.14h-1.34v-.67h4.02v.67h-1.34v5.37h-1.34Z"/>
      <path class="cls-1" d="m24.76,8.51V3.82c0-.37.13-.69.4-.95.27-.26.58-.39.95-.39h1.34c.36,0,.68.13.94.4.26.26.39.58.39.95v4.69h-1.34v-2.68h-1.34v2.68h-1.34Zm1.34-3.36h1.34v-1.33c0-.19-.07-.35-.2-.48-.13-.13-.29-.2-.48-.2s-.34.07-.47.2c-.13.13-.2.29-.2.48v1.33Z"/>
    </g>
  </g>
</svg>