<svg xmlns="http://www.w3.org/2000/svg" viewBox="0 0 206.2 17.91"><defs><style>.cls-1{fill:#a98c48;}</style></defs><g id="レイヤー_2" data-name="レイヤー 2"><g id="レイヤー_1-2" data-name="レイヤー 1"><polygon points="8.1 0.4 8.1 6.5 2.7 6.5 2.7 0.4 0 0.4 0 15.6 2.7 15.6 2.7 9.2 8.1 9.2 8.1 15.6 10.9 15.6 10.9 0.4 8.1 0.4"/><path d="M21.3,0a7.9,7.9,0,0,0-7.7,8,7.9,7.9,0,0,0,7.7,8A7.9,7.9,0,0,0,29,8,7.9,7.9,0,0,0,21.3,0Zm0,13.4a5.16,5.16,0,0,1-5.1-5.3,5.1,5.1,0,0,1,10.2-.4v.5a5.2,5.2,0,0,1-5.1,5.2Z"/><polygon points="39.9 0.4 29.7 0.4 29.7 3.1 33.6 3.1 33.6 15.8 36.2 15.8 36.2 3.1 39.9 3.1 39.9 0.4"/><polygon points="56.2 13.1 56.2 0.4 53.5 0.4 53.5 15.6 60.8 15.6 60.8 13.1 56.2 13.1"/><rect x="92.7" y="0.4" width="2.7" height="15.1"/><polygon points="75.8 15.6 78.9 15.6 73.2 7 78.9 0.4 75.4 0.4 69.8 7.2 69.8 0.4 67.1 0.4 67.1 15.6 69.8 15.6 69.8 10.8 71.4 9.1 75.8 15.6"/><polygon points="135.3 9.2 135.3 0.4 137.9 0.4 137.9 15.6 136.4 15.6 130.1 6.9 130.1 15.6 127.5 15.6 127.5 0.4 129 0.4 135.3 9.2"/><polygon points="106.4 0.4 106.4 6.5 101 6.5 101 0.4 98.3 0.4 98.3 15.6 101 15.6 101 9.2 106.4 9.2 106.4 15.6 109.2 15.6 109.2 0.4 106.4 0.4"/><polygon points="89.8 3.1 89.8 0.4 81.1 0.4 81.1 15.6 89.8 15.6 89.8 13.1 83.8 13.1 83.8 9.3 88.4 9.3 89.4 7.3 89.4 6.7 83.8 6.7 83.8 3.1 89.8 3.1"/><path d="M119.2.4h-1.7l-6.4,15.2h3.3l.8-2h6.2l.8,2h3.3ZM118.3,11h-2.1l2.1-5.3,2.1,5.3Z"/><polygon points="51.1 3.1 51.1 0.4 42.3 0.4 42.3 15.6 51.1 15.6 51.1 13.1 45 13.1 45 9.3 49.7 9.3 50.7 7.3 50.7 6.7 45 6.7 45 3.1 51.1 3.1"/><path class="cls-1" d="M148.4,4.3a9.24,9.24,0,0,1,3.9.9V7.5a5.79,5.79,0,0,0-3.8-1.4,4.55,4.55,0,0,0-2,.5,2.74,2.74,0,0,0-1.3,1.3,4.14,4.14,0,0,0-.5,1.9,3.39,3.39,0,0,0,1,2.6,3.62,3.62,0,0,0,2.7,1,2.77,2.77,0,0,0,.9-.1c.3-.1.6-.2,1-.3V10.8h-2.5V9.1h4.4v4.8a4.94,4.94,0,0,1-1.8.8,7.8,7.8,0,0,1-2.2.3,5.66,5.66,0,0,1-2.9-.7,5.24,5.24,0,0,1-2-1.9,5,5,0,0,1-.7-2.7,5.55,5.55,0,0,1,.7-2.8,5.2,5.2,0,0,1,2-1.9A6.7,6.7,0,0,1,148.4,4.3Z"/><path class="cls-1" d="M178,4.4l5.6,7.3V4.4h1.8V14.8h-1.6l-5.6-7.4v7.4h-1.8V4.4Z"/><path class="cls-1" d="M192.3,4.4a5.3,5.3,0,0,1,2.8.7A4.36,4.36,0,0,1,197,7a5,5,0,0,1,.7,2.7,5,5,0,0,1-.7,2.7,4.69,4.69,0,0,1-1.9,1.8,6.53,6.53,0,0,1-2.9.7h-4.1V4.4Zm-.2,8.9a3.43,3.43,0,0,0,3.6-3.6,3.62,3.62,0,0,0-1-2.7,3.39,3.39,0,0,0-2.6-1h-2v7.3Z"/><path class="cls-1" d="M170.8,4.4h-2l-4.2,10.4h2l1-2.5.3-.9h3.8l.4.9,1,2.5h2.1Zm-1,2.3,1.3,3.3h-2.6Z"/><polygon class="cls-1" points="201.5 13.3 201.5 12.4 201.5 10.4 205.2 10.4 205.7 8.9 201.5 8.9 201.5 8.8 201.5 6.9 201.5 6 206.1 6 206.1 4.4 199.5 4.4 199.5 14.9 206.2 14.9 206.2 13.3 201.5 13.3"/><path class="cls-1" d="M163.3,14.9c-.3-.5-.8-1.4-1.4-2.6-.4-.7-.7-1.3-.9-1.6a1.6,1.6,0,0,0-.9-.7,3.45,3.45,0,0,0,1.3-1,2.73,2.73,0,0,0,.4-1.6,2.58,2.58,0,0,0-.9-2.1,3.57,3.57,0,0,0-2.3-.8H155V14.9h1.9V10.5h.7a1.88,1.88,0,0,1,.8.2,2.85,2.85,0,0,1,.7.8,12.55,12.55,0,0,1,1.2,2.2,5.9,5.9,0,0,1,.4.8h0s1.2,2.3,2.4,2.9a8.39,8.39,0,0,0,3.1.5A8.69,8.69,0,0,1,163.3,14.9Zm-3.9-6.4a1.59,1.59,0,0,1-1.2.4H157V6h1.2a1.59,1.59,0,0,1,1.2.4,1.25,1.25,0,0,1,.4,1.1A1,1,0,0,1,159.4,8.5Z"/></g></g></svg>