<svg xmlns="http://www.w3.org/2000/svg" width="40.488" height="26" viewBox="0 0 40.488 26">
  <g id="keiro" transform="translate(-1496.908 -552.646)">
    <path id="パス_1821" data-name="パス 1821" d="M1502.01,572.623a68.379,68.379,0,0,0,4.54-6.316,4.935,4.935,0,0,0-.961-5.823,5.064,5.064,0,0,0-7.159,0,4.938,4.938,0,0,0-.96,5.823A68.379,68.379,0,0,0,1502.01,572.623Zm0-11.634a3.075,3.075,0,1,1-3.074,3.076A3.077,3.077,0,0,1,1502.01,560.989Z" fill="#fff"/>
    <path id="パス_1822" data-name="パス 1822" d="M1532.294,566.267a68.482,68.482,0,0,0,4.54-6.317,4.935,4.935,0,0,0-.962-5.822,5.063,5.063,0,0,0-7.158,0,4.938,4.938,0,0,0-.961,5.822A68.438,68.438,0,0,0,1532.294,566.267Zm0-11.634a3.075,3.075,0,1,1-3.075,3.075A3.075,3.075,0,0,1,1532.294,554.633Z" fill="#fff"/>
    <path id="パス_1823" data-name="パス 1823" d="M1502.333,578.646a1.322,1.322,0,0,1-.341-2.6l4.256-1.141a1.322,1.322,0,0,1,.684,2.554l-4.256,1.14A1.316,1.316,0,0,1,1502.333,578.646Zm8.513-2.281a1.322,1.322,0,0,1-.341-2.6l4.256-1.141a1.322,1.322,0,1,1,.684,2.554l-4.256,1.14A1.31,1.31,0,0,1,1510.846,576.365Zm8.513-2.281a1.322,1.322,0,0,1-.341-2.6l4.256-1.141a1.322,1.322,0,0,1,.685,2.554l-4.257,1.14A1.313,1.313,0,0,1,1519.359,574.084Zm8.513-2.281a1.322,1.322,0,0,1-.341-2.6l4.256-1.141a1.322,1.322,0,0,1,.685,2.553l-4.257,1.141A1.31,1.31,0,0,1,1527.872,571.8Z" fill="#fff"/>
  </g>
</svg>
