<svg xmlns="http://www.w3.org/2000/svg" viewBox="0 0 80 80"><defs><style>.cls-1{fill:#00b900;}.cls-2{fill:#fff;}</style></defs><g id="レイヤー_2" data-name="レイヤー 2"><g id="spot_detail"><g id="contents"><g id="line"><circle class="cls-1" cx="40" cy="40" r="40"/><g id="TYPE_A" data-name="TYPE A"><path class="cls-2" d="M66.61,37.6C66.61,25.69,54.67,16,40,16S13.39,25.69,13.39,37.6c0,10.67,9.47,19.61,22.25,21.3.87.19,2,.57,2.35,1.31a5.45,5.45,0,0,1,.08,2.41s-.31,1.88-.37,2.28c-.12.67-.54,2.63,2.3,1.43s15.32-9,20.9-15.45h0c3.86-4.23,5.71-8.52,5.71-13.28"/><path class="cls-1" d="M34.59,31.85H32.73a.51.51,0,0,0-.52.51V44a.51.51,0,0,0,.52.51h1.86a.51.51,0,0,0,.52-.51V32.36a.51.51,0,0,0-.52-.51"/><path class="cls-1" d="M47.44,31.85H45.57a.51.51,0,0,0-.51.51v6.89l-5.32-7.17,0-.06h0l0,0h0l0,0h0l0,0h0l0,0H37.44a.51.51,0,0,0-.51.51V44a.51.51,0,0,0,.51.51h1.87a.51.51,0,0,0,.52-.51V37.07l5.32,7.18a.4.4,0,0,0,.13.13h0l0,0h0l0,0h.08a.3.3,0,0,0,.13,0h1.87A.51.51,0,0,0,48,44V32.36a.51.51,0,0,0-.52-.51"/><path class="cls-1" d="M30.1,41.57H25V32.36a.52.52,0,0,0-.51-.52H22.64a.52.52,0,0,0-.52.52V44h0a.51.51,0,0,0,.15.35h0a.51.51,0,0,0,.36.14H30.1a.51.51,0,0,0,.51-.52V42.09a.51.51,0,0,0-.51-.52"/><path class="cls-1" d="M57.75,34.75a.51.51,0,0,0,.51-.52V32.36a.52.52,0,0,0-.51-.52H50.29a.51.51,0,0,0-.36.15h0a.49.49,0,0,0-.15.35h0V44h0a.51.51,0,0,0,.15.35h0a.51.51,0,0,0,.36.14h7.46a.51.51,0,0,0,.51-.52V42.09a.51.51,0,0,0-.51-.52H52.68v-2h5.07a.51.51,0,0,0,.51-.52V37.23a.51.51,0,0,0-.51-.52H52.68v-2Z"/></g></g></g></g></g></svg>