<svg xmlns="http://www.w3.org/2000/svg" viewBox="0 0 102 43"><defs><style>.cls-1,.cls-7{fill:#dccda9;}.cls-2{fill:#fff;stroke-width:2px;}.cls-2,.cls-7{stroke:#dccda9;stroke-miterlimit:10;}.cls-3,.cls-4,.cls-5,.cls-6{isolation:isolate;}.cls-4,.cls-5,.cls-6{font-size:26px;fill:#bfa060;font-family:Lato-Semibold, Lato;font-weight:600;}.cls-4{letter-spacing:0.06em;}.cls-5{letter-spacing:0.03em;}.cls-6{letter-spacing:0.05em;}</style></defs><g id="レイヤー_2" data-name="レイヤー 2"><g id="レイヤー_1-2" data-name="レイヤー 1"><g id="レイヤー_2-2" data-name="レイヤー 2"><g id="spot_detail" data-name="spot detail"><g id="spot_info_details" data-name="spot info details"><g id="tel_button" data-name="tel button"><rect class="cls-1" x="1" y="5" width="100" height="38" rx="8"/><rect class="cls-2" x="1" y="1" width="100" height="38" rx="6"/><g class="cls-3"><text class="cls-4" transform="translate(33.27 29.2)">M</text><text class="cls-5" transform="translate(58.11 29.2)">A</text><text class="cls-6" transform="translate(76.57 29.2)">P</text></g></g></g></g></g><path class="cls-7" d="M28.55,11.21l-.16,0-5.34,2.07-6-2.1-5.64,1.9a.5.5,0,0,0-.36.48V28.71a.5.5,0,0,0,.5.5l.16,0,5.34-2.07,6,2.1,5.64-1.9a.5.5,0,0,0,.36-.48V11.71A.5.5,0,0,0,28.55,11.21Zm-5.5,16-6-2.11V13.21l6,2.11Z"/></g></g></svg>