<svg xmlns="http://www.w3.org/2000/svg" viewBox="0 0 102 43"><defs><style>.cls-1,.cls-6{fill:#dccda9;}.cls-2{fill:#fff;stroke-width:2px;}.cls-2,.cls-6{stroke:#dccda9;stroke-miterlimit:10;}.cls-3{font-size:26px;fill:#bfa060;font-family:Lato-Semibold, Lato;font-weight:600;letter-spacing:0.06em;}.cls-4{letter-spacing:0.06em;}.cls-5{letter-spacing:0.08em;}</style></defs><g id="レイヤー_2" data-name="レイヤー 2"><g id="spot_detail"><g id="spot_info_details"><g id="tel_button"><rect class="cls-1" x="1" y="5" width="100" height="38" rx="8"/><rect class="cls-2" x="1" y="1" width="100" height="38" rx="6"/><text class="cls-3" transform="translate(37.99 29.2)">T<tspan class="cls-4" x="17.12" y="0">E</tspan><tspan class="cls-5" x="33.58" y="0">L</tspan></text><g id="phone"><path class="cls-6" d="M14.18,30.21H25.93a.9.9,0,0,0,.9-.91V11.12a.9.9,0,0,0-.9-.91H14.18a.91.91,0,0,0-.91.91V29.3A.91.91,0,0,0,14.18,30.21ZM14,11.12a.24.24,0,0,1,.23-.23H25.93a.23.23,0,0,1,.22.23v15H14ZM14,26.8h12.2v2.5a.22.22,0,0,1-.22.23H14.18A.23.23,0,0,1,14,29.3Z"/><path class="cls-6" d="M20.15,29a.89.89,0,1,0,0-1.77.89.89,0,0,0,0,1.77Z"/></g></g></g></g></g></svg>