<svg xmlns="http://www.w3.org/2000/svg" width="30" height="30" viewBox="0 0 30 30">
  <g id="グループ_420" data-name="グループ 420" transform="translate(-1133.347 -1180.589)">
    <circle id="楕円形_140" data-name="楕円形 140" cx="15" cy="15" r="15" transform="translate(1133.347 1180.589)" fill="#dccda9"/>
    <path id="パス_1690" data-name="パス 1690" d="M1148.347,1205.589a100.264,100.264,0,0,0,6.666-9.275,7.245,7.245,0,0,0-1.411-8.549,7.436,7.436,0,0,0-10.512,0,7.249,7.249,0,0,0-1.41,8.549A100.424,100.424,0,0,0,1148.347,1205.589Zm0-17.083a4.515,4.515,0,1,1-4.514,4.516A4.517,4.517,0,0,1,1148.347,1188.506Z" fill="#fff"/>
  </g>
</svg>
