<svg xmlns="http://www.w3.org/2000/svg" width="30" height="30" viewBox="0 0 30 30">
  <g id="グループ_384" data-name="グループ 384" transform="translate(-1133.347 -1052.589)">
    <circle id="楕円形_145" data-name="楕円形 145" cx="15" cy="15" r="15" transform="translate(1133.347 1052.589)" fill="#dccda9"/>
    <path id="パス_1696" data-name="パス 1696" d="M1148.264,1067.044a.635.635,0,1,0,.635.635A.636.636,0,0,0,1148.264,1067.044Z" fill="#fff"/>
    <path id="パス_1697" data-name="パス 1697" d="M1153.39,1061.834l-4.429,4.429a1.564,1.564,0,0,0-1.412.009l-2.577-2.476a.473.473,0,0,0-.662.007l-.23.23a.473.473,0,0,0,0,.668l2.576,2.576a.507.507,0,0,0,.067.055,1.58,1.58,0,1,0,3.121.347,1.568,1.568,0,0,0-.2-.764l4.413-4.412a.473.473,0,1,0-.669-.669Zm-5.126,6.481a.635.635,0,1,1,.635-.636A.636.636,0,0,1,1148.264,1068.315Z" fill="#fff"/>
    <path id="パス_1698" data-name="パス 1698" d="M1148.347,1057.589a10,10,0,1,0,10,10A10.011,10.011,0,0,0,1148.347,1057.589Zm8.513,10.5h.527a9.065,9.065,0,0,1-8.649,8.542v-.456a.473.473,0,1,0-.945,0v.448a9.066,9.066,0,0,1-8.5-9.036c0-.055,0-.108,0-.162h.559a.472.472,0,0,0,0-.945h-.493a9.067,9.067,0,0,1,8.431-7.929v.318a.473.473,0,0,0,.945,0v-.327a9.067,9.067,0,0,1,8.653,8.6h-.531a.472.472,0,0,0,0,.945Z" fill="#fff"/>
  </g>
</svg>
