<svg xmlns="http://www.w3.org/2000/svg" width="30" height="30" viewBox="0 0 30 30">
  <g id="グループ_383" data-name="グループ 383" transform="translate(-1134.356 -1094.589)">
    <circle id="楕円形_142" data-name="楕円形 142" cx="15" cy="15" r="15" transform="translate(1134.356 1094.589)" fill="#dccda9"/>
    <path id="パス_1694" data-name="パス 1694" d="M1156.653,1102.2a4.583,4.583,0,0,0-2.369-1.848,13.456,13.456,0,0,0-4.928-.759,11.188,11.188,0,0,0-5.972,1.286,3.956,3.956,0,0,0-1.324,1.321,2.861,2.861,0,0,0-.405,1.455v10.128a2.946,2.946,0,0,0,2.947,2.947h.867l-2.038,2.863h1.629l.489-.793h7.614l.489.793h1.63l-2.039-2.863h.868a2.946,2.946,0,0,0,2.947-2.947v-10.128A2.882,2.882,0,0,0,1156.653,1102.2Zm-10.632,15.836.5-.809h5.671l.5.809Zm10.093-4.253a2,2,0,0,1-2,2H1144.6a2,2,0,0,1-2-2v-10.128a1.925,1.925,0,0,1,.275-.978,3.658,3.658,0,0,1,1.9-1.447,12.532,12.532,0,0,1,4.578-.693,10.305,10.305,0,0,1,5.466,1.138,3.028,3.028,0,0,1,1.016,1,1.917,1.917,0,0,1,.276.978v10.128Z" fill="#fff"/>
    <path id="パス_1695" data-name="パス 1695" d="M1146.736,1103.554h5.24a.63.63,0,1,0,0-1.261h-5.24a.63.63,0,1,0,0,1.261Z" fill="#fff"/>
    <circle id="楕円形_143" data-name="楕円形 143" cx="0.787" cy="0.787" r="0.787" transform="translate(1144.821 1112.526)" fill="#fff"/>
    <circle id="楕円形_144" data-name="楕円形 144" cx="0.787" cy="0.787" r="0.787" transform="translate(1152.319 1112.526)" fill="#fff"/>
    <rect id="長方形_192" data-name="長方形 192" width="4.199" height="3.841" transform="translate(1144.513 1105.591)" fill="#fff"/>
    <rect id="長方形_193" data-name="長方形 193" width="4.386" height="3.841" transform="translate(1149.813 1105.591)" fill="#fff"/>
  </g>
</svg>
