<svg xmlns="http://www.w3.org/2000/svg" viewBox="0 0 82 82"><defs><style>.cls-1{fill:none;stroke:#bfa060;stroke-miterlimit:10;stroke-width:2px;}.cls-2{fill:#bfa060;}</style></defs><g id="レイヤー_2" data-name="レイヤー 2"><g id="guide"><rect class="cls-1" x="1" y="1" width="80" height="80" rx="6.08"/><path class="cls-2" d="M33,70.37v2H24.64V57.93H27V70.37Z"/><path class="cls-2" d="M38.06,59.05a1.38,1.38,0,0,1-.43,1,1.62,1.62,0,0,1-.46.31,1.56,1.56,0,0,1-.57.11,1.41,1.41,0,0,1-.54-.11,1.57,1.57,0,0,1-.45-.31,1.59,1.59,0,0,1-.3-.46,1.34,1.34,0,0,1,0-1.11,1.54,1.54,0,0,1,.3-.45,1.39,1.39,0,0,1,.45-.31,1.25,1.25,0,0,1,.54-.12,1.39,1.39,0,0,1,.57.12,1.55,1.55,0,0,1,.78.76A1.47,1.47,0,0,1,38.06,59.05Zm-.36,3.08v10.2H35.55V62.13Z"/><path class="cls-2" d="M47.35,64a.72.72,0,0,1-.18.2.49.49,0,0,1-.25.06.76.76,0,0,1-.37-.1l-.47-.24a3.62,3.62,0,0,0-.64-.23,3.08,3.08,0,0,0-.85-.11,2.39,2.39,0,0,0-.73.1,1.57,1.57,0,0,0-.55.27,1.12,1.12,0,0,0-.34.41,1.06,1.06,0,0,0-.12.5.84.84,0,0,0,.22.6,1.89,1.89,0,0,0,.58.42,5.89,5.89,0,0,0,.82.31l.94.3c.32.11.63.23.94.37a3.46,3.46,0,0,1,.82.52,2.36,2.36,0,0,1,.58.74A2.39,2.39,0,0,1,48,69.15a3.43,3.43,0,0,1-.26,1.33A3.08,3.08,0,0,1,47,71.54a3.6,3.6,0,0,1-1.25.7,5.2,5.2,0,0,1-1.7.25,5.72,5.72,0,0,1-1-.09,6.82,6.82,0,0,1-.94-.26,5.78,5.78,0,0,1-.83-.4,4.42,4.42,0,0,1-.68-.5l.5-.82a.61.61,0,0,1,.22-.23.59.59,0,0,1,.34-.09.72.72,0,0,1,.41.14l.48.29a3.83,3.83,0,0,0,.67.3,3,3,0,0,0,1,.13,2.93,2.93,0,0,0,.83-.11,1.9,1.9,0,0,0,.58-.32,1.34,1.34,0,0,0,.34-.45,1.46,1.46,0,0,0,.11-.55,1,1,0,0,0-.22-.64,1.8,1.8,0,0,0-.59-.43,5,5,0,0,0-.83-.32l-.94-.3c-.32-.11-.64-.23-1-.37a3.56,3.56,0,0,1-.83-.53,2.42,2.42,0,0,1-.58-.79A2.61,2.61,0,0,1,40.81,65a2.87,2.87,0,0,1,.24-1.16,3,3,0,0,1,.72-1,3.5,3.5,0,0,1,1.17-.66A4.69,4.69,0,0,1,44.55,62a5.1,5.1,0,0,1,1.87.33,4.07,4.07,0,0,1,1.41.9Z"/><path class="cls-2" d="M54.35,72.49a2.62,2.62,0,0,1-2-.71,2.79,2.79,0,0,1-.68-2V63.82H50.59a.47.47,0,0,1-.31-.11.45.45,0,0,1-.13-.35v-.87l1.65-.24.47-3a.55.55,0,0,1,.17-.27.46.46,0,0,1,.32-.11h1.1v3.35h2.83v1.55H53.86v5.79a1.13,1.13,0,0,0,.27.84,1,1,0,0,0,.72.29,1.44,1.44,0,0,0,.43-.06l.31-.14.22-.14a.3.3,0,0,1,.19-.07.33.33,0,0,1,.28.2l.65,1a3.72,3.72,0,0,1-1.18.68A4.51,4.51,0,0,1,54.35,72.49Z"/><rect class="cls-2" x="34.01" y="43.64" width="26" height="4"/><rect class="cls-2" x="22.01" y="43.64" width="8" height="4"/><rect class="cls-2" x="34.01" y="31.64" width="26" height="4"/><rect class="cls-2" x="22.01" y="31.64" width="8" height="4"/><rect class="cls-2" x="34.01" y="19.64" width="26" height="4"/><rect class="cls-2" x="22.01" y="19.64" width="8" height="4"/></g></g></svg>