<svg xmlns="http://www.w3.org/2000/svg" viewBox="0 0 32.85 39.62"><defs><style>.cls-1{fill:#fff;}.cls-2{fill:#bfa060;}</style></defs><g id="レイヤー_2" data-name="レイヤー 2"><g id="レイヤー_1-2" data-name="レイヤー 1"><path class="cls-1" d="M4.66,27.84A16.34,16.34,0,0,1,4.65,5L5,4.64a16.4,16.4,0,0,1,22.84,0l.37.36a16.42,16.42,0,0,1,0,22.85L16.44,39.62Z"/><path id="パス_1483" data-name="パス 1483" class="cls-2" d="M31.35,16.41a14.8,14.8,0,0,1-4.2,10.37L16.44,37.5,5.72,26.78A14.92,14.92,0,0,1,5.72,6l.35-.34a14.9,14.9,0,0,1,20.74,0l.34.34A14.83,14.83,0,0,1,31.35,16.41Z"/><path class="cls-1" d="M15.25,21v1.66H7.35V10h7.89v1.66H9.42v3.81h4.66v1.61H9.42V21Z"/><path class="cls-1" d="M18,17.68a2.24,2.24,0,0,1,.36-.33,2.42,2.42,0,0,1,.4-.25,2.2,2.2,0,0,1,.45-.17,2.12,2.12,0,0,1,.52-.06,1.87,1.87,0,0,1,.78.15,1.51,1.51,0,0,1,.57.42,1.77,1.77,0,0,1,.35.65,2.75,2.75,0,0,1,.12.84v3.44H20.37V18.93a1.27,1.27,0,0,0-.25-.85,1,1,0,0,0-.77-.31,1.47,1.47,0,0,0-.71.18,2.68,2.68,0,0,0-.61.48v3.94H16.89V17h.69a.28.28,0,0,1,.3.22Z"/><path class="cls-1" d="M27.44,14.52v7.85h-.69a.27.27,0,0,1-.29-.22l-.1-.59a3,3,0,0,1-.78.65,2,2,0,0,1-1,.24,1.87,1.87,0,0,1-.83-.18,1.73,1.73,0,0,1-.64-.54,2.75,2.75,0,0,1-.41-.86,4.74,4.74,0,0,1-.14-1.19,3.65,3.65,0,0,1,.16-1.12,2.78,2.78,0,0,1,.46-.89,2.16,2.16,0,0,1,.74-.6,2.19,2.19,0,0,1,1-.21,2,2,0,0,1,.81.15,2,2,0,0,1,.6.42V14.52ZM26.3,18.29a1.31,1.31,0,0,0-.53-.43,1.59,1.59,0,0,0-.62-.12,1.23,1.23,0,0,0-1,.49,2.3,2.3,0,0,0-.38,1.45,4.09,4.09,0,0,0,.08.85,1.64,1.64,0,0,0,.25.58.87.87,0,0,0,.39.32,1.19,1.19,0,0,0,.51.1,1.39,1.39,0,0,0,.75-.19,2.07,2.07,0,0,0,.59-.53Z"/></g></g></svg>