<svg xmlns="http://www.w3.org/2000/svg" viewBox="0 0 32.85 39.62"><defs><style>.cls-1{fill:#fff;}.cls-2{fill:#bfa060;}</style></defs><g id="レイヤー_2" data-name="レイヤー 2"><g id="レイヤー_1-2" data-name="レイヤー 1"><path class="cls-1" d="M4.66,27.84A16.34,16.34,0,0,1,4.65,5L5,4.64a16.4,16.4,0,0,1,22.84,0l.37.36a16.42,16.42,0,0,1,0,22.85L16.44,39.62Z"/><path id="パス_1483" data-name="パス 1483" class="cls-2" d="M31.35,16.41a14.8,14.8,0,0,1-4.2,10.37L16.44,37.5,5.72,26.78A14.92,14.92,0,0,1,5.72,6l.35-.34a14.9,14.9,0,0,1,20.74,0l.34.34A14.83,14.83,0,0,1,31.35,16.41Z"/><path class="cls-1" d="M10.86,12.13a.78.78,0,0,1-.2.23.46.46,0,0,1-.27.08A.71.71,0,0,1,10,12.3,5.23,5.23,0,0,0,9.51,12a4.07,4.07,0,0,0-.72-.32,2.84,2.84,0,0,0-1-.15,2.93,2.93,0,0,0-.93.14,1.87,1.87,0,0,0-.67.36,1.59,1.59,0,0,0-.41.56,1.82,1.82,0,0,0-.14.7,1.29,1.29,0,0,0,.26.81,2.15,2.15,0,0,0,.67.54,4.84,4.84,0,0,0,1,.4l1.1.37a10.34,10.34,0,0,1,1.09.44,3.68,3.68,0,0,1,1,.62,2.92,2.92,0,0,1,.67.93,3.08,3.08,0,0,1,.25,1.32,4.15,4.15,0,0,1-.29,1.58,3.52,3.52,0,0,1-.84,1.29,3.75,3.75,0,0,1-1.35.87,5,5,0,0,1-1.83.31,5.69,5.69,0,0,1-1.18-.12A5,5,0,0,1,5,22.31a5.38,5.38,0,0,1-1-.52,5.07,5.07,0,0,1-.82-.69l.6-1a.64.64,0,0,1,.2-.2.6.6,0,0,1,.27-.07.79.79,0,0,1,.45.19,7.16,7.16,0,0,0,.59.42,5.48,5.48,0,0,0,.84.41,3.21,3.21,0,0,0,1.18.19,2.5,2.5,0,0,0,1.73-.55A1.89,1.89,0,0,0,9.69,19a1.39,1.39,0,0,0-.26-.87,2,2,0,0,0-.67-.57,5.22,5.22,0,0,0-1-.39c-.36-.1-.72-.22-1.09-.34a11.12,11.12,0,0,1-1.09-.42,3.47,3.47,0,0,1-1-.63,3,3,0,0,1-.67-1,3.52,3.52,0,0,1-.25-1.43,3.45,3.45,0,0,1,1-2.47,3.76,3.76,0,0,1,1.27-.79,4.63,4.63,0,0,1,1.72-.3,5.6,5.6,0,0,1,2,.34,4.44,4.44,0,0,1,1.57,1Z"/><path class="cls-1" d="M14.82,22.26a1.39,1.39,0,0,1-1.05-.39,1.49,1.49,0,0,1-.36-1.07V17.62h-.6a.25.25,0,0,1-.17-.06.25.25,0,0,1-.07-.19v-.46l.88-.13.26-1.58A.26.26,0,0,1,14,15h.59v1.8h1.51v.83H14.56v3.09a.61.61,0,0,0,.14.45.5.5,0,0,0,.39.16.8.8,0,0,0,.23,0l.16-.08a.62.62,0,0,0,.12-.08l.1,0a.18.18,0,0,1,.16.11l.34.56a1.79,1.79,0,0,1-.63.36A2.36,2.36,0,0,1,14.82,22.26Z"/><path class="cls-1" d="M16.85,17.47a3.12,3.12,0,0,1,2.2-.86,2.17,2.17,0,0,1,.84.15,1.69,1.69,0,0,1,.61.43,1.81,1.81,0,0,1,.38.66,2.57,2.57,0,0,1,.14.85v3.47H20.5a.55.55,0,0,1-.25-.05.35.35,0,0,1-.14-.21L20,21.47a4,4,0,0,1-.41.33,2.22,2.22,0,0,1-.42.25,2.27,2.27,0,0,1-.46.16,3.12,3.12,0,0,1-.55.05,1.79,1.79,0,0,1-.62-.1,1.28,1.28,0,0,1-.5-.27,1.44,1.44,0,0,1-.44-1.1,1.27,1.27,0,0,1,.16-.62,1.6,1.6,0,0,1,.56-.53,3.8,3.8,0,0,1,1-.4,7.45,7.45,0,0,1,1.57-.17V18.7a1.33,1.33,0,0,0-.25-.87.92.92,0,0,0-.74-.29,1.54,1.54,0,0,0-.56.08,1.76,1.76,0,0,0-.39.18,2.45,2.45,0,0,0-.29.18.57.57,0,0,1-.28.08.34.34,0,0,1-.2-.06.47.47,0,0,1-.13-.15Zm3,2.31a8.54,8.54,0,0,0-1,.1,3,3,0,0,0-.69.2.87.87,0,0,0-.37.29.6.6,0,0,0-.12.36.81.81,0,0,0,.06.33.66.66,0,0,0,.17.23.77.77,0,0,0,.26.12,1.15,1.15,0,0,0,.33,0,1.68,1.68,0,0,0,.77-.16,3,3,0,0,0,.63-.49Z"/><path class="cls-1" d="M23.45,17.72a2.36,2.36,0,0,1,.62-.81,1.31,1.31,0,0,1,.87-.3,1.15,1.15,0,0,1,.33,0,1.18,1.18,0,0,1,.28.12l-.08.87a.22.22,0,0,1-.07.12.16.16,0,0,1-.12,0l-.23,0a1.55,1.55,0,0,0-.31,0,1.11,1.11,0,0,0-.43.07A1.12,1.12,0,0,0,24,18a1.23,1.23,0,0,0-.26.33,2.25,2.25,0,0,0-.21.44v3.39H22.36V16.71H23a.34.34,0,0,1,.25.07.38.38,0,0,1,.1.23Z"/><path class="cls-1" d="M28.06,22.26a1.37,1.37,0,0,1-1-.39,1.49,1.49,0,0,1-.37-1.07V17.62h-.59a.25.25,0,0,1-.17-.06.25.25,0,0,1-.07-.19v-.46l.88-.13.25-1.58a.31.31,0,0,1,.1-.15.24.24,0,0,1,.17-.06h.59v1.8h1.51v.83H27.8v3.09a.61.61,0,0,0,.14.45.48.48,0,0,0,.39.16.85.85,0,0,0,.23,0l.16-.08a.62.62,0,0,0,.12-.08l.1,0a.19.19,0,0,1,.16.11l.34.56a1.79,1.79,0,0,1-.63.36A2.46,2.46,0,0,1,28.06,22.26Z"/></g></g></svg>