<svg xmlns="http://www.w3.org/2000/svg" viewBox="0 0 133.34 61.85"><defs><style>.cls-1{fill:#a42b37;}.cls-2{fill:#231815;}</style></defs><title>logo_a0</title><g id="レイヤー_2" data-name="レイヤー 2"><g id="レイヤー_1-2" data-name="レイヤー 1"><g id="レイヤー_1-2-2" data-name="レイヤー 1-2"><path class="cls-1" d="M12.64,56.86h0a5.66,5.66,0,0,0-.59-.15c-.34-.07-1.12-1.59-.52-3a3,3,0,0,1,.69-1A4.28,4.28,0,0,1,15.79,52a42.55,42.55,0,0,0,2.72-8.76,76.65,76.65,0,0,0,.92-10.91c.15-3.18.22-5.84.24-7.59a44.69,44.69,0,0,1,5.53-.58c3.15-.15,5.53-.25,8.41.58,2,.59,4.22,1.23,6.08,3.32a10.57,10.57,0,0,1,2.48,6.5,9.49,9.49,0,0,1-2,6.81,9,9,0,0,1-4.82,2.85,23.13,23.13,0,0,0,3.57,4.26,24.92,24.92,0,0,0,5.47,3.86c-1.54,1.54-5,6.15-7.11,5.89-2.88-.41-2.69-3.36-1.46-5-4.27-3.1-7.5-8.53-7.5-8.53H26.54l-1.65,0A28,28,0,0,1,23.51,51a28.17,28.17,0,0,1-3.41,6.75,28.54,28.54,0,0,1-4-.17A18,18,0,0,1,12.64,56.86ZM25.39,39.09c.72,0,2,.26,2.59.28a20.17,20.17,0,0,0,3,.06c3.76-.43,4.23-2.78,4.23-4.59,0-2.56-.93-4.94-5.3-5.14-.8,0-2.16,0-2.43,0-.69,0-1.31.07-1.71.11C25.64,32.86,25.52,36,25.39,39.09Z"/><path class="cls-2" d="M49.64,50.88A3.76,3.76,0,0,0,51,53.74a3.48,3.48,0,0,0,2.39.85c3.1,0,3.81-.58,5.94-2l.16,3.14a12.7,12.7,0,0,1-6.42,1.49A8.74,8.74,0,0,1,47,55.35a6.67,6.67,0,0,1-2-5.19A6.46,6.46,0,0,1,47,45a8.54,8.54,0,0,1,6.09-2Q60,43,60,49.31v1.57Zm6.28-2.39c0-2.06-1-3.08-2.85-3.08s-3,1-3.24,3.08Z"/><path class="cls-2" d="M63.35,56.88V43.45h4.19v1.17A8.59,8.59,0,0,1,72,43.08c2.07,0,3.45.58,4.12,1.75a9.5,9.5,0,0,1,5.14-1.75c1.88,0,3.2.46,3.93,1.38A5.44,5.44,0,0,1,86,47.7v9.21H81.78V48.05a3,3,0,0,0-.31-1.55,1.92,1.92,0,0,0-1.6-.58,5.72,5.72,0,0,0-3.12,1.17,3.2,3.2,0,0,1,0,.69v9.08H72.53V48.05a2.78,2.78,0,0,0-.31-1.55,1.9,1.9,0,0,0-1.61-.58,5.37,5.37,0,0,0-3.07,1.13v9.81Z"/><path class="cls-2" d="M91.48,55.16a6.73,6.73,0,0,1-2.07-5,6.75,6.75,0,0,1,2.1-5.29A7.84,7.84,0,0,1,97.05,43a7.89,7.89,0,0,1,5.58,1.83,6.94,6.94,0,0,1,2.06,5.29,6.69,6.69,0,0,1-2.06,5,8.43,8.43,0,0,1-11.15,0Zm5.57-.32q3.32,0,3.31-4.66c0-3.12-1.11-4.67-3.31-4.67s-3.3,1.55-3.3,4.67,1.1,4.66,3.3,4.66Z"/><path class="cls-2" d="M105.42,58.66a4.32,4.32,0,0,0,2.56.43c1.35-.33,2.19-.74,2.19-2.84v-13h4.22v13.2c0,3.57-1.84,5.36-5.54,5.36a5.73,5.73,0,0,1-3.43-.64ZM109,39.56a2.09,2.09,0,0,1,.74-1.63,2.73,2.73,0,0,1,3.61,0,2.2,2.2,0,0,1,0,3.29,2.73,2.73,0,0,1-3.61,0A2.17,2.17,0,0,1,109,39.56Z"/><path class="cls-2" d="M122.76,51.75a2.65,2.65,0,0,0,.51,1.9,2.09,2.09,0,0,0,1.52.47,6.39,6.39,0,0,0,3.41-1.22V43.29h4.16V56.6H128.2V55.39A8.51,8.51,0,0,1,123.72,57q-5.1,0-5.1-4.54V43.29h4.14Z"/><polyline class="cls-2" points="110.17 43.29 107.13 43.29 107.13 46.07 110.17 46.07"/><path class="cls-2" d="M66.58,31.71c0,.58-.06,3-.07,3.76a6.73,6.73,0,0,1-1.1,0c0-.59.06-2.72.06-3.17a4.72,4.72,0,0,0,0-.63C65.68,31.66,66.28,31.69,66.58,31.71Zm3.22,2c0,1.89-.35,2.64-1,3.32A4.51,4.51,0,0,1,67,38.22a4.49,4.49,0,0,1-.84-.9,3.61,3.61,0,0,0,1.88-1,3.78,3.78,0,0,0,.69-2.75V32.42c0-.33,0-.58-.06-.82a7.45,7.45,0,0,1,1.16.06v.73Z"/><path class="cls-2" d="M76.49,34.15c1.17,0,2.34,0,2.56,0a3.64,3.64,0,0,1,.66,0,4.69,4.69,0,0,1,0,1H76.5V36.4a.49.49,0,0,0,.42.54,7.73,7.73,0,0,0,2.49-.19,5.45,5.45,0,0,1-.11,1.06,9.46,9.46,0,0,1-2.86.08,1.17,1.17,0,0,1-1-1.26V35.12H73.28a5.56,5.56,0,0,1-.11-1h2.27V32.91H73.87a6.25,6.25,0,0,1-.1-1h.67c.7,0,3.17,0,3.81,0,.23,0,.46,0,.68-.05a6.17,6.17,0,0,1,0,1H76.49Z"/><path class="cls-2" d="M83.36,34.22c1.75,0,4.31,0,5.22,0a7.63,7.63,0,0,1,0,1.17c-1.17-.05-5.38,0-6.42,0a7.67,7.67,0,0,1-.08-1.17C82.36,34.18,82.94,34.22,83.36,34.22Z"/><path class="cls-2" d="M93.23,34.4a4.51,4.51,0,0,1-.48.89,16,16,0,0,0-1.84-.95,7.56,7.56,0,0,1,.47-.89A12,12,0,0,1,93.23,34.4Zm.67,1.84a7.21,7.21,0,0,0,2.86-3.08,3.09,3.09,0,0,1,.77.88,9,9,0,0,1-3.09,3.09,10.62,10.62,0,0,1-2.3,1,3,3,0,0,1-.71-1A7.23,7.23,0,0,0,93.9,36.24Zm.43-3.69a4.34,4.34,0,0,1-.52.88,14.38,14.38,0,0,0-1.79-1,5.81,5.81,0,0,1,.49-.88A14,14,0,0,1,94.33,32.55Zm2.66.06a1.65,1.65,0,0,1-.5.28,5.76,5.76,0,0,0-.59-1,2.49,2.49,0,0,1,.51-.27A6,6,0,0,1,97,32.61Zm.88-.43a2.12,2.12,0,0,1-.51.28,5.26,5.26,0,0,0-.59-1,2.49,2.49,0,0,1,.51-.27A5.51,5.51,0,0,1,97.87,32.18Z"/><path class="cls-2" d="M105.22,36.72h.52c0,.2,0,.81,0,1h-5.21q0-.47-.06-.93h3c.09-.65.18-1.56.2-1.94h-2.48c0-.23-.07-.83-.07-.93a3.63,3.63,0,0,1,.56,0h2.13l.42,0a2.22,2.22,0,0,1,.5.28c0,.41-.17,1.75-.28,2.58Z"/><path class="cls-1" d="M12,48.07c0,3.31-6,12-6,12s-6-8.65-6-12a6,6,0,0,1,12,0ZM6,46a2.09,2.09,0,1,0,2.09,2.09h0A2.08,2.08,0,0,0,6,46Z"/><path class="cls-1" d="M118.66,40.62h-1.85V36h1.75a1.11,1.11,0,0,1,1.27,1.17,1.15,1.15,0,0,1-.22.71.72.72,0,0,1-.52.27,1,1,0,0,1,.65.34,1.2,1.2,0,0,1,.24.75,1.34,1.34,0,0,1-1.3,1.36Zm0-3.88h-1.08v1.12h.94a.55.55,0,0,0,.58-.51v-.07a.49.49,0,0,0-.43-.54Zm.06,1.82h-1.14V39.9h1a.63.63,0,0,0,.63-.62V39.2a.57.57,0,0,0-.51-.64Z"/><path class="cls-1" d="M121.34,40.62V36h3v.72h-2.27v1.17h2.1v.66h-2.1v1.36h2.34v.71Z"/><path class="cls-1" d="M127.59,36.74v3.88h-.73V36.74h-1.41V36H129v.72Z"/><path class="cls-1" d="M132.54,40.62l-.3-1h-1.66l-.29,1h-.82L131,36h.83l1.51,4.6Zm-1-3.47-.09-.4-.09.4-.53,1.75H132Z"/><path class="cls-2" d="M24.3,7.27l-.89.22-.27.07.34,1.32c.1.36.38,1.37.46,1.71.19.8-.06,1.07-1.17,1.35l-.5-.7a3.81,3.81,0,0,0,.59-.07c.45-.11.47-.26.31-1-.05-.19-.29-1-.34-1.21l-.17-.64a7.56,7.56,0,0,1-2.11,3l-.7-.43a4.67,4.67,0,0,0,1.43-1.47,5.13,5.13,0,0,0,.81-1.62l-.79.21c-.63.16-1.25.33-1.87.53l-.17-.71c.41,0,1.46-.3,1.88-.4l1.16-.31a11,11,0,0,0-.46-1.51l.78-.13c.07,0,.25,0,.28.09s0,.13-.17.24A9.68,9.68,0,0,0,23,7l.27-.07c.5-.12,1-.27,1.49-.44l.16.68A4.18,4.18,0,0,0,24.3,7.27Z"/><path class="cls-2" d="M29.09,4.66c0,.22.12.7.16.93l.21,1.08c0,.22.23,1,.29,1.23l-.85.17a10.76,10.76,0,0,0-.17-1.27L28.5,5.59c-.06-.3-.18-.9-.25-1.17l.75-.1c.17,0,.24,0,.25.1S29.19,4.58,29.09,4.66Zm3.3-.84a.53.53,0,0,0-.11.14c0,.36.33,1.94.37,2.25a3.56,3.56,0,0,1-.51,2.68,6.6,6.6,0,0,1-1.33,1.31l-.76-.55a3.15,3.15,0,0,0,1.41-1.06c.73-.94.58-1.87.21-3.68a7.07,7.07,0,0,0-.25-1.23l.78-.1c.08,0,.21,0,.23.11a.12.12,0,0,1,0,.13Z"/><path class="cls-2" d="M38.14,5.61a3.94,3.94,0,0,0-.89-.32,8,8,0,0,0-.91-.22l.23-.69A10.81,10.81,0,0,1,38.39,5Zm.58-1.9a5.57,5.57,0,0,0-1.84-.58l.22-.67A11,11,0,0,1,39,3.08Zm-.61,5c0,.1,0,.28-.11.3A.35.35,0,0,1,37.86,9l-.67-.66a6.65,6.65,0,0,0,2.38-1.79,9.43,9.43,0,0,0,1.84-2.67l.55.58A11.47,11.47,0,0,1,38.11,8.74ZM41,3.15a4.13,4.13,0,0,0-.91-.58l.28-.42a2.5,2.5,0,0,1,1,.54Zm.73-.66-1-.59.34-.44a9.7,9.7,0,0,1,1,.58Z"/><path class="cls-2" d="M48.91,3.76l-.46.05c.07,2-.38,2.91-2.16,4.16l-.7-.59a3.53,3.53,0,0,0,1.8-1.63,3.82,3.82,0,0,0,.31-1.89L46.8,4c-.66.07-1.43.16-2.09.27l-.05-.73c.71,0,1.81-.1,2.1-.13l.92-.09c-.07-.65-.25-1.49-.32-1.86l.94,0c.17,0,.19,0,.2.11s-.06.1-.19.15c0,.23.11,1.28.13,1.49l.41,0C49,3.16,50.14,3,51,2.89l.08.76C50.13,3.65,49,3.75,48.91,3.76Z"/><path class="cls-2" d="M55.69,1.74a.7.7,0,0,0-.2.15c.11,2.34-.11,3.9-1.63,4.86l-.63-.58a2.43,2.43,0,0,0,1.28-1.41,3.27,3.27,0,0,0,.22-1.11,6.46,6.46,0,0,0,0-.88,8.6,8.6,0,0,0-.16-1.34l.9.07c.19,0,.25,0,.26.15A.13.13,0,0,1,55.69,1.74Zm1.64,4.74-.56-.37a6,6,0,0,0,0-.85c0-.25,0-.65,0-.9l-.08-1.55c0-.11-.11-1.4-.14-1.64l.85.05c.1,0,.21,0,.22.14a.16.16,0,0,1-.08.14l-.12.12c0,.33,0,1.3,0,1.67l.11,2.1A4.37,4.37,0,0,0,58.75,4.3a4.63,4.63,0,0,0,.71-1.17l.54.59a7.9,7.9,0,0,1-2.67,2.75Z"/><path class="cls-2" d="M67.23,2.35A7,7,0,0,1,66,5.15,5.49,5.49,0,0,1,63.47,7l-.7-.63A5,5,0,0,0,66.44,2.2H63.7c-.52,0-1,0-1.56.1V1.51a10.44,10.44,0,0,0,1.58.06h1.55a10.3,10.3,0,0,0,1.12,0,1,1,0,0,0,.38-.18l.68.55A.91.91,0,0,0,67.23,2.35ZM68,1.63a.8.8,0,0,1-.84-.78v0a.82.82,0,0,1,1.64,0h0A.82.82,0,0,1,68,1.63ZM68,.47a.36.36,0,0,0-.36.36A.37.37,0,0,0,68,1.2h0a.35.35,0,0,0,.35-.36h0A.37.37,0,0,0,68,.45h0Z"/><path class="cls-2" d="M76.21,3.66A6.64,6.64,0,0,1,74.9,5.5a6.63,6.63,0,0,1-2.39,1.36l-.59-.69a4.15,4.15,0,0,0,1.86-.71,5,5,0,0,0,1.88-2.37L73.26,3H71.09V2.18a1.89,1.89,0,0,0,.4.08c.36,0,1.07.06,1.37.07l1.82.06h1a.83.83,0,0,0,.48-.15l.58.63A2.78,2.78,0,0,0,76.21,3.66ZM74.52,1.35l-1.22,0a8.55,8.55,0,0,0-1.24,0V.57c.43.07,1,.1,1.24.11l1.22,0c.42,0,.83,0,1.25,0v.75c-.41-.06-.83-.1-1.25-.12Z"/><path class="cls-2" d="M80.28,6.72a.56.56,0,0,1-.09.17.07.07,0,0,1-.08,0c-.06,0-.07,0-.15-.19l-.34-.82a10,10,0,0,0,5.57-2.79l.24.75A13.31,13.31,0,0,1,80.28,6.72Zm1.34-3.81a5.85,5.85,0,0,0-1.57-1.17l.5-.66a5.5,5.5,0,0,1,1.58,1.17Z"/><path class="cls-2" d="M93.72,5.24l-.28-.06A8,8,0,0,0,92,5.5c0,.23-.14,1.22-.15,1.42l-.82,0c0-.23.15-.58.24-1.17a3.25,3.25,0,0,0-1.07.53,1.1,1.1,0,0,0-.38.59c-.07.58.76.74,1.37.82a7.4,7.4,0,0,0,1.76,0l-.31.75H92a3.55,3.55,0,0,1-.71-.06C90,8.17,89.66,8,89.41,7.68a1.19,1.19,0,0,1-.29-.92c.12-1,1.42-1.52,2.15-1.75a.53.53,0,0,0-.5-.52,1.84,1.84,0,0,0-1.17.42,5.25,5.25,0,0,0-.83.87l-.59-.43a7.65,7.65,0,0,0,1.86-2H88.82V2.59c.2,0,.4.08.7.12a6.84,6.84,0,0,0,.91.06,8.59,8.59,0,0,0,.49-1.07l.83.22a.12.12,0,0,1,.11.13c0,.08,0,.1-.31.23-.16.24-.19.31-.3.47a8.4,8.4,0,0,0,1.66-.23l-.16.71c-.44,0-1.4.1-1.87.11-.23.33-.37.51-.52.7A2.87,2.87,0,0,1,91.18,4a1,1,0,0,1,.79.67,1.55,1.55,0,0,1,0,.21,11.26,11.26,0,0,0,1.38-.48l.42.69a.14.14,0,0,1,0,.11A.1.1,0,0,1,93.72,5.24Z"/><path class="cls-2" d="M99.08,3.3a9.54,9.54,0,0,1-.8,1.09.46.46,0,0,1,.14.23s-.07.08-.16.11a5.41,5.41,0,0,0-.12.58l-.34,2c-.12.71-.22,1.41-.33,2.12l-.74-.13c.13-.58.22-1.08.38-2.1l.32-1.87a6,6,0,0,1-.92.75l-.58-.54a7.34,7.34,0,0,0,2.66-2.92l.67.46a.09.09,0,0,1,.08.11S99.23,3.3,99.08,3.3Zm2.65,1.9L101,5.08l-.16,1,1.07.18,1,.14-.11.65c-.28-.06-.59-.13-1-.19l-1.08-.18-.16.94,1,.18c.4.07.71.11,1,.14l-.12.67c-.14,0-.4-.1-1-.2l-1-.18c-.15,1-.18,1.12-.25,1.66l-.76-.13c.09-.46.17-.86.3-1.59l.08-.53L100.31,5l-.4-.07c-.3.3-.62.59-1,.86l-.58-.5a5.37,5.37,0,0,0,2-2.33l.7.41a.2.2,0,0,1,.13.19c0,.08-.1.1-.2.08h-.12a5.81,5.81,0,0,1-.54.76l1.45.25c.21,0,.59.1,1.55.22l-.11.65C102.69,5.38,102.07,5.24,101.73,5.2Z"/><path class="cls-2" d="M109,10.49a4.46,4.46,0,0,1-1.78.18l-.18-.66a3.35,3.35,0,0,0,1.83-.09,1.43,1.43,0,0,0,1-1A1.14,1.14,0,0,0,109,7.63h0a3.29,3.29,0,0,0-1.17,0c-.18,0-1.08.16-1.28.19s-.34,0-.4.11-.08.11-.14.1-.14-.19-.15-.21l-.19-.62a7.77,7.77,0,0,0,1.6,0,5.57,5.57,0,0,1,1.91,0A1.62,1.62,0,0,1,110.48,9s0,.06,0,.1A2,2,0,0,1,109,10.49Z"/><path class="cls-2" d="M116.33,9.85a2.2,2.2,0,0,0-.39.76,1.79,1.79,0,0,0,1,1.82,2.78,2.78,0,0,0,.74.29l-.43.69A3.69,3.69,0,0,1,115.46,12a2.1,2.1,0,0,1-.22-1.59,3.15,3.15,0,0,1,1.08-1.49,4.43,4.43,0,0,1,1.41-.74,23,23,0,0,0-3.62-.4l.13-.86a19.87,19.87,0,0,0,2.88.59,25.13,25.13,0,0,0,3,.28l-.21.78A3.72,3.72,0,0,0,116.33,9.85Z"/><path class="cls-2" d="M41.29,18.82a1.67,1.67,0,0,0,0-.51l-2.92.4c0,.08.1.45.11.52l-.86.12c0-.46-.11-1.37-.22-2.11l-.25-1.83c-.09-.58-.19-1.29-.3-1.88a14.62,14.62,0,0,0,1.48-.16l1.66-.24a11.9,11.9,0,0,0,1.35-.24c0,.52.12,1.17.19,1.71l.28,2c.07.54.25,1.61.37,2.12Zm-.68-5.09-2.92.4L38,15.75l2.91-.41ZM40.92,16,38,16.41l.24,1.65,2.92-.4Z"/><path class="cls-2" d="M51.41,16.91A6.29,6.29,0,0,1,50,16.18a6.94,6.94,0,0,1-1.48-1.38l.1,1a3.26,3.26,0,0,0,.06.59h.14a6.8,6.8,0,0,0,1.1-.17L50,17a6.73,6.73,0,0,0-1.1,0h-.14c0,.24.06.49.15,1.26l-.87.08c0-.76-.05-1-.08-1.27H47.8a10.11,10.11,0,0,0-1.1.19l-.06-.71a8,8,0,0,0,1.09,0h.14a1.79,1.79,0,0,0,0-.58l-.1-1.17a6.47,6.47,0,0,1-2.44,2.74l-.66-.59a5.48,5.48,0,0,0,2.76-3.09l-.49,0c-.73.07-1.55.16-2.27.27l-.06-.72q1.14,0,2.28-.15l.75-.06c-.07-.76-.09-.85-.16-1.45h.8c.14,0,.2,0,.21.1s0,.07-.16.2c0,.22.06.84.08,1.1l.73-.07c.73-.06,1.57-.16,2.29-.26l.07.71c-.77,0-1.54.07-2.34.15l-.53.05a6.78,6.78,0,0,0,1.35,1.43,5,5,0,0,0,2,1Z"/><path class="cls-2" d="M59.62,14.17h-.3a8.69,8.69,0,0,0-1.39.54c0,.21.06,1.17.07,1.37l-.82.09c0-.24,0-.59,0-1.13a3.51,3.51,0,0,0-1,.68,1,1,0,0,0-.28.64c0,.58.88.58,1.51.58a8,8,0,0,0,1.75-.29l-.19.76a4,4,0,0,0-.58.07c-.17,0-.39,0-.72.06-1.4.06-1.75-.1-2-.32a1.07,1.07,0,0,1-.45-.82c0-.95,1.17-1.67,1.87-2a.54.54,0,0,0-.58-.41,1.86,1.86,0,0,0-1.08.58,4,4,0,0,0-.69,1l-.7-.34A7.48,7.48,0,0,0,55.61,13c-.53.08-.76.12-1.22.16l-.16-.69H55a7.78,7.78,0,0,0,.91-.09,6.85,6.85,0,0,0,.33-1.09l.85.07a.13.13,0,0,1,.14.11c0,.07,0,.09-.27.26s-.15.33-.22.5a9.13,9.13,0,0,0,1.62-.48l0,.69c-.42.12-1.38.33-1.85.4-.13.26-.26.51-.41.76a2.86,2.86,0,0,1,.82-.23,1,1,0,0,1,.89.51,1.8,1.8,0,0,1,.08.21,14.27,14.27,0,0,0,1.37-.65l.52.58a.13.13,0,0,1,0,.1S59.69,14.17,59.62,14.17Z"/><path class="cls-2" d="M68.69,17.54a4.35,4.35,0,0,1-1.49-1.61,4.73,4.73,0,0,1-.44-2.07l-.36.08v1.75c0,.2,0,1.09,0,1.75h-.82c.06-.58.11-1.2.11-1.75V14.06l-.32,0-.36-.59h.17l-.58-.37a2.36,2.36,0,0,0,.45-.33H63.92a5.63,5.63,0,0,1,0,.81h.42c.21,0,.42,0,.63,0a20.47,20.47,0,0,1-.28,2.92c-.17.92-.48.94-1.16,1l-.37-.73a3.6,3.6,0,0,1-.5.68L61.93,17A3.48,3.48,0,0,0,63,15.09a10.14,10.14,0,0,0,.25-2.33,6.72,6.72,0,0,0-1,0v-.69a5.22,5.22,0,0,0,.88.07h.14c0-.41,0-.81,0-1.21l.89.11a.1.1,0,0,1,.1.09c0,.13-.11.15-.26.18v.84H65.2v.58a3,3,0,0,0,.65-.89,4.77,4.77,0,0,0,.38-1l.79.34a.13.13,0,0,1,.11.12.09.09,0,0,1-.08.09l-.22,0c-.12.23-.29.52-.32.58h1.25A11.24,11.24,0,0,0,69.18,12v.63c-.2,0-.75,0-1.39-.05H66.18a5.79,5.79,0,0,1-.76.88,9.31,9.31,0,0,0,1.65-.27,3.27,3.27,0,0,0,1-.4l.51.45a.16.16,0,0,1,.05.09c0,.07-.08.1-.13.1s-.2-.06-.24-.06l-.8.3a4.19,4.19,0,0,0,.11,1.17,5.28,5.28,0,0,0,1.07-.72l.59.53a.09.09,0,0,1,0,.08c0,.11-.16.12-.17.12l-.26-.07-.47.3a5.62,5.62,0,0,1-.64.34A3.07,3.07,0,0,0,69.35,17Zm-4.84-3.43a6.89,6.89,0,0,1-.7,2.59l.52,0c.23,0,.3-.06.45-.65a13,13,0,0,0,.21-2Z"/><path class="cls-2" d="M75.84,16.77a3.1,3.1,0,0,1-1.81.58,1.83,1.83,0,0,1-1.32-.65,1.72,1.72,0,0,1-.32-1.39c0-.37.17-2,.18-2.34a11.36,11.36,0,0,0,0-1.65l.87.15c.18,0,.26,0,.26.14s0,.09-.25.21c0,.17,0,.37-.1.65-.06.54-.19,2.34-.21,2.64,0,.69,0,.89.16,1.13a1.17,1.17,0,0,0,.87.46,2.12,2.12,0,0,0,1.46-.59,3.92,3.92,0,0,0,.89-1.36l.58.59A4.54,4.54,0,0,1,75.84,16.77Z"/><path class="cls-2" d="M85.48,18a5.3,5.3,0,0,0-2-1.24,1.19,1.19,0,0,1-.31.86,2.32,2.32,0,0,1-1.44.26c-.66-.05-1.71-.42-1.64-1.22s1-1,2-.91l.72.09c0-.65,0-1.38.11-2.08C83,12.5,83,12.37,83,12l1,.19a.12.12,0,0,1,.13.12c0,.1-.05.08-.33.27a9.65,9.65,0,0,0-.19,1.05,6.36,6.36,0,0,0,2.26-.08l-.06.71a8.63,8.63,0,0,1-2.27,0,11.45,11.45,0,0,0-.12,1.85,8.43,8.43,0,0,1,1.38.59,12.23,12.23,0,0,1,1.06.65ZM82,16.41a2.25,2.25,0,0,0-.93.08.36.36,0,0,0-.25.3c0,.39.75.5.91.52,1,.09,1-.44,1-.75a3.32,3.32,0,0,0-.75-.15Z"/><path class="cls-2" d="M92.74,18.51a3.89,3.89,0,0,1-2,.74l-.43-.75A3.43,3.43,0,0,0,92,18.11a2.39,2.39,0,0,0,1.26-1.7.91.91,0,0,0-.66-1.11l-.17,0a4.85,4.85,0,0,0-2.33.5c0,.05-.08.12-.16.11s-.1-.09-.15-.24l-.19-.59a10.81,10.81,0,0,1,3.1-.38,1.48,1.48,0,0,1,1.09.65A1.8,1.8,0,0,1,94,16.49,3.07,3.07,0,0,1,92.74,18.51Zm.65-4.58a1.5,1.5,0,0,0-.73,0,3.39,3.39,0,0,0-.76.19l-.38-.32a3,3,0,0,0,.5-.17,5.4,5.4,0,0,1-.67-.25c-.36-.15-.4-.18-.45-.2l.18-.61a6,6,0,0,0,2.14.68h.37Z"/><path class="cls-2" d="M100.58,19.56l-.14.73-.82-.15.14-.74Zm.87-4.5-.37,1.85L100.5,19l-.46-.09.23-2.12.36-1.88Z"/><polyline class="cls-1" points="12.62 11.52 9.18 14.66 19.67 22.49"/><polyline class="cls-1" points="124.16 11.78 127.6 14.91 117.11 22.75"/></g></g></g></svg>