<?xml version="1.0" encoding="utf-8"?>
<svg version="1.1" xmlns="http://www.w3.org/2000/svg" xmlns:xlink="http://www.w3.org/1999/xlink" x="0px"
	 y="0px" viewBox="0 0 206.3 18" style="enable-background:new 0 0 206.3 18;" xml:space="preserve">
<style type="text/css">
	.st0{fill:#A98C48;}
</style>
<polygon points="8.1,0.4 8.1,6.5 2.7,6.5 2.7,0.4 0,0.4 0,15.6 2.7,15.6 2.7,9.2 8.1,9.2 8.1,15.6 10.9,15.6 10.9,0.4 "/>
<path d="M21.3,0c-4.3,0.1-7.8,3.7-7.7,8c-0.1,4.3,3.4,7.9,7.7,8c4.3-0.1,7.8-3.7,7.7-8C29.1,3.7,25.6,0.1,21.3,0z M21.3,13.4c-2.9-0.1-5.2-2.4-5.1-5.3c-0.1-2.8,2.1-5.2,4.9-5.3c2.8-0.1,5.2,2.1,5.3,4.9c0,0.2,0,0.3,0,0.5C26.5,10.9,24.2,13.3,21.3,13.4C21.3,13.4,21.3,13.4,21.3,13.4L21.3,13.4z"/>
<polygon points="39.9,0.4 29.7,0.4 29.7,3.1 33.6,3.1 33.6,15.8 36.2,15.8 36.2,3.1 39.9,3.1 "/>
<polygon points="56.2,13.1 56.2,0.4 53.5,0.4 53.5,15.6 60.8,15.6 60.8,13.1 "/>
<rect x="92.7" y="0.4" width="2.7" height="15.1"/>
<polygon points="75.8,15.6 78.9,15.6 73.2,7 78.9,0.4 75.4,0.4 69.8,7.2 69.8,0.4 67.1,0.4 67.1,15.6 69.8,15.6 69.8,10.8 71.4,9.1 "/>
<polygon points="135.3,9.2 135.3,0.4 137.9,0.4 137.9,15.6 136.4,15.6 130.1,6.9 130.1,15.6 127.5,15.6 127.5,0.4 129,0.4 "/>
<polygon points="106.4,0.4 106.4,6.5 101,6.5 101,0.4 98.3,0.4 98.3,15.6 101,15.6 101,9.2 106.4,9.2 106.4,15.6 109.2,15.6 109.2,0.4 "/>
<polygon points="89.8,3.1 89.8,0.4 81.1,0.4 81.1,15.6 89.8,15.6 89.8,13.1 83.8,13.1 83.8,9.3 88.4,9.3 89.4,7.3 89.4,6.7 83.8,6.7 83.8,3.1 "/>
<path d="M119.2,0.4h-1.7l-6.4,15.2h3.3l0.8-2h6.2l0.8,2h3.3L119.2,0.4z M118.3,11h-2.1l2.1-5.3l2.1,5.3H118.3z"/>
<polygon points="51.1,3.1 51.1,0.4 42.3,0.4 42.3,15.6 51.1,15.6 51.1,13.1 45,13.1 45,9.3 49.7,9.3 50.7,7.3 50.7,6.7 45,6.7 45,3.1 "/>
<g id="XMLID_42501_">
	<path id="XMLID_42515_" class="st0" d="M148.4,4.3c1.2,0,2.7,0.3,3.9,0.9v2.3c-1.1-1-2.6-1.4-3.8-1.4c-0.7,0-1.4,0.2-2,0.5c-0.6,0.3-1,0.7-1.3,1.3c-0.3,0.6-0.5,1.2-0.5,1.9c0,1.1,0.3,1.9,1,2.6c0.7,0.7,1.6,1,2.7,1c0.3,0,0.6,0,0.9-0.1c0.3-0.1,0.6-0.2,1-0.3v-2.2h-2.5V9.1h4.4v4.8c-0.5,0.4-1.1,0.6-1.8,0.8c-0.7,0.2-1.4,0.3-2.2,0.3c-1.1,0-2-0.2-2.9-0.7c-0.9-0.5-1.5-1.1-2-1.9c-0.5-0.8-0.7-1.7-0.7-2.7c0-1,0.2-1.9,0.7-2.8c0.5-0.8,1.2-1.5,2-1.9C146.3,4.5,147.3,4.3,148.4,4.3z"/>
	<path id="XMLID_42512_" class="st0" d="M178,4.4l5.6,7.3V4.4h1.8v10.4h-1.6l-5.6-7.4v7.4h-1.8V4.4H178z"/>
	<path id="XMLID_42509_" class="st0" d="M192.3,4.4c1,0,2,0.2,2.8,0.7c0.8,0.4,1.5,1.1,1.9,1.9c0.5,0.8,0.7,1.7,0.7,2.7c0,1-0.2,1.9-0.7,2.7c-0.5,0.8-1.1,1.4-1.9,1.8c-0.8,0.4-1.8,0.7-2.9,0.7h-4.1V4.4H192.3z M192.1,13.3c1.1,0,1.9-0.3,2.6-1c0.7-0.7,1-1.5,1-2.6c0-1.1-0.3-2-1-2.7c-0.7-0.7-1.5-1-2.6-1h-2v7.3H192.1z"/>
	<path id="XMLID_42506_" class="st0" d="M170.8,4.4h-2l-4.2,10.4h2l1-2.5l0.3-0.9h3.8l0.4,0.9l1,2.5h2.1L170.8,4.4z M169.8,6.7l1.3,3.3h-2.6L169.8,6.7z"/>
	<polygon id="XMLID_42505_" class="st0" points="201.5,13.3 201.5,12.4 201.5,10.4 205.2,10.4 205.7,8.9 201.5,8.9 201.5,8.8 201.5,6.9 201.5,6 206.1,6 206.1,4.4 199.5,4.4 199.5,14.9 206.2,14.9 206.2,13.3 	"/>
	<path id="XMLID_42502_" class="st0" d="M163.3,14.9c-0.3-0.5-0.8-1.4-1.4-2.6c-0.4-0.7-0.7-1.3-0.9-1.6c-0.2-0.3-0.5-0.6-0.9-0.7c0.6-0.3,1-0.6,1.3-1c0.3-0.4,0.4-1,0.4-1.6c0-0.9-0.3-1.6-0.9-2.1c-0.6-0.5-1.4-0.8-2.3-0.8H155v10.4h1.9v-4.4h0.7c0.3,0,0.6,0.1,0.8,0.2c0.2,0.2,0.5,0.4,0.7,0.8c0.3,0.4,0.7,1.1,1.2,2.2c0.2,0.3,0.3,0.6,0.4,0.8h0c0,0,1.2,2.3,2.4,2.9c1,0.5,2.8,0.5,3.1,0.5C166.4,18,164.6,17.1,163.3,14.9z M159.4,8.5c-0.3,0.3-0.7,0.4-1.2,0.4H157V6h1.2c0.5,0,0.9,0.1,1.2,0.4c0.3,0.2,0.4,0.6,0.4,1.1C159.9,7.9,159.7,8.2,159.4,8.5z"/>
</g>
</svg>
