<svg xmlns="http://www.w3.org/2000/svg" viewBox="0 0 82 82"><defs><style>.cls-1{fill:none;stroke:#bfa060;stroke-miterlimit:10;stroke-width:2px;}.cls-2{fill:#bfa060;}</style></defs><g id="レイヤー_2" data-name="レイヤー 2"><g id="guide"><rect class="cls-1" x="1" y="1" width="80" height="80" rx="6.08"/><path class="cls-2" d="M36.55,56.93v14.4H34.49V61.46c0-.16,0-.33,0-.52s0-.39,0-.58l-4.63,8.55a.88.88,0,0,1-.83.53h-.33a.88.88,0,0,1-.83-.53l-4.7-8.57c0,.19,0,.39.05.58s0,.37,0,.54v9.87H21.23V56.93H23a1.48,1.48,0,0,1,.48.06c.12,0,.22.14.31.33l4.62,8.37c.1.19.2.39.29.6a6.62,6.62,0,0,1,.24.62c.08-.21.17-.42.26-.63s.18-.42.28-.61L34,57.32c.1-.19.2-.3.31-.33a1.56,1.56,0,0,1,.48-.06Z"/><path class="cls-2" d="M40.24,62.55a5.86,5.86,0,0,1,4.12-1.61,4,4,0,0,1,1.56.29,3.05,3.05,0,0,1,1.15.8,3.53,3.53,0,0,1,.71,1.24A4.64,4.64,0,0,1,48,64.85v6.48h-1a1,1,0,0,1-.47-.09.75.75,0,0,1-.27-.39L46.12,70c-.26.23-.52.44-.77.63a5.24,5.24,0,0,1-.79.46,4,4,0,0,1-.87.29,5.38,5.38,0,0,1-1,.09,4,4,0,0,1-1.16-.17,2.51,2.51,0,0,1-.92-.51A2.47,2.47,0,0,1,40,70a3,3,0,0,1-.22-1.2,2.31,2.31,0,0,1,.31-1.15,2.87,2.87,0,0,1,1-1A6.62,6.62,0,0,1,43,65.86a14.38,14.38,0,0,1,2.93-.33v-.68a2.47,2.47,0,0,0-.47-1.64,1.72,1.72,0,0,0-1.38-.54,2.88,2.88,0,0,0-1,.16,4.54,4.54,0,0,0-.73.33c-.21.12-.39.23-.55.34a1,1,0,0,1-.51.15.68.68,0,0,1-.38-.11,1.16,1.16,0,0,1-.25-.29Zm5.7,4.32a13.52,13.52,0,0,0-1.94.19,5.2,5.2,0,0,0-1.28.37A1.7,1.7,0,0,0,42,68a1.19,1.19,0,0,0-.21.68,1.64,1.64,0,0,0,.11.62,1.23,1.23,0,0,0,.32.42,1.35,1.35,0,0,0,.48.24,2.37,2.37,0,0,0,.61.07,3.06,3.06,0,0,0,1.44-.31,4.46,4.46,0,0,0,1.18-.92Z"/><path class="cls-2" d="M53.54,62.61A5.38,5.38,0,0,1,55,61.4a3.79,3.79,0,0,1,1.9-.46,3.5,3.5,0,0,1,1.56.35,3.46,3.46,0,0,1,1.2,1,4.89,4.89,0,0,1,.77,1.64,8,8,0,0,1,.28,2.23,6.86,6.86,0,0,1-.31,2.11A5.1,5.1,0,0,1,59.52,70a4.16,4.16,0,0,1-1.38,1.12,4,4,0,0,1-1.83.4,3.7,3.7,0,0,1-1.53-.29,4,4,0,0,1-1.13-.8v4.33H51.5V61.13h1.3a.53.53,0,0,1,.56.41Zm.11,6.16a2.64,2.64,0,0,0,1,.82,3,3,0,0,0,1.19.23,2.33,2.33,0,0,0,2-.92,4.46,4.46,0,0,0,.71-2.74,7.25,7.25,0,0,0-.16-1.6,3.14,3.14,0,0,0-.46-1.09,1.84,1.84,0,0,0-.73-.61,2.33,2.33,0,0,0-1-.19,2.7,2.7,0,0,0-1.42.36,4,4,0,0,0-1.1,1Z"/><g id="map"><path class="cls-2" d="M60.09,28.41a.65.65,0,0,0-.41-.61L48.8,23.51c-.23.36-.49.74-.75,1.12l10.73,4.23V52.62l-12.94-5.1V27.73l-1.32,1.74V47.63L37.65,50V29.68c-.41-.52-.85-1.11-1.32-1.74v1.32L23.24,42.35c0-.84,0-1.85,0-3a.66.66,0,0,0,.28-.16L35.66,27.05,34.88,26,23.23,37.62c0-.94,0-1.93,0-3a.72.72,0,0,0,.29-.17l9.53-9.63,1.46.6c-.47-.68-.93-1.35-1.33-2L22.92,19.28a.66.66,0,0,0-.61.06.65.65,0,0,0-.3.55c0,.06-.06,6.31-.08,12.5-.06,12.8,0,12.86.27,13.14a.86.86,0,0,0,.22.15h0l14.27,5.84a.66.66,0,0,0,.46,0l8.2-2.8L59.19,54.2a.7.7,0,0,0,.25,0,.66.66,0,0,0,.61-.42.64.64,0,0,0,0-.51.55.55,0,0,0,.05-.26ZM23.32,20.87l1.73.71L23.3,23.32C23.31,22.48,23.32,21.66,23.32,20.87Zm0,4.26a.78.78,0,0,0,.22-.15l2.86-2.86,2,.84L23.27,28.1C23.27,27.1,23.28,26.11,23.29,25.13Zm0,4.75a.56.56,0,0,0,.25-.16l6.22-6.22,2,.82-8.5,8.59C23.25,31.91,23.25,30.9,23.26,29.88ZM36.33,50l-3.26-1.34,3.26-3.26Zm0-6.45-.1.08-4.49,4.49-2-.84,6.63-6.62Zm0-4.71a.66.66,0,0,0-.17.12l-7.78,7.78-2-.83,10-10Zm0-4.78,0,0L25,45.31l-1.74-.71c0-.13,0-.3,0-.5a.69.69,0,0,0,.24-.15L36.33,31.13Z"/><path class="cls-2" d="M46.28,12.43a7.47,7.47,0,0,0-10.55,0A7.28,7.28,0,0,0,34.31,21,101.76,101.76,0,0,0,41,30.32,101.25,101.25,0,0,0,47.7,21,7.28,7.28,0,0,0,46.28,12.43ZM41,22.24a4.53,4.53,0,1,1,4.54-4.53A4.53,4.53,0,0,1,41,22.24Z"/></g></g></g></svg>