<svg xmlns="http://www.w3.org/2000/svg" width="38.19" height="43.997" viewBox="0 0 38.19 43.997">
  <g id="map" transform="translate(-1739.482 -543.358)">
    <path id="パス_1786" data-name="パス 1786" d="M1777.672,561.523a.659.659,0,0,0-.417-.614l-10.879-4.29c-.233.361-.485.739-.748,1.123l10.725,4.229v23.756l-12.94-5.1V560.834c-.464.624-.913,1.218-1.319,1.748v18.156l-6.87,2.344v-20.29c-.4-.522-.849-1.11-1.319-1.74v1.318l-13.087,13.088c-.007-.838-.011-1.848-.012-2.982a.646.646,0,0,0,.28-.163l12.156-12.156q-.393-.537-.783-1.082l-11.653,11.653c0-.937,0-1.932.007-2.965a.654.654,0,0,0,.3-.17l9.528-9.622,1.461.6c-.477-.678-.934-1.348-1.336-1.972L1740.5,552.39a.659.659,0,0,0-.91.6c0,.062-.057,6.309-.086,12.5-.059,12.8,0,12.86.274,13.138a.664.664,0,0,0,.222.148h0l14.27,5.846a.659.659,0,0,0,.463.014l8.194-2.795,13.846,5.46a1.356,1.356,0,0,0,.9-1.14ZM1740.9,553.98l1.725.706-1.745,1.745C1740.885,555.593,1740.892,554.772,1740.9,553.98Zm-.034,4.255a.665.665,0,0,0,.221-.146l2.861-2.86,2.04.835-5.142,5.142C1740.851,560.21,1740.858,559.215,1740.865,558.235Zm-.031,4.75a.647.647,0,0,0,.252-.155l6.224-6.223,2.01.823-8.5,8.584C1740.824,565.023,1740.829,564.008,1740.834,562.985Zm13.071,20.071-3.261-1.336,3.261-3.261Zm0-6.445a.675.675,0,0,0-.094.077l-4.49,4.49-2.04-.836,6.624-6.624Zm0-4.71a.636.636,0,0,0-.164.116l-7.783,7.783-2.04-.836,9.987-9.987Zm0-4.785c-.008.007-.016.011-.023.018l-11.287,11.288-1.735-.711c-.007-.133-.012-.3-.017-.5a.661.661,0,0,0,.243-.153l12.819-12.819Z" fill="#dccda9"/>
    <path id="パス_1787" data-name="パス 1787" d="M1763.853,545.538a7.472,7.472,0,0,0-10.55,0,7.28,7.28,0,0,0-1.42,8.58,101.766,101.766,0,0,0,6.69,9.31,101.253,101.253,0,0,0,6.7-9.31A7.28,7.28,0,0,0,1763.853,545.538Zm-5.28,9.81a4.53,4.53,0,1,1,4.54-4.53A4.532,4.532,0,0,1,1758.573,555.348Z" fill="#dccda9"/>
  </g>
</svg>
