<svg xmlns="http://www.w3.org/2000/svg" viewBox="0 0 41 16"><defs><style>.cls-1{fill:#abd9d9;}.cls-2{isolation:isolate;}.cls-3{fill:#fff;}.cls-4{fill:#6cc;}</style></defs><g id="レイヤー_2" data-name="レイヤー 2"><g id="レイヤー_1-2" data-name="レイヤー 1"><path id="長方形_198" data-name="長方形 198" class="cls-1" d="M8,0H33a8,8,0,0,1,8,8h0a8,8,0,0,1-8,8H8A8,8,0,0,1,0,8H0A8,8,0,0,1,8,0Z"/><g id="Spot" class="cls-2"><g class="cls-2"><path class="cls-3" d="M19.08,9.05a1.82,1.82,0,0,1-.69,1.5,3,3,0,0,1-1.91.55,4.49,4.49,0,0,1-2-.4V9.5c.3.13.63.25,1,.37a4,4,0,0,0,1.09.16,1.46,1.46,0,0,0,.95-.25.87.87,0,0,0-.09-1.37,6.89,6.89,0,0,0-1.11-.57,4.53,4.53,0,0,1-.84-.45,2,2,0,0,1-.66-.67,1.85,1.85,0,0,1-.26-1,1.76,1.76,0,0,1,.64-1.43,2.66,2.66,0,0,1,1.73-.52A4.53,4.53,0,0,1,18,3.88a5.36,5.36,0,0,1,1,.34l-.41,1a6.25,6.25,0,0,0-.85-.3,3.4,3.4,0,0,0-.84-.11,1.2,1.2,0,0,0-.79.23.76.76,0,0,0-.27.61.79.79,0,0,0,.15.49,1.33,1.33,0,0,0,.47.38l.81.39a5.86,5.86,0,0,1,1,.52,1.93,1.93,0,0,1,.62.66A1.78,1.78,0,0,1,19.08,9.05Z"/><path class="cls-3" d="M23.16,5.48a1.89,1.89,0,0,1,1.53.7,3.25,3.25,0,0,1,.58,2.1,3.17,3.17,0,0,1-.6,2.1,1.9,1.9,0,0,1-1.54.72,1.86,1.86,0,0,1-1-.22,2.13,2.13,0,0,1-.59-.51h-.08c0,.13,0,.26.05.41a3.19,3.19,0,0,1,0,.42v2.2H20.31V5.58h1l.18.72h.06a2,2,0,0,1,.6-.58A1.81,1.81,0,0,1,23.16,5.48Zm-.36,1a1,1,0,0,0-.94.4,2.18,2.18,0,0,0-.29,1.21v.16a2.87,2.87,0,0,0,.26,1.34,1.06,1.06,0,0,0,1,.46,1,1,0,0,0,.88-.49A2.7,2.7,0,0,0,24,8.26,2.59,2.59,0,0,0,23.7,7,1,1,0,0,0,22.8,6.5Z"/><path class="cls-3" d="M31.41,8.28a2.92,2.92,0,0,1-.7,2.09,2.5,2.5,0,0,1-1.9.73,2.64,2.64,0,0,1-1.32-.33,2.28,2.28,0,0,1-.91-1,3.26,3.26,0,0,1-.33-1.53A2.88,2.88,0,0,1,27,6.2a2.49,2.49,0,0,1,1.89-.72,2.75,2.75,0,0,1,1.33.32,2.32,2.32,0,0,1,.91,1A3.26,3.26,0,0,1,31.41,8.28Zm-3.87,0a2.47,2.47,0,0,0,.3,1.33,1.11,1.11,0,0,0,1,.47,1.1,1.1,0,0,0,1-.47,2.38,2.38,0,0,0,.31-1.33A2.34,2.34,0,0,0,29.81,7a1.11,1.11,0,0,0-1-.46,1.08,1.08,0,0,0-1,.46A2.43,2.43,0,0,0,27.54,8.28Z"/><path class="cls-3" d="M34.81,10.09a2.49,2.49,0,0,0,.46-.05l.41-.1v.94a1.88,1.88,0,0,1-.52.16,3.63,3.63,0,0,1-.67.06,2.24,2.24,0,0,1-.84-.15,1.23,1.23,0,0,1-.6-.53,2.11,2.11,0,0,1-.22-1.07V6.53H32.1V6l.8-.44.4-1.15h.79V5.58h1.54v1H34.09V9.34a.77.77,0,0,0,.2.57A.77.77,0,0,0,34.81,10.09Z"/></g></g><g id="keiro"><path id="パス_87" data-name="パス 87" class="cls-4" d="M8,13.52A56.2,56.2,0,0,0,11.69,8.4a4,4,0,0,0-.78-4.72,4.1,4.1,0,0,0-5.8,0A4,4,0,0,0,4.33,8.4,57.62,57.62,0,0,0,8,13.52ZM8,4.09A2.5,2.5,0,1,1,5.52,6.58h0A2.49,2.49,0,0,1,8,4.09Z"/></g></g></g></svg>