<svg xmlns="http://www.w3.org/2000/svg" viewBox="0 0 41 22"><defs><style>.cls-1{fill:#fabd00;}.cls-2{isolation:isolate;}.cls-3{fill:#fff;}.cls-4{fill:#6cc;}.cls-5{fill:none;stroke:#fff;stroke-linecap:round;stroke-dasharray:1 2;}</style></defs><g id="レイヤー_2" data-name="レイヤー 2"><g id="レイヤー_1-2" data-name="レイヤー 1"><g id="グループ_141" data-name="グループ 141"><rect class="cls-1" width="41" height="22" rx="11"/><g id="Plan" class="cls-2"><g class="cls-2"><path class="cls-3" d="M19.08,7.6a3,3,0,0,1,2,.58,2.06,2.06,0,0,1,.64,1.6,2.58,2.58,0,0,1-.26,1.14,2,2,0,0,1-.88.86,3.52,3.52,0,0,1-1.66.33h-.71v2.63H17V7.6ZM19,8.66h-.77v2.39h.58a2.13,2.13,0,0,0,1.2-.28,1.05,1.05,0,0,0,.43-.94A1.08,1.08,0,0,0,20.08,9,1.68,1.68,0,0,0,19,8.66Z"/><path class="cls-3" d="M24.27,14.74H23V7.15h1.25Z"/><path class="cls-3" d="M28,9.23a2.4,2.4,0,0,1,1.6.46,1.73,1.73,0,0,1,.54,1.41v3.64h-.89L29,14h0a2.33,2.33,0,0,1-.74.65,2.25,2.25,0,0,1-1.06.2,1.82,1.82,0,0,1-1.21-.4,1.6,1.6,0,0,1-.48-1.28,1.44,1.44,0,0,1,.62-1.26A3.56,3.56,0,0,1,28,11.44l.94,0v-.27a.91.91,0,0,0-.25-.73,1,1,0,0,0-.7-.23,2.54,2.54,0,0,0-.78.12,7.61,7.61,0,0,0-.75.28l-.4-.88A4.51,4.51,0,0,1,27,9.35,4.68,4.68,0,0,1,28,9.23Zm.89,3h-.66a2.14,2.14,0,0,0-1.15.29.84.84,0,0,0-.32.68.64.64,0,0,0,.23.56,1,1,0,0,0,.59.17,1.4,1.4,0,0,0,.93-.32,1.12,1.12,0,0,0,.38-.93Z"/><path class="cls-3" d="M34.67,9.23a2,2,0,0,1,1.42.46,2,2,0,0,1,.51,1.52v3.53H35.35V11.46a1.39,1.39,0,0,0-.25-.91.89.89,0,0,0-.75-.31,1.08,1.08,0,0,0-1,.49A2.64,2.64,0,0,0,33,12.09v2.65H31.77V9.32h1l.19.71H33a1.58,1.58,0,0,1,.72-.61A2.43,2.43,0,0,1,34.67,9.23Z"/></g></g><g id="keiro"><path id="パス_87" data-name="パス 87" class="cls-4" d="M6.63,15.65A37.63,37.63,0,0,0,9.24,12a2.83,2.83,0,0,0-.55-3.35,2.93,2.93,0,0,0-4.12,0A2.85,2.85,0,0,0,4,12,37.63,37.63,0,0,0,6.63,15.65Zm0-6.7a1.77,1.77,0,1,1-1.77,1.77h0A1.78,1.78,0,0,1,6.63,9Z"/><path id="パス_88" data-name="パス 88" class="cls-3" d="M13.08,11.32a38.9,38.9,0,0,0,2.61-3.64,2.84,2.84,0,0,0-.55-3.35,2.93,2.93,0,0,0-4.12,0,2.83,2.83,0,0,0-.55,3.35A38.9,38.9,0,0,0,13.08,11.32Zm0-6.7a1.77,1.77,0,1,1-1.77,1.77h0a1.77,1.77,0,0,1,1.77-1.76Z"/><line id="線_119" data-name="線 119" class="cls-5" x1="7.07" y1="17.24" x2="13.64" y2="12.15"/></g></g></g></g></svg>