<svg xmlns="http://www.w3.org/2000/svg" viewBox="0 0 41 16"><defs><style>.cls-1{fill:#f6c57d;}.cls-2{isolation:isolate;}.cls-3{fill:#fff;}.cls-4{fill:#6cc;}.cls-5{fill:none;stroke:#fff;stroke-linecap:round;stroke-dasharray:1 2;}</style></defs><g id="レイヤー_2" data-name="レイヤー 2"><g id="レイヤー_1-2" data-name="レイヤー 1"><g id="グループ_141" data-name="グループ 141"><path id="長方形_199" data-name="長方形 199" class="cls-1" d="M8,0H33a8,8,0,0,1,8,8h0a8,8,0,0,1-8,8H8A8,8,0,0,1,0,8H0A8,8,0,0,1,8,0Z"/><g id="Plan" class="cls-2"><g class="cls-2"><path class="cls-3" d="M18.06,4.86a3,3,0,0,1,2,.57A2.05,2.05,0,0,1,20.72,7a2.58,2.58,0,0,1-.26,1.14,1.93,1.93,0,0,1-.88.86,3.52,3.52,0,0,1-1.66.33h-.71V12H15.93V4.86ZM18,5.92h-.77V8.31h.58A2.28,2.28,0,0,0,19,8a1.07,1.07,0,0,0,.42-.94,1.09,1.09,0,0,0-.35-.88A1.71,1.71,0,0,0,18,5.92Z"/><path class="cls-3" d="M23.26,12H22V4.4h1.26Z"/><path class="cls-3" d="M27,6.48a2.38,2.38,0,0,1,1.59.46,1.74,1.74,0,0,1,.55,1.42V12h-.89L28,11.25h0a2.29,2.29,0,0,1-.74.64,2.24,2.24,0,0,1-1.06.21A1.81,1.81,0,0,1,25,11.69a1.58,1.58,0,0,1-.48-1.27,1.42,1.42,0,0,1,.61-1.26A3.6,3.6,0,0,1,27,8.69l.94,0V8.39a.93.93,0,0,0-.25-.74,1,1,0,0,0-.7-.22,3,3,0,0,0-.79.11,7.54,7.54,0,0,0-.74.29L25,7A4.42,4.42,0,0,1,26,6.61,4.32,4.32,0,0,1,27,6.48Zm.89,3-.66,0a2,2,0,0,0-1.15.28.85.85,0,0,0-.32.69A.66.66,0,0,0,26,11a1.07,1.07,0,0,0,.6.16,1.4,1.4,0,0,0,.93-.32,1.15,1.15,0,0,0,.38-.93Z"/><path class="cls-3" d="M33.65,6.48A2,2,0,0,1,35.07,7a1.94,1.94,0,0,1,.52,1.52V12H34.33V8.72a1.49,1.49,0,0,0-.24-.92.91.91,0,0,0-.76-.3,1.1,1.1,0,0,0-1,.48A2.72,2.72,0,0,0,32,9.35V12H30.75V6.58h1l.18.71H32a1.51,1.51,0,0,1,.72-.62A2.38,2.38,0,0,1,33.65,6.48Z"/></g></g><g id="keiro"><path id="パス_87" data-name="パス 87" class="cls-4" d="M5.62,12.91A40.26,40.26,0,0,0,8.23,9.27a2.84,2.84,0,0,0-.55-3.35,2.91,2.91,0,0,0-4.12,0A2.84,2.84,0,0,0,3,9.27,40.37,40.37,0,0,0,5.62,12.91Zm0-6.71A1.78,1.78,0,1,1,3.85,8h0A1.76,1.76,0,0,1,5.62,6.21Z"/><path id="パス_88" data-name="パス 88" class="cls-3" d="M12.06,8.57a38.86,38.86,0,0,0,2.62-3.63,2.84,2.84,0,0,0-.56-3.35,2.91,2.91,0,0,0-4.12,0,2.84,2.84,0,0,0-.55,3.35A38.76,38.76,0,0,0,12.06,8.57Zm0-6.7a1.77,1.77,0,1,1-1.77,1.78h0a1.78,1.78,0,0,1,1.77-1.76Z"/><line id="線_119" data-name="線 119" class="cls-5" x1="6.06" y1="14.5" x2="12.63" y2="9.4"/></g></g></g></g></svg>