<svg xmlns="http://www.w3.org/2000/svg" viewBox="0 0 41 22"><defs><style>.cls-1{fill:#679ecf;}.cls-2{isolation:isolate;}.cls-3{fill:#fff;}.cls-4{fill:#6cc;}</style></defs><g id="レイヤー_2" data-name="レイヤー 2"><g id="レイヤー_1-2" data-name="レイヤー 1"><rect class="cls-1" width="41" height="22" rx="11"/><g id="Spot" class="cls-2"><g class="cls-2"><path class="cls-3" d="M19.29,12.24a1.82,1.82,0,0,1-.68,1.5,3,3,0,0,1-1.91.55,4.46,4.46,0,0,1-2-.4v-1.2a9.41,9.41,0,0,0,1,.36,3.77,3.77,0,0,0,1.1.17,1.43,1.43,0,0,0,.94-.26.81.81,0,0,0,.3-.65.84.84,0,0,0-.38-.71A7.88,7.88,0,0,0,16.54,11a4.61,4.61,0,0,1-.85-.45A2.11,2.11,0,0,1,15,9.91a1.85,1.85,0,0,1-.25-1,1.73,1.73,0,0,1,.64-1.43A2.64,2.64,0,0,1,17.15,7a4.59,4.59,0,0,1,1.06.12,5.36,5.36,0,0,1,1,.34l-.42,1a5.43,5.43,0,0,0-.85-.3A3.32,3.32,0,0,0,17.11,8a1.2,1.2,0,0,0-.79.23.82.82,0,0,0-.12,1.1,1.2,1.2,0,0,0,.46.38l.81.39a6.43,6.43,0,0,1,1,.52,2,2,0,0,1,.62.65A1.92,1.92,0,0,1,19.29,12.24Z"/><path class="cls-3" d="M23.38,8.67a1.89,1.89,0,0,1,1.53.7,3.29,3.29,0,0,1,.58,2.1,3.17,3.17,0,0,1-.6,2.1,1.92,1.92,0,0,1-1.55.72,1.82,1.82,0,0,1-1-.22,2,2,0,0,1-.59-.51h-.08c0,.13,0,.26.05.41a3.19,3.19,0,0,1,0,.42v2.2H20.53V8.77h1l.18.72h.07a2,2,0,0,1,.59-.58A1.83,1.83,0,0,1,23.38,8.67Zm-.37,1a1.05,1.05,0,0,0-.94.4,2.18,2.18,0,0,0-.28,1.21v.16a2.68,2.68,0,0,0,.26,1.33,1,1,0,0,0,1,.47.93.93,0,0,0,.87-.49,2.58,2.58,0,0,0,.29-1.32,2.48,2.48,0,0,0-.29-1.3A1,1,0,0,0,23,9.69Z"/><path class="cls-3" d="M31.62,11.47a2.88,2.88,0,0,1-.7,2.08,2.48,2.48,0,0,1-1.9.74A2.58,2.58,0,0,1,27.71,14a2.31,2.31,0,0,1-.92-1,3.39,3.39,0,0,1-.33-1.53,2.92,2.92,0,0,1,.7-2.08,2.49,2.49,0,0,1,1.89-.72A2.73,2.73,0,0,1,30.38,9a2.26,2.26,0,0,1,.91.95A3.26,3.26,0,0,1,31.62,11.47Zm-3.87,0a2.47,2.47,0,0,0,.31,1.33,1.26,1.26,0,0,0,2,0,2.38,2.38,0,0,0,.31-1.33A2.34,2.34,0,0,0,30,10.15a1.28,1.28,0,0,0-2,0A2.43,2.43,0,0,0,27.75,11.47Z"/><path class="cls-3" d="M35,13.28a2.3,2.3,0,0,0,.45,0,3.52,3.52,0,0,0,.41-.1v.94a1.81,1.81,0,0,1-.51.16,3.71,3.71,0,0,1-.67.06,2.26,2.26,0,0,1-.85-.15,1.23,1.23,0,0,1-.6-.53A2.22,2.22,0,0,1,33,12.54V9.72h-.72V9.17l.8-.44.39-1.15h.79V8.77h1.54v1H34.3v2.81a.7.7,0,0,0,.21.56A.73.73,0,0,0,35,13.28Z"/></g></g><g id="keiro"><path id="パス_87" data-name="パス 87" class="cls-4" d="M8.23,16.71a57.62,57.62,0,0,0,3.68-5.12,4,4,0,0,0-.78-4.72,4.1,4.1,0,0,0-5.8,0,4,4,0,0,0-.78,4.72A55.66,55.66,0,0,0,8.23,16.71Zm0-9.43a2.49,2.49,0,1,1-2.5,2.49h0A2.5,2.5,0,0,1,8.23,7.28Z"/></g></g></g></svg>