<svg xmlns="http://www.w3.org/2000/svg" width="32.277" height="27.428" viewBox="0 0 32.277 27.428">
  <g id="memo" transform="translate(-1719.242 -949.224)">
    <path id="パス_1703" data-name="パス 1703" d="M1720.362,958.233h2.812a1.12,1.12,0,0,0,0-2.241h-2.812a1.12,1.12,0,0,0,0,2.241Z" fill="#fff"/>
    <rect id="長方形_197" data-name="長方形 197" width="2.096" height="7.065" transform="translate(1720.626 959.405)" fill="#fff"/>
    <path id="パス_1704" data-name="パス 1704" d="M1724.294,968.764a1.121,1.121,0,0,0-1.12-1.121h-2.812a1.12,1.12,0,0,0,0,2.241h2.812A1.12,1.12,0,0,0,1724.294,968.764Z" fill="#fff"/>
    <rect id="長方形_198" data-name="長方形 198" width="9.433" height="1.572" transform="translate(1727.704 956.539)" fill="#fff"/>
    <rect id="長方形_199" data-name="長方形 199" width="9.433" height="1.572" transform="translate(1727.704 962.304)" fill="#fff"/>
    <rect id="長方形_200" data-name="長方形 200" width="5.765" height="1.572" transform="translate(1727.704 968.069)" fill="#fff"/>
    <path id="パス_1705" data-name="パス 1705" d="M1722.723,951.757a.437.437,0,0,1,.437-.437h15.981a1.922,1.922,0,0,1,1.923,1.923V957a25,25,0,0,1,2.1-2.737v-1.021a4.02,4.02,0,0,0-4.02-4.019H1723.16a2.534,2.534,0,0,0-2.534,2.533v3.062h2.1Z" fill="#fff"/>
    <path id="パス_1706" data-name="パス 1706" d="M1741.064,966.575v6.058a1.924,1.924,0,0,1-1.923,1.923H1723.16a.439.439,0,0,1-.437-.438v-3.061h-2.1v3.061a2.535,2.535,0,0,0,2.534,2.534h15.981a4.02,4.02,0,0,0,4.02-4.019v-7.2a4.512,4.512,0,0,1-1.859.673C1741.229,966.252,1741.149,966.41,1741.064,966.575Z" fill="#fff"/>
    <path id="パス_1707" data-name="パス 1707" d="M1748.111,952.819c-4.669.643-9.548,11.938-11.749,15.992-.553,1.018.733,1.868,1.3.894.41-.7,2.645-5.114,2.645-5.114,2.436.08,3.335-1.621,2.361-2.677,3.273.068,4.9-1.734,3.968-2.827a3.67,3.67,0,0,0,3.077-.583C1752.4,957.043,1752.27,952.15,1748.111,952.819Z" fill="#fff"/>
  </g>
</svg>
