<svg xmlns="http://www.w3.org/2000/svg" viewBox="0 0 33.11 40"><defs><style>.cls-1{fill:#db7274;}.cls-2{fill:#fff;}</style></defs><g id="レイヤー_2" data-name="レイヤー 2"><g id="レイヤー_1-2" data-name="レイヤー 1"><g id="レイヤー_2-2" data-name="レイヤー 2"><g id="root_nav" data-name="root nav"><g id="pin"><path class="cls-1" d="M33.11,16.57a16.55,16.55,0,0,1-4.65,11.52L16.55,40,4.64,28.09a16.56,16.56,0,0,1,0-23L5,4.66A16.59,16.59,0,0,1,28,4.66l.39.38A16.55,16.55,0,0,1,33.11,16.57Z"/></g></g></g><path class="cls-2" d="M15.65,22.3v1.94H7.25V22.3h3.08V13.45c0-.35,0-.72,0-1.09L8.18,14.19a.87.87,0,0,1-.38.18.79.79,0,0,1-.34,0,.83.83,0,0,1-.29-.11A.53.53,0,0,1,7,14.1L6.16,13,10.79,9h2.13V22.3Z"/><path class="cls-2" d="M27.26,21.82a.92.92,0,0,1,.67.24.82.82,0,0,1,.25.63v1.55H17.76v-.86a1.58,1.58,0,0,1,.11-.55,1.41,1.41,0,0,1,.35-.52l4.61-4.62c.39-.39.73-.77,1-1.13a7,7,0,0,0,.76-1.06,5.21,5.21,0,0,0,.47-1.06,4.24,4.24,0,0,0,.16-1.14,2.54,2.54,0,0,0-.16-1,1.76,1.76,0,0,0-.45-.7,1.88,1.88,0,0,0-.69-.43,2.85,2.85,0,0,0-.91-.14,2.91,2.91,0,0,0-.85.13,2.34,2.34,0,0,0-.7.37,2.42,2.42,0,0,0-.51.55,2.13,2.13,0,0,0-.32.7,1.17,1.17,0,0,1-.46.64,1.31,1.31,0,0,1-.82.07L18,13.29a5.78,5.78,0,0,1,.61-1.92,4.55,4.55,0,0,1,2.69-2.2,6,6,0,0,1,1.88-.28,5.6,5.6,0,0,1,1.92.31,4.31,4.31,0,0,1,1.49.87,3.93,3.93,0,0,1,1,1.37,4.4,4.4,0,0,1,.35,1.77,4.9,4.9,0,0,1-.25,1.56A7.11,7.11,0,0,1,27,16.13a8.82,8.82,0,0,1-1,1.26c-.38.41-.76.82-1.17,1.24l-3.42,3.5a8.68,8.68,0,0,1,1-.23,6,6,0,0,1,.93-.08Z"/></g></g></svg>