<svg xmlns="http://www.w3.org/2000/svg" viewBox="0 0 33.13 40"><defs><style>.cls-1{fill:#db7274;}.cls-2{fill:#fff;}</style></defs><g id="レイヤー_2" data-name="レイヤー 2"><g id="root_nav"><g id="pin"><path class="cls-1" d="M33.13,16.57a16.52,16.52,0,0,1-4.65,11.52L16.57,40,4.66,28.09a16.58,16.58,0,0,1,0-23L5,4.66a16.58,16.58,0,0,1,23.05,0l.39.38A16.52,16.52,0,0,1,33.13,16.57Z"/><path class="cls-2" d="M15.3,22.8v1.81H7.47V22.8h2.87V14.55c0-.33,0-.66,0-1l-2,1.7a.87.87,0,0,1-.35.17.74.74,0,0,1-.33,0,.67.67,0,0,1-.26-.1.73.73,0,0,1-.18-.16l-.76-1.05,4.31-3.67h2V22.8Z"/><path class="cls-2" d="M28.12,17.53a11.43,11.43,0,0,1-.4,3.22A6.56,6.56,0,0,1,26.63,23,4.49,4.49,0,0,1,25,24.33a5.13,5.13,0,0,1-4.11,0A4.48,4.48,0,0,1,19.23,23a6.38,6.38,0,0,1-1.09-2.25,11.83,11.83,0,0,1-.39-3.22,11.78,11.78,0,0,1,.39-3.22,6.56,6.56,0,0,1,1.09-2.25,4.45,4.45,0,0,1,1.63-1.32,5,5,0,0,1,4.11,0,4.46,4.46,0,0,1,1.66,1.32,6.74,6.74,0,0,1,1.09,2.25A11.38,11.38,0,0,1,28.12,17.53Zm-2.5,0A12,12,0,0,0,25.4,15a5.22,5.22,0,0,0-.6-1.61,2.21,2.21,0,0,0-.87-.83,2.25,2.25,0,0,0-2,0,2.17,2.17,0,0,0-.85.83,5.22,5.22,0,0,0-.6,1.61,12.68,12.68,0,0,0-.22,2.54,12.78,12.78,0,0,0,.22,2.55,5.15,5.15,0,0,0,.6,1.6,2.13,2.13,0,0,0,.85.84,2.25,2.25,0,0,0,2,0,2.17,2.17,0,0,0,.87-.84,5.15,5.15,0,0,0,.6-1.6A12.08,12.08,0,0,0,25.62,17.53Z"/></g></g></g></svg>