<svg xmlns="http://www.w3.org/2000/svg" viewBox="0 0 33.11 40"><defs><style>.cls-1{fill:#db7274;}.cls-2{fill:#fff;}</style></defs><g id="レイヤー_2" data-name="レイヤー 2"><g id="レイヤー_1-2" data-name="レイヤー 1"><g id="レイヤー_2-2" data-name="レイヤー 2"><g id="root_nav" data-name="root nav"><g id="pin"><path class="cls-1" d="M33.11,16.57a16.55,16.55,0,0,1-4.65,11.52L16.55,40,4.64,28.09a16.56,16.56,0,0,1,0-23L5,4.66A16.59,16.59,0,0,1,28,4.66l.39.38A16.55,16.55,0,0,1,33.11,16.57Z"/></g></g></g><path class="cls-2" d="M15.65,22.3v1.94H7.25V22.3h3.08V13.45c0-.35,0-.72,0-1.09L8.18,14.19a.87.87,0,0,1-.38.18.79.79,0,0,1-.34,0,.83.83,0,0,1-.29-.11A.53.53,0,0,1,7,14.1L6.16,13,10.79,9h2.13V22.3Z"/><path class="cls-2" d="M28.43,9.06v1.12a2.51,2.51,0,0,1-.11.81,4,4,0,0,1-.21.52L22.36,23.36a1.88,1.88,0,0,1-.5.62,1.39,1.39,0,0,1-.87.26H19.11L25,12.64q.19-.36.39-.66a4.73,4.73,0,0,1,.43-.57H18.54a.62.62,0,0,1-.6-.6V9.06Z"/></g></g></svg>