<svg xmlns="http://www.w3.org/2000/svg" viewBox="0 0 33.13 40"><defs><style>.cls-1{fill:#db7274;}.cls-2{fill:#fff;}</style></defs><g id="レイヤー_2" data-name="レイヤー 2"><g id="root_nav"><g id="pin"><path class="cls-1" d="M33.13,16.57a16.52,16.52,0,0,1-4.65,11.52L16.57,40,4.66,28.09a16.58,16.58,0,0,1,0-23L5,4.66a16.58,16.58,0,0,1,23.05,0l.39.38A16.52,16.52,0,0,1,33.13,16.57Z"/><path class="cls-2" d="M20.3,22.8v1.8H12.47V22.8h2.87V14.55c0-.33,0-.66,0-1l-2,1.7a.87.87,0,0,1-.35.17.74.74,0,0,1-.33,0,.67.67,0,0,1-.26-.1.59.59,0,0,1-.18-.17l-.76-1,4.31-3.67h2V22.8Z"/></g></g></g></svg>