<svg xmlns="http://www.w3.org/2000/svg" viewBox="0 0 33.11 40"><defs><style>.cls-1{fill:#db7274;}.cls-2{fill:#fff;}</style></defs><g id="レイヤー_2" data-name="レイヤー 2"><g id="レイヤー_1-2" data-name="レイヤー 1"><g id="レイヤー_2-2" data-name="レイヤー 2"><g id="root_nav" data-name="root nav"><g id="pin"><path class="cls-1" d="M33.11,16.57a16.55,16.55,0,0,1-4.65,11.52L16.55,40,4.64,28.09a16.56,16.56,0,0,1,0-23L5,4.66A16.59,16.59,0,0,1,28,4.66l.39.38A16.55,16.55,0,0,1,33.11,16.57Z"/></g></g></g><path class="cls-2" d="M15.65,22.3v1.94H7.25V22.3h3.08V13.45c0-.35,0-.72,0-1.09L8.18,14.19a.87.87,0,0,1-.38.18.79.79,0,0,1-.34,0,.83.83,0,0,1-.29-.11A.53.53,0,0,1,7,14.1L6.16,13,10.79,9h2.13V22.3Z"/><path class="cls-2" d="M21.23,14.57a8.64,8.64,0,0,1,1-.15,7,7,0,0,1,.9-.05,5.76,5.76,0,0,1,2.11.36,4.08,4.08,0,0,1,2.46,2.46A5.16,5.16,0,0,1,28,19a5.48,5.48,0,0,1-.43,2.21,4.86,4.86,0,0,1-1.18,1.7A5.34,5.34,0,0,1,24.58,24a6.33,6.33,0,0,1-2.25.39A6,6,0,0,1,21,24.26a7.66,7.66,0,0,1-1.2-.39,7.94,7.94,0,0,1-1-.57,5.89,5.89,0,0,1-.85-.68l.79-1.1a.78.78,0,0,1,.67-.36,1,1,0,0,1,.53.17c.18.11.39.24.63.37a6,6,0,0,0,.83.37,3.51,3.51,0,0,0,1.15.16A3.15,3.15,0,0,0,23.74,22a2.46,2.46,0,0,0,.9-.64,2.67,2.67,0,0,0,.55-1,4.13,4.13,0,0,0,.18-1.24,2.57,2.57,0,0,0-.72-1.94,2.88,2.88,0,0,0-2.12-.7,6.6,6.6,0,0,0-2.22.4l-1.61-.46L20,9.06h7.49v1.1a1.21,1.21,0,0,1-.34.9,1.65,1.65,0,0,1-1.18.35H21.76Z"/></g></g></svg>