<svg xmlns="http://www.w3.org/2000/svg" viewBox="0 0 33.11 40"><defs><style>.cls-1{fill:#db7274;}.cls-2{fill:#fff;}</style></defs><g id="レイヤー_2" data-name="レイヤー 2"><g id="レイヤー_1-2" data-name="レイヤー 1"><g id="レイヤー_2-2" data-name="レイヤー 2"><g id="root_nav" data-name="root nav"><g id="pin"><path class="cls-1" d="M33.11,16.57a16.55,16.55,0,0,1-4.65,11.52L16.55,40,4.64,28.09a16.56,16.56,0,0,1,0-23L5,4.66A16.59,16.59,0,0,1,28,4.66l.39.38A16.55,16.55,0,0,1,33.11,16.57Z"/></g></g></g><path class="cls-2" d="M15.65,22.3v1.94H7.25V22.3h3.08V13.45c0-.35,0-.72,0-1.09L8.18,14.19a.87.87,0,0,1-.38.18.79.79,0,0,1-.34,0,.83.83,0,0,1-.29-.11A.53.53,0,0,1,7,14.1L6.16,13,10.79,9h2.13V22.3Z"/><path class="cls-2" d="M18.1,13.29a5.56,5.56,0,0,1,.61-1.92A4.35,4.35,0,0,1,19.84,10a4.45,4.45,0,0,1,1.55-.83,6,6,0,0,1,1.88-.28,5.65,5.65,0,0,1,1.9.3,4.25,4.25,0,0,1,1.44.83,3.59,3.59,0,0,1,.92,1.24,3.63,3.63,0,0,1,.32,1.54,4.48,4.48,0,0,1-.16,1.28,3.07,3.07,0,0,1-.47,1,2.61,2.61,0,0,1-.75.69,4.81,4.81,0,0,1-1,.48,3.85,3.85,0,0,1,2,1.31,3.55,3.55,0,0,1,.68,2.21,4.57,4.57,0,0,1-.42,2,4.35,4.35,0,0,1-1.14,1.47A4.86,4.86,0,0,1,25,24.1a6.23,6.23,0,0,1-2,.31,6.68,6.68,0,0,1-2-.27,4.35,4.35,0,0,1-1.48-.77,4.86,4.86,0,0,1-1.07-1.26,8.81,8.81,0,0,1-.75-1.72l1.14-.48a1.42,1.42,0,0,1,.85-.1.81.81,0,0,1,.57.43,7.38,7.38,0,0,0,.41.72,3,3,0,0,0,.54.64,2.87,2.87,0,0,0,.74.45,2.66,2.66,0,0,0,1,.17A2.91,2.91,0,0,0,24.08,22a2.63,2.63,0,0,0,.83-.56,2.4,2.4,0,0,0,.65-1.63,4.28,4.28,0,0,0-.11-1,1.46,1.46,0,0,0-.49-.76,2.57,2.57,0,0,0-1.05-.5,7.53,7.53,0,0,0-1.84-.18V15.55a6.81,6.81,0,0,0,1.58-.18,2.74,2.74,0,0,0,1-.47,1.52,1.52,0,0,0,.52-.72,2.73,2.73,0,0,0,.15-.92,2.11,2.11,0,0,0-.6-1.63,2.25,2.25,0,0,0-1.59-.56,2.86,2.86,0,0,0-.85.13,2.34,2.34,0,0,0-.7.37,2.26,2.26,0,0,0-.52.55,2.35,2.35,0,0,0-.32.7,1.17,1.17,0,0,1-.46.64,1.32,1.32,0,0,1-.82.07Z"/></g></g></svg>