<svg xmlns="http://www.w3.org/2000/svg" viewBox="0 0 33.11 40"><defs><style>.cls-1{fill:#db7274;}.cls-2{fill:#fff;}</style></defs><g id="レイヤー_2" data-name="レイヤー 2"><g id="レイヤー_1-2" data-name="レイヤー 1"><g id="レイヤー_2-2" data-name="レイヤー 2"><g id="root_nav" data-name="root nav"><g id="pin"><path class="cls-1" d="M33.11,16.57a16.55,16.55,0,0,1-4.65,11.52L16.55,40,4.64,28.09a16.56,16.56,0,0,1,0-23L5,4.66A16.59,16.59,0,0,1,28,4.66l.39.38A16.55,16.55,0,0,1,33.11,16.57Z"/></g></g></g><path class="cls-2" d="M15.65,22.3v1.94H7.25V22.3h3.08V13.45c0-.35,0-.72,0-1.09L8.18,14.19a.87.87,0,0,1-.38.18.79.79,0,0,1-.34,0,.83.83,0,0,1-.29-.11A.53.53,0,0,1,7,14.1L6.16,13,10.79,9h2.13V22.3Z"/><path class="cls-2" d="M22.44,14.57l-.52.65a4.12,4.12,0,0,1,.95-.34,4.75,4.75,0,0,1,1.1-.12,5,5,0,0,1,1.67.28,4.12,4.12,0,0,1,2.43,2.28,4.89,4.89,0,0,1,.38,2,5.08,5.08,0,0,1-.39,2A5,5,0,0,1,27,22.92,5.12,5.12,0,0,1,25.27,24a5.91,5.91,0,0,1-2.18.4A5.82,5.82,0,0,1,20.9,24a4.8,4.8,0,0,1-1.65-1.09,4.64,4.64,0,0,1-1-1.68,6.27,6.27,0,0,1-.36-2.18,6.13,6.13,0,0,1,.43-2.2,9.85,9.85,0,0,1,1.35-2.34l3.62-4.86a1.55,1.55,0,0,1,.55-.44,2,2,0,0,1,.84-.17H27ZM23,22.29a3,3,0,0,0,1.14-.21,2.52,2.52,0,0,0,.89-.59,2.71,2.71,0,0,0,.59-.89,2.89,2.89,0,0,0,.21-1.11,3.34,3.34,0,0,0-.2-1.17,2.52,2.52,0,0,0-.57-.88,2.48,2.48,0,0,0-.88-.55,3.17,3.17,0,0,0-1.14-.19,2.9,2.9,0,0,0-1.12.21,2.47,2.47,0,0,0-.86.58,2.8,2.8,0,0,0-.56.89,3,3,0,0,0-.2,1.09,3.47,3.47,0,0,0,.18,1.15,2.31,2.31,0,0,0,.51.89,2.44,2.44,0,0,0,.85.57A3,3,0,0,0,23,22.29Z"/></g></g></svg>