<svg xmlns="http://www.w3.org/2000/svg" viewBox="0 0 33.11 40"><defs><style>.cls-1{fill:#db7274;}.cls-2{fill:#fff;}</style></defs><g id="レイヤー_2" data-name="レイヤー 2"><g id="レイヤー_1-2" data-name="レイヤー 1"><g id="レイヤー_2-2" data-name="レイヤー 2"><g id="root_nav" data-name="root nav"><g id="pin"><path class="cls-1" d="M33.11,16.57a16.55,16.55,0,0,1-4.65,11.52L16.55,40,4.64,28.09a16.56,16.56,0,0,1,0-23L5,4.66A16.59,16.59,0,0,1,28,4.66l.39.38A16.55,16.55,0,0,1,33.11,16.57Z"/></g></g></g><path class="cls-2" d="M15.65,22.3v1.94H7.25V22.3h3.08V13.45c0-.35,0-.72,0-1.09L8.18,14.19a.87.87,0,0,1-.38.18.79.79,0,0,1-.34,0,.83.83,0,0,1-.29-.11A.53.53,0,0,1,7,14.1L6.16,13,10.79,9h2.13V22.3Z"/><path class="cls-2" d="M23.87,18.35l.34-.43.3-.42a4.43,4.43,0,0,1-1.15.51,5.21,5.21,0,0,1-1.33.17,4.58,4.58,0,0,1-1.54-.27,3.81,3.81,0,0,1-1.34-.83,4.1,4.1,0,0,1-.95-1.36,4.68,4.68,0,0,1-.36-1.91,4.89,4.89,0,0,1,.37-1.91,5.07,5.07,0,0,1,1.06-1.56,5,5,0,0,1,1.64-1.06,6,6,0,0,1,4.21,0,4.39,4.39,0,0,1,2.59,2.61,5.77,5.77,0,0,1,.35,2,7.07,7.07,0,0,1-.12,1.33,7,7,0,0,1-.34,1.21,8.46,8.46,0,0,1-.54,1.14,11.92,11.92,0,0,1-.7,1.1l-3.47,5a1.41,1.41,0,0,1-.54.43,1.92,1.92,0,0,1-.81.17H19.16Zm-3.44-4.74a2.67,2.67,0,0,0,.65,1.94,2.49,2.49,0,0,0,1.87.67,3,3,0,0,0,1.12-.2,2.46,2.46,0,0,0,.83-.55,2.11,2.11,0,0,0,.51-.82,2.8,2.8,0,0,0,.17-1,3.13,3.13,0,0,0-.18-1.1,2.39,2.39,0,0,0-.54-.83,2.47,2.47,0,0,0-.82-.51A3,3,0,0,0,23,11a2.78,2.78,0,0,0-1.06.19,2.4,2.4,0,0,0-.81.54,2.51,2.51,0,0,0-.51.83A3,3,0,0,0,20.43,13.61Z"/></g></g></svg>