<svg xmlns="http://www.w3.org/2000/svg" viewBox="0 0 33.11 40"><defs><style>.cls-1{fill:#db7274;}.cls-2{fill:#fff;}</style></defs><g id="レイヤー_2" data-name="レイヤー 2"><g id="レイヤー_1-2" data-name="レイヤー 1"><g id="レイヤー_2-2" data-name="レイヤー 2"><g id="root_nav" data-name="root nav"><g id="pin"><path class="cls-1" d="M33.11,16.57a16.55,16.55,0,0,1-4.65,11.52L16.55,40,4.64,28.09a16.56,16.56,0,0,1,0-23L5,4.66A16.59,16.59,0,0,1,28,4.66l.39.38A16.55,16.55,0,0,1,33.11,16.57Z"/></g></g></g><path class="cls-2" d="M15.65,22.3v1.94H7.25V22.3h3.08V13.45c0-.35,0-.72,0-1.09L8.18,14.19a.87.87,0,0,1-.38.18.79.79,0,0,1-.34,0,.83.83,0,0,1-.29-.11A.53.53,0,0,1,7,14.1L6.16,13,10.79,9h2.13V22.3Z"/><path class="cls-2" d="M25.62,16.32A3.55,3.55,0,0,1,28.32,20a4.15,4.15,0,0,1-.38,1.82,3.88,3.88,0,0,1-1.08,1.4,5,5,0,0,1-1.66.89,7.35,7.35,0,0,1-4.29,0,5,5,0,0,1-1.67-.89,4,4,0,0,1-1.07-1.4A4.15,4.15,0,0,1,17.78,20a3.84,3.84,0,0,1,.66-2.28,3.9,3.9,0,0,1,2-1.38A3.54,3.54,0,0,1,18.84,15a3.67,3.67,0,0,1-.55-2,3.6,3.6,0,0,1,.35-1.6,3.88,3.88,0,0,1,1-1.3,4.38,4.38,0,0,1,1.51-.86,5.6,5.6,0,0,1,1.92-.31A5.66,5.66,0,0,1,25,9.2a4.48,4.48,0,0,1,1.51.86,4,4,0,0,1,1,1.3,3.74,3.74,0,0,1,.35,1.6,3.67,3.67,0,0,1-.55,2A3.54,3.54,0,0,1,25.62,16.32Zm-2.57,6.06a3.23,3.23,0,0,0,1.13-.18,2.54,2.54,0,0,0,.81-.51,2.13,2.13,0,0,0,.5-.78,2.84,2.84,0,0,0,.17-1A2.43,2.43,0,0,0,25,18a2.72,2.72,0,0,0-1.91-.64,2.74,2.74,0,0,0-1.91.64,2.46,2.46,0,0,0-.69,1.89,2.84,2.84,0,0,0,.17,1,2.13,2.13,0,0,0,.5.78,2.54,2.54,0,0,0,.81.51A3.21,3.21,0,0,0,23.05,22.38Zm0-11.54a2.5,2.5,0,0,0-1,.18,2,2,0,0,0-.7.48,1.86,1.86,0,0,0-.41.69,2.41,2.41,0,0,0-.13.81,3.17,3.17,0,0,0,.11.88,2.07,2.07,0,0,0,.37.76,2,2,0,0,0,.69.53,2.57,2.57,0,0,0,1.06.2,2.54,2.54,0,0,0,1.06-.2,2,2,0,0,0,.7-.53,2.07,2.07,0,0,0,.37-.76,3.6,3.6,0,0,0,.11-.88,2.42,2.42,0,0,0-.14-.81,1.86,1.86,0,0,0-.41-.69,1.94,1.94,0,0,0-.69-.48A2.52,2.52,0,0,0,23.05,10.84Z"/></g></g></svg>