<svg xmlns="http://www.w3.org/2000/svg" viewBox="0 0 33.11 40"><defs><style>.cls-1{fill:#db7274;}.cls-2{fill:#fff;}</style></defs><g id="レイヤー_2" data-name="レイヤー 2"><g id="レイヤー_1-2" data-name="レイヤー 1"><g id="レイヤー_2-2" data-name="レイヤー 2"><g id="root_nav" data-name="root nav"><g id="pin"><path class="cls-1" d="M33.11,16.57a16.55,16.55,0,0,1-4.65,11.52L16.55,40,4.64,28.09a16.56,16.56,0,0,1,0-23L5,4.66A16.59,16.59,0,0,1,28,4.66l.39.38A16.55,16.55,0,0,1,33.11,16.57Z"/></g></g></g><path class="cls-2" d="M15.08,21.82a.92.92,0,0,1,.67.24.82.82,0,0,1,.25.63v1.55H5.58v-.86a1.58,1.58,0,0,1,.11-.55A1.41,1.41,0,0,1,6,22.31l4.61-4.62c.39-.39.73-.77,1-1.13a7,7,0,0,0,.76-1.06,5.21,5.21,0,0,0,.47-1.06,4.24,4.24,0,0,0,.16-1.14,2.54,2.54,0,0,0-.16-1,1.86,1.86,0,0,0-.44-.7,2,2,0,0,0-.7-.43,2.85,2.85,0,0,0-.91-.14,2.91,2.91,0,0,0-.85.13,2.34,2.34,0,0,0-.7.37,2.42,2.42,0,0,0-.51.55,2.35,2.35,0,0,0-.32.7,1.17,1.17,0,0,1-.46.64,1.31,1.31,0,0,1-.82.07l-1.37-.24a5.78,5.78,0,0,1,.61-1.92,4.55,4.55,0,0,1,2.69-2.2A6,6,0,0,1,11,8.89a5.6,5.6,0,0,1,1.92.31,4.31,4.31,0,0,1,1.49.87,3.93,3.93,0,0,1,1,1.37,4.4,4.4,0,0,1,.35,1.77,4.9,4.9,0,0,1-.25,1.56,7.11,7.11,0,0,1-.66,1.36,8.82,8.82,0,0,1-1,1.26c-.37.41-.76.82-1.17,1.24l-3.42,3.5a8.68,8.68,0,0,1,1-.23,6.15,6.15,0,0,1,.93-.08Z"/><path class="cls-2" d="M28.62,16.65a12.23,12.23,0,0,1-.43,3.45A7.09,7.09,0,0,1,27,22.52a4.76,4.76,0,0,1-1.78,1.42,5.41,5.41,0,0,1-4.41,0,4.86,4.86,0,0,1-1.76-1.42,7.27,7.27,0,0,1-1.16-2.42,12.63,12.63,0,0,1-.42-3.45,12.65,12.65,0,0,1,.42-3.46,7.21,7.21,0,0,1,1.16-2.41,4.75,4.75,0,0,1,1.76-1.42,5.41,5.41,0,0,1,4.41,0A4.66,4.66,0,0,1,27,10.78a7,7,0,0,1,1.17,2.41A12.25,12.25,0,0,1,28.62,16.65Zm-2.68,0a12.9,12.9,0,0,0-.24-2.73,5.38,5.38,0,0,0-.65-1.72,2.34,2.34,0,0,0-.93-.9A2.46,2.46,0,0,0,23,11,2.38,2.38,0,0,0,22,11.3a2.26,2.26,0,0,0-.92.9,5.39,5.39,0,0,0-.64,1.72,13,13,0,0,0-.23,2.73,13,13,0,0,0,.23,2.73A5.49,5.49,0,0,0,21,21.1,2.26,2.26,0,0,0,22,22a2.37,2.37,0,0,0,1.07.25A2.45,2.45,0,0,0,24.12,22a2.34,2.34,0,0,0,.93-.9,5.48,5.48,0,0,0,.65-1.72A12.9,12.9,0,0,0,25.94,16.65Z"/></g></g></svg>