<svg xmlns="http://www.w3.org/2000/svg" viewBox="0 0 33.13 40"><defs><style>.cls-1{fill:#db7274;}.cls-2{fill:#fff;}</style></defs><g id="レイヤー_2" data-name="レイヤー 2"><g id="root_nav"><g id="pin"><path class="cls-1" d="M33.13,16.57a16.52,16.52,0,0,1-4.65,11.52L16.57,40,4.66,28.09a16.58,16.58,0,0,1,0-23L5,4.66a16.58,16.58,0,0,1,23.05,0l.39.38A16.52,16.52,0,0,1,33.13,16.57Z"/><path class="cls-2" d="M19.77,22.36a.84.84,0,0,1,.62.22.73.73,0,0,1,.23.58v1.45h-9.7V23.8a1.4,1.4,0,0,1,.1-.51,1.29,1.29,0,0,1,.33-.48l4.29-4.31c.36-.36.68-.71,1-1.05a7.29,7.29,0,0,0,.71-1,4.57,4.57,0,0,0,.43-1,3.67,3.67,0,0,0,.15-1.06,2.64,2.64,0,0,0-.14-.89,1.74,1.74,0,0,0-.42-.65,1.7,1.7,0,0,0-.64-.4,2.79,2.79,0,0,0-1.65,0,2.36,2.36,0,0,0-.65.34,2.15,2.15,0,0,0-.48.52,2.07,2.07,0,0,0-.29.64,1.11,1.11,0,0,1-.43.6,1.22,1.22,0,0,1-.77.07l-1.27-.23a5.25,5.25,0,0,1,.57-1.78,4.31,4.31,0,0,1,1-1.29,4.58,4.58,0,0,1,1.45-.77A5.85,5.85,0,0,1,16,10.3a5.42,5.42,0,0,1,1.79.29,4.09,4.09,0,0,1,1.39.82,3.76,3.76,0,0,1,.9,1.27,4.22,4.22,0,0,1,.32,1.65,4.45,4.45,0,0,1-.23,1.45,5.74,5.74,0,0,1-.62,1.27,9,9,0,0,1-.9,1.18c-.35.38-.71.76-1.09,1.15l-3.19,3.26a7.62,7.62,0,0,1,.92-.21,5.24,5.24,0,0,1,.86-.07Z"/></g></g></g></svg>