<svg xmlns="http://www.w3.org/2000/svg" viewBox="0 0 33.13 40"><defs><style>.cls-1{fill:#db7274;}.cls-2{fill:#fff;}</style></defs><g id="レイヤー_2" data-name="レイヤー 2"><g id="root_nav"><g id="pin"><path class="cls-1" d="M33.13,16.57a16.52,16.52,0,0,1-4.65,11.52L16.57,40,4.66,28.09a16.58,16.58,0,0,1,0-23L5,4.66a16.58,16.58,0,0,1,23.05,0l.39.38A16.52,16.52,0,0,1,33.13,16.57Z"/><path class="cls-2" d="M11.23,14.4a5.25,5.25,0,0,1,.57-1.78,4.26,4.26,0,0,1,2.5-2.06,5.83,5.83,0,0,1,1.75-.26,5.39,5.39,0,0,1,1.77.28,4.45,4.45,0,0,1,1.35.77A3.45,3.45,0,0,1,20,12.51a3.51,3.51,0,0,1,.3,1.44,4.25,4.25,0,0,1-.15,1.19,2.9,2.9,0,0,1-.44.9,2.53,2.53,0,0,1-.7.64,4.37,4.37,0,0,1-1,.44A3.77,3.77,0,0,1,20,18.34a3.37,3.37,0,0,1,.62,2.07,4.28,4.28,0,0,1-.39,1.87,4,4,0,0,1-1.05,1.36,4.65,4.65,0,0,1-1.55.84,5.92,5.92,0,0,1-1.85.28,6.46,6.46,0,0,1-1.86-.24,4.14,4.14,0,0,1-1.38-.73,4.55,4.55,0,0,1-1-1.17,8.46,8.46,0,0,1-.7-1.6l1.07-.45a1.36,1.36,0,0,1,.78-.09.78.78,0,0,1,.54.4c.12.23.24.45.38.67a2.9,2.9,0,0,0,.51.6,2.36,2.36,0,0,0,.69.42,2.64,2.64,0,0,0,.94.16,2.77,2.77,0,0,0,1.08-.2,2.51,2.51,0,0,0,.77-.53,2.27,2.27,0,0,0,.46-.72,2.21,2.21,0,0,0,.15-.79,3.83,3.83,0,0,0-.11-.93,1.4,1.4,0,0,0-.45-.71,2.56,2.56,0,0,0-1-.46,7.21,7.21,0,0,0-1.72-.16V16.51a6.63,6.63,0,0,0,1.48-.17,2.52,2.52,0,0,0,.93-.44,1.54,1.54,0,0,0,.49-.67,2.59,2.59,0,0,0,.13-.86,1.93,1.93,0,0,0-.56-1.51,2.06,2.06,0,0,0-1.48-.52,2.47,2.47,0,0,0-.79.12,2.42,2.42,0,0,0-.66.34,2.15,2.15,0,0,0-.48.52,2.07,2.07,0,0,0-.29.64,1.07,1.07,0,0,1-.44.6,1.2,1.2,0,0,1-.76.07Z"/></g></g></g></svg>