<svg xmlns="http://www.w3.org/2000/svg" viewBox="0 0 33.13 40"><defs><style>.cls-1{fill:#db7274;}.cls-2{fill:#fff;}</style></defs><g id="レイヤー_2" data-name="レイヤー 2"><g id="root_nav"><g id="pin"><path class="cls-1" d="M33.13,16.57a16.52,16.52,0,0,1-4.65,11.52L16.57,40,4.66,28.09a16.58,16.58,0,0,1,0-23L5,4.66a16.58,16.58,0,0,1,23.05,0l.39.38A16.52,16.52,0,0,1,33.13,16.57Z"/><path class="cls-2" d="M21,19.27v1.4a.5.5,0,0,1-.12.34.5.5,0,0,1-.37.14H19.24v3.46h-2.1V21.15h-6a.68.68,0,0,1-.43-.15.66.66,0,0,1-.23-.38l-.26-1.22L17,10.45h2.29v8.82Zm-3.88,0V14.65a12.93,12.93,0,0,1,.09-1.45l-4.39,6.07Z"/></g></g></g></svg>