<svg xmlns="http://www.w3.org/2000/svg" viewBox="0 0 33.13 40"><defs><style>.cls-1{fill:#db7274;}.cls-2{fill:#fff;}</style></defs><g id="レイヤー_2" data-name="レイヤー 2"><g id="root_nav"><g id="pin"><path class="cls-1" d="M33.13,16.57a16.52,16.52,0,0,1-4.65,11.52L16.57,40,4.66,28.09a16.58,16.58,0,0,1,0-23L5,4.66a16.58,16.58,0,0,1,23.05,0l.39.38A16.52,16.52,0,0,1,33.13,16.57Z"/><path class="cls-2" d="M14.15,15.6a7.68,7.68,0,0,1,.9-.15,7.81,7.81,0,0,1,.83,0,5.37,5.37,0,0,1,2,.33,4,4,0,0,1,1.43.92A3.68,3.68,0,0,1,20.14,18a4.69,4.69,0,0,1,.3,1.69,5.29,5.29,0,0,1-.4,2.06,4.58,4.58,0,0,1-1.1,1.59,5,5,0,0,1-1.67,1,5.94,5.94,0,0,1-2.1.36,5.18,5.18,0,0,1-1.26-.14,6.38,6.38,0,0,1-1.12-.36,6.9,6.9,0,0,1-1-.53A6.42,6.42,0,0,1,11,23.1l.74-1a.73.73,0,0,1,.62-.33.86.86,0,0,1,.49.16l.59.34a4.66,4.66,0,0,0,.77.34,3.09,3.09,0,0,0,1.07.16,2.84,2.84,0,0,0,1.17-.22,2.19,2.19,0,0,0,.85-.6,2.43,2.43,0,0,0,.51-.92A3.87,3.87,0,0,0,18,19.84a2.37,2.37,0,0,0-.67-1.8,2.72,2.72,0,0,0-2-.65,6.11,6.11,0,0,0-2.06.37l-1.51-.43L13,10.46h7v1a1.17,1.17,0,0,1-.32.84,1.57,1.57,0,0,1-1.1.32H14.65Z"/></g></g></g></svg>