<svg xmlns="http://www.w3.org/2000/svg" viewBox="0 0 33.13 40"><defs><style>.cls-1{fill:#db7274;}.cls-2{fill:#fff;}</style></defs><g id="レイヤー_2" data-name="レイヤー 2"><g id="root_nav"><g id="pin"><path class="cls-1" d="M33.13,16.57a16.52,16.52,0,0,1-4.65,11.52L16.57,40,4.66,28.09a16.58,16.58,0,0,1,0-23L5,4.66a16.58,16.58,0,0,1,23.05,0l.39.38A16.52,16.52,0,0,1,33.13,16.57Z"/><path class="cls-2" d="M15.28,15.6l-.49.6a4.93,4.93,0,0,1,.89-.32,4.69,4.69,0,0,1,1-.11,4.61,4.61,0,0,1,1.56.27,3.77,3.77,0,0,1,1.34.79,4,4,0,0,1,.92,1.33A4.42,4.42,0,0,1,20.88,20a4.75,4.75,0,0,1-1.38,3.36,4.89,4.89,0,0,1-1.58,1,5.4,5.4,0,0,1-2,.37,5.46,5.46,0,0,1-2-.36,4.39,4.39,0,0,1-1.53-1,4.44,4.44,0,0,1-1-1.57,5.92,5.92,0,0,1-.33-2,5.69,5.69,0,0,1,.4-2.05,9,9,0,0,1,1.26-2.18L16,11a1.36,1.36,0,0,1,.52-.4,1.6,1.6,0,0,1,.78-.17h2.15Zm.55,7.19a2.82,2.82,0,0,0,1.06-.2,2.36,2.36,0,0,0,.83-.55,2.62,2.62,0,0,0,.74-1.86,2.94,2.94,0,0,0-.19-1.09,2.39,2.39,0,0,0-.52-.82,2.47,2.47,0,0,0-.82-.51,3,3,0,0,0-1.06-.18,2.69,2.69,0,0,0-1,.2,2.36,2.36,0,0,0-.8.54,2.67,2.67,0,0,0-.52.82,2.88,2.88,0,0,0-.18,1,3.35,3.35,0,0,0,.16,1.08,2.15,2.15,0,0,0,1.26,1.35A2.86,2.86,0,0,0,15.83,22.79Z"/></g></g></g></svg>