<svg xmlns="http://www.w3.org/2000/svg" viewBox="0 0 33.13 40"><defs><style>.cls-1{fill:#db7274;}.cls-2{fill:#fff;}</style></defs><g id="レイヤー_2" data-name="レイヤー 2"><g id="root_nav"><g id="pin"><path class="cls-1" d="M33.13,16.57a16.52,16.52,0,0,1-4.65,11.52L16.57,40,4.66,28.09a16.58,16.58,0,0,1,0-23L5,4.66a16.58,16.58,0,0,1,23.05,0l.39.38A16.52,16.52,0,0,1,33.13,16.57Z"/><path class="cls-2" d="M20.86,10.46v1a2.52,2.52,0,0,1-.1.75,3.5,3.5,0,0,1-.2.49l-5.36,11a1.58,1.58,0,0,1-.47.59,1.26,1.26,0,0,1-.81.23H12.17l5.47-10.8a6,6,0,0,1,.37-.62,4.91,4.91,0,0,1,.4-.53H11.64a.5.5,0,0,1-.39-.17.53.53,0,0,1-.16-.39V10.46Z"/></g></g></g></svg>