<svg xmlns="http://www.w3.org/2000/svg" viewBox="0 0 33.13 40"><defs><style>.cls-1{fill:#db7274;}.cls-2{fill:#fff;}</style></defs><g id="レイヤー_2" data-name="レイヤー 2"><g id="root_nav"><g id="pin"><path class="cls-1" d="M33.13,16.57a16.52,16.52,0,0,1-4.65,11.52L16.57,40,4.66,28.09a16.58,16.58,0,0,1,0-23L5,4.66a16.58,16.58,0,0,1,23.05,0l.39.38A16.52,16.52,0,0,1,33.13,16.57Z"/><path class="cls-2" d="M18.24,17.23a3.59,3.59,0,0,1,1.9,1.29,3.54,3.54,0,0,1,.62,2.11,4,4,0,0,1-.36,1.71,3.84,3.84,0,0,1-1,1.3,4.69,4.69,0,0,1-1.55.83,7,7,0,0,1-4,0,4.69,4.69,0,0,1-1.55-.83,3.72,3.72,0,0,1-1-1.3,4,4,0,0,1-.36-1.71,3.53,3.53,0,0,1,.61-2.11,3.66,3.66,0,0,1,1.91-1.29A3.35,3.35,0,0,1,11.92,16a3.72,3.72,0,0,1-.18-3.41,3.68,3.68,0,0,1,.91-1.21,4.27,4.27,0,0,1,1.4-.8,5.48,5.48,0,0,1,1.8-.29,5.38,5.38,0,0,1,1.79.29,4.22,4.22,0,0,1,1.41.8A3.82,3.82,0,0,1,20,12.6,3.72,3.72,0,0,1,19.78,16,3.41,3.41,0,0,1,18.24,17.23Zm-2.39,5.64a2.82,2.82,0,0,0,1-.17,2,2,0,0,0,.75-.47,2,2,0,0,0,.47-.73,2.67,2.67,0,0,0,.15-.91,2.29,2.29,0,0,0-.64-1.76,2.55,2.55,0,0,0-1.78-.59,2.55,2.55,0,0,0-1.78.59,2.29,2.29,0,0,0-.65,1.76,2.45,2.45,0,0,0,.16.91,2,2,0,0,0,.46.73,2.17,2.17,0,0,0,.76.47A2.82,2.82,0,0,0,15.85,22.87Zm0-10.75a2.38,2.38,0,0,0-.93.17,1.91,1.91,0,0,0-.65.44,1.77,1.77,0,0,0-.38.65,2.38,2.38,0,0,0-.13.76,3.24,3.24,0,0,0,.11.82,1.85,1.85,0,0,0,.35.7,1.68,1.68,0,0,0,.64.49,2.67,2.67,0,0,0,2,0,1.76,1.76,0,0,0,.64-.49,1.85,1.85,0,0,0,.35-.7,3.23,3.23,0,0,0,.1-.82,2.37,2.37,0,0,0-.12-.76,1.94,1.94,0,0,0-.39-.65,1.87,1.87,0,0,0-.64-.44A2.38,2.38,0,0,0,15.85,12.12Z"/></g></g></g></svg>