<svg xmlns="http://www.w3.org/2000/svg" viewBox="0 0 33.13 40"><defs><style>.cls-1{fill:#db7274;}.cls-2{fill:#fff;}</style></defs><g id="レイヤー_2" data-name="レイヤー 2"><g id="root_nav"><g id="pin"><path class="cls-1" d="M33.13,16.57a16.52,16.52,0,0,1-4.65,11.52L16.57,40,4.66,28.09a16.58,16.58,0,0,1,0-23L5,4.66a16.58,16.58,0,0,1,23.05,0l.39.38A16.52,16.52,0,0,1,33.13,16.57Z"/><path class="cls-2" d="M16.61,19.12l.32-.4c.09-.13.19-.26.28-.4a4,4,0,0,1-1.08.48A4.51,4.51,0,0,1,14.9,19a4.2,4.2,0,0,1-1.44-.25,3.68,3.68,0,0,1-1.25-.77,3.92,3.92,0,0,1-.89-1.27,4.83,4.83,0,0,1,0-3.56,4.39,4.39,0,0,1,1-1.46,4.88,4.88,0,0,1,1.52-1,5.59,5.59,0,0,1,3.92,0,4.14,4.14,0,0,1,1.48.95,4.3,4.3,0,0,1,.94,1.48A5.25,5.25,0,0,1,20.51,15a6.15,6.15,0,0,1-.11,1.24,7,7,0,0,1-.31,1.13,8.53,8.53,0,0,1-.5,1.06c-.2.35-.42.69-.66,1l-3.24,4.62a1.2,1.2,0,0,1-.5.39,1.65,1.65,0,0,1-.75.16H12.22ZM13.4,14.71a2.5,2.5,0,0,0,.61,1.8,2.36,2.36,0,0,0,1.74.62A2.89,2.89,0,0,0,16.8,17a2.46,2.46,0,0,0,.77-.51,2.18,2.18,0,0,0,.48-.77,2.9,2.9,0,0,0,.16-.94,2.84,2.84,0,0,0-.18-1,2.14,2.14,0,0,0-.5-.77,2.21,2.21,0,0,0-.77-.47,2.54,2.54,0,0,0-1-.17,2.64,2.64,0,0,0-1,.18,2.14,2.14,0,0,0-1.23,1.27A2.8,2.8,0,0,0,13.4,14.71Z"/></g></g></g></svg>