<svg xmlns="http://www.w3.org/2000/svg" viewBox="0 0 80 52"><defs><style>.cls-1{fill:#fff;}.cls-2{fill:#dc7274;}</style></defs><g id="レイヤー_2" data-name="レイヤー 2"><g id="guide"><rect class="cls-1" width="80" height="52" rx="6"/><g id="model"><path class="cls-2" d="M12.52,24.57l1.29-10.73H15a.76.76,0,0,1,.56.19.74.74,0,0,1,.19.57l-.09,1.51a5.85,5.85,0,0,1,1.64-1.81,3.31,3.31,0,0,1,1.88-.61,1.89,1.89,0,0,1,1.57.7,3.38,3.38,0,0,1,.59,2,6,6,0,0,1,1.73-2,3.55,3.55,0,0,1,2.05-.66,2.12,2.12,0,0,1,2,1.07,4.72,4.72,0,0,1,.39,3l-.81,6.81H24.42l.8-6.81a5.88,5.88,0,0,0,.05-1,2.14,2.14,0,0,0-.12-.69.8.8,0,0,0-.33-.39,1.13,1.13,0,0,0-.56-.13,1.81,1.81,0,0,0-.83.22,3.13,3.13,0,0,0-.8.65,5.51,5.51,0,0,0-.7,1,8.55,8.55,0,0,0-.58,1.39l-.67,5.72H18.47l.8-6.81a7.61,7.61,0,0,0,.07-1,2.14,2.14,0,0,0-.12-.69.77.77,0,0,0-.31-.39,1.13,1.13,0,0,0-.56-.13,1.74,1.74,0,0,0-.88.24,2.93,2.93,0,0,0-.8.68,5.21,5.21,0,0,0-.7,1.07A9.6,9.6,0,0,0,15.39,19l-.66,5.57Z"/><path class="cls-2" d="M33.68,24.73a4.34,4.34,0,0,1-1.63-.3,3.64,3.64,0,0,1-1.28-.87,4.12,4.12,0,0,1-.85-1.41,5.55,5.55,0,0,1-.3-1.89,7.51,7.51,0,0,1,.43-2.58,6.67,6.67,0,0,1,1.2-2.08A5.57,5.57,0,0,1,33,14.2a4.71,4.71,0,0,1,2.16-.51,4.34,4.34,0,0,1,1.63.3,3.37,3.37,0,0,1,1.28.88,4,4,0,0,1,.84,1.4,5.37,5.37,0,0,1,.31,1.9,7.67,7.67,0,0,1-.2,1.74,7.89,7.89,0,0,1-.56,1.57,6.36,6.36,0,0,1-.87,1.33,5.65,5.65,0,0,1-1.12,1,4.72,4.72,0,0,1-1.33.66A4.59,4.59,0,0,1,33.68,24.73Zm.2-1.76a2.23,2.23,0,0,0,1.28-.4,3.3,3.3,0,0,0,1-1.05A5.58,5.58,0,0,0,36.77,20,7.18,7.18,0,0,0,37,18.18a3.34,3.34,0,0,0-.51-2.05A1.77,1.77,0,0,0,35,15.46a2.22,2.22,0,0,0-1.28.39,3.24,3.24,0,0,0-1,1,5.1,5.1,0,0,0-.62,1.52,7.28,7.28,0,0,0-.22,1.83C31.88,22.06,32.54,23,33.88,23Z"/><path class="cls-2" d="M51.57,9,49.64,24.57H48.46a.64.64,0,0,1-.58-.22.87.87,0,0,1-.16-.54L47.86,22A8.54,8.54,0,0,1,47,23.11a5.9,5.9,0,0,1-.95.87,4.21,4.21,0,0,1-1,.56,3.14,3.14,0,0,1-1.1.19,2.57,2.57,0,0,1-2.13-1,4.68,4.68,0,0,1-.79-3A8,8,0,0,1,41.19,19a8.23,8.23,0,0,1,.52-1.66,7.38,7.38,0,0,1,.81-1.46,6.16,6.16,0,0,1,1.06-1.15A4.74,4.74,0,0,1,44.82,14a3.67,3.67,0,0,1,1.39-.28,3.28,3.28,0,0,1,1.38.29,3.07,3.07,0,0,1,1.06.8L49.36,9Zm-3.11,7.25a2,2,0,0,0-.89-.65,3,3,0,0,0-1-.18,2.25,2.25,0,0,0-1.37.45,4.05,4.05,0,0,0-1,1.19,6,6,0,0,0-.67,1.64,7,7,0,0,0-.24,1.81,3.22,3.22,0,0,0,.41,1.79,1.31,1.31,0,0,0,1.14.59,1.79,1.79,0,0,0,.95-.3,3.75,3.75,0,0,0,.92-.84,7.34,7.34,0,0,0,.83-1.27,10.08,10.08,0,0,0,.65-1.6Z"/><path class="cls-2" d="M61.36,22.59a10.16,10.16,0,0,1-1.07,1,6.13,6.13,0,0,1-1.07.67,4.93,4.93,0,0,1-1.14.38,6,6,0,0,1-1.3.13,4.06,4.06,0,0,1-1.68-.32,3.49,3.49,0,0,1-1.28-.88A4,4,0,0,1,53,22.14a5.47,5.47,0,0,1-.29-1.82,7.58,7.58,0,0,1,.18-1.65,7.24,7.24,0,0,1,.52-1.55,7.16,7.16,0,0,1,.83-1.36,5.66,5.66,0,0,1,1.11-1.08A5.3,5.3,0,0,1,56.74,14a5,5,0,0,1,1.61-.25,4,4,0,0,1,1.44.23,3.13,3.13,0,0,1,1,.61,2.55,2.55,0,0,1,.61.83,2.2,2.2,0,0,1,.2.88,2.91,2.91,0,0,1-.29,1.29,2.82,2.82,0,0,1-1,1.06,7.41,7.41,0,0,1-2,.82,22.14,22.14,0,0,1-3.32.55.66.66,0,0,0,0,.14v.14a3.05,3.05,0,0,0,.57,2,2.18,2.18,0,0,0,1.74.68,3.2,3.2,0,0,0,1.2-.2,4.55,4.55,0,0,0,.83-.44c.23-.16.43-.3.6-.44a.87.87,0,0,1,.54-.19.59.59,0,0,1,.41.2Zm-3.14-7.28a2.44,2.44,0,0,0-1.08.24,3,3,0,0,0-.89.67,4.18,4.18,0,0,0-.69,1,5.86,5.86,0,0,0-.44,1.28,17.59,17.59,0,0,0,2.33-.42,5.44,5.44,0,0,0,1.35-.5,1.5,1.5,0,0,0,.63-.58,1.4,1.4,0,0,0,.16-.66,1,1,0,0,0-.07-.36.93.93,0,0,0-.24-.33,1.42,1.42,0,0,0-.42-.25A2,2,0,0,0,58.22,15.31Z"/><path class="cls-2" d="M63.37,24.57,65.25,9h2.23L65.59,24.57Z"/><path class="cls-2" d="M19.55,43.08a11.14,11.14,0,0,0,7.15-7.19c.14-.48.09-.93-.58-1-1.76-.06-4.61.05-7.2.14a.89.89,0,1,1,0-1.78c2.38-.11,5.75-.13,8-.09a1.9,1.9,0,0,1,2,2.59,13.77,13.77,0,0,1-8.5,9C18.85,45.4,18.18,43.51,19.55,43.08Zm10.7-9.46a1.89,1.89,0,0,1-1.9-1.89,1.9,1.9,0,1,1,1.9,1.89Zm0-2.82a.93.93,0,0,0-.92.93.92.92,0,0,0,1.83,0A.93.93,0,0,0,30.25,30.8Z"/><path class="cls-2" d="M37,44.89c-1.48.46-2.14-1.33-.7-1.71,3.54-1,5.83-3.13,6.64-5.42.18-.48.09-.77-.59-.79-1.84,0-5.19,0-7.12.09a.86.86,0,1,1,0-1.69c2.32,0,5.35-.07,7.8,0,1.8,0,2.68,1,1.94,2.79C43.69,41.11,41.49,43.53,37,44.89Zm5.72-11.23c-1.69,0-4.17.05-6.12,0-1.19,0-1.26-1.69.13-1.68,1.73,0,4.25,0,6.07,0a.88.88,0,0,1,1,.83C43.8,33.25,43.49,33.66,42.75,33.66Z"/><path class="cls-2" d="M53.66,36.94A6.63,6.63,0,0,0,51,35.6c-1.08-.25-.63-2.07.73-1.69a11.37,11.37,0,0,1,3.17,1.37,1.06,1.06,0,0,1,.24,1.49A1,1,0,0,1,53.66,36.94Zm-1.12,7.43a1,1,0,1,1-.61-1.94c3.62-.92,7.26-4.65,9.08-8.18a1,1,0,1,1,1.64,1.07C60.41,39.37,56.69,43.06,52.54,44.37Z"/></g></g></g></svg>