<svg xmlns="http://www.w3.org/2000/svg" viewBox="0 0 80 52"><defs><style>.cls-1{fill:#fff;}.cls-2,.cls-3{fill:#dc7274;}.cls-3{font-size:22.93px;font-family:Lato-Semibold, Lato;font-weight:600;}</style></defs><g id="レイヤー_2" data-name="レイヤー 2"><g id="レイヤー_1-2" data-name="レイヤー 1"><rect class="cls-1" width="80" height="52" rx="6"/><path class="cls-2" d="M12.52,24.57l1.29-10.73H15a.77.77,0,0,1,.56.19.74.74,0,0,1,.19.57l-.09,1.51A5.79,5.79,0,0,1,17.3,14.3a3.34,3.34,0,0,1,1.88-.61,1.89,1.89,0,0,1,1.57.7,3.4,3.4,0,0,1,.59,2,6,6,0,0,1,1.73-2,3.5,3.5,0,0,1,2.05-.66,2.12,2.12,0,0,1,2,1.07,4.7,4.7,0,0,1,.39,3l-.81,6.81H24.42l.8-6.81a5.59,5.59,0,0,0,.05-1,2,2,0,0,0-.12-.69.79.79,0,0,0-.33-.39,1.1,1.1,0,0,0-.56-.13,1.87,1.87,0,0,0-.83.22,3.13,3.13,0,0,0-.8.65,5.79,5.79,0,0,0-.7,1,8.87,8.87,0,0,0-.58,1.39l-.67,5.72H18.47l.8-6.81a6.73,6.73,0,0,0,.07-1,2,2,0,0,0-.12-.69.8.8,0,0,0-.31-.39,1.1,1.1,0,0,0-.56-.13,1.71,1.71,0,0,0-.88.24,2.92,2.92,0,0,0-.8.68,5.33,5.33,0,0,0-.7,1.07A9.65,9.65,0,0,0,15.39,19l-.66,5.57Z"/><path class="cls-2" d="M33.68,24.73a4.32,4.32,0,0,1-1.63-.3,3.6,3.6,0,0,1-1.28-.87,4.16,4.16,0,0,1-.85-1.41,5.54,5.54,0,0,1-.3-1.89,7.56,7.56,0,0,1,.43-2.58,6.76,6.76,0,0,1,1.2-2.08A5.53,5.53,0,0,1,33,14.2a4.77,4.77,0,0,1,2.16-.51,4.32,4.32,0,0,1,1.63.3,3.34,3.34,0,0,1,1.28.88,4,4,0,0,1,.84,1.4,5.34,5.34,0,0,1,.31,1.9,7.8,7.8,0,0,1-.2,1.74,7.93,7.93,0,0,1-.56,1.57,6.48,6.48,0,0,1-.87,1.33,5.61,5.61,0,0,1-1.12,1,4.72,4.72,0,0,1-1.33.66A4.53,4.53,0,0,1,33.68,24.73Zm.2-1.76a2.25,2.25,0,0,0,1.28-.4,3.24,3.24,0,0,0,1-1.05A5.57,5.57,0,0,0,36.77,20,7.44,7.44,0,0,0,37,18.18a3.3,3.3,0,0,0-.51-2.05A1.78,1.78,0,0,0,35,15.46a2.25,2.25,0,0,0-1.28.39,3.4,3.4,0,0,0-1,1,4.92,4.92,0,0,0-.62,1.52,7.51,7.51,0,0,0-.22,1.83c0,1.86.66,2.8,2,2.8Z"/><path class="cls-2" d="M51.57,9,49.64,24.57H48.46a.64.64,0,0,1-.58-.22.88.88,0,0,1-.16-.54L47.86,22A9.15,9.15,0,0,1,47,23.11a5.61,5.61,0,0,1-1,.87,4.27,4.27,0,0,1-1,.56,3.14,3.14,0,0,1-1.1.19,2.57,2.57,0,0,1-2.13-1,4.63,4.63,0,0,1-.79-3A7.74,7.74,0,0,1,41.19,19a8,8,0,0,1,.52-1.66,7.16,7.16,0,0,1,.81-1.46,6.09,6.09,0,0,1,1.06-1.15A4.55,4.55,0,0,1,44.82,14a3.67,3.67,0,0,1,1.39-.28,3.26,3.26,0,0,1,1.38.29,3.1,3.1,0,0,1,1.06.8L49.36,9Zm-3.11,7.25a2,2,0,0,0-.89-.65,2.85,2.85,0,0,0-1-.18,2.25,2.25,0,0,0-1.37.45,4,4,0,0,0-1,1.19,6,6,0,0,0-.67,1.64,6.92,6.92,0,0,0-.24,1.81,3.2,3.2,0,0,0,.41,1.79,1.3,1.3,0,0,0,1.14.59,1.78,1.78,0,0,0,.95-.3,3.87,3.87,0,0,0,.92-.84,7.11,7.11,0,0,0,.83-1.27,10.12,10.12,0,0,0,.65-1.6Z"/><path class="cls-2" d="M61.36,22.59a10.13,10.13,0,0,1-1.07,1,6.2,6.2,0,0,1-1.07.67,5.09,5.09,0,0,1-1.14.38,6.3,6.3,0,0,1-1.3.13,4.19,4.19,0,0,1-1.68-.32,3.42,3.42,0,0,1-1.28-.88A3.93,3.93,0,0,1,53,22.14a5.38,5.38,0,0,1-.29-1.82,7.65,7.65,0,0,1,.18-1.65,7.21,7.21,0,0,1,1.35-2.91,5.68,5.68,0,0,1,1.11-1.08A5.6,5.6,0,0,1,56.74,14a4.88,4.88,0,0,1,1.61-.25,4.14,4.14,0,0,1,1.44.23,3.2,3.2,0,0,1,1,.61,2.39,2.39,0,0,1,.61.83,2.26,2.26,0,0,1,.2.88,3,3,0,0,1-.29,1.29,2.83,2.83,0,0,1-1,1.06,7.27,7.27,0,0,1-2,.82A21.9,21.9,0,0,1,55,20v.28a3,3,0,0,0,.57,2A2.16,2.16,0,0,0,57.3,23a3.26,3.26,0,0,0,1.2-.2,5.06,5.06,0,0,0,.83-.44c.23-.16.43-.3.6-.44a.87.87,0,0,1,.54-.19.58.58,0,0,1,.41.2Zm-3.14-7.28a2.54,2.54,0,0,0-1.08.24,2.94,2.94,0,0,0-.89.67,4.05,4.05,0,0,0-.69,1,5.87,5.87,0,0,0-.44,1.28,18.34,18.34,0,0,0,2.33-.42,5.49,5.49,0,0,0,1.35-.5,1.53,1.53,0,0,0,.63-.58,1.37,1.37,0,0,0,.16-.66.89.89,0,0,0-.07-.36.88.88,0,0,0-.24-.33,1.38,1.38,0,0,0-.42-.25A2.3,2.3,0,0,0,58.22,15.31Z"/><path class="cls-2" d="M63.37,24.57,65.25,9h2.23L65.59,24.57Z"/><text class="cls-3" transform="translate(10.52 45.41)">PLAN</text></g></g></svg>