<svg xmlns="http://www.w3.org/2000/svg" viewBox="0 0 48 48"><defs><style>.cls-1{fill:#d6c299;}.cls-2{fill:#5e5e5e;}</style></defs><g id="レイヤー_2" data-name="レイヤー 2"><g id="icon_btn"><circle class="cls-1" cx="24" cy="24" r="24"/><g id="bus"><path class="cls-2" d="M33.58,12.61a5.22,5.22,0,0,0-3.73-1.55H18.16a5.29,5.29,0,0,0-5.29,5.29v14a4.61,4.61,0,0,0,1.34,3.25,5,5,0,0,0,1.22.87v1.72a.58.58,0,0,0,.57.57h2.52a.58.58,0,0,0,.58-.57V35h9.66v1.36a.59.59,0,0,0,.59.59H32a.6.6,0,0,0,.59-.59V34.52a4.76,4.76,0,0,0,1.22-.87,4.57,4.57,0,0,0,1.34-3.25v-14A5.26,5.26,0,0,0,33.58,12.61Zm.24,3.74v14a3.28,3.28,0,0,1-3.28,3.28H17.46a3.28,3.28,0,0,1-3.28-3.28v-14a4,4,0,0,1,4-4H29.84a4,4,0,0,1,4,4Z"/><path class="cls-2" d="M17.7,28.71a1,1,0,1,0,1,1A1,1,0,0,0,17.7,28.71Z"/><path class="cls-2" d="M30.3,28.71a1,1,0,1,0,1,1A1,1,0,0,0,30.3,28.71Z"/><path class="cls-2" d="M17.76,25.7H30.24a1,1,0,0,0,1-1V18.5a1,1,0,0,0-1-1H17.76a1,1,0,0,0-1,1v6.19A1,1,0,0,0,17.76,25.7Z"/><rect class="cls-2" x="19.88" y="14.49" width="8.24" height="1.12"/><rect class="cls-2" x="22.08" y="30.9" width="3.85" height="1.68"/><path class="cls-2" d="M12.87,17.49H11.31a2.24,2.24,0,0,0-2.24,2.24V22.1a.65.65,0,0,0,.65.65h1.33a.65.65,0,0,0,.64-.65V18.92h1.18Z"/><path class="cls-2" d="M36.69,17.49H35.13v1.43h1.18V22.1a.65.65,0,0,0,.64.65h1.33a.65.65,0,0,0,.65-.65V19.73A2.24,2.24,0,0,0,36.69,17.49Z"/></g></g></g></svg>