<svg xmlns="http://www.w3.org/2000/svg" viewBox="0 0 47.36 40"><defs><style>.cls-1{fill:#e7ddc5;}.cls-2{fill:#5e5e5e;}</style></defs><title>move_rail</title><g id="レイヤー_2" data-name="レイヤー 2"><g id="root_展開後"><g id="train"><g id="hukidasi"><circle class="cls-1" cx="27.36" cy="20" r="20"/><polygon class="cls-1" points="0 20 14.72 28.5 14.72 11.5 0 20"/></g><g id="train-2" data-name="train"><path class="cls-2" d="M36.12,11.13a5.5,5.5,0,0,0-2.85-2.22A16.14,16.14,0,0,0,27.36,8c-3.43,0-5.7.62-7.17,1.54a4.78,4.78,0,0,0-1.58,1.59,3.44,3.44,0,0,0-.49,1.74V25a3.55,3.55,0,0,0,3.54,3.54h1L20.25,32h2l.58-.95h9.14l.59.95h1.95L32,28.57h1A3.54,3.54,0,0,0,36.6,25V12.87A3.52,3.52,0,0,0,36.12,11.13Zm-12.76,19,.6-1h6.8l.6,1ZM35.47,25a2.39,2.39,0,0,1-2.4,2.4H21.66A2.41,2.41,0,0,1,19.25,25V12.87a2.4,2.4,0,0,1,.33-1.17A4.45,4.45,0,0,1,21.87,10a15.1,15.1,0,0,1,5.49-.83c3.3,0,5.37.61,6.56,1.37a3.67,3.67,0,0,1,1.22,1.2,2.3,2.3,0,0,1,.33,1.17V25Z"/><path class="cls-2" d="M24.22,12.76h6.29a.76.76,0,0,0,0-1.52H24.22a.76.76,0,1,0,0,1.52Z"/><circle class="cls-2" cx="22.86" cy="24.47" r="0.94"/><circle class="cls-2" cx="31.86" cy="24.47" r="0.94"/><rect class="cls-2" x="21.55" y="15.2" width="5.04" height="4.61"/><rect class="cls-2" x="27.91" y="15.2" width="5.26" height="4.61"/></g></g></g></g></svg>