<svg xmlns="http://www.w3.org/2000/svg" viewBox="0 0 47.36 40"><defs><style>.cls-1{fill:#d6c299;}.cls-2{fill:#5e5e5e;}</style></defs><g id="レイヤー_2" data-name="レイヤー 2"><g id="icon_btn"><g id="ship_icon"><circle class="cls-1" cx="20" cy="20" r="20"/><polygon class="cls-1" points="47.36 20 32.64 11.5 32.64 28.5 47.36 20"/><g id="ship"><path class="cls-2" d="M16.79,17.69h.46v1.46H15.79v-.46A1,1,0,0,1,16.79,17.69Z"/><rect class="cls-2" x="19.09" y="17.69" width="1.46" height="1.46"/><rect class="cls-2" x="22.39" y="17.69" width="1.46" height="1.46"/><path class="cls-2" d="M25.7,17.69h.46a1,1,0,0,1,1,1v.46H25.7Z"/><path class="cls-2" d="M31.92,20.77l-.55-2.7a.23.23,0,0,0-.22-.18H29.7a.22.22,0,0,1-.22-.16l-.72-2.15a.23.23,0,0,0-.21-.16H27.1a.22.22,0,0,1-.23-.22v-2a1.14,1.14,0,0,0-1.13-1.13h-1.4a1.24,1.24,0,0,0-1.22,1l-.33,2.1a.22.22,0,0,1-.22.19h-1.9a.23.23,0,0,1-.22-.28L21,12.83a.22.22,0,0,0-.22-.28h-2a.21.21,0,0,0-.19.11l-1.52,2.65a.21.21,0,0,1-.19.11H15a.23.23,0,0,0-.19.11l-3.35,5.13a.21.21,0,0,1-.19.11H8.37a.23.23,0,0,0-.2.34L11,25.7l.31-.18a4.39,4.39,0,0,1,2.38-.65,4.68,4.68,0,0,1,1.76.32,6.31,6.31,0,0,1,.81.43l.13.08a1.34,1.34,0,0,0,.25.12,1,1,0,0,0,.4.06,1,1,0,0,0,.43-.07,2,2,0,0,0,.35-.2l.16-.09a4.4,4.4,0,0,1,.81-.39,4.46,4.46,0,0,1,1.57-.26,4.68,4.68,0,0,1,1.76.32,7.08,7.08,0,0,1,.81.43l.14.08a.88.88,0,0,0,.24.12.89.89,0,0,0,.4.06,1,1,0,0,0,.43-.07,2,2,0,0,0,.35-.2l.16-.09a4.4,4.4,0,0,1,.81-.39A4.46,4.46,0,0,1,27,24.87a4.68,4.68,0,0,1,1.76.32,7.08,7.08,0,0,1,.81.43l.14.08a1,1,0,0,0,.24.12,1,1,0,0,0,.4.06,1.14,1.14,0,0,0,.44-.07,2.48,2.48,0,0,0,.35-.2l.16-.09a4.69,4.69,0,0,1,.68-.34l.07,0,.61-4.38Zm-.58,1.88-.1.68H10.79l-.41-.68Zm-11.61-9-.65,2.59a.23.23,0,0,0,.22.29h8.48a.23.23,0,0,1,.21.15l.72,2.16a.23.23,0,0,0,.22.15h1.34a.25.25,0,0,1,.23.18l.27,1.35a.23.23,0,0,1-.22.28H13.11a.23.23,0,0,1-.19-.35l2.47-3.82a.23.23,0,0,1,.2-.1h1.92a.24.24,0,0,0,.2-.12l1.58-2.76Z"/><path class="cls-2" d="M32.5,25.86a4,4,0,0,0-.62.3,6.81,6.81,0,0,1-.66.37,2.22,2.22,0,0,1-.85.14,2.15,2.15,0,0,1-.78-.12,2.3,2.3,0,0,1-.42-.2,6.42,6.42,0,0,0-.82-.45A3.5,3.5,0,0,0,27,25.66a3.45,3.45,0,0,0-1.2.2,4,4,0,0,0-.62.3,5,5,0,0,1-.66.36,2,2,0,0,1-.85.15,2.15,2.15,0,0,1-.78-.12,2.3,2.3,0,0,1-.42-.2,6.42,6.42,0,0,0-.82-.45,3.5,3.5,0,0,0-1.32-.24,3.45,3.45,0,0,0-1.2.2,3.6,3.6,0,0,0-.62.3,5,5,0,0,1-.66.36,2,2,0,0,1-.85.15,2.15,2.15,0,0,1-.78-.12,2.3,2.3,0,0,1-.42-.2A6.42,6.42,0,0,0,15,25.9a3.5,3.5,0,0,0-1.32-.24,3.45,3.45,0,0,0-1.2.2,3.6,3.6,0,0,0-.62.3,5.05,5.05,0,0,1-.67.36,2,2,0,0,1-.85.15,2.24,2.24,0,0,1-.78-.12,2.58,2.58,0,0,1-.41-.2,6.42,6.42,0,0,0-.82-.45A3.5,3.5,0,0,0,7,25.66V26.9A2.24,2.24,0,0,1,7.8,27a3.17,3.17,0,0,1,.42.2,5.61,5.61,0,0,0,.81.45,3.54,3.54,0,0,0,1.32.24,3.41,3.41,0,0,0,1.2-.2,4.14,4.14,0,0,0,.63-.3,6.81,6.81,0,0,1,.66-.37,2.22,2.22,0,0,1,.85-.14,2.19,2.19,0,0,1,.78.12,3.17,3.17,0,0,1,.42.2,6.22,6.22,0,0,0,.81.45,3.75,3.75,0,0,0,2.53,0,4,4,0,0,0,.62-.3,6.81,6.81,0,0,1,.66-.37,2.22,2.22,0,0,1,.85-.14,2.15,2.15,0,0,1,.78.12,2.67,2.67,0,0,1,.42.2,5.8,5.8,0,0,0,.82.45,3.46,3.46,0,0,0,1.32.24,3.5,3.5,0,0,0,1.2-.2,4,4,0,0,0,.62-.3,6.81,6.81,0,0,1,.66-.37A2.22,2.22,0,0,1,27,26.9a2.15,2.15,0,0,1,.78.12,2.3,2.3,0,0,1,.42.2,6.42,6.42,0,0,0,.82.45,3.5,3.5,0,0,0,1.32.24,3.45,3.45,0,0,0,1.2-.2,3.6,3.6,0,0,0,.62-.3,6.81,6.81,0,0,1,.66-.37,2.22,2.22,0,0,1,.85-.14V25.66A3.5,3.5,0,0,0,32.5,25.86Z"/></g></g></g></g></svg>