<svg xmlns="http://www.w3.org/2000/svg" viewBox="0 0 47.36 40"><defs><style>.cls-1{fill:#d6c299;}.cls-2{fill:#5e5e5e;}</style></defs><g id="レイヤー_2" data-name="レイヤー 2"><g id="icon_btn"><g id="walk_icon"><circle class="cls-1" cx="20" cy="20" r="20"/><polygon class="cls-1" points="47.36 20 32.64 28.5 32.64 11.5 47.36 20"/><g id="walk"><path class="cls-2" d="M21.25,13.71a1.86,1.86,0,1,0-1.85-1.86A1.86,1.86,0,0,0,21.25,13.71Z"/><path class="cls-2" d="M26.29,19.25l-2.12-1.12-.9-1.84a3.23,3.23,0,0,0-2.33-1.77L20,14.35a2.23,2.23,0,0,0-1.37.17L16,15.79a1.35,1.35,0,0,0-.66.69l-1.19,2.78a.73.73,0,0,0,0,.56.71.71,0,0,0,.39.39h0a.71.71,0,0,0,.92-.36l1.1-2.37,1.73-.56-1.72,7.63-1.67,4.17a.88.88,0,0,0,.58,1.17l.07,0a.86.86,0,0,0,1-.41l2-3.42,1.18-2.34,2.15,2.37,1.6,3.38a.87.87,0,0,0,1,.47h0a.88.88,0,0,0,.6-1.14l-1.17-3.39a4.47,4.47,0,0,0-.72-1.32l-1.9-2.52L22,18l.9,1.15a1.14,1.14,0,0,0,.42.33l2.37,1.07a.72.72,0,0,0,.54,0,.71.71,0,0,0,.38-.38v0A.69.69,0,0,0,26.29,19.25Z"/></g></g></g></g></svg>