<svg xmlns="http://www.w3.org/2000/svg" viewBox="0 0 47.36 40"><defs><style>.cls-1{fill:#d6c299;}.cls-2{fill:#5e5e5e;}</style></defs><g id="レイヤー_2" data-name="レイヤー 2"><g id="icon_btn"><circle class="cls-1" cx="27.36" cy="20" r="20"/><polygon class="cls-1" points="0 20 14.72 28.5 14.72 11.5 0 20"/><g id="shinkansen"><path class="cls-2" d="M37.14,20.29a3.24,3.24,0,0,0-.61-.82,2.8,2.8,0,0,0-.41-.35v-2a13.91,13.91,0,0,0-.3-3.06,7,7,0,0,0-.54-1.57,3.65,3.65,0,0,0-1-1.26,5.3,5.3,0,0,0-1.42-.78,11.46,11.46,0,0,0-2.64-.6,24.61,24.61,0,0,0-2.86-.15,21.77,21.77,0,0,0-3.78.29,10.71,10.71,0,0,0-1.72.46,5.3,5.3,0,0,0-1.42.78,3.88,3.88,0,0,0-1,1.26,8,8,0,0,0-.69,2.38,15.63,15.63,0,0,0-.15,2.25v2a3.43,3.43,0,0,0-.93,1,3.58,3.58,0,0,0-.46,1.81c0,.15,0,.31,0,.47a4.91,4.91,0,0,0,.2.93c.33,1.42,1.69,3.53,3.55,3.53h1.13L19.36,30.3h2.2l.66-.95H32.5l.66.95h2.2l-2.75-3.43h1.13c1.87,0,3.22-2.11,3.55-3.52a4.6,4.6,0,0,0,.2-.94c0-.16,0-.32,0-.47A3.58,3.58,0,0,0,37.14,20.29ZM22.86,28.43l.67-1h7.66l.67,1Zm13.71-6.11h0a2.83,2.83,0,0,1-.18.81,2.25,2.25,0,0,1-.29.53l0,.05a5.24,5.24,0,0,1-.51.3,6.07,6.07,0,0,1-2.63.48H21.8A6.09,6.09,0,0,1,19.17,24a4.27,4.27,0,0,1-.51-.3l-.1-.15a2.54,2.54,0,0,1-.41-1.24,2.48,2.48,0,0,1,0-.38,2.68,2.68,0,0,1,.27-1.23,2.29,2.29,0,0,1,.43-.59,2.67,2.67,0,0,1,.71-.49l.24-.1,0,0,.26-.06.13-.38c.1-.28.33-.94.6-1.69l.05-.14L20,16.93l-.45,1.26V17.12a12.61,12.61,0,0,1,.28-2.85,5.82,5.82,0,0,1,.46-1.34A2.6,2.6,0,0,1,21,12a4.51,4.51,0,0,1,1.16-.63,10.24,10.24,0,0,1,2.42-.54,22.61,22.61,0,0,1,2.74-.15h0a19.63,19.63,0,0,1,3.58.28,8.49,8.49,0,0,1,1.55.41,4.58,4.58,0,0,1,1.17.63,2.69,2.69,0,0,1,.73.95A6.59,6.59,0,0,1,35,15a15,15,0,0,1,.14,2.11v1.07l-.4-1.13-.86.31.73,2.07.24.06.27.11a2.13,2.13,0,0,1,.44.26,2.32,2.32,0,0,1,.69.74,2.59,2.59,0,0,1,.32,1.33A2.48,2.48,0,0,1,36.57,22.32Zm-14-4.06a1,1,0,0,0,1,.74h3V17.41H22.37Zm6.11.74h2.43a1,1,0,0,0,1-.74l.24-.85H28.72Zm2.87-6.48a18.58,18.58,0,0,0-4.23-.4,18.58,18.58,0,0,0-4.23.4,2.45,2.45,0,0,0-1.52,1.39c-.08.21-.3.8-.56,1.52H33.67c-.26-.72-.48-1.31-.56-1.52A2.42,2.42,0,0,0,31.59,12.52Z"/></g></g></g></svg>