<svg xmlns="http://www.w3.org/2000/svg" viewBox="0 0 48 48"><defs><style>.cls-1{fill:#d6c299;}.cls-2{fill:#5e5e5e;}</style></defs><g id="レイヤー_2" data-name="レイヤー 2"><g id="icon_btn"><circle class="cls-1" cx="24" cy="24" r="24"/><g id="train"><path class="cls-2" d="M34.51,13.35a6.68,6.68,0,0,0-3.41-2.66A19.56,19.56,0,0,0,24,9.6c-4.12,0-6.85.74-8.6,1.85a5.86,5.86,0,0,0-1.91,1.9,4.22,4.22,0,0,0-.58,2.1V30a4.24,4.24,0,0,0,4.24,4.25H18.4L15.47,38.4h2.34l.71-1.14h11l.71,1.14h2.34L29.6,34.28h1.25A4.24,4.24,0,0,0,35.09,30V15.45A4.22,4.22,0,0,0,34.51,13.35ZM19.2,36.16,19.92,35h8.16l.72,1.17ZM33.73,30a2.89,2.89,0,0,1-2.88,2.89H17.15A2.89,2.89,0,0,1,14.27,30V15.45a2.74,2.74,0,0,1,.4-1.41A5.21,5.21,0,0,1,17.41,12,18.07,18.07,0,0,1,24,11c4,0,6.44.72,7.87,1.64A4.26,4.26,0,0,1,33.33,14a2.74,2.74,0,0,1,.4,1.41V30Z"/><path class="cls-2" d="M20.23,15.31h7.54a.91.91,0,1,0,0-1.82H20.23a.91.91,0,1,0,0,1.82Z"/><circle class="cls-2" cx="18.6" cy="29.36" r="1.13"/><circle class="cls-2" cx="29.4" cy="29.36" r="1.13"/><rect class="cls-2" x="17.03" y="18.24" width="6.05" height="5.53"/><rect class="cls-2" x="24.66" y="18.24" width="6.32" height="5.53"/></g></g></g></svg>