<svg xmlns="http://www.w3.org/2000/svg" viewBox="0 0 48 48"><defs><style>.cls-1{fill:#d6c299;}.cls-2{fill:#5e5e5e;}</style></defs><g id="レイヤー_2" data-name="レイヤー 2"><g id="icon_btn"><circle class="cls-1" cx="24" cy="24" r="24"/><g id="airplane"><path class="cls-2" d="M36.2,25a1.65,1.65,0,0,0-.53-.56l0,0,0,0-8.59-4V14.19a5,5,0,0,0-.92-2.81,3.9,3.9,0,0,0-1.1-1,2.87,2.87,0,0,0-3,0A4.18,4.18,0,0,0,20.47,12,4.94,4.94,0,0,0,20,14.19v6.17l-8.64,4,0,0a1.65,1.65,0,0,0-.53.56,1.6,1.6,0,0,0-.2.75V28.6a1.09,1.09,0,0,0,.29.76,1,1,0,0,0,.77.33,1.13,1.13,0,0,0,.32-.05h0L20.5,27.4v4.66c-.5.36-1.49,1.07-2.14,1.51a2,2,0,0,0-.67.73,1.83,1.83,0,0,0-.21.87,1.8,1.8,0,0,0,.38,1.12,1.35,1.35,0,0,0,.48.4,1.32,1.32,0,0,0,.66.17h3.14l.14.12a2.26,2.26,0,0,0,.47.32,1.53,1.53,0,0,0,1.44,0,2.67,2.67,0,0,0,.61-.44h3.14a1.32,1.32,0,0,0,.66-.17,1.63,1.63,0,0,0,.65-.65,1.86,1.86,0,0,0,.21-.87,1.83,1.83,0,0,0-.21-.87,2.05,2.05,0,0,0-.67-.74h0c-.45-.3-1.05-.73-1.54-1.08l-.57-.41V27.4L35,29.64h0a1.19,1.19,0,0,0,.32.05,1.11,1.11,0,0,0,.78-.33,1.12,1.12,0,0,0,.28-.76V25.72A1.6,1.6,0,0,0,36.2,25Zm-1.36,3-10-2.61v7.47l.32.23s1.55,1.14,2.51,1.78h0a.59.59,0,0,1,.16.16.4.4,0,0,1,0,.15.18.18,0,0,1,0,.13h-3.8l-.24.31a2.54,2.54,0,0,1-.2.21l-.14.09h0a1,1,0,0,1-.22-.16,1.11,1.11,0,0,1-.11-.11l0,0h0l-.23-.31H19.07a.17.17,0,0,1,0-.13.4.4,0,0,1,0-.15.59.59,0,0,1,.16-.16c1-.64,2.51-1.78,2.51-1.78l.32-.23V25.38L12.1,28V25.75h0l9.39-4.39V14.19a3.45,3.45,0,0,1,.63-1.9,2.34,2.34,0,0,1,.64-.62,1.41,1.41,0,0,1,.7-.2,1.38,1.38,0,0,1,.7.2,2.59,2.59,0,0,1,.9,1.06,3.29,3.29,0,0,1,.37,1.46v7.16l9.4,4.39h0V28Z"/><path class="cls-2" d="M24.79,14.75a1.85,1.85,0,0,0-2.63,0V13.5a1.85,1.85,0,0,1,2.63,0Z"/></g></g></g></svg>