<svg xmlns="http://www.w3.org/2000/svg" viewBox="0 0 48 48"><defs><style>.cls-1{fill:#d6c299;}.cls-2{fill:#5e5e5e;}</style></defs><g id="レイヤー_2" data-name="レイヤー 2"><g id="icon_btn"><circle class="cls-1" cx="24" cy="24" r="24"/><g id="ship"><path class="cls-2" d="M20.34,20.46h.55v1.72H19.16v-.55A1.17,1.17,0,0,1,20.34,20.46Z"/><rect class="cls-2" x="23.05" y="20.46" width="1.72" height="1.72"/><rect class="cls-2" x="26.94" y="20.46" width="1.72" height="1.72"/><path class="cls-2" d="M30.83,20.46h.55a1.17,1.17,0,0,1,1.17,1.17v.55H30.83Z"/><path class="cls-2" d="M38.16,24.08l-.65-3.17a.27.27,0,0,0-.26-.22H35.54a.27.27,0,0,1-.25-.18L34.44,18a.26.26,0,0,0-.25-.18H32.48a.27.27,0,0,1-.27-.27V15.2a1.33,1.33,0,0,0-1.33-1.33H29.23a1.45,1.45,0,0,0-1.43,1.22l-.39,2.47a.27.27,0,0,1-.26.23H24.91a.28.28,0,0,1-.26-.34l.68-2.72a.26.26,0,0,0-.26-.33H22.7a.27.27,0,0,0-.23.14l-1.78,3.11a.27.27,0,0,1-.23.14H18.24a.24.24,0,0,0-.22.12L14.07,24a.29.29,0,0,1-.23.12H10.43a.27.27,0,0,0-.23.41l3.31,5.4.37-.22a6.54,6.54,0,0,1,.95-.46,5.52,5.52,0,0,1,1.85-.3,5.45,5.45,0,0,1,2.07.38,5.83,5.83,0,0,1,1,.51l.16.09a1.2,1.2,0,0,0,.28.14,1.24,1.24,0,0,0,.47.07,1.14,1.14,0,0,0,.51-.08,4.08,4.08,0,0,0,.42-.23l.19-.12a6.54,6.54,0,0,1,1-.46,5.48,5.48,0,0,1,1.85-.3,5.4,5.4,0,0,1,2.06.38,6.82,6.82,0,0,1,1,.5l.16.1A1.18,1.18,0,0,0,28,30a1.26,1.26,0,0,0,.48.07A1.21,1.21,0,0,0,29,30a4.19,4.19,0,0,0,.41-.23l.19-.12a6.54,6.54,0,0,1,.95-.46,5.84,5.84,0,0,1,3.92.08,7.43,7.43,0,0,1,1,.5l.16.1a1.18,1.18,0,0,0,.28.14,1.67,1.67,0,0,0,1,0c.09,0,.23-.13.41-.23l.19-.12a6.5,6.5,0,0,1,.8-.4l.08,0,.73-5.16Zm-.69,2.22-.11.8H13.28l-.49-.8ZM23.8,15.66,23,18.72a.26.26,0,0,0,.26.33h10a.26.26,0,0,1,.25.18l.85,2.54a.26.26,0,0,0,.25.18h1.59a.27.27,0,0,1,.26.22l.33,1.59a.28.28,0,0,1-.27.32H16a.26.26,0,0,1-.22-.41l2.91-4.5a.29.29,0,0,1,.23-.12h2.26a.26.26,0,0,0,.23-.13l1.86-3.26Z"/><path class="cls-2" d="M38.85,30.07a5.12,5.12,0,0,0-.74.36,5.74,5.74,0,0,1-.78.43,2.47,2.47,0,0,1-1,.17,2.65,2.65,0,0,1-.92-.14,2.77,2.77,0,0,1-.49-.24,6.72,6.72,0,0,0-1-.52,4,4,0,0,0-1.56-.29,4.07,4.07,0,0,0-1.41.23,4.51,4.51,0,0,0-.73.36,7.25,7.25,0,0,1-.78.43,2.5,2.5,0,0,1-1,.17,2.65,2.65,0,0,1-.92-.14,2.85,2.85,0,0,1-.5-.24,6.72,6.72,0,0,0-1-.52,4,4,0,0,0-1.55-.29,4.18,4.18,0,0,0-1.42.23,5.52,5.52,0,0,0-.73.36,6.4,6.4,0,0,1-.78.43,2.47,2.47,0,0,1-1,.17,2.65,2.65,0,0,1-.92-.14,2.77,2.77,0,0,1-.49-.24,6.72,6.72,0,0,0-1-.52,4,4,0,0,0-1.56-.29,4.07,4.07,0,0,0-1.41.23,4.51,4.51,0,0,0-.73.36,7.25,7.25,0,0,1-.78.43,2.5,2.5,0,0,1-1,.17,2.65,2.65,0,0,1-.92-.14,2.85,2.85,0,0,1-.5-.24,6.72,6.72,0,0,0-1-.52,4,4,0,0,0-1.55-.29V31.3a2.65,2.65,0,0,1,.92.14,2.77,2.77,0,0,1,.49.24,6.72,6.72,0,0,0,1,.52,4,4,0,0,0,1.56.29,4.12,4.12,0,0,0,1.41-.23,4.51,4.51,0,0,0,.73-.36,6.4,6.4,0,0,1,.78-.43,2.5,2.5,0,0,1,1-.17,2.65,2.65,0,0,1,.92.14,2.77,2.77,0,0,1,.49.24,6.9,6.9,0,0,0,1,.52,4,4,0,0,0,1.55.29A4.07,4.07,0,0,0,22,32.26a5.12,5.12,0,0,0,.74-.36,5.74,5.74,0,0,1,.78-.43,2.47,2.47,0,0,1,1-.17,2.65,2.65,0,0,1,.92.14,2.77,2.77,0,0,1,.49.24,6.72,6.72,0,0,0,1,.52,4,4,0,0,0,1.56.29,4.12,4.12,0,0,0,1.41-.23,4.51,4.51,0,0,0,.73-.36,6.4,6.4,0,0,1,.78-.43,2.5,2.5,0,0,1,1-.17,2.65,2.65,0,0,1,.92.14,2.77,2.77,0,0,1,.49.24,7.52,7.52,0,0,0,1,.52,4,4,0,0,0,1.55.29,4.18,4.18,0,0,0,1.42-.23,5.52,5.52,0,0,0,.73-.36,6.4,6.4,0,0,1,.78-.43,2.47,2.47,0,0,1,1-.17V29.84A4.07,4.07,0,0,0,38.85,30.07Z"/></g></g></g></svg>