<svg xmlns="http://www.w3.org/2000/svg" viewBox="0 0 48 48"><defs><style>.cls-1{fill:#d6c299;}.cls-2{fill:#5e5e5e;}</style></defs><g id="レイヤー_2" data-name="レイヤー 2"><g id="icon_btn"><circle class="cls-1" cx="24" cy="24" r="24"/><g id="walk"><path class="cls-2" d="M25.07,16.45a2.23,2.23,0,1,0-2.23-2.22A2.22,2.22,0,0,0,25.07,16.45Z"/><path class="cls-2" d="M31.12,23.1l-2.55-1.34L27.5,19.55a3.94,3.94,0,0,0-2.8-2.13l-1.11-.2a2.65,2.65,0,0,0-1.64.21L18.73,19a1.58,1.58,0,0,0-.79.82L16.5,23.12A.87.87,0,0,0,17,24.25l0,0a.87.87,0,0,0,1.11-.44L19.43,21l2.07-.67-2.06,9.16-2,5a1.05,1.05,0,0,0,0,.85,1,1,0,0,0,.66.55l.09,0a1.05,1.05,0,0,0,1.19-.48l2.38-4.11L23.2,28.5l2.59,2.85,1.91,4a1.08,1.08,0,0,0,1.22.57h0a1,1,0,0,0,.66-.52,1.07,1.07,0,0,0,.07-.84l-1.41-4.07a5.56,5.56,0,0,0-.86-1.59l-2.29-3L26,21.57,27,22.94a1.39,1.39,0,0,0,.5.4l2.85,1.28a.82.82,0,0,0,1.11-.44v0A.83.83,0,0,0,31.12,23.1Z"/></g></g></g></svg>