<svg xmlns="http://www.w3.org/2000/svg" viewBox="0 0 47.36 40"><defs><style>.cls-1{fill:#d6c299;}.cls-2{fill:#5e5e5e;}</style></defs><g id="レイヤー_2" data-name="レイヤー 2"><g id="icon_btn"><g id="airplane_icon"><circle class="cls-1" cx="20" cy="20" r="20"/><polygon class="cls-1" points="47.36 20 32.64 11.5 32.64 28.5 47.36 20"/><g id="airplane"><path class="cls-2" d="M29.92,21a1.16,1.16,0,0,0-.4-.43l0,0h0l-6.5-3V12.8a3.81,3.81,0,0,0-.7-2.12,2.84,2.84,0,0,0-.83-.79,2.2,2.2,0,0,0-1.14-.33,2.24,2.24,0,0,0-1.15.33A3.22,3.22,0,0,0,18,11.17a3.6,3.6,0,0,0-.4,1.63v4.67l-6.54,3.05,0,0a1.16,1.16,0,0,0-.4.43,1.23,1.23,0,0,0-.16.56v2.19a.87.87,0,0,0,.22.57.83.83,0,0,0,.59.25.67.67,0,0,0,.24,0h0l6.5-1.7v3.52c-.38.28-1.13.82-1.62,1.15a1.42,1.42,0,0,0-.67,1.21,1.39,1.39,0,0,0,.29.85,1.13,1.13,0,0,0,.86.43h2.38l.1.09a1.73,1.73,0,0,0,.36.24,1.15,1.15,0,0,0,.55.14,1.11,1.11,0,0,0,.54-.14,1.82,1.82,0,0,0,.46-.33h2.38a1,1,0,0,0,.5-.13,1.21,1.21,0,0,0,.49-.49,1.38,1.38,0,0,0,.17-.66,1.33,1.33,0,0,0-.17-.66,1.48,1.48,0,0,0-.5-.56h0c-.34-.23-.8-.55-1.17-.82l-.44-.31V22.81L29,24.51h0a.61.61,0,0,0,.24,0,.81.81,0,0,0,.58-.25.82.82,0,0,0,.22-.57V21.53A1.11,1.11,0,0,0,29.92,21Zm-1,2.28-7.55-2v5.65l.25.18s1.17.86,1.9,1.35h0a.27.27,0,0,1,.12.12.23.23,0,0,1,0,.11.24.24,0,0,1,0,.1H20.74l-.18.23a.88.88,0,0,1-.15.16l-.11.07h0a.6.6,0,0,1-.17-.12L20,29.05l0,0h0l-.17-.23H17a.15.15,0,0,1,0-.1.23.23,0,0,1,0-.11.3.3,0,0,1,.11-.12C17.8,28,19,27.11,19,27.11l.24-.18V21.28l-7.55,2V21.56h0l7.12-3.33V12.8a2.54,2.54,0,0,1,.47-1.43,1.66,1.66,0,0,1,.49-.47.94.94,0,0,1,.53-.16,1,1,0,0,1,.53.16,1.89,1.89,0,0,1,.68.8,2.49,2.49,0,0,1,.28,1.1v5.42l7.11,3.33h0v1.69Z"/><path class="cls-2" d="M21.28,13.23a1.41,1.41,0,0,0-2,0v-1a1.41,1.41,0,0,1,2,0Z"/></g></g></g></g></svg>