<svg xmlns="http://www.w3.org/2000/svg" viewBox="0 0 47.36 40"><defs><style>.cls-1{fill:#d6c299;}.cls-2{fill:#5e5e5e;}</style></defs><g id="レイヤー_2" data-name="レイヤー 2"><g id="icon_btn"><g id="bus_icon"><circle class="cls-1" cx="20" cy="20" r="20"/><polygon class="cls-1" points="47.36 20 32.64 11.5 32.64 28.5 47.36 20"/><g id="bus"><path class="cls-2" d="M28.14,11.2A4.05,4.05,0,0,0,25.25,10h-9a4.1,4.1,0,0,0-4.09,4.09V24.94a3.57,3.57,0,0,0,1,2.52,3.66,3.66,0,0,0,.94.67v1.33a.44.44,0,0,0,.44.44H16.5a.44.44,0,0,0,.44-.44v-1h7.47v1a.45.45,0,0,0,.46.46h2a.46.46,0,0,0,.46-.46V28.13a3.66,3.66,0,0,0,.94-.67,3.57,3.57,0,0,0,1-2.52V14.09A4.07,4.07,0,0,0,28.14,11.2Zm.18,2.89V24.94a2.53,2.53,0,0,1-2.53,2.54H15.68a2.53,2.53,0,0,1-2.53-2.54V14.09A3.07,3.07,0,0,1,16.22,11h9a3.07,3.07,0,0,1,3.07,3.07Z"/><path class="cls-2" d="M15.87,23.64a.8.8,0,1,0,.79.79A.79.79,0,0,0,15.87,23.64Z"/><path class="cls-2" d="M25.6,23.64a.8.8,0,0,0,0,1.59.8.8,0,1,0,0-1.59Z"/><path class="cls-2" d="M15.91,21.32h9.65a.78.78,0,0,0,.78-.78V15.75a.78.78,0,0,0-.78-.78H15.91a.78.78,0,0,0-.78.78v4.79A.78.78,0,0,0,15.91,21.32Z"/><rect class="cls-2" x="17.55" y="12.65" width="6.37" height="0.86"/><rect class="cls-2" x="19.25" y="25.33" width="2.98" height="1.3"/><path class="cls-2" d="M12.13,15h-1.2A1.72,1.72,0,0,0,9.2,16.7v1.83a.5.5,0,0,0,.5.5h1a.5.5,0,0,0,.5-.5V16.07h.91Z"/><path class="cls-2" d="M30.54,15h-1.2v1.1h.91v2.46a.5.5,0,0,0,.5.5h1a.5.5,0,0,0,.5-.5V16.7A1.72,1.72,0,0,0,30.54,15Z"/></g></g></g></g></svg>