<svg xmlns="http://www.w3.org/2000/svg" viewBox="0 0 48 48"><defs><style>.cls-1{fill:#d6c299;}.cls-2{fill:#5e5e5e;}</style></defs><g id="レイヤー_2" data-name="レイヤー 2"><g id="icon_btn"><circle class="cls-1" cx="24" cy="24" r="24"/><g id="shinkansen"><path class="cls-2" d="M36.34,24.52a3.53,3.53,0,0,0-.73-1,4.93,4.93,0,0,0-.49-.42V20.69a17,17,0,0,0-.37-3.7,8.37,8.37,0,0,0-.65-1.89,4.57,4.57,0,0,0-1.2-1.53,6.5,6.5,0,0,0-1.72-.93A14.06,14.06,0,0,0,28,11.91a29.88,29.88,0,0,0-3.45-.18,26.31,26.31,0,0,0-4.57.35,12.16,12.16,0,0,0-2.07.56,6.35,6.35,0,0,0-1.72.93A4.45,4.45,0,0,0,15,15.1,9.18,9.18,0,0,0,14.14,18,18.76,18.76,0,0,0,14,20.69v2.42a3.83,3.83,0,0,0-1.12,1.22,4.27,4.27,0,0,0-.56,2.19,5.55,5.55,0,0,0,0,.56,4.61,4.61,0,0,0,.24,1.12c.39,1.72,2,4.26,4.29,4.26H18.2l-3.32,4.15h2.65l.8-1.15H30.74l.8,1.15H34.2l-3.32-4.15h1.36c2.26,0,3.9-2.55,4.28-4.25a4.54,4.54,0,0,0,.25-1.13,5.55,5.55,0,0,0,0-.56A4.36,4.36,0,0,0,36.34,24.52ZM19.1,34.35l.81-1.17h9.25L30,34.35ZM35.66,27h0a3.61,3.61,0,0,1-.22,1,2.82,2.82,0,0,1-.35.64l-.05.05a5.51,5.51,0,0,1-.61.37,7.35,7.35,0,0,1-3.18.59H17.82A7.33,7.33,0,0,1,14.65,29a4.12,4.12,0,0,1-.61-.37c0-.05-.09-.11-.14-.17a3.33,3.33,0,0,1-.49-1.5c0-.16,0-.31,0-.45A3.21,3.21,0,0,1,13.72,25a2.46,2.46,0,0,1,.52-.71,3.28,3.28,0,0,1,.85-.6,1.8,1.8,0,0,1,.29-.12l.07,0,.31-.08.16-.46.72-2,.06-.17-1-.37L15.12,22V20.69a15.8,15.8,0,0,1,.33-3.44A7.28,7.28,0,0,1,16,15.63a3.45,3.45,0,0,1,.89-1.15,5.18,5.18,0,0,1,1.41-.76,12.19,12.19,0,0,1,2.92-.65,27.4,27.4,0,0,1,3.31-.18h0a24.78,24.78,0,0,1,4.33.33,11.45,11.45,0,0,1,1.87.5,5.47,5.47,0,0,1,1.41.76,3.45,3.45,0,0,1,.89,1.15,8.43,8.43,0,0,1,.72,2.51A18,18,0,0,1,34,20.69V22l-.49-1.36-1,.37.89,2.51.28.07a2.69,2.69,0,0,1,.34.13,3.18,3.18,0,0,1,.53.31,2.81,2.81,0,0,1,.82.9,3.1,3.1,0,0,1,.4,1.61A3.64,3.64,0,0,1,35.66,27ZM18.8,22.07A1.2,1.2,0,0,0,20,23h3.58V21h-5Zm7.37.88h2.94a1.21,1.21,0,0,0,1.17-.88l.28-1H26.17Zm3.48-7.82a22.83,22.83,0,0,0-5.11-.47,22.76,22.76,0,0,0-5.11.47,2.92,2.92,0,0,0-1.83,1.68c-.11.25-.37,1-.68,1.84H32.15c-.31-.87-.57-1.59-.67-1.84A3,3,0,0,0,29.65,15.13Z"/></g></g></g></svg>