<svg xmlns="http://www.w3.org/2000/svg" viewBox="0 0 79.84 79.84"><defs><style>.cls-1,.cls-3{fill:#e77379;}.cls-1{stroke:#fff;stroke-miterlimit:10;stroke-width:2px;}.cls-2{fill:#fff;}.cls-3{font-size:14px;font-family:KozGoPr6N-Medium-83pv-RKSJ-H, Kozuka Gothic Pr6N;}</style></defs><g id="レイヤー_2" data-name="レイヤー 2"><g id="レイヤー_1-2" data-name="レイヤー 1"><circle class="cls-1" cx="39.92" cy="39.92" r="38.92"/><path class="cls-2" d="M51.91,16.83c0,6.62-7.82,12-12,16.16-4.09-4.1-12-9.54-12-16.16a12,12,0,1,1,24,0Z"/><text class="cls-3" transform="translate(33.09 21.23)">旅</text><path class="cls-2" d="M18.71,40.64a.38.38,0,0,1-.25.19,24.13,24.13,0,0,1-5.28,5.31,25.9,25.9,0,0,1,2.6,2.43l-1.19,1a28.18,28.18,0,0,0-6.22-5.1l1-1a27.4,27.4,0,0,1,2.77,1.82,19.7,19.7,0,0,0,4.22-4.11H6.89v-1.3H17.36l.21-.11Z"/><path class="cls-2" d="M31.89,39.35a.4.4,0,0,1-.3.13.39.39,0,0,1-.14,0,32.58,32.58,0,0,1-3.78,3.19,2.87,2.87,0,0,0,.37.15.37.37,0,0,1-.32.24v7.22H26.28V43.54a40.35,40.35,0,0,1-4.86,2.81,6,6,0,0,0-.82-1.06,32.38,32.38,0,0,0,9.89-7Z"/><path class="cls-2" d="M35.05,39.89h8.63l.09-.06,1.25.91a.58.58,0,0,1-.21.16c-1.17,5.12-3.51,7.69-7.72,9.31a7.1,7.1,0,0,0-.86-1.14c3.85-1.41,6.15-3.87,6.94-7.87H35.05Zm10.46-2.37A1.49,1.49,0,1,1,44,39,1.49,1.49,0,0,1,45.51,37.52Zm1,1.49a1,1,0,1,0-1,1A1,1,0,0,0,46.5,39Z"/><path class="cls-2" d="M59.11,42.73a.44.44,0,0,1-.24.18c-1.17,4.16-3.36,6.18-7.47,7.33a5.62,5.62,0,0,0-.82-1.1c3.57-.88,5.87-2.78,6.62-5.56H48.54V42.31h9.24l.16-.11Zm-1.43-2.65h-7.8V38.82h7.8Z"/><path class="cls-2" d="M62.94,39.27a17.12,17.12,0,0,1,4,1.82l-.71,1.23a18.51,18.51,0,0,0-4-1.88Zm-.26,9.36c4.73-1.45,7.93-4.16,9.54-7.93a10.4,10.4,0,0,0,1.26.79,15.73,15.73,0,0,1-9.59,8.24.46.46,0,0,1-.22.33Z"/><path class="cls-2" d="M22.92,61v4.41c1,1.51,2.84,1.51,5,1.51,1.56,0,3.47-.06,4.7-.14a6.28,6.28,0,0,0-.42,1.33c-.95,0-2.33.07-3.61.07-3.11,0-4.88,0-6.23-1.65-.64.58-1.32,1.14-1.86,1.58a.23.23,0,0,1-.17.26l-.68-1.44a24,24,0,0,0,2-1.44V62.21H19.86V61Zm-2-5.09a10.6,10.6,0,0,1,2.4,2.14l-1,.85A10.37,10.37,0,0,0,20,56.69Zm4.89,9.9v.52H24.54V57h2.2a10.43,10.43,0,0,0,.45-1.49l1.71.29c0,.11-.13.15-.32.16-.14.32-.32.69-.51,1h3v3.75H25.8v1h5.77v4.52H30.31v-.52Zm4-7.69h-4v1.57h4Zm.53,4.79H25.8v1.8h4.51Z"/><path class="cls-2" d="M38.93,58.21l.68,0c0,.1,0,.28,0,.43-.11,6.16-.21,8.22-.62,8.81s-.9.69-2.46.64a3.27,3.27,0,0,0-.37-1.3c.53,0,1,.06,1.26.06a.46.46,0,0,0,.44-.25c.27-.38.38-2.13.47-7.16H36.55c-.13,3.6-.58,6.85-2.26,8.93a4.66,4.66,0,0,0-1-.91c1.49-1.82,1.87-4.68,2-8H33.58V58.21h1.73c0-.85,0-1.72,0-2.61l1.64.08c0,.15-.14.23-.37.26,0,.77,0,1.52,0,2.27Zm1.8-1.07h4.78V68H44.22v-.88H42v1H40.73ZM42,65.81h2.24V58.4H42Z"/><path class="cls-2" d="M47.77,59.4a11.15,11.15,0,0,1,2.56,1.36l-.75,1.09a11,11,0,0,0-2.52-1.48Zm-.3,8a40.58,40.58,0,0,0,2.46-4.46l1,.82a41.24,41.24,0,0,1-2.18,4.15.35.35,0,0,1,.09.22.34.34,0,0,1-.07.19Zm1.07-11.7A10.54,10.54,0,0,1,51,57.12l-.75,1.05a10.52,10.52,0,0,0-2.46-1.55ZM58,58.14l.59.18c0,.14-.18.16-.33.15a6.16,6.16,0,0,1-1.61,1.77,17.47,17.47,0,0,0,3.46.89,3.2,3.2,0,0,0-.72,1.19l-.44-.1c0,.1-.12.18-.33.21v6H57.37V66H53.15a4.79,4.79,0,0,1-1.67,2.37,6.64,6.64,0,0,0-1-.73,4.63,4.63,0,0,0,1.77-4V62.17l-1,.22a6.23,6.23,0,0,0-.62-1.1,15.16,15.16,0,0,0,3.64-1,8.57,8.57,0,0,1-1.87-2l.45-.18H51.18V57h3.55v-1.4l1.65.11c0,.11-.09.19-.31.22V57H59.9v1.16Zm-.65,4,1.52.1v0A14.14,14.14,0,0,1,55.44,61a14.59,14.59,0,0,1-2.92,1.08l1.28.08c0,.12-.11.19-.32.22v.45h3.89Zm-3.89,1.82a9.12,9.12,0,0,1-.08,1h4v-1Zm.21-5.79a7.28,7.28,0,0,0,1.76,1.5A5.06,5.06,0,0,0,57,58.14Z"/></g></g></svg>