<?xml version="1.0" encoding="UTF-8"?>
<svg id="_レイヤー_2" data-name="レイヤー 2" xmlns="http://www.w3.org/2000/svg" viewBox="0 0 28.5 28.5">
  <defs>
    <style>
      .cls-1 {
        fill: #b89b7e;
        isolation: isolate;
        opacity: .7;
      }
    </style>
  </defs>
  <g id="_レイヤー_2-2" data-name="レイヤー 2">
    <path class="cls-1" d="m15.66,14.25L28.21,1.71c.2-.2.29-.45.29-.71s-.1-.51-.29-.71c-.39-.39-1.02-.39-1.41,0l-12.54,12.54L1.71.29C1.32-.1.68-.1.29.29c-.2.2-.29.45-.29.71s.1.51.29.71l12.54,12.54L.29,26.79c-.2.2-.29.45-.29.71s.1.51.29.71.45.29.71.29.51-.1.71-.29l12.54-12.54,12.54,12.54c.2.2.45.29.71.29s.51-.1.71-.29.29-.45.29-.71-.1-.51-.29-.71l-12.54-12.54Z"/>
  </g>
</svg>