<svg xmlns="http://www.w3.org/2000/svg" viewBox="0 0 24.87 28"><defs><style>.cls-1{fill:#b89b7e;opacity:0.7;}</style></defs><title>nav-close</title><g id="レイヤー_2" data-name="レイヤー 2"><g id="レイヤー_1-2" data-name="レイヤー 1"><path class="cls-1" d="M24,13.12H3.16L13.73,1.68A1,1,0,0,0,12.26.32l-12,13a.91.91,0,0,0-.08.13,1.74,1.74,0,0,0-.11.18,1.16,1.16,0,0,0,0,.18A1.08,1.08,0,0,0,0,14a1.25,1.25,0,0,0,0,.19,1.16,1.16,0,0,0,0,.18,1,1,0,0,0,.11.17.64.64,0,0,0,.08.14l12,13a1,1,0,0,0,1.41.05,1,1,0,0,0,.06-1.41L3.16,14.88H24a.88.88,0,1,0,0-1.76Z"/></g></g></svg>