<svg xmlns="http://www.w3.org/2000/svg" viewBox="0 0 45.45 54.83"><defs><style>.cls-1{fill:#fff;}.cls-2{fill:#db7274;}</style></defs><g id="レイヤー_2" data-name="レイヤー 2"><g id="レイヤー_1-2" data-name="レイヤー 1"><g id="レイヤー_2-2" data-name="レイヤー 2"><g id="model-plan-top"><path class="cls-1" d="M6.44,38.53a22.67,22.67,0,0,1,0-31.62l.5-.5a22.75,22.75,0,0,1,31.63,0l.51.52a22.72,22.72,0,0,1,0,31.61L22.74,54.83Z"/><path class="cls-2" d="M43.45,22.71a20.62,20.62,0,0,1-5.83,14.41L22.74,52,7.85,37.12a20.75,20.75,0,0,1,0-28.82l.48-.48a20.75,20.75,0,0,1,28.82,0l.47.48A20.62,20.62,0,0,1,43.45,22.71Z"/></g></g><path class="cls-1" d="M19.71,27.42v2.14H9.53V13.25H19.7v2.14H12.19v4.92h6v2.07h-6v5Z"/><path class="cls-1" d="M23.19,23.19a4.69,4.69,0,0,1,.47-.43,3.46,3.46,0,0,1,.52-.32,2.66,2.66,0,0,1,.58-.21,2.8,2.8,0,0,1,.67-.08,2.64,2.64,0,0,1,1,.19,2.08,2.08,0,0,1,.73.54,2.43,2.43,0,0,1,.45.84,3.71,3.71,0,0,1,.15,1.08v4.44H26.3V24.8A1.61,1.61,0,0,0,26,23.71a1.2,1.2,0,0,0-1-.4,1.89,1.89,0,0,0-.91.23,3.42,3.42,0,0,0-.79.61v5.09H21.82v-7h.89a.35.35,0,0,1,.38.28Z"/><path class="cls-1" d="M35.41,19.12V29.24h-.88a.36.36,0,0,1-.38-.28L34,28.2A3.57,3.57,0,0,1,33,29a2.57,2.57,0,0,1-1.29.32,2.37,2.37,0,0,1-1.07-.24,2.22,2.22,0,0,1-.82-.68,3.43,3.43,0,0,1-.53-1.12,5.52,5.52,0,0,1-.19-1.53,4.73,4.73,0,0,1,.21-1.44,3.54,3.54,0,0,1,.6-1.16,2.71,2.71,0,0,1,.95-.76,2.66,2.66,0,0,1,1.24-.28,2.55,2.55,0,0,1,1.05.2,2.44,2.44,0,0,1,.77.54V19.12ZM33.94,24a1.73,1.73,0,0,0-.67-.56,2.15,2.15,0,0,0-.8-.15,1.6,1.6,0,0,0-1.35.63,3,3,0,0,0-.49,1.87,5,5,0,0,0,.11,1.1,2.2,2.2,0,0,0,.32.74,1.19,1.19,0,0,0,.5.42,1.69,1.69,0,0,0,.66.13,1.89,1.89,0,0,0,1-.25,2.79,2.79,0,0,0,.75-.68Z"/></g></g></svg>