<svg xmlns="http://www.w3.org/2000/svg" viewBox="0 0 45.45 54.83"><defs><style>.cls-1{fill:#fff;}.cls-2{fill:#db7274;}</style></defs><g id="レイヤー_2" data-name="レイヤー 2"><g id="レイヤー_1-2" data-name="レイヤー 1"><g id="レイヤー_2-2" data-name="レイヤー 2"><g id="model-plan-top"><path class="cls-1" d="M6.44,38.53a22.67,22.67,0,0,1,0-31.62l.5-.5a22.75,22.75,0,0,1,31.63,0l.51.52a22.72,22.72,0,0,1,0,31.61L22.74,54.83Z"/><path class="cls-2" d="M43.45,22.71a20.62,20.62,0,0,1-5.83,14.41L22.74,52,7.85,37.12a20.75,20.75,0,0,1,0-28.82l.48-.48a20.75,20.75,0,0,1,28.82,0l.47.48A20.62,20.62,0,0,1,43.45,22.71Z"/></g></g><path class="cls-1" d="M16.06,16a1,1,0,0,1-.26.3.59.59,0,0,1-.34.09.9.9,0,0,1-.48-.18c-.18-.12-.39-.25-.66-.4a5.72,5.72,0,0,0-.92-.41,4,4,0,0,0-1.27-.18,3.6,3.6,0,0,0-1.19.17,2.5,2.5,0,0,0-.87.47,2,2,0,0,0-.52.72,2.26,2.26,0,0,0-.18.9,1.62,1.62,0,0,0,.33,1,2.89,2.89,0,0,0,.86.71,7.85,7.85,0,0,0,1.23.51l1.41.47q.72.26,1.41.57a4.92,4.92,0,0,1,1.23.8,3.74,3.74,0,0,1,.87,1.19A4,4,0,0,1,17,24.52a5.48,5.48,0,0,1-.38,2,4.86,4.86,0,0,1-1.08,1.66,5.17,5.17,0,0,1-1.74,1.12,6.45,6.45,0,0,1-2.36.4A7.78,7.78,0,0,1,10,29.59a7.43,7.43,0,0,1-1.41-.43,7.32,7.32,0,0,1-1.27-.67,6.49,6.49,0,0,1-1-.89L7,26.33a1,1,0,0,1,.26-.25A.7.7,0,0,1,7.6,26a1,1,0,0,1,.58.25c.21.16.47.34.76.53A5.83,5.83,0,0,0,10,27.3a4,4,0,0,0,1.51.25,3.24,3.24,0,0,0,2.23-.71,2.46,2.46,0,0,0,.79-1.93,1.83,1.83,0,0,0-.33-1.13,2.73,2.73,0,0,0-.87-.73,6.31,6.31,0,0,0-1.23-.5c-.46-.13-.93-.28-1.4-.43a14.19,14.19,0,0,1-1.41-.55,4.47,4.47,0,0,1-1.22-.81,3.78,3.78,0,0,1-.87-1.25,4.54,4.54,0,0,1-.33-1.85,4.48,4.48,0,0,1,1.35-3.18,4.85,4.85,0,0,1,1.64-1,5.94,5.94,0,0,1,2.22-.39,7.35,7.35,0,0,1,2.58.44,6.06,6.06,0,0,1,2,1.26Z"/><path class="cls-1" d="M21.17,29.09a1.81,1.81,0,0,1-1.35-.49,2,2,0,0,1-.47-1.39v-4.1h-.77a.33.33,0,0,1-.22-.08.3.3,0,0,1-.09-.24v-.6L19.41,22l.32-2a.52.52,0,0,1,.12-.19.38.38,0,0,1,.22-.07h.76V22h2v1.07h-2v4a.78.78,0,0,0,.19.58.61.61,0,0,0,.49.2.87.87,0,0,0,.3,0,1,1,0,0,0,.21-.1l.16-.1a.33.33,0,0,1,.13,0,.23.23,0,0,1,.2.14l.44.72a2.29,2.29,0,0,1-.82.47A2.85,2.85,0,0,1,21.17,29.09Z"/><path class="cls-1" d="M23.78,22.92a4,4,0,0,1,2.84-1.11,2.77,2.77,0,0,1,1.08.2,2.28,2.28,0,0,1,.8.55,2.68,2.68,0,0,1,.49.86,3.41,3.41,0,0,1,.17,1.09V29h-.67a.56.56,0,0,1-.32-.07.5.5,0,0,1-.19-.26l-.14-.57c-.18.16-.36.3-.53.43a5.09,5.09,0,0,1-.54.32,3,3,0,0,1-.6.19,3.17,3.17,0,0,1-.71.07,2.58,2.58,0,0,1-.8-.12A1.62,1.62,0,0,1,23.6,28a2.12,2.12,0,0,1-.15-.83,1.61,1.61,0,0,1,.21-.79,2.1,2.1,0,0,1,.72-.7,4.62,4.62,0,0,1,1.32-.5,9.12,9.12,0,0,1,2-.23v-.47a1.68,1.68,0,0,0-.32-1.13,1.19,1.19,0,0,0-.95-.37,2.12,2.12,0,0,0-.72.1,3.36,3.36,0,0,0-.5.23c-.14.09-.27.16-.38.24a.64.64,0,0,1-.35.1.38.38,0,0,1-.26-.08.66.66,0,0,1-.18-.19Zm3.93,3a9.06,9.06,0,0,0-1.33.13,3.67,3.67,0,0,0-.89.26,1.1,1.1,0,0,0-.48.37.77.77,0,0,0-.15.46,1.1,1.1,0,0,0,.08.43.8.8,0,0,0,.22.29.85.85,0,0,0,.33.16,1.42,1.42,0,0,0,.42.05,2.16,2.16,0,0,0,1-.21,3.29,3.29,0,0,0,.81-.63Z"/><path class="cls-1" d="M32.29,23.25a2.92,2.92,0,0,1,.8-1.05,1.68,1.68,0,0,1,1.12-.39,1.54,1.54,0,0,1,.43.06A1.14,1.14,0,0,1,35,22l-.11,1.12a.22.22,0,0,1-.08.16.25.25,0,0,1-.16,0l-.29,0a1.84,1.84,0,0,0-.41,0,1.55,1.55,0,0,0-.55.09,1.27,1.27,0,0,0-.43.26,2.36,2.36,0,0,0-.33.42,3.77,3.77,0,0,0-.27.57V29H30.89v-7h.86a.44.44,0,0,1,.32.09.6.6,0,0,1,.13.3Z"/><path class="cls-1" d="M38.23,29.09a1.83,1.83,0,0,1-1.35-.49,2,2,0,0,1-.47-1.39v-4.1h-.77a.35.35,0,0,1-.22-.08.29.29,0,0,1-.08-.24v-.6L36.47,22l.33-2a.4.4,0,0,1,.11-.19.39.39,0,0,1,.23-.07h.75V22h2v1.07h-2v4a.82.82,0,0,0,.19.58.62.62,0,0,0,.5.2.85.85,0,0,0,.29,0,.9.9,0,0,0,.22-.1l.15-.1a.38.38,0,0,1,.13,0,.23.23,0,0,1,.2.14l.44.72a2.33,2.33,0,0,1-.81.47A2.9,2.9,0,0,1,38.23,29.09Z"/></g></g></svg>