<svg xmlns="http://www.w3.org/2000/svg" viewBox="0 0 16 18.43"><defs><style>.cls-1{fill:#ae9a65;}</style></defs><g id="レイヤー_2" data-name="レイヤー 2"><g id="レイヤー_1-2" data-name="レイヤー 1"><g id="グループ_171" data-name="グループ 171"><g id="グループ_170" data-name="グループ 170"><path id="パス_102" data-name="パス 102" class="cls-1" d="M2,10.5A6,6,0,0,1,3.76,6.26L2.34,4.84A8,8,0,0,0,7,18.43v-2A6,6,0,0,1,2,10.5Zm14,0a8,8,0,0,0-8-8H7.82L8.91,1.42,7.5,0,4,3.5,7.5,7,8.91,5.59,7.83,4.51H8A6,6,0,0,1,9,16.41v2A8,8,0,0,0,16,10.5Z"/></g></g></g></g></svg>