<svg xmlns="http://www.w3.org/2000/svg" viewBox="0 0 23.29 14.97"><defs><style>.cls-1{fill:#6cc;}.cls-2{fill:#fff;}</style></defs><g id="レイヤー_2" data-name="レイヤー 2"><g id="レイヤー_1-2" data-name="レイヤー 1"><g id="keiro"><path id="パス_87" data-name="パス 87" class="cls-1" d="M2.93,11.5A38.76,38.76,0,0,0,5.54,7.87,2.84,2.84,0,0,0,5,4.51a2.93,2.93,0,0,0-4.12,0A2.84,2.84,0,0,0,.32,7.87,38.76,38.76,0,0,0,2.93,11.5Zm0-6.7A1.77,1.77,0,1,1,1.16,6.57h0A1.76,1.76,0,0,1,2.93,4.81Z"/><path id="パス_88" data-name="パス 88" class="cls-2" d="M20.36,7.84A38.9,38.9,0,0,0,23,4.2,2.84,2.84,0,0,0,22.42.85a2.93,2.93,0,0,0-4.12,0,2.83,2.83,0,0,0-.55,3.35A38.9,38.9,0,0,0,20.36,7.84Zm0-6.7a1.77,1.77,0,1,1-1.77,1.77h0a1.76,1.76,0,0,1,1.77-1.76Z"/><path id="パス_89" data-name="パス 89" class="cls-2" d="M3.12,15a.76.76,0,0,1-.2-1.5l2.44-.66a.76.76,0,0,1,.4,1.47l-2.45.66A.63.63,0,0,1,3.12,15ZM8,13.65a.76.76,0,0,1-.2-1.5l2.44-.65a.77.77,0,0,1,.92.57.78.78,0,0,1-.52.9l-2.45.65a.64.64,0,0,1-.2,0Zm4.9-1.31a.76.76,0,0,1-.2-1.5l2.44-.66a.77.77,0,0,1,.4,1.48l-2.45.65a.64.64,0,0,1-.2,0ZM17.82,11a.76.76,0,0,1-.2-1.5l2.44-.66a.76.76,0,0,1,.4,1.47L18,11a.64.64,0,0,1-.2,0Z"/></g></g></g></svg>