<svg xmlns="http://www.w3.org/2000/svg" width="12.32" height="14.462" viewBox="0 0 12.32 14.462"><g transform="translate(-589.425 -338.704)"><path d="M592.936,353.16a39.3,39.3,0,0,0,2.613-3.635,2.839,2.839,0,0,0-.553-3.351,2.914,2.914,0,0,0-4.12,0,2.841,2.841,0,0,0-.552,3.351A39.31,39.31,0,0,0,592.936,353.16Zm0-6.7a1.77,1.77,0,1,1-1.769,1.77A1.77,1.77,0,0,1,592.936,346.465Z" transform="translate(-0.575 -2.29)" fill="#6cc"/><path d="M623.22,346.8a39.271,39.271,0,0,0,2.613-3.635,2.841,2.841,0,0,0-.553-3.351,2.914,2.914,0,0,0-4.12,0,2.842,2.842,0,0,0-.553,3.351A39.36,39.36,0,0,0,623.22,346.8Zm0-6.7a1.77,1.77,0,1,1-1.769,1.77A1.771,1.771,0,0,1,623.22,340.108Z" transform="translate(-24.411 -0.261)" fill="#fff"/><line y1="5.095" x2="6.572" transform="translate(592.801 347.37)" fill="none" stroke="#fff" stroke-linecap="round" stroke-width="1" stroke-dasharray="1 2"/></g></svg>