<svg xmlns="http://www.w3.org/2000/svg" viewBox="0 0 34.03 34.03"><defs><style>.cls-1{fill:#a3a3a3;}</style></defs><title>push-pin</title><g id="レイヤー_2" data-name="レイヤー 2"><g id="レイヤー_1-2" data-name="レイヤー 1"><path class="cls-1" d="M28.76,8.53,25.51,5.27,20.23,0,16.69,3.54,17.47,6l-7.16,5.35L5.55,9.73l-5.31,5L8.57,23,.28,31.31,0,34l2.72-.28L11,25.46l8.33,8.33,5-5.3-1.64-4.77L28,16.57l2.48.77L34,13.8Zm1,6-2.73-.86-7.18,9.62,1.58,4.59-2.19,2.34-7.74-7.73L3.81,14.75l2.34-2.19,4.6,1.59L20.36,7l-.85-2.73.72-.72L23.75,7,27,10.28l3.52,3.52Z"/></g></g></svg>