<svg xmlns="http://www.w3.org/2000/svg" viewBox="0 0 469.4 120"><defs><style>.cls-1{fill:#9c864f;}</style></defs><g id="レイヤー_2" data-name="レイヤー 2"><g id="logo_02"><path d="M464.8,40.63a4.6,4.6,0,0,0-4.6,4.6h0V59.58c0,16.64-9.63,25.72-24.35,25.72S411.5,76.22,411.5,59.58V45.23h0a4.6,4.6,0,0,0-9.2,0V59.58c0,22.55,13.47,34.25,33.55,34.25s33.56-11.7,33.56-34.25V45.23A4.6,4.6,0,0,0,464.8,40.63Z"/><path class="cls-1" d="M375.47,0A8.48,8.48,0,0,0,367,8.45a8.46,8.46,0,1,0,16.91,0A8.49,8.49,0,0,0,375.47,0Z"/><path d="M375.41,23.71a4.61,4.61,0,0,0-4.61,4.61h0V93.86c0,11.56-3.72,16-13.89,16h-1.1a4,4,0,1,0,0,8h1.92c16,0,22.28-8.11,22.28-24.34V28.32h0A4.61,4.61,0,0,0,375.41,23.71Z"/><path d="M313.82,93.83c-21.46,0-36.59-15.13-36.59-35.76s15.13-35.76,36.59-35.76S350.4,37.44,350.4,58.07,335.27,93.83,313.82,93.83Zm27.23-35.76c0-15.68-11-27.23-27.23-27.23s-27.24,11.55-27.24,27.23,11,27.23,27.24,27.23S341.05,73.75,341.05,58.07Z"/><path class="cls-1" d="M254.85,59.31l-.48-.16a13.31,13.31,0,0,0-3.91-.59c-.35,0-.69,0-1,.06a12.08,12.08,0,0,1-6.19-5.18,13.57,13.57,0,0,0,5.27-5,13.47,13.47,0,1,0-25-6.94,13.76,13.76,0,0,0,.12,1.71,13.13,13.13,0,0,0,.84,3.26,13.78,13.78,0,0,1-9.65,9.18,6.69,6.69,0,0,0-2.22-.64,5.79,5.79,0,0,0-.72,0,6.77,6.77,0,0,0-3.31.87,13.65,13.65,0,0,1-5.93-2.81,21.65,21.65,0,0,0,1.09-2.34,20.2,20.2,0,1,0-39-7.4c0,.72,0,1.43.11,2.14a20,20,0,0,0,6.65,12.91,13.3,13.3,0,0,1-3.67,7.93q-.43.08-.87.18a13.46,13.46,0,1,0,16.57,13.09c0-.11,0-.22,0-.33A13.38,13.38,0,0,0,179.58,70a14,14,0,0,0-1.37-1.18c0-.23,0-.45,0-.69a14,14,0,0,1,1.1-5.46,20.34,20.34,0,0,0,5.61.82H185a20,20,0,0,0,15.33-7.07,14.17,14.17,0,0,1,4.9,5.8A6.68,6.68,0,0,0,206,65c.07.13.15.25.22.37a6.72,6.72,0,0,0,12.35-2.66,7.3,7.3,0,0,0,.07-.94c0-.15,0-.3,0-.45a11.86,11.86,0,0,1,11.11-7.7,12.32,12.32,0,0,1,1.5.1,14.48,14.48,0,0,0,1.53.63c.34.11.69.2,1,.29a12.16,12.16,0,0,0,1.23.24,11.88,11.88,0,0,1,6.15,7.48A13.36,13.36,0,0,0,237,72a13.89,13.89,0,0,0,.25,2.6,13.47,13.47,0,1,0,17.61-15.32Z"/><path d="M79.9,61.09C81.13,75.26,91.72,85.3,107,85.3c10.73,0,19-4.4,23.38-12.24h0a5.57,5.57,0,0,1,4.18,9.27c-6.43,7.16-16.09,11.5-27.56,11.5-21.46,0-36.58-15.13-36.58-35.76S85.53,22.31,107,22.31,143.3,37.44,143.3,58.07h0a3,3,0,0,1-3,3Zm.27-8.52v.27h53.5v-.27c-2.2-12.93-12.38-21.73-26.68-21.73S82.37,39.64,80.17,52.57Z"/><path d="M28.61,22.31C11.69,22.31,0,31.8,0,51.33V87.81a4.57,4.57,0,0,0,4.61,4.54,4.57,4.57,0,0,0,4.6-4.54V51.33c0-14.17,7.71-20.49,19.4-20.49S48,37.16,48,51.33v1h0a4.51,4.51,0,0,0,9,0h0v-.82C57.08,31.8,45.52,22.31,28.61,22.31Z"/><path d="M226.5,103c-.06,1.34-.14,7.72-.16,9.7a11.24,11.24,0,0,1-2.32,0c.08-1.31.17-7.2.17-8.15a13.57,13.57,0,0,0-.11-1.65C224.63,102.9,225.88,103,226.5,103Zm8.66,4.76c0,5.46-.88,7.3-2.4,9.07A11.55,11.55,0,0,1,228,120a8.61,8.61,0,0,1-1.76-1.88,9.17,9.17,0,0,0,4.86-2.71c1.57-1.88,1.84-4.07,1.84-7.88,0-.92,0-1.76,0-2.74,0-.79-.07-1.43-.13-2a15.17,15.17,0,0,1,2.42.13c0,.58-.06,1.35,0,1.83Z"/><path d="M249.82,109.59c3.19,0,6.42-.06,7.07-.08.48,0,1.13,0,1.67-.06a11.87,11.87,0,0,1,.12,2.1c-.33,0-1,0-1.5,0s-4.09,0-7.36,0c0,2.15-.06,3.3,0,4s.25,1.33,1.14,1.46a22.88,22.88,0,0,0,6.89-.46,10,10,0,0,1-.25,2.23A25.94,25.94,0,0,1,250,119a2.71,2.71,0,0,1-2.42-2.92c0-1.06,0-3.19,0-4.55l-3.84.05-2.11,0a12.38,12.38,0,0,1-.25-2.11l1.75.06c.61,0,2.38,0,4.45,0,0-1.17,0-2.94,0-3.84l-2.48,0-1.88,0a13.84,13.84,0,0,1-.23-2.07c.69,0,1,.07,1.77.07,1.69,0,8.43-.07,9.95-.11.71,0,1.27-.06,1.75-.12a12.57,12.57,0,0,1,.11,2.06l-6.8.06Z"/><path d="M266.76,109.8c4.67,0,11.95-.06,13.89-.1a11.22,11.22,0,0,1,.09,2.4c-2.94-.13-14.31,0-16.92,0a16,16,0,0,1-.19-2.44C264.22,109.72,265.6,109.8,266.76,109.8Z"/><path d="M291.35,110.13a7.43,7.43,0,0,1-1,1.86,39.16,39.16,0,0,0-4.8-2.44,11,11,0,0,1,1-1.88A38.09,38.09,0,0,1,291.35,110.13Zm2.09,5a19.47,19.47,0,0,0,7.57-8.07,5.63,5.63,0,0,1,1.63,1.83,23.15,23.15,0,0,1-8.06,8.08,27.84,27.84,0,0,1-6.17,2.65,6.94,6.94,0,0,1-1.52-2.15A19.63,19.63,0,0,0,293.44,115.16Zm.69-9.82a7.64,7.64,0,0,1-1.09,1.81,44.87,44.87,0,0,0-4.71-2.61,11.91,11.91,0,0,1,1-1.85A36.41,36.41,0,0,1,294.13,105.34Zm7.09,0a3,3,0,0,1-1.11.6,17.19,17.19,0,0,0-1.58-2.67,4.89,4.89,0,0,1,1.1-.58A13.12,13.12,0,0,1,301.22,105.36Zm2.29-1.13a3.92,3.92,0,0,1-1.12.63,14.22,14.22,0,0,0-1.57-2.61,4.24,4.24,0,0,1,1.11-.58A12,12,0,0,1,303.51,104.23Z"/><path d="M319.73,116.5c.39,0,.91,0,1.33,0,.06.42.08,1.67.08,2-.52,0-1.27,0-1.85,0-.75,0-9.05.06-10.24.08-.5,0-1.05,0-1.53,0a17.88,17.88,0,0,1-.14-2c.52,0,1,0,1.62.06s3.86,0,6.64,0c.25-1.79.58-4.74.62-5.78l-5.33.06-1.49,0c-.08-.48-.16-1.73-.16-2l1.41.09c.88,0,3.7,0,5.72,0a9,9,0,0,0,1-.1,5,5,0,0,1,1.15.6c-.09,1.13-.52,4.95-.82,7.14Z"/><path d="M334.32,113.06a2.13,2.13,0,0,1,1.2,1.75,15,15,0,0,0,.64,2.33h-1.35a12.18,12.18,0,0,1-.53-2c-.24-1.15-.65-1.58-1.56-1.58h-.79v3.63h-1.28v-8.46a12.2,12.2,0,0,1,2.08-.18,3.51,3.51,0,0,1,2.44.68,2.17,2.17,0,0,1,.69,1.68,2.28,2.28,0,0,1-1.54,2.18Zm-1.51-.53a1.55,1.55,0,0,0,1.75-1.53c0-1.11-.79-1.49-1.72-1.49a4.38,4.38,0,0,0-.91.07v3Z"/><path d="M333.17,106.94a5.88,5.88,0,1,1-5.88,5.88,5.88,5.88,0,0,1,5.88-5.88m0-1.12a7,7,0,1,0,7,7,7,7,0,0,0-7-7Z"/></g></g></svg>