<svg xmlns="http://www.w3.org/2000/svg" viewBox="0 0 451.02 69.42"><defs><style>.cls-1{fill:#ac2b39;}.cls-2,.cls-3{fill:#231815;}.cls-3{font-size:16px;font-family:FutoGoB101Pr6N-Bold-83pv-RKSJ-H, A-OTF Futo Go B101 Pr6N;}</style></defs><title>remoju-logo-sp-en</title><g id="レイヤー_2" data-name="レイヤー 2"><g id="レイヤー_1-2" data-name="レイヤー 1"><path class="cls-1" d="M23.18,60.27h0A6.71,6.71,0,0,0,22.09,60c-.63-.14-2.06-2.92-1-5.54a5.4,5.4,0,0,1,1.27-1.82c2.39-2.2,6-1.4,6.56-1.28a77.76,77.76,0,0,0,5-16.08c1-5.25,1.25-10.25,1.7-20,.26-5.84.38-10.66.44-14A83,83,0,0,1,46.21.18C52-.08,56.36-.28,61.65,1.26c3.66,1.06,7.75,2.25,11.15,6.1a19.27,19.27,0,0,1,4.59,12c.09,2.13.32,7.74-3.74,12.49a16.55,16.55,0,0,1-8.83,5.23,43,43,0,0,0,6.54,7.83A47.27,47.27,0,0,0,81.4,52c-2.83,2.83-9.17,11.25-13,10.79-5.29-.74-4.93-6.16-2.69-9.13C57.84,48,51.93,38,51.93,38c-1.08,0-2.38,0-3.21,0l-3-.09a50.9,50.9,0,0,1-2.53,11.61A51.12,51.12,0,0,1,36.9,61.91a55.55,55.55,0,0,1-7.4-.31A35.65,35.65,0,0,1,23.18,60.27ZM46.59,27.64c1.33.06,3.71.48,4.76.52a37.2,37.2,0,0,0,5.52.12c6.9-.78,7.76-5.1,7.76-8.43,0-4.71-1.71-9.06-9.72-9.43-1.47-.06-4,0-4.46,0-1.27.06-2.42.13-3.14.21C47.05,16.23,46.84,22,46.59,27.64Z"/><path class="cls-2" d="M91.09,49.28a7,7,0,0,0,2.48,5.26A6.39,6.39,0,0,0,98,56.1c5.69,0,7-1,10.89-3.58l.3,5.76A23.29,23.29,0,0,1,97.39,61q-7.22,0-11.12-3.53-3.75-3.4-3.75-9.52c0-4.05,1.23-7.18,3.68-9.42q3.9-3.63,11.19-3.63,12.67,0,12.68,11.49v2.88Zm11.54-4.38c0-3.78-1.75-5.66-5.24-5.66s-5.43,1.88-6,5.66Z"/><path class="cls-2" d="M116.27,60.29V35.6H124v2.13a15.79,15.79,0,0,1,8.26-2.82c3.8,0,6.32,1.07,7.56,3.23a17.21,17.21,0,0,1,9.41-3.23q5.19,0,7.24,2.53a10.06,10.06,0,0,1,1.47,6v16.9h-7.81V44.08a5.22,5.22,0,0,0-.58-2.83,3.47,3.47,0,0,0-2.94-1,10.45,10.45,0,0,0-5.7,2.14,6.77,6.77,0,0,1,.06,1.27V60.29h-7.81V44.08a5.22,5.22,0,0,0-.58-2.83,3.47,3.47,0,0,0-2.94-1A9.89,9.89,0,0,0,124,42.29v18Z"/><path class="cls-2" d="M167.87,57.14A12.35,12.35,0,0,1,164.08,48q0-6.24,3.85-9.7,3.67-3.36,10.17-3.35t10.24,3.35q3.78,3.45,3.79,9.7a12.35,12.35,0,0,1-3.79,9.18,15.47,15.47,0,0,1-20.47,0Zm10.23-.58q6.08,0,6.07-8.6t-6.07-8.55Q172,39.41,172,48T178.1,56.56Z"/><path class="cls-2" d="M193.46,63.57c1.77.64,3.15,1.16,4.7.78,2.47-.61,4-1.35,4-5.22V35.35h7.71V59.58q0,9.84-10.17,9.83c-2.78,0-3.61.16-6.3-1.16Zm6.63-35.06a3.92,3.92,0,0,1,1.36-3,5,5,0,0,1,6.63,0,3.92,3.92,0,0,1,1.36,3,4,4,0,0,1-1.36,3,5,5,0,0,1-6.63,0A4,4,0,0,1,200.09,28.51Z"/><path class="cls-2" d="M225.27,50.88c0,1.71.31,2.88.95,3.48a3.72,3.72,0,0,0,2.77.86A11.67,11.67,0,0,0,235.25,53V35.35h7.64V59.79h-7.64V57.56q-4.55,2.91-8.21,2.91-9.36,0-9.35-8.33V35.35h7.58Z"/><polyline class="cls-2" points="202.18 35.35 196.59 35.35 196.59 40.45 202.18 40.45"/><path class="cls-1" d="M22,44.14c0,6.06-11,21.94-11,21.94S0,50.2,0,44.14a11,11,0,1,1,22,0ZM11,40.25a3.83,3.83,0,1,0,3.83,3.83A3.82,3.82,0,0,0,11,40.25Z"/><path class="cls-1" d="M217.76,30.45h-3.4V22h3.19a2.14,2.14,0,0,1,1.92,3.4,1.33,1.33,0,0,1-1,.5,1.77,1.77,0,0,1,1.2.63,2.13,2.13,0,0,1,.44,1.36A2.44,2.44,0,0,1,217.76,30.45Zm-.08-7.11h-2v2.05h1.75a1,1,0,0,0,1.08-1.07A.88.88,0,0,0,217.68,23.34Zm.11,3.33h-2.08v2.46h1.92a1.16,1.16,0,0,0,1.15-1.27A1.06,1.06,0,0,0,217.79,26.67Z"/><path class="cls-1" d="M222.67,30.45V22h5.5v1.32H224v2.09h3.84v1.21H224v2.49h4.32v1.32Z"/><path class="cls-1" d="M234.14,23.34v7.11h-1.35V23.34h-2.58V22h6.52v1.32Z"/><path class="cls-1" d="M243.22,30.45l-.54-1.82h-3.06l-.54,1.82H237.6L240.39,22h1.52l2.79,8.43Zm-1.91-6.36-.16-.74-.16.74-1,3.24h2.27Z"/><text class="cls-3" transform="translate(257.79 34.91)">Make your own travel plan<tspan x="0" y="20">and go experience japan!</tspan></text></g></g></svg>