<svg xmlns="http://www.w3.org/2000/svg" viewBox="0 0 448.39 69.42"><defs><style>.cls-1{fill:#ac2b39;}.cls-2,.cls-3{fill:#231815;}.cls-3{font-size:17.17px;font-family:FutoGoB101Pr6N-Bold-83pv-RKSJ-H, A-OTF Futo Go B101 Pr6N;}.cls-4{letter-spacing:-0.13em;}.cls-5{letter-spacing:-0.13em;}.cls-6{letter-spacing:-0.06em;}.cls-7{letter-spacing:-0.12em;}.cls-8{letter-spacing:-0.09em;}.cls-9{letter-spacing:-0.08em;}.cls-10{letter-spacing:-0.16em;}.cls-11{letter-spacing:-0.12em;}.cls-12{letter-spacing:-0.02em;}.cls-13{letter-spacing:-0.06em;}.cls-14{letter-spacing:-0.17em;}.cls-15{letter-spacing:-0.5em;}.cls-16{letter-spacing:-0.06em;}.cls-17{letter-spacing:-0.06em;}.cls-18{letter-spacing:-0.07em;}.cls-19{letter-spacing:-0.09em;}.cls-20{letter-spacing:-0.11em;}.cls-21{letter-spacing:-0.14em;}.cls-22{letter-spacing:-0.28em;}</style></defs><title>remoju-logo-sp</title><g id="レイヤー_2" data-name="レイヤー 2"><g id="レイヤー_1-2" data-name="レイヤー 1"><path class="cls-1" d="M23.18,60.27h0A6.71,6.71,0,0,0,22.09,60c-.63-.14-2.06-2.92-1-5.54a5.4,5.4,0,0,1,1.27-1.82c2.39-2.2,6-1.4,6.56-1.28a77.76,77.76,0,0,0,5-16.08c1-5.25,1.25-10.25,1.7-20,.26-5.84.38-10.66.44-14A83,83,0,0,1,46.21.18C52-.08,56.36-.28,61.65,1.26c3.66,1.06,7.75,2.25,11.15,6.1a19.27,19.27,0,0,1,4.59,12c.09,2.13.32,7.74-3.74,12.49a16.55,16.55,0,0,1-8.83,5.23,43,43,0,0,0,6.54,7.83A47.27,47.27,0,0,0,81.4,52c-2.83,2.83-9.17,11.25-13,10.79-5.29-.74-4.93-6.16-2.69-9.13C57.84,48,51.93,38,51.93,38c-1.08,0-2.38,0-3.21,0l-3-.09a50.9,50.9,0,0,1-2.53,11.61A51.12,51.12,0,0,1,36.9,61.91a55.55,55.55,0,0,1-7.4-.31A35.65,35.65,0,0,1,23.18,60.27ZM46.59,27.64c1.33.06,3.71.48,4.76.52a37.2,37.2,0,0,0,5.52.12c6.9-.78,7.76-5.1,7.76-8.43,0-4.71-1.71-9.06-9.72-9.43-1.47-.06-4,0-4.46,0-1.27.06-2.42.13-3.14.21C47.05,16.23,46.84,22,46.59,27.64Z"/><path class="cls-2" d="M91.09,49.28a7,7,0,0,0,2.48,5.26A6.39,6.39,0,0,0,98,56.1c5.69,0,7-1,10.89-3.58l.3,5.76A23.29,23.29,0,0,1,97.39,61q-7.22,0-11.12-3.53-3.75-3.4-3.75-9.52c0-4.05,1.23-7.18,3.68-9.42q3.9-3.63,11.19-3.63,12.67,0,12.68,11.49v2.88Zm11.54-4.38c0-3.78-1.75-5.66-5.24-5.66s-5.43,1.88-6,5.66Z"/><path class="cls-2" d="M116.27,60.29V35.6H124v2.13a15.79,15.79,0,0,1,8.26-2.82c3.8,0,6.32,1.07,7.56,3.23a17.21,17.21,0,0,1,9.41-3.23q5.19,0,7.24,2.53a10.06,10.06,0,0,1,1.47,6v16.9h-7.81V44.08a5.22,5.22,0,0,0-.58-2.83,3.47,3.47,0,0,0-2.94-1,10.45,10.45,0,0,0-5.7,2.14,6.77,6.77,0,0,1,.06,1.27V60.29h-7.81V44.08a5.22,5.22,0,0,0-.58-2.83,3.47,3.47,0,0,0-2.94-1A9.89,9.89,0,0,0,124,42.29v18Z"/><path class="cls-2" d="M167.87,57.14A12.35,12.35,0,0,1,164.08,48q0-6.24,3.85-9.7,3.67-3.36,10.17-3.35t10.24,3.35q3.78,3.45,3.79,9.7a12.35,12.35,0,0,1-3.79,9.18,15.47,15.47,0,0,1-20.47,0Zm10.23-.58q6.08,0,6.07-8.6t-6.07-8.55Q172,39.41,172,48T178.1,56.56Z"/><path class="cls-2" d="M193.46,63.57c1.77.64,3.15,1.16,4.7.78,2.47-.61,4-1.35,4-5.22V35.35h7.71V59.58q0,9.84-10.17,9.83c-2.78,0-3.61.16-6.3-1.16Zm6.63-35.06a3.92,3.92,0,0,1,1.36-3,5,5,0,0,1,6.63,0,3.92,3.92,0,0,1,1.36,3,4,4,0,0,1-1.36,3,5,5,0,0,1-6.63,0A4,4,0,0,1,200.09,28.51Z"/><path class="cls-2" d="M225.27,50.88c0,1.71.31,2.88.95,3.48a3.72,3.72,0,0,0,2.77.86A11.67,11.67,0,0,0,235.25,53V35.35h7.64V59.79h-7.64V57.56q-4.55,2.91-8.21,2.91-9.36,0-9.35-8.33V35.35h7.58Z"/><polyline class="cls-2" points="202.18 35.35 196.59 35.35 196.59 40.45 202.18 40.45"/><path class="cls-2" d="M122.18,14.11c-.05,1.05-.11,5.43-.12,6.89a11.35,11.35,0,0,1-2,0c0-1.07.11-5,.11-5.8,0-.29,0-.82-.07-1.17C120.53,14,121.62,14.06,122.18,14.11Zm5.92,3.72c0,3.47-.65,4.86-1.75,6.08A8.47,8.47,0,0,1,123,26.09a8.57,8.57,0,0,1-1.55-1.66,6.6,6.6,0,0,0,3.44-1.8c1-1.2,1.27-2.63,1.27-5.05,0-.73,0-1.37,0-2.15,0-.6-.06-1.06-.1-1.5a13.62,13.62,0,0,1,2.11.1c0,.41,0,1,0,1.35Z"/><path class="cls-2" d="M140.37,18.59c2.13,0,4.24,0,4.69-.06s.83,0,1.22,0a9.07,9.07,0,0,1,.07,1.82l-1.09,0c-.49,0-2.73,0-4.9,0,0,1.31,0,1.89,0,2.35s.21.91.77,1a14.27,14.27,0,0,0,4.58-.35,10,10,0,0,1-.21,1.95,16.71,16.71,0,0,1-5.25.14,2.11,2.11,0,0,1-1.83-2.31c0-.66,0-1.88,0-2.76l-2.41,0c-.38,0-1.11,0-1.57,0a10.64,10.64,0,0,1-.18-1.83l1.22.05c.45,0,1.59,0,2.94,0v-2.3l-1.58,0c-.23,0-.91,0-1.3,0a13.74,13.74,0,0,1-.19-1.78c.49,0,.72.05,1.24.05,1.28,0,5.81-.05,7-.08.5,0,.91,0,1.24-.08a11.54,11.54,0,0,1,.08,1.77l-4.56,0Z"/><path class="cls-2" d="M153,18.71c3.23,0,7.91-.06,9.57-.09a12.16,12.16,0,0,1,.07,2.1c-2.17-.08-9.87,0-11.82,0a14.43,14.43,0,0,1-.15-2.13C151.13,18.65,152.2,18.71,153,18.71Z"/><path class="cls-2" d="M171.09,19a8.3,8.3,0,0,1-.89,1.63,27.9,27.9,0,0,0-3.36-1.73,13.37,13.37,0,0,1,.85-1.65A23.21,23.21,0,0,1,171.09,19Zm1.23,3.37a13.12,13.12,0,0,0,5.23-5.65A5.48,5.48,0,0,1,179,18.39,16.39,16.39,0,0,1,173.31,24a18.24,18.24,0,0,1-4.22,1.8A5.62,5.62,0,0,1,167.77,24,13.21,13.21,0,0,0,172.32,22.41Zm.79-6.76a7.18,7.18,0,0,1-1,1.61,27.73,27.73,0,0,0-3.28-1.86,13.38,13.38,0,0,1,.9-1.61A28.5,28.5,0,0,1,173.11,15.65Zm4.89.11a3.2,3.2,0,0,1-.94.51A10.49,10.49,0,0,0,176,14.4a4.17,4.17,0,0,1,.92-.5A10.7,10.7,0,0,1,178,15.76Zm1.6-.79a4.09,4.09,0,0,1-.94.51,9.51,9.51,0,0,0-1-1.83,4.41,4.41,0,0,1,.92-.5A9.42,9.42,0,0,1,179.6,15Z"/><path class="cls-2" d="M193.1,23.31l.93,0c.05.36.06,1.47.06,1.74-.42,0-1.06,0-1.51,0l-7,.06h-1.06c-.06-.38-.1-1.39-.1-1.71l1.18,0c.42,0,2.51,0,4.38,0,.16-1.2.33-2.87.36-3.56l-3.47,0-1.07,0c-.06-.42-.11-1.53-.11-1.72l1,.06c.69,0,2.75,0,3.91-.05a6.1,6.1,0,0,0,.76-.07,5.32,5.32,0,0,1,.94.51c-.06.75-.32,3.2-.52,4.74Z"/><path class="cls-1" d="M22,44.14c0,6.06-11,21.94-11,21.94S0,50.2,0,44.14a11,11,0,1,1,22,0ZM11,40.25a3.83,3.83,0,1,0,3.83,3.83A3.82,3.82,0,0,0,11,40.25Z"/><path class="cls-1" d="M217.76,30.45h-3.4V22h3.19a2.14,2.14,0,0,1,1.92,3.4,1.33,1.33,0,0,1-1,.5,1.77,1.77,0,0,1,1.2.63,2.13,2.13,0,0,1,.44,1.36A2.44,2.44,0,0,1,217.76,30.45Zm-.08-7.11h-2v2.05h1.75a1,1,0,0,0,1.08-1.07A.88.88,0,0,0,217.68,23.34Zm.11,3.33h-2.08v2.46h1.92a1.16,1.16,0,0,0,1.15-1.27A1.06,1.06,0,0,0,217.79,26.67Z"/><path class="cls-1" d="M222.67,30.45V22h5.5v1.32H224v2.09h3.84v1.21H224v2.49h4.32v1.32Z"/><path class="cls-1" d="M234.14,23.34v7.11h-1.35V23.34h-2.58V22h6.52v1.32Z"/><path class="cls-1" d="M243.22,30.45l-.54-1.82h-3.06l-.54,1.82H237.6L240.39,22h1.52l2.79,8.43Zm-1.91-6.36-.16-.74-.16.74-1,3.24h2.27Z"/><text class="cls-3" transform="translate(253.06 35.47)"><tspan class="cls-4">オ</tspan><tspan class="cls-5" x="15.01" y="0">リ</tspan><tspan class="cls-6" x="30.01" y="0">ジ</tspan><tspan class="cls-7" x="46.18" y="0">ナ</tspan><tspan class="cls-8" x="61.29" y="0">ル</tspan><tspan class="cls-9" x="76.97" y="0">プ</tspan><tspan class="cls-10" x="92.77" y="0">ラ</tspan><tspan class="cls-11" x="107.26" y="0">ン</tspan><tspan class="cls-12" x="122.35" y="0">を</tspan><tspan class="cls-13" x="139.26" y="0">作</tspan><tspan class="cls-14" x="155.37" y="0">っ</tspan><tspan x="169.58" y="0">て</tspan><tspan class="cls-15" x="186.75" y="0">、</tspan><tspan class="cls-16" x="0" y="21.95">日</tspan><tspan class="cls-17" x="16.09" y="21.95">本</tspan><tspan class="cls-18" x="32.27" y="21.95">を</tspan><tspan class="cls-19" x="48.22" y="21.95">旅</tspan><tspan class="cls-20" x="63.88" y="21.95">し</tspan><tspan class="cls-21" x="79.09" y="21.95">よ</tspan><tspan class="cls-22" x="93.79" y="21.95">う</tspan><tspan x="106.1" y="21.95">！</tspan></text></g></g></svg>