<svg xmlns="http://www.w3.org/2000/svg" viewBox="0 0 228.47 108.64"><defs><style>.cls-1{fill:#ac2b39;}.cls-2{fill:#231815;}</style></defs><title>remoju-logo-pc-en</title><g id="レイヤー_2" data-name="レイヤー 2"><g id="レイヤー_1-2" data-name="レイヤー 1"><path class="cls-1" d="M21.65,100.1h0a5.76,5.76,0,0,0-1-.26c-.58-.13-1.92-2.73-.9-5.17A4.82,4.82,0,0,1,20.91,93c2.23-2,5.63-1.31,6.12-1.19a72.29,72.29,0,0,0,4.65-15c.94-4.9,1.16-9.57,1.58-18.71.25-5.44.37-9.95.42-13a78.6,78.6,0,0,1,9.47-1c5.4-.24,9.47-.42,14.41,1C61,46,64.79,47.11,68,50.7a17.93,17.93,0,0,1,4.28,11.2c.09,2,.31,7.22-3.48,11.66a15.35,15.35,0,0,1-8.25,4.87,39.6,39.6,0,0,0,6.11,7.32A43.56,43.56,0,0,0,76,92.37c-2.64,2.64-8.56,10.5-12.18,10.08-4.93-.7-4.6-5.75-2.5-8.53C54,88.6,48.48,79.31,48.48,79.31c-1,0-2.22,0-3,0l-2.84-.08a47.51,47.51,0,0,1-2.36,10.84,47.94,47.94,0,0,1-5.84,11.56,51.24,51.24,0,0,1-6.91-.29A33,33,0,0,1,21.65,100.1ZM43.5,69.63c1.24.06,3.47.46,4.44.49a33.94,33.94,0,0,0,5.16.11c6.44-.73,7.24-4.76,7.24-7.87,0-4.39-1.59-8.46-9.07-8.8-1.38-.06-3.71,0-4.17,0-1.18.07-2.25.12-2.93.2C43.93,59,43.73,64.41,43.5,69.63Z"/><path class="cls-2" d="M85.05,89.84a6.53,6.53,0,0,0,2.31,4.91,6,6,0,0,0,4.1,1.45c5.31,0,6.53-1,10.17-3.34l.28,5.38a21.78,21.78,0,0,1-11,2.55q-6.74,0-10.38-3.29-3.49-3.18-3.5-8.9t3.44-8.78q3.63-3.41,10.44-3.4,11.83,0,11.84,10.73v2.69Zm10.77-4.09q0-5.3-4.89-5.29t-5.55,5.29Z"/><path class="cls-2" d="M108.55,100.12V77.07h7.18v2a14.71,14.71,0,0,1,7.71-2.64q5.32,0,7.06,3a16.15,16.15,0,0,1,8.79-3q4.85,0,6.75,2.37a9.33,9.33,0,0,1,1.38,5.55v15.78h-7.3V85a4.92,4.92,0,0,0-.53-2.64,3.27,3.27,0,0,0-2.75-1,9.76,9.76,0,0,0-5.33,2,5.82,5.82,0,0,1,.06,1.18v15.57h-7.29V85a4.91,4.91,0,0,0-.54-2.64,3.26,3.26,0,0,0-2.75-1,9.23,9.23,0,0,0-5.26,1.94v16.81Z"/><path class="cls-2" d="M156.74,97.18a11.5,11.5,0,0,1-3.54-8.58q0-5.82,3.6-9,3.42-3.14,9.49-3.13t9.56,3.13q3.53,3.23,3.53,9a11.52,11.52,0,0,1-3.53,8.58,14.45,14.45,0,0,1-19.11,0Zm9.55-.54q5.67,0,5.66-8t-5.66-8q-5.65,0-5.66,8T166.29,96.64Z"/><path class="cls-2" d="M180.63,103.18c1.65.6,2.94,1.09,4.39.73,2.31-.57,3.75-1.26,3.75-4.88V76.83H196V99.46q0,9.18-9.5,9.18c-2.59,0-3.36.14-5.88-1.09Zm6.19-32.74a3.65,3.65,0,0,1,1.27-2.78,4.68,4.68,0,0,1,6.19,0,3.65,3.65,0,0,1,1.27,2.78,3.72,3.72,0,0,1-1.27,2.85,4.68,4.68,0,0,1-6.19,0A3.72,3.72,0,0,1,186.82,70.44Z"/><path class="cls-2" d="M210.33,91.33c0,1.6.29,2.69.88,3.26a3.52,3.52,0,0,0,2.6.8,11,11,0,0,0,5.84-2.08V76.83h7.13V99.65h-7.13V97.57a14.64,14.64,0,0,1-7.67,2.72q-8.73,0-8.73-7.78V76.83h7.08Z"/><polyline class="cls-2" points="188.77 76.83 183.56 76.83 183.56 81.6 188.77 81.6"/><path class="cls-1" d="M20.5,85c0,5.66-10.25,20.48-10.25,20.48S0,90.7,0,85a10.25,10.25,0,0,1,20.5,0ZM10.25,81.4A3.58,3.58,0,1,0,13.83,85,3.58,3.58,0,0,0,10.25,81.4Z"/><path class="cls-1" d="M203.31,72.25h-3.17V64.39h3c1.38,0,2.18.73,2.18,2a1.87,1.87,0,0,1-.39,1.21A1.22,1.22,0,0,1,204,68a1.68,1.68,0,0,1,1.12.58,2.05,2.05,0,0,1,.41,1.27A2.27,2.27,0,0,1,203.31,72.25Zm-.07-6.63H201.4v1.92H203a1,1,0,0,0,1-1A.82.82,0,0,0,203.24,65.62Zm.1,3.11H201.4V71h1.79a1.08,1.08,0,0,0,1.08-1.19A1,1,0,0,0,203.34,68.73Z"/><path class="cls-1" d="M207.9,72.25V64.39H213v1.23h-3.88v1.95h3.59V68.7h-3.59V71h4v1.22Z"/><path class="cls-1" d="M218.61,65.62v6.63h-1.25V65.62h-2.42V64.39H221v1.23Z"/><path class="cls-1" d="M227.09,72.25l-.51-1.69h-2.85l-.5,1.69h-1.39l2.61-7.86h1.42l2.6,7.86Zm-1.78-5.93-.15-.69-.16.69-.9,3h2.12Z"/><polyline class="cls-1" points="30.61 15.67 24.71 21.04 42.69 34.45"/><polyline class="cls-1" points="221.72 16.11 227.62 21.48 209.64 34.89"/><path class="cls-2" d="M59.69,36a1.06,1.06,0,0,1-1-.16,1.36,1.36,0,0,1-.4-.61,2.84,2.84,0,0,1-1.83,1.83,2,2,0,0,1-2.69-1.26c-.64-1.93,1.19-2.74,2.17-3.18.73-.32,1.31-.56,1-1.38s-1.11-.68-1.58-.52-1.4.61-1.15,1.59l-1.2.39c-.11-.75-.31-2.25,2.09-3,1.27-.42,2.63-.34,3.18,1.34l1.08,3.31c.09.29.25.52.57.42a.51.51,0,0,0,.27-.24l.3.93A2,2,0,0,1,59.69,36Zm-2.16-3.05c-.26.27-.38.34-1.51.91-.49.26-1.24.64-1,1.45a.94.94,0,0,0,1.25.57,2.12,2.12,0,0,0,1.51-2.08Z"/><path class="cls-2" d="M65.67,33.91l-1.25-4.39a1.27,1.27,0,0,0-1.61-1,2.07,2.07,0,0,0-1.16,2.63l1,3.59-1.3.37L59.5,28.59l1.24-.35.3.81a2.65,2.65,0,0,1,1.86-1.76,2.06,2.06,0,0,1,2.74,1.64L67,33.54Z"/><path class="cls-2" d="M72.1,22.48l2.27,9.21-1.22.3-.22-.7a2.43,2.43,0,0,1-1.77,1.51c-2.2.54-3.51-1.21-3.92-2.87s-.1-3.8,2.16-4.35a2.41,2.41,0,0,1,2.2.45l-.8-3.23ZM71,31.63c1.27-.31,1.57-1.6,1.24-2.93s-1.18-2.33-2.46-2-1.6,1.52-1.25,2.93S69.8,31.93,71,31.63Z"/><path class="cls-2" d="M85.21,23.85a.71.71,0,0,0-.43-.08c-.25.05-.48.34-.6.48.61,1.29-.35,2.79-2.14,3.12a3.65,3.65,0,0,1-.93,0c-.27.22-.33.36-.3.52a.21.21,0,0,0,.14.19,4.11,4.11,0,0,0,1.74,0c2.07-.26,3,.27,3.2,1.44.31,1.69-1.5,2.32-2.92,2.58-1,.19-3,.41-3.31-1a1.66,1.66,0,0,1,.8-1.62,1,1,0,0,1-1-.82,1.76,1.76,0,0,1,.65-1.49,2,2,0,0,1-1.25-1.48c-.21-1.14.68-2.35,2.29-2.65a3.05,3.05,0,0,1,2.25.38,1.77,1.77,0,0,1,1.06-.91,1.1,1.1,0,0,1,.51,0Zm-3.35,2.5c.94-.18,1.26-.82,1.15-1.41s-.77-1.06-1.63-.9-1.28.82-1.17,1.41S81,26.51,81.86,26.35Zm-1,4.19c.15.76,1.73.51,2.15.44,1-.19,1.57-.49,1.47-1.08s-1.08-.58-2.65-.45C81.5,29.6,80.75,30,80.85,30.54Z"/><path class="cls-2" d="M89.85,29.12c-1.81.27-3.29-.94-3.63-3.22S87,22,88.76,21.77s3.29,1,3.62,3.22S91.69,28.85,89.85,29.12Zm-.92-6.22c-1.26.18-1.57,1.49-1.37,2.81s.85,2.47,2.12,2.28,1.57-1.5,1.37-2.8S90.21,22.71,88.93,22.9Z"/><path class="cls-2" d="M99.14,24.54c.1.5.44,2.18,1.94,2a1.69,1.69,0,0,0,1.54-1.45l1.3-.12a2.89,2.89,0,0,1-2.68,2.74c-1.85.17-3.33-1.28-3.53-3.44s1-3.79,2.91-4a2.74,2.74,0,0,1,2.82,1.57,6,6,0,0,1,.53,2.18Zm1.53-3.05c-1.37.12-1.54,1.5-1.59,1.92l3.42-.32A1.7,1.7,0,0,0,100.67,21.49Z"/><path class="cls-2" d="M109.07,26.84l-1.61-2.2L106.14,27l-1.55.1,2-3.65-2.33-3.16,1.53-.09,1.48,2,1.22-2.19,1.53-.09-1.9,3.43,2.46,3.36Z"/><path class="cls-2" d="M111.57,28.82l-.27-8.93,1.25,0,.09.73a2.45,2.45,0,0,1,2-1.11c2.26-.06,3.16,1.92,3.22,3.63s-.7,3.74-3,3.81a2.44,2.44,0,0,1-2.07-.9l.08,2.77Zm3-8.17c-1.3,0-1.88,1.24-1.83,2.6s.68,2.54,2,2.5,1.88-1.14,1.84-2.61S115.83,20.61,114.58,20.65Z"/><path class="cls-2" d="M120.34,23.4c0,.51.2,2.22,1.71,2.23a1.67,1.67,0,0,0,1.68-1.28l1.31,0a2.89,2.89,0,0,1-3,2.45c-1.86,0-3.18-1.63-3.15-3.8s1.36-3.66,3.3-3.64a2.75,2.75,0,0,1,2.65,1.85,5.93,5.93,0,0,1,.29,2.23Zm1.84-2.87c-1.38,0-1.7,1.33-1.79,1.74l3.44,0A1.69,1.69,0,0,0,122.18,20.53Z"/><path class="cls-2" d="M128.54,21.24a2.83,2.83,0,0,0-.79,1.71l-.1,3.64-1.34,0,.19-6.81,1.27,0,0,.81a2.34,2.34,0,0,1,1.81-1.07.47.47,0,0,1,.21,0l0,1.29A1.76,1.76,0,0,0,128.54,21.24Z"/><path class="cls-2" d="M130.66,26.69l.3-6.8,1.34.06-.31,6.8Zm.36-8.14.06-1.34,1.34.06-.06,1.34Z"/><path class="cls-2" d="M134.92,23.82c0,.51.09,2.22,1.59,2.32A1.67,1.67,0,0,0,138.26,25l1.31.09a2.89,2.89,0,0,1-3.09,2.28c-1.85-.13-3.08-1.8-2.93-4s1.57-3.58,3.5-3.45a2.76,2.76,0,0,1,2.54,2,5.73,5.73,0,0,1,.17,2.24Zm2-2.77c-1.37-.09-1.76,1.24-1.88,1.65l3.44.23A1.72,1.72,0,0,0,136.92,21.05Z"/><path class="cls-2" d="M145.13,27.78l.47-4.54a1.27,1.27,0,0,0-1.13-1.5,2.07,2.07,0,0,0-2.06,2L142,27.46l-1.35-.13.7-6.78,1.28.13,0,.87a2.69,2.69,0,0,1,2.39-.94A2.06,2.06,0,0,1,147,23.15l-.49,4.77Z"/><path class="cls-2" d="M153.16,24.2a1.53,1.53,0,0,0-1.38-1.61c-.94-.13-2.1.31-2.39,2.37-.08.58-.21,2.49,1.51,2.73a1.55,1.55,0,0,0,1.91-1.31l1.32.18a2.84,2.84,0,0,1-3.44,2.23c-2.15-.29-2.92-2.21-2.66-4.12.32-2.3,1.87-3.49,3.88-3.22a2.81,2.81,0,0,1,2.6,2.93Z"/><path class="cls-2" d="M156.63,26.24c0,.51-.14,2.22,1.35,2.48a1.69,1.69,0,0,0,1.86-1l1.29.22a2.88,2.88,0,0,1-3.31,1.95c-1.83-.31-2.88-2.1-2.51-4.24s1.93-3.41,3.84-3.08a2.74,2.74,0,0,1,2.32,2.25,5.78,5.78,0,0,1-.06,2.25Zm2.28-2.55c-1.36-.23-1.88,1-2,1.44l3.4.59A1.7,1.7,0,0,0,158.91,23.69Z"/><path class="cls-2" d="M165.89,33.3a3,3,0,0,1-.7-.22l.23-1a1.13,1.13,0,0,0,.36.13c.42.09.83-.13,1-.73l1.5-6.77,1.3.29-1.43,6.48C167.7,33.28,167,33.54,165.89,33.3Zm2.63-9.94.29-1.3,1.31.29-.29,1.3Z"/><path class="cls-2" d="M174.49,33.49a1.08,1.08,0,0,1-.77-.68,1.48,1.48,0,0,1,0-.72,2.89,2.89,0,0,1-2.51.58,2,2,0,0,1-1.62-2.51c.49-2,2.47-1.68,3.54-1.53.78.11,1.4.21,1.61-.62s-.58-1.16-1.06-1.28-1.51-.23-1.82.74l-1.22-.31c.3-.7.93-2.07,3.38-1.46,1.3.32,2.4,1.11,2,2.82l-.84,3.39c-.07.29-.06.57.27.65a.47.47,0,0,0,.35-.06l-.24,1A2,2,0,0,1,174.49,33.49Zm-.2-3.74a4.54,4.54,0,0,1-1.77,0c-.55-.05-1.39-.12-1.59.7a.94.94,0,0,0,.76,1.15,2.11,2.11,0,0,0,2.38-1Z"/><path class="cls-2" d="M175.8,35.7l2.49-8.58,1.2.35-.14.72a2.43,2.43,0,0,1,2.29-.42c2.17.63,2.42,2.8,1.94,4.44s-1.81,3.34-4,2.7a2.44,2.44,0,0,1-1.69-1.5l-.78,2.66Zm5.37-6.85c-1.24-.36-2.16.61-2.54,1.92s-.13,2.61,1.12,3,2.14-.51,2.55-1.92S182.37,29.2,181.17,28.85Z"/><path class="cls-2" d="M188.63,37.79a1.08,1.08,0,0,1-.72-.73,1.42,1.42,0,0,1,0-.73,2.87,2.87,0,0,1-2.55.38A2,2,0,0,1,184,34.09c.65-1.93,2.59-1.48,3.64-1.25.78.17,1.39.32,1.66-.49s-.49-1.21-1-1.36-1.49-.35-1.87.59l-1.19-.4c.36-.67,1.09-2,3.48-1.19,1.27.42,2.31,1.29,1.75,3l-1.11,3.3c-.09.28-.1.57.22.68a.45.45,0,0,0,.35,0l-.31.93A2,2,0,0,1,188.63,37.79Zm.08-3.74a4.69,4.69,0,0,1-1.75-.16c-.55-.09-1.38-.23-1.65.57a.94.94,0,0,0,.67,1.21,2.12,2.12,0,0,0,2.45-.77Z"/><path class="cls-2" d="M194.66,39.68l1.61-4.27a1.27,1.27,0,0,0-.71-1.74,2.07,2.07,0,0,0-2.5,1.42l-1.32,3.49-1.27-.48,2.41-6.37,1.2.45-.24.84a2.63,2.63,0,0,1,2.54-.3,2.05,2.05,0,0,1,1.22,3l-1.69,4.48Z"/><path class="cls-2" d="M197.44,40.79l.51-1.23,1.3.53-.51,1.24Zm1.89-1.71-.74-.3,1.17-3.61,1.3-3.15,1.3.53-1.3,3.15Z"/><path class="cls-2" d="M57.72,16,55.86,9.7l-.25-1,.06,1-.16,6.94-1.6.47L50,11.36l-.48-.84.31,1,1.86,6.29-1.29.38L47.74,9l1.88-.55,4.18,6.12.47.77,0-.9.2-7.42,1.87-.55L59,15.61Z"/><path class="cls-2" d="M66.2,14.13a1,1,0,0,1-1-.24,1.33,1.33,0,0,1-.36-.63A2.85,2.85,0,0,1,62.9,15a2,2,0,0,1-2.6-1.45c-.49-2,1.39-2.64,2.4-3,.75-.27,1.34-.47,1.13-1.31s-1.06-.75-1.54-.63-1.44.5-1.26,1.5l-1.22.31c-.06-.76-.15-2.27,2.3-2.88,1.3-.32,2.64-.15,3.07,1.57L66,12.43c.07.29.22.54.54.46a.49.49,0,0,0,.29-.22l.23.95A2,2,0,0,1,66.2,14.13Zm-1.93-3.21a4.65,4.65,0,0,1-1.57.81c-.51.22-1.29.55-1.08,1.37a.94.94,0,0,0,1.21.66c1.07-.26,1.8-1.38,1.65-2Z"/><path class="cls-2" d="M72.18,12.48,69.64,9.56l-.62,1,.54,2.51-1.31.28-2-9.28,1.31-.28L68.68,9l1.87-3.11,1.61-.35L70.33,8.45l3.31,3.72Z"/><path class="cls-2" d="M75,8.77c.15.49.64,2.13,2.12,1.86A1.69,1.69,0,0,0,78.49,9l1.29-.24a2.89,2.89,0,0,1-2.42,3c-1.83.34-3.44-1-3.84-3.11s.63-3.86,2.54-4.21a2.7,2.7,0,0,1,3,1.3,5.73,5.73,0,0,1,.73,2.12Zm1.25-3.18c-1.36.25-1.4,1.64-1.42,2.06L78.19,7A1.71,1.71,0,0,0,76.22,5.59Z"/><path class="cls-2" d="M89,10.22c-.35,1.56-1.17,1.68-1.55,1.73a1.84,1.84,0,0,1-1.15-.17l-.15-1.1a1.18,1.18,0,0,0,.85.16c.4-.05.75-.26.91-1.08L84.71,3.32l1.38-.19,2.27,4.53,1-5,1.41-.19Z"/><path class="cls-2" d="M95.48,9.15c-1.82.19-3.25-1.08-3.49-3.37s.89-3.83,2.71-4,3.24,1.12,3.48,3.37S97.33,9,95.48,9.15Zm-.66-6.26c-1.27.13-1.63,1.43-1.49,2.75s.75,2.5,2,2.37S97,6.57,96.85,5.26,96.11,2.75,94.82,2.89Z"/><path class="cls-2" d="M104.46,8l-.13-.88a2.74,2.74,0,0,1-2.2,1.37,2.06,2.06,0,0,1-2.35-2.17l-.36-4.77,1.35-.11L101.11,6a1.28,1.28,0,0,0,1.36,1.3A2.11,2.11,0,0,0,104.16,5l-.28-3.71,1.34-.1.51,6.8Z"/><path class="cls-2" d="M109.23,2.39a2.86,2.86,0,0,0-.65,1.76l.18,3.64-1.34.07-.34-6.81L108.35,1l.11.8A2.32,2.32,0,0,1,110.18.58a.6.6,0,0,1,.21,0l.07,1.29A1.75,1.75,0,0,0,109.23,2.39Z"/><path class="cls-2" d="M119.2,7.79c-1.83,0-3.13-1.38-3.16-3.68S117.28.37,119.12.35s3.12,1.42,3.15,3.68S121.06,7.77,119.2,7.79Zm-.07-6.29c-1.27,0-1.75,1.26-1.74,2.59s.51,2.57,1.8,2.55,1.75-1.28,1.74-2.59S120.43,1.48,119.13,1.5Z"/><path class="cls-2" d="M130.45,7.61l-1.61,0-1-5.15-1.28,5.09-1.61,0L123.21.61l1.4,0,1.15,5.05,1.24-5,1.71,0,1,5.05,1.38-5,1.4,0Z"/><path class="cls-2" d="M138,8l.27-4.55A1.27,1.27,0,0,0,137.06,2a2.07,2.07,0,0,0-2,2.09l-.23,3.72-1.35-.08L133.92,1l1.29.07v.87a2.67,2.67,0,0,1,2.34-1,2.05,2.05,0,0,1,2,2.45l-.29,4.79Z"/><path class="cls-2" d="M147.62,9.17c-1.16-.12-1.44-.92-1.35-1.83l.44-4.24L145.6,3l.12-1.18,1.11.12L147,0l1.33.14-.2,1.92,1.17.13-.12,1.17L148,3.24l-.42,4.08c-.06.52.25.7.69.74l.41,0-.11,1A3.47,3.47,0,0,1,147.62,9.17Z"/><path class="cls-2" d="M152.54,4a2.85,2.85,0,0,0-.95,1.62l-.44,3.62-1.33-.16.82-6.77,1.27.16,0,.8a2.33,2.33,0,0,1,1.9-.89.67.67,0,0,1,.2.06l-.15,1.28A1.75,1.75,0,0,0,152.54,4Z"/><path class="cls-2" d="M159.33,10.7a1,1,0,0,1-.83-.59,1.4,1.4,0,0,1-.09-.72,2.86,2.86,0,0,1-2.45.82,2,2,0,0,1-1.85-2.34c.3-2,2.29-1.91,3.37-1.87.79,0,1.42.08,1.54-.77s-.69-1.1-1.18-1.17S156.32,4,156.1,5l-1.24-.18c.23-.73.72-2.16,3.22-1.79,1.32.2,2.5.87,2.24,2.62l-.51,3.45c0,.29,0,.57.33.62a.47.47,0,0,0,.34-.09l-.14,1A1.92,1.92,0,0,1,159.33,10.7ZM158.76,7a4.8,4.8,0,0,1-1.76.15c-.55,0-1.39,0-1.51.85a.94.94,0,0,0,.86,1.07,2.11,2.11,0,0,0,2.28-1.19Z"/><path class="cls-2" d="M164.29,11.24,163.06,11l-1.24-7.14,1.4.25L164,9.28l2.51-4.56,1.4.24Z"/><path class="cls-2" d="M169.33,9.06c-.05.5-.22,2.21,1.26,2.51a1.66,1.66,0,0,0,1.89-.93l1.29.27a2.89,2.89,0,0,1-3.37,1.83c-1.82-.38-2.81-2.2-2.37-4.33s2.05-3.33,3.95-2.93a2.72,2.72,0,0,1,2.23,2.32,5.7,5.7,0,0,1-.13,2.24Zm2.36-2.48c-1.35-.28-1.91,1-2.09,1.38l3.37.7A1.71,1.71,0,0,0,171.69,6.58Z"/><path class="cls-2" d="M175,13.42l2.15-9.24,1.31.3-2.15,9.25Z"/><path class="cls-2" d="M182,17.32l2.42-8.6,1.2.34-.13.72a2.45,2.45,0,0,1,2.28-.44c2.18.62,2.45,2.79,2,4.43s-1.78,3.35-4,2.73A2.42,2.42,0,0,1,184,15l-.75,2.66Zm5.32-6.89c-1.25-.35-2.16.62-2.53,1.94s-.11,2.61,1.14,3,2.14-.52,2.53-1.94S188.51,10.77,187.31,10.43Z"/><path class="cls-2" d="M190.38,17.54l2.8-9.07,1.28.4-2.81,9.07Z"/><path class="cls-2" d="M198.28,20.46a1.1,1.1,0,0,1-.71-.74,1.42,1.42,0,0,1,0-.73,2.87,2.87,0,0,1-2.56.37,2,2,0,0,1-1.4-2.63c.65-1.92,2.6-1.46,3.65-1.23.77.18,1.38.33,1.65-.48s-.48-1.21-.95-1.37-1.48-.35-1.87.59l-1.2-.41c.37-.67,1.1-2,3.49-1.18,1.27.43,2.31,1.3,1.74,3L199,18.93c-.09.28-.11.57.21.67a.47.47,0,0,0,.36,0l-.31.93A2.13,2.13,0,0,1,198.28,20.46Zm.1-3.75a4.51,4.51,0,0,1-1.76-.16c-.54-.09-1.37-.24-1.64.57a.94.94,0,0,0,.66,1.21,2.12,2.12,0,0,0,2.45-.77Z"/><path class="cls-2" d="M204.58,22.46l1.62-4.27a1.27,1.27,0,0,0-.7-1.74A2.07,2.07,0,0,0,203,17.86l-1.33,3.49-1.26-.48,2.41-6.37L204,15l-.25.83a2.65,2.65,0,0,1,2.55-.3,2.06,2.06,0,0,1,1.21,3l-1.7,4.49Z"/></g></g></svg>