<svg xmlns="http://www.w3.org/2000/svg" viewBox="0 0 386.48 113.82"><defs><style>.cls-1{fill:#231815;}.cls-2{fill:#b89b7e;}.cls-3{fill:none;}.cls-4{fill:#bb9e7f;}</style></defs><title>remoju-logo-nwi</title><g id="レイヤー_2" data-name="レイヤー 2"><g id="レイヤー_1-2" data-name="レイヤー 1"><path class="cls-1" d="M118.37,57.16q12.55,0,12.56,10,0,6.22-5.89,9.44T108.29,79.9c-.14,2.38-.2,4.26-.2,5.64q0,4.45,2,6.57a6.75,6.75,0,0,0,5.1,2.13,13,13,0,0,0,5.58-1.19,12.69,12.69,0,0,0,4-2.81,23.26,23.26,0,0,0,2.57-3.41c1.32-2.18,2-3.56,2-4.16l1.78.79a14.61,14.61,0,0,1-1.78,4.21,18,18,0,0,1-3.26,4.3,17.06,17.06,0,0,1-5.24,3.11,19.91,19.91,0,0,1-7.71,1.43q-8,0-12.11-3.8t-4.1-10.43q0-11.77,5.83-18.44T118.37,57.16Zm8.16,4.6a7.39,7.39,0,0,0-5.74-2.12q-3.81,0-7.41,4.54t-4.8,13.45q19.87-.09,19.87-10.48A7.75,7.75,0,0,0,126.53,61.76Z"/><path class="cls-1" d="M173.93,94.54c1.58,0,3.23-.93,4.95-2.77L180.36,93a6.08,6.08,0,0,1-3.07,2.47,12.47,12.47,0,0,1-5.24,1.08q-9,0-9-8.1a74.68,74.68,0,0,1,1.78-12.36q1.77-8.89,1.78-11.67c0-2.83-1.36-4.25-4.06-4.25q-6.12,0-10.28,15.72l-3.56,19.77H136.86l6.52-36.48a7.05,7.05,0,0,0-4.94,2.77L137,60.72a9.3,9.3,0,0,1,7.46-3.56q4.5,0,7,2.28a8.3,8.3,0,0,1,2.47,6.43v.29q3.85-9,11.67-9,5.53,0,8.75,3a12,12,0,0,1,3.51,8.45,23.05,23.05,0,0,1,4.74-8.45c1.92-2,4.68-3,8.31-3a11.67,11.67,0,0,1,8.7,3.32q3.26,3.32,3.26,9.14c0,2-.63,6-1.88,11.82a87.75,87.75,0,0,0-2.07,13.1c1.58,0,3.23-.93,4.94-2.77L205.27,93a6.1,6.1,0,0,1-3.06,2.47A12.5,12.5,0,0,1,197,96.51q-9,0-9-8.1a75.82,75.82,0,0,1,1.78-12.36,77,77,0,0,0,1.78-11.67q0-4.24-4.05-4.25-7.12,0-11.47,21.16A94.1,94.1,0,0,0,173.93,94.54Z"/><path class="cls-1" d="M213.87,92.71a12.78,12.78,0,0,1-4-9.59,40.93,40.93,0,0,1,1-9.89,27.87,27.87,0,0,1,3.41-7.91,15.82,15.82,0,0,1,7.17-6,28.92,28.92,0,0,1,12-2.18q7.17,0,11.17,3.81t4,10.43q0,11.28-6,18.19t-17.26,6.92Q217.84,96.51,213.87,92.71Zm7.22-6.38q0,7.9,4.6,7.91t8.21-8q3.6-7.95,3.6-18.93Q237.5,59,233,59t-8.21,7.57Q221.1,74.17,221.09,86.33Z"/><path class="cls-1" d="M260.15,58.05A71.81,71.81,0,0,0,271,57.46l1.29-.3q-1,5.34-3.22,17.75t-3.21,17.75q-1.87,10.57-6.77,15.87t-13.8,5.29a9.43,9.43,0,0,1-4.54-.89l.69-1.88a8.94,8.94,0,0,0,4.2.89,4.63,4.63,0,0,0,3.91-1.83q1.38-1.83,2.37-7.07,3.47-18.69,8-43.21H255.7l.19-1.78Z"/><path class="cls-2" d="M263.31,47.67a6.83,6.83,0,0,1-2.08-5,7,7,0,0,1,2.08-5.09,6.76,6.76,0,0,1,5-2.13,7.27,7.27,0,0,1,7.22,7.22,6.76,6.76,0,0,1-2.13,5,7,7,0,0,1-5.09,2.08A6.83,6.83,0,0,1,263.31,47.67Z"/><path class="cls-1" d="M282.29,59.14c-1.58,0-3.23.93-4.94,2.77l-1.49-1.19a6.13,6.13,0,0,1,3.07-2.47,12.5,12.5,0,0,1,5.24-1.09q9,0,9,8.11a75.82,75.82,0,0,1-1.78,12.36,77,77,0,0,0-1.78,11.67q0,4.24,4.05,4.25,2.86,0,5.59-3.36a29.8,29.8,0,0,0,4.69-9.3l4.15-22.84a67.73,67.73,0,0,0,10.68-.59l1.29-.3-6.63,37.38a7.05,7.05,0,0,0,4.95-2.77L319.86,93a9.27,9.27,0,0,1-7.41,3.55,10.15,10.15,0,0,1-6.93-2.17A8.05,8.05,0,0,1,303,88.21q-4.14,8.31-12.26,8.3-5.83,0-9.09-3.31t-3.26-9.14c0-2,.62-6,1.87-11.82A86.76,86.76,0,0,0,282.29,59.14Z"/><path class="cls-2" d="M100.23,113.66c-17.09,0-21-13.85-24.81-27.25-1.93-6.81-3.92-13.85-7.65-18.85a9.84,9.84,0,0,0-1.49-1.64c-.67-.63-1.2-1.13-1.24-1.68s.1-1.15,1.26-1.44c8.6-1,24.06-9.91,22.83-26.56-.53-7.19-5.21-13.61-12.87-17.68-7.67,9-10.55,24.26-13.34,39-2.22,11.71-4.51,23.82-9.21,32.63-5.75,10.83-15.33,17-26.31,17-12.28,0-15.51-6.32-15.68-8.53a2.51,2.51,0,0,1,.61-1.92,2.09,2.09,0,0,1,1.53-.66,2.22,2.22,0,0,1,2.27,2.09c.11,1.43,2.18,5.33,7.94,5.33,7.32,0,12.38-5.07,17.47-17.5C43.9,80.29,46,72.75,48.25,64.77c5.07-18,10.79-38.44,21.89-48.53a47.51,47.51,0,0,0-13-1.85c-14.46,0-29.8,6.45-39.07,16.44-6.31,6.78-9.34,14.54-8.75,22.43C9.81,60.61,13,69.37,25,69.37a12.23,12.23,0,0,0,9.13-3.57,8.85,8.85,0,0,0,2.44-6.59A6,6,0,0,0,35,55.6a5.42,5.42,0,0,1-1.39-3.12,3.88,3.88,0,0,1,.88-3,4,4,0,0,1,3-1.1c2.75,0,4.54,2,4.78,5.31a17.25,17.25,0,0,1-4.44,13.21A18.17,18.17,0,0,1,24.28,72.5c-14,0-23.3-7.67-24.21-20C-.51,44.56,2.39,36.93,8.45,30.4c10.4-11.19,29.84-18.72,48.37-18.72a83.4,83.4,0,0,1,17.25,1.66c4.86-2.62,9.2-3.9,13.28-3.9s8.46,1.21,8.59,2.93a2.56,2.56,0,0,1-.65,1.94,2.43,2.43,0,0,1-1.76.78,2.79,2.79,0,0,1-1.9-1.1,5.29,5.29,0,0,0-4.14-1.84c-2.55,0-4.89.83-7.72,2.76,13.25,4.23,21.5,12,22.16,20.85A21.69,21.69,0,0,1,96.44,52c-6.93,8-18.22,11.61-23,12.37,8.17,6.29,12.52,17,16.38,26.43,4.17,10.21,7.76,19,14.86,19a12.06,12.06,0,0,0,5.37-1.49l.34-.18,1.28,1.81-.37.25A17.59,17.59,0,0,1,100.23,113.66Z"/><path class="cls-1" d="M187.46,38.36a2.55,2.55,0,0,1,1.57.52c.26.17.45.4.45.57a.55.55,0,0,1-.18.37c-.13.14-.17.29-.17.64,0,1.07,0,2.32,0,4.19,0,.56-.21.78-.46.78s-.4-.14-.55-.46a2,2,0,0,1-.19-.75,2.58,2.58,0,0,1,.07-.51c0-.2,0-.37.06-.74,0-.86,0-2,0-3.07,0-.64-.16-.88-.82-1.23ZM193,38a2.76,2.76,0,0,1,.44,0,2.7,2.7,0,0,1,1.27.42c.31.16.56.38.56.56a.44.44,0,0,1-.2.35c-.18.15-.2.29-.21.71,0,1.29,0,2.52,0,3.69,0,2.51-.4,3.68-1.48,4.67a7.06,7.06,0,0,1-3.71,1.69l-.2-.36a7.75,7.75,0,0,0,3.19-2c.76-.83,1.11-1.85,1.11-4,0-1.07,0-2.46,0-4,0-.79-.16-1.06-.86-1.39Z"/><path class="cls-1" d="M205.4,46.78c0,.65.11,1,.35,1.16a2.34,2.34,0,0,0,1.3.24,7.34,7.34,0,0,0,1.53-.11l.5-.13a1.68,1.68,0,0,1,.37-.06,1.47,1.47,0,0,1,.65.18c.23.11.39.24.39.46s-.29.45-.68.53a14.65,14.65,0,0,1-2.55.16,3.71,3.71,0,0,1-2.23-.45,2.28,2.28,0,0,1-.62-1.9c0-.82,0-1.73,0-2.66-1.1.13-2.21.27-3.09.4a2.42,2.42,0,0,0-.76.24,1.18,1.18,0,0,1-.48.16c-.24,0-.47-.19-.71-.51a3.39,3.39,0,0,1-.59-1.22l.31-.2c.48.6.75.73,1.12.73a7.25,7.25,0,0,0,.75,0c1.15-.12,2.32-.27,3.45-.36V41c0-.44-.08-.63-.29-.79l-1,.15a2.48,2.48,0,0,0-.64.14,1.3,1.3,0,0,1-.43.11c-.21,0-.4-.16-.62-.45a3.47,3.47,0,0,1-.61-1.08l.27-.23c.58.61.82.69,1.33.69.27,0,.51,0,.88,0,.59-.06,1.26-.16,1.85-.21s1.44-.12,2.08-.19a2.46,2.46,0,0,0,.77-.19,1.26,1.26,0,0,1,.38-.1,1.54,1.54,0,0,1,.68.29c.32.23.51.42.51.61s-.1.27-.34.27-.46,0-.7,0a4.89,4.89,0,0,0-.67,0c-1.07.05-1.94.11-2.66.17l-.16,0,.47.22c.2.12.3.24.3.37a.33.33,0,0,1-.14.29c-.15.11-.18.17-.2.48,0,.54,0,1.09-.06,1.89,1.06-.1,2.14-.18,3.15-.24a2,2,0,0,0,1-.23,1.29,1.29,0,0,1,.42-.14,1.8,1.8,0,0,1,.81.37c.43.27.58.46.58.68s-.12.28-.39.28-.52,0-.83-.07-.81,0-1.29,0c-1,0-2.32.1-3.41.19Z"/><path class="cls-1" d="M214.46,42.87a1.83,1.83,0,0,0,1.47.74c.18,0,.42,0,.83,0,1.3-.08,2.5-.17,3.62-.22l3.82-.16a1.56,1.56,0,0,0,.72-.18,1.21,1.21,0,0,1,.45-.13c.16,0,.35.1.81.4s.64.56.64.76-.12.38-.43.38a6.91,6.91,0,0,1-1-.1c-.45,0-1.05-.06-1.84-.06s-2,0-3.18.06-2.41.16-3.45.28a2.09,2.09,0,0,0-.85.23,1,1,0,0,1-.48.16,1,1,0,0,1-.67-.41,3.57,3.57,0,0,1-.79-1.49Z"/><path class="cls-1" d="M229.63,42.38a5.29,5.29,0,0,1,2.75.33,1,1,0,0,1,.67.88.58.58,0,0,1-.59.61c-.19,0-.34-.05-.67-.33a5.31,5.31,0,0,0-2.26-1.16ZM241.17,41a17.29,17.29,0,0,1-2.88,3.84,25.69,25.69,0,0,1-4.76,3.75c-.59.39-.74.52-.88.74a.53.53,0,0,1-.46.29,1.49,1.49,0,0,1-.93-.61,2.52,2.52,0,0,1-.74-1.68l.31-.17c.44.67.73.88,1,.88a2,2,0,0,0,1-.39,26.34,26.34,0,0,0,4.76-3.5,34.27,34.27,0,0,0,3.25-3.44Zm-10.34-2.14a5.07,5.07,0,0,1,2.43.59c.51.29.75.59.75,1a.56.56,0,0,1-.58.61c-.24,0-.38-.08-.75-.48a5.62,5.62,0,0,0-2-1.37Zm7.27-1.23c1.83.57,2.48,1.26,2.48,1.79a.55.55,0,0,1-.53.57c-.27,0-.41-.16-.78-.7a5.73,5.73,0,0,0-1.39-1.39Zm1.41-1.12c1.89.4,2.65,1,2.65,1.59a.49.49,0,0,1-.51.53c-.22,0-.36-.09-.78-.61a5.38,5.38,0,0,0-1.54-1.19Z"/><path class="cls-1" d="M245.3,42.49c.4.38.56.48.82.48l.45,0c.84-.08,1.6-.13,2.48-.19a.81.81,0,0,0,.52-.16.44.44,0,0,1,.32-.16,1.37,1.37,0,0,1,.64.32c.4.27.58.43.58.6s-.1.24-.32.36-.21.17-.26.49c-.16,1.18-.3,2.35-.48,3.52a5.24,5.24,0,0,1,.56,0,3.17,3.17,0,0,0,1-.11,1.32,1.32,0,0,1,.36-.08,1.43,1.43,0,0,1,.66.32.83.83,0,0,1,.38.56c0,.19-.11.29-.33.29a7.26,7.26,0,0,1-.74-.08,9.46,9.46,0,0,0-1.2-.08c-.91,0-1.8,0-2.72,0-.75,0-1.83.16-2.75.27a2.21,2.21,0,0,0-.6.18,1.18,1.18,0,0,1-.42.12c-.14,0-.32-.12-.54-.43a2.21,2.21,0,0,1-.5-1.07l.29-.21c.42.5.64.64,1,.64l.65,0c.93-.1,2.05-.19,2.83-.24l1.15,0c.12-1.23.23-2.41.31-3.61,0-.21,0-.4,0-.56s0-.11-.11-.11l-.47,0q-1.08.09-2,.21a2.44,2.44,0,0,0-.5.14,1.23,1.23,0,0,1-.4.13c-.17,0-.3-.1-.53-.4a3,3,0,0,1-.44-.88Z"/><rect class="cls-3" x="0.07" width="386.4" height="113.66"/><path class="cls-4" d="M321.06,102.7l3,1.6a2.35,2.35,0,0,0-.23,1.19,1.91,1.91,0,0,0,2,1.9,2,2,0,0,0,1.67-1.88,2.64,2.64,0,0,0,1.53-1.42l16.77-35a2.42,2.42,0,0,0-.7-3.21l-.76-.4,9.93-16.79c.1.14.21.29.35.46a2.33,2.33,0,0,0-.06-1l.16-.26c0,.15.11.4.19.31a8.45,8.45,0,0,0,1.34-2.19,4.56,4.56,0,0,0-.07-1.32,7.76,7.76,0,0,1-.08-1.19,3.69,3.69,0,0,0,.82-.46s4.8-11.17,7.28-15.58a28.59,28.59,0,0,0,1.47,3.39c1.05,1.87,1.5,2,1.38,4.33-.07,1.52-3,6-2.56,7.07l.18.4c-.29.72-.65,1.59-1.1,2.68-1,2.38,1.53,4.52-.1,6.4s-6.52,10.76-5.92,11.08c.38.21,3.47,1.46,5.94,2.28-1.34,2.28-4.94,8.6-6,12.64-1.17,4.48-5.83,14.36-7,15.32s-1.12.33-1.55.75c0,0,0,.07-.07.07-2.11.43-1.48,4.76-2.1,6-.16.31,0,.22,0,.19.47-.38,1.75-3.76,1.59-2.78-.73,4.25,2.94,7.26,3.44,6.88s-.09-2.76-.32-4.74a11.35,11.35,0,0,1-.1-1.81c.11-1.71,1.92-5.4,4-9.42,1.46-2.77,8.18-15.08,12.21-22.47.5,0,1.08,0,1.69,0l.53,1.72s.58,10.73,2,15.18,4.69,14.94,4.46,16.65a2.83,2.83,0,0,1-.54,1.6,2.88,2.88,0,0,0-.09.45,3.9,3.9,0,0,0,.46,3.3,18.83,18.83,0,0,1,1.41,2.9c.15.21.31,0,.31,0,0-.56-1.16-4.12-.53-3.37,2.9,3.42,9,3.21,9.11,2.49s-4.93-3.11-6.21-4.35a4.4,4.4,0,0,1-.64-.71c-.91-1.27-1.81-5.45-2.68-10.16-.58-3.14-2.4-16.81-3.55-25.59.35-.09.91-.5.48-2.26-.19-.78-.51-17.34-.8-20.62l0-.36a5.12,5.12,0,0,0,.4-1.87,16.92,16.92,0,0,0,3,1.39c.55,0,.31-1.85.15-3.62.42,1.54.75,3.23,2.08,2.77.29-.09.42-5.78-.11-7.37a5.37,5.37,0,0,1-.2-1,7.38,7.38,0,0,0,1.95-1.61c.3-.41-.17-.84-.85-1.21A6.69,6.69,0,0,0,378,26.94a3,3,0,0,0-2.05-.05,6.07,6.07,0,0,1-2-.12,7.15,7.15,0,0,0-1.14-.06,3.9,3.9,0,0,0,.11-.68,9.65,9.65,0,0,0-2.51-3.64c-.7-2.37-1-3.75-1-3.75l-1.78.23a8,8,0,0,0-.31-.74,14,14,0,0,1-.56-1.88,3.27,3.27,0,0,0,.6,0c.47-.09.95-.25,1-.4s0-.84,0-.84.2-.09.18-.23-.18-.22-.18-.22l.13-.07s.16-.45,0-.43-.05,0-.13-.16.1-.18.23-.37.55-.69.38-.73a4.1,4.1,0,0,1-1.3-.67c-.08-.13,0-.36,0-.67a1.59,1.59,0,0,0-.28-1.16l.23.49s.19-.23.19-.24a1.06,1.06,0,0,0,0-.82,2.65,2.65,0,0,0-1.49-1.5c-.2-.06-1.74.1-1.59.3-.67-.89-2.56-.22-3.2.42-1.88,1.89-.52,3.82-1.2,4.87a4,4,0,0,1-.49.6,3.31,3.31,0,0,1-.53.45v0a.5.5,0,0,1,0-.27,0,0,0,0,1,0,0v0l0-.06a.28.28,0,0,1,.09-.1.43.43,0,0,1,.27-.06.32.32,0,0,0-.14,0,.42.42,0,0,0-.15,0,.38.38,0,0,0-.11.11.21.21,0,0,0,0,.06l0,0a0,0,0,0,0,0,0,.55.55,0,0,0,0,.31.64.64,0,0,1,0,.07l-.09.05-.07,0a2.48,2.48,0,0,1-.3-.25,1,1,0,0,1-.21-.33.76.76,0,0,1-.06-.37.75.75,0,0,1,.16-.35l0,0,0,0,.08-.06a.67.67,0,0,1,.18-.07.54.54,0,0,1,.39.1.42.42,0,0,0-.18-.11.49.49,0,0,0-.21,0,.47.47,0,0,0-.21.06l-.1.06,0,0,0,0a.73.73,0,0,0-.22.39.86.86,0,0,0,0,.45,1.09,1.09,0,0,0,.22.39,1.07,1.07,0,0,0,.18.19h-.08a.63.63,0,0,0-.19,0,.48.48,0,0,0-.16.12l-.06.08,0,0v0a1.59,1.59,0,0,1-.53,0,2.4,2.4,0,0,1-.38-.12,3.9,3.9,0,0,1-.35-.19,2.48,2.48,0,0,1-.3-.25l0,0a1.49,1.49,0,0,1,0-.21A.81.81,0,0,1,357,14l0,0,.05,0,.11-.07a.54.54,0,0,1,.25-.06.67.67,0,0,1,.48.18.68.68,0,0,0-.21-.17.65.65,0,0,0-.27-.08.54.54,0,0,0-.28,0,.31.31,0,0,0-.13.06l-.06,0-.06.05a1,1,0,0,0-.34.46s0,0,0,0l0-.07a.76.76,0,0,1-.06-.37.75.75,0,0,1,.16-.35l0,0,0,0,.08-.06a.67.67,0,0,1,.18-.07.55.55,0,0,1,.39.1.42.42,0,0,0-.18-.11.49.49,0,0,0-.21,0,.47.47,0,0,0-.21.06l-.1.06,0,0,0,0a.73.73,0,0,0-.22.39.86.86,0,0,0,0,.45,1.11,1.11,0,0,0,.14.29,2.45,2.45,0,0,0,0,.27,1.67,1.67,0,0,0,.23.53,2.54,2.54,0,0,0,.37.43,4,4,0,0,0,.4.32,2.32,2.32,0,0,1-1.38,0,3.82,3.82,0,0,1-.46-.21,4.15,4.15,0,0,1-.43-.3,2,2,0,0,1-.35-.36,1.3,1.3,0,0,1-.22-.44.91.91,0,0,1,0-.49.81.81,0,0,1,.26-.42l0,0,.06,0,.1-.07a.54.54,0,0,1,.25-.06.67.67,0,0,1,.48.18.68.68,0,0,0-.21-.17.65.65,0,0,0-.27-.08.54.54,0,0,0-.28,0,.31.31,0,0,0-.13.06l-.06,0-.06.05a1,1,0,0,0-.33.46,1.18,1.18,0,0,0,0,.59,1.67,1.67,0,0,0,.23.53,2.54,2.54,0,0,0,.37.43,3.87,3.87,0,0,0,.45.35,3.06,3.06,0,0,0,.51.26,2.56,2.56,0,0,0,.56.15l.21,0h.29a.74.74,0,0,0,0,1,.93.93,0,0,0,.13.15,3.9,3.9,0,0,1-.53.09H356l-.12,0h0l-.1,0h0l-.11,0h0l0,0-.06,0,0,0-.09-.06h0a.23.23,0,0,1-.07-.07h0l-.07-.09h0a.76.76,0,0,1,.11-.14,1.08,1.08,0,0,1,.24-.18.73.73,0,0,1,.29-.07.43.43,0,0,1,.29.07.49.49,0,0,1,.17.25.88.88,0,0,0-.05-.15.45.45,0,0,0-.11-.13.45.45,0,0,0-.3-.1.77.77,0,0,0-.33.06,1.17,1.17,0,0,0-.28.17l-.09.1a.7.7,0,0,1-.07-.4c0-.22.31-.41.51-.27a.16.16,0,0,1,.07.09.17.17,0,0,1,0,.12.14.14,0,0,0,0-.06v-.06a.26.26,0,0,0-.07-.11.39.39,0,0,0-.11-.06c-.53-.08-.8.47-.48,1a.69.69,0,0,0-.05.24,1,1,0,0,0,.07.34,2.1,2.1,0,0,0,.15.3l.21.25a2.73,2.73,0,0,0,.25.23l.23.17-.45.08a2.34,2.34,0,0,1-.59,0,1.91,1.91,0,0,1-.58-.15,2,2,0,0,1-.52-.29,2,2,0,0,1-.44-.42.93.93,0,0,1-.22-.52.57.57,0,0,1,0-.29.63.63,0,0,1,.16-.24,1.08,1.08,0,0,1,.24-.18.73.73,0,0,1,.29-.07.43.43,0,0,1,.29.07.49.49,0,0,1,.17.25.88.88,0,0,0-.05-.15.45.45,0,0,0-.11-.13.45.45,0,0,0-.3-.1.77.77,0,0,0-.33.06,1.17,1.17,0,0,0-.28.17,1.05,1.05,0,0,0-.2.27.81.81,0,0,0-.08.34,1,1,0,0,0,.07.34,2.1,2.1,0,0,0,.15.3l.21.25a2.73,2.73,0,0,0,.25.23,2.3,2.3,0,0,0,.56.35,1.66,1.66,0,0,0,.31.12,1.94,1.94,0,0,0,.33.07,2.43,2.43,0,0,0,.66,0l.4-.05H356l.22-.05.06,0h.06l.18.06a1.94,1.94,0,0,0,.33.07,2.08,2.08,0,0,0,.43,0,.69.69,0,0,0-.05.13.32.32,0,0,0,0,.17.51.51,0,0,0,.07.15.43.43,0,0,0,.11.12.71.71,0,0,0,.31.13l.16,0H358l.32,0a1.67,1.67,0,0,0,.32-.08L359,20h0a7.93,7.93,0,0,1-1.46,1,5,5,0,0,1-.71.32.71.71,0,0,1-.32-.6.59.59,0,0,1,.07-.26.52.52,0,0,1,.2-.19.69.69,0,0,1,.28-.08.71.71,0,0,0-.29.05.55.55,0,0,0-.24.19.56.56,0,0,0-.1.28.8.8,0,0,0,0,.31,1.08,1.08,0,0,0,.15.28.46.46,0,0,0,.07.07l-.18.06a3.69,3.69,0,0,1-.56.11l-.28,0h-.28a1.27,1.27,0,0,1-.51-.16.92.92,0,0,1-.36-.4.86.86,0,0,1-.05-.27.59.59,0,0,1,.07-.26.52.52,0,0,1,.2-.19.69.69,0,0,1,.28-.08.71.71,0,0,0-.29.05.55.55,0,0,0-.24.19.56.56,0,0,0-.1.28.8.8,0,0,0,0,.31,1,1,0,0,0,.37.49,1.47,1.47,0,0,0,.58.23l.3,0h.3a3.09,3.09,0,0,0,.6-.08,2.36,2.36,0,0,0,.38-.1,1.63,1.63,0,0,0,.47.16l.3,0h.3a3.09,3.09,0,0,0,.6-.08,5.32,5.32,0,0,0,.57-.16,4.56,4.56,0,0,0,.55-.24,7.15,7.15,0,0,0,1-.61l.2-.15.37-.21.57-.36.31-.23a.42.42,0,0,0,.09.14.57.57,0,0,0,.18.12c-.3.2-.48.39-.49.58-1,1.52-.87,5-1.58,6.71-1.17,2.78-5.61,14.27-6.14,15.21a2,2,0,0,0,.31.73c-.8,1.27-2,3.46-1.36,4.08a4.32,4.32,0,0,1,.46.55L343.51,65.05,340,63.18a2.17,2.17,0,0,0-2.86,1.31l-16.77,35A2.41,2.41,0,0,0,321.06,102.7Zm38.21-82.36.29-.18a.68.68,0,0,0,.2.07l.16,0h.16l.32,0a1.87,1.87,0,0,0,.32-.08l.18-.07.09,0a8,8,0,0,1-1.42,1,4.83,4.83,0,0,1-1.05.43,3.35,3.35,0,0,1-.55.11l-.28,0h-.28l-.25,0c.17-.06.34-.14.51-.22a7.63,7.63,0,0,0,1-.61l.2-.15Zm1.11-.25a1.54,1.54,0,0,1-.3,0h-.3l-.14,0,.19-.12.31-.23a.67.67,0,0,0,.09.14.57.57,0,0,0,.18.12l.09,0Zm-1-.52h0l-.11.07a.36.36,0,0,1,0-.11.27.27,0,0,1,.11-.1.28.28,0,0,1,.13,0Zm-2.12,0h.19l.4-.05H358l.22-.05h0l.06,0h0l.16,0h0l.08,0h0l.15-.05h0l.12,0h0l.13-.05h0l.11-.05h0l.09,0h0l.12-.05h0l.3-.14h0l0,0h.13a.86.86,0,0,0,.23-.06l.2-.07c-.22.26-.45.5-.6.66a.35.35,0,0,0-.14,0,.38.38,0,0,0-.13.09.39.39,0,0,0-.06.15h0l0,0-.07,0-.08.05-.16.09a3.28,3.28,0,0,1-.57.21,1.54,1.54,0,0,1-.3,0h-.3a.56.56,0,0,1-.28-.1.43.43,0,0,1-.18-.22.22.22,0,0,1,0-.14A.23.23,0,0,1,357.29,19.53Zm2.14-1.74.23-.17.22.05Zm.35.44c-.23.16-.48.31-.73.45a1.6,1.6,0,0,1-.37-.12.61.61,0,0,1-.24-.18l.13-.06A6.46,6.46,0,0,0,359.78,18.23Zm-3,1,.09,0h0l.11-.05h0l.09,0h0l.12-.05h0l.3-.14h0l0,0h0l.14-.07h0l.24-.14h0l.23-.14h0l.14-.07.09.1a1.15,1.15,0,0,0,.19.14l.22.1h0l-.18.09a4.64,4.64,0,0,1-1.21.34,2.41,2.41,0,0,1-.6,0Zm.92-1a6.89,6.89,0,0,1-1.12.64l-.43.16a2.22,2.22,0,0,1-.42-.25,2,2,0,0,1-.44-.42.93.93,0,0,1-.22-.52.21.21,0,0,1,0-.08,1.87,1.87,0,0,0,1.11.53A5.9,5.9,0,0,0,357.73,18.23Zm.54-2.32-.37.19-.18-.09a4.15,4.15,0,0,1-.43-.3,2,2,0,0,1-.35-.36,1.27,1.27,0,0,1-.2-.38l.15.12a2.85,2.85,0,0,0,.37.23,1.92,1.92,0,0,0,.42.16,2.13,2.13,0,0,0,.44.07h.07a.85.85,0,0,0,.08.37Zm.36.77.21,0h.46a3.92,3.92,0,0,1-.76.64,3.22,3.22,0,0,1-1,.41l0,0,0,0-.09-.06h0a.23.23,0,0,1-.07-.07h0l-.07-.09a.78.78,0,0,1-.14-.53.42.42,0,0,1,.16-.25h.1l.19,0,.06,0a.22.22,0,0,1,.07.09.17.17,0,0,1,0,.12.14.14,0,0,0,0-.06v-.06a.26.26,0,0,0-.07-.11l0,0h0c.15,0,.32,0,.49-.08A3.07,3.07,0,0,0,358.63,16.68Zm.29-1.61a1.87,1.87,0,0,1-.55.18h0l.05-.08a.5.5,0,0,1,.13-.12.49.49,0,0,1,.27,0A.39.39,0,0,0,358.92,15.07Zm.11.29-.09.09a5.52,5.52,0,0,1-.55.4.46.46,0,0,1-.08-.19.49.49,0,0,1,0-.12A1.87,1.87,0,0,0,359,15.36Zm.82.14a2.65,2.65,0,0,1-.24.72,2.74,2.74,0,0,1-.39.09l-.13,0-.11,0a2.88,2.88,0,0,0,.85-.76Zm1,.87a1.09,1.09,0,0,0,.25.1h.05q-.06.25-.12.48a3.46,3.46,0,0,1-.34.25l-.08.05h0l0,0h0l0,0-.08,0,0,0-.06,0h-.43A7.58,7.58,0,0,0,360.84,16.37Zm.38-.23a.83.83,0,0,1,0,.15h0l-.11,0Zm0,2.72a1.06,1.06,0,0,0,.31,0l.23,0a.86.86,0,0,0,.23-.06l.2-.07c-.34.41-.73.8-.77.84h0l-.2.13-.08,0-.07.05-.16.09-.23.1h-.09a.54.54,0,0,1-.34-.14.52.52,0,0,1-.1-.11l.19-.14.53-.41Zm.56-.51a.62.62,0,0,0,.23,0l.1,0,.11,0,.19-.12.17-.15.15-.17h0l-.21.44a1.3,1.3,0,0,1-.23.18,1.5,1.5,0,0,1-.38.19,1.8,1.8,0,0,1-.4.1h-.13c.13-.12.26-.24.38-.37Zm.73-.76.31-.13,0,0c0,.08-.1.16-.15.24a2.13,2.13,0,0,1-.29.31,1.77,1.77,0,0,1-.17.12l-.1,0-.05,0h0a.45.45,0,0,1-.16,0l0,0c.16-.16.31-.32.46-.49l.12-.15Zm.53-.82L363,17l-.18.14Zm1.2,1.39h0l-.1,0-.05,0h0l-.16,0,0,0,.3-.32ZM362.56,20a.59.59,0,0,1-.22-.12.52.52,0,0,1-.1-.11l.19-.14.53-.41c.31-.26.61-.54.9-.83h0a.62.62,0,0,0,.23,0l.1,0,.09,0a2.32,2.32,0,0,1,0,.5l-.09.14a2.35,2.35,0,0,1-.19.25C363.5,19.43,363,19.69,362.56,20ZM354.35,46.7a.56.56,0,0,1,.07-.24c.5-.85.92-1.45,1.14-1.06a.84.84,0,0,1,.07.16c.08.25-.15.66-.4,1.09a.48.48,0,0,0-.2-.2.4.4,0,0,0-.57.06Z"/></g></g></svg>