<svg xmlns="http://www.w3.org/2000/svg" width="136.542" height="32.458" viewBox="0 0 136.542 32.458"><defs><style>.a{fill:#fff;}</style></defs><g transform="translate(-103.579 297.411)"><path class="a" d="M272.655,495.958V481.714h4.433v1.231a9.093,9.093,0,0,1,4.766-1.631q3.288,0,4.36,1.864a9.977,9.977,0,0,1,5.43-1.864q2.992,0,4.175,1.464a5.786,5.786,0,0,1,.85,3.428v9.751h-4.507v-9.352a3.039,3.039,0,0,0-.333-1.631,2.005,2.005,0,0,0-1.7-.6,6.013,6.013,0,0,0-3.288,1.232,3.72,3.72,0,0,1,.037.732v9.618h-4.507v-9.352a3.039,3.039,0,0,0-.332-1.631,2.005,2.005,0,0,0-1.7-.6,5.7,5.7,0,0,0-3.251,1.2v10.383Z" transform="translate(-105.582 -766.178)"/><path class="a" d="M343.508,494.14a7.827,7.827,0,0,1,.036-10.892,9.927,9.927,0,0,1,11.769,0,7.2,7.2,0,0,1,2.186,5.6,7.1,7.1,0,0,1-2.186,5.3,8.922,8.922,0,0,1-11.806,0Zm5.9-.333q3.5,0,3.5-4.963,0-4.93-3.5-4.93t-3.5,4.93Q345.912,493.808,349.41,493.806Z" transform="translate(-146.664 -766.178)"/><path class="a" d="M383.472,488.708a4.566,4.566,0,0,0,2.712.452c1.426-.35,2.318-.781,2.318-3.013V472.431h4.445v13.98q0,5.669-5.866,5.669a6.134,6.134,0,0,1-3.635-.672Zm3.826-20.226a2.266,2.266,0,0,1,.784-1.722,2.89,2.89,0,0,1,3.826,0,2.267,2.267,0,0,1,.783,1.722,2.3,2.3,0,0,1-.783,1.757,2.893,2.893,0,0,1-3.826,0A2.3,2.3,0,0,1,387.3,468.482Z" transform="translate(-171.866 -757.038)"/><path class="a" d="M422.674,490.912a2.791,2.791,0,0,0,.547,2.009,2.157,2.157,0,0,0,1.6.494,6.743,6.743,0,0,0,3.607-1.284V481.953h4.409v14.1h-4.409v-1.285a9.023,9.023,0,0,1-4.737,1.68q-5.393,0-5.393-4.809v-9.684h4.372Z" transform="translate(-192.719 -766.56)"/><path class="a" d="M121.781,486.847c0,4.443-8.043,16.077-8.043,16.077s-8.044-11.634-8.044-16.077a8.043,8.043,0,0,1,16.087,0ZM113.738,484a2.807,2.807,0,1,0,2.807,2.807A2.807,2.807,0,0,0,113.738,484Z" transform="translate(-2.115 -769.805)"/><path class="a" d="M136.573,458.674l-.008,0a3.3,3.3,0,0,0-.491-.129,2.285,2.285,0,0,1-.442-2.525,2.393,2.393,0,0,1,.581-.83,3.491,3.491,0,0,1,2.99-.582,35.252,35.252,0,0,0,2.27-7.336,63.8,63.8,0,0,0,.775-9.136c.122-2.66.177-4.86.2-6.369a37.9,37.9,0,0,1,4.625-.494,20.04,20.04,0,0,1,7.041.493,9.76,9.76,0,0,1,5.083,2.78,8.781,8.781,0,0,1,2.093,5.472,7.938,7.938,0,0,1-1.7,5.7,7.51,7.51,0,0,1-4.027,2.382,19.372,19.372,0,0,0,2.984,3.571,21.264,21.264,0,0,0,4.578,3.235c-1.291,1.29-4.182,5.132-5.949,4.923-2.412-.341-2.248-2.809-1.224-4.165a27.688,27.688,0,0,1-6.27-7.138c-.492,0-1.085.015-1.461,0s-.376-.015-1.386-.039a23.274,23.274,0,0,1-4.005,10.942,24.646,24.646,0,0,1-3.377-.138A16.072,16.072,0,0,1,136.573,458.674Zm10.673-14.88c.608.03,1.694.221,2.172.236a16.7,16.7,0,0,0,2.519.055c3.144-.356,3.538-2.325,3.538-3.844,0-2.145-.778-4.132-4.433-4.3-.672-.03-1.809-.01-2.035,0-.576.03-1.1.059-1.432.095C147.459,438.59,147.361,441.243,147.246,443.794Z" transform="translate(-16.164 -728.6)"/><path class="a" d="M229.14,489.609a4.031,4.031,0,0,0,1.43,3.031,3.693,3.693,0,0,0,2.533.9c3.281,0,4.035-.6,6.282-2.066l.175,3.324a13.448,13.448,0,0,1-6.784,1.573,9.235,9.235,0,0,1-6.414-2.032,7.043,7.043,0,0,1-2.165-5.5,6.967,6.967,0,0,1,2.124-5.43q2.246-2.1,6.455-2.1,7.312,0,7.313,6.629v1.666Zm6.659-2.532q0-3.264-3.023-3.264-2.982,0-3.432,3.264Z" transform="translate(-76.591 -766.178)"/></g></svg>