<svg width="21" height="21" viewBox="0 0 21 21" fill="none" xmlns="http://www.w3.org/2000/svg">
<path d="M10.5 21C16.299 21 21 16.299 21 10.5C21 4.70101 16.299 0 10.5 0C4.70101 0 0 4.70101 0 10.5C0 16.299 4.70101 21 10.5 21Z" fill="#B7B7B7"/>
<path d="M10.5 20.5C16.0228 20.5 20.5 16.0228 20.5 10.5C20.5 4.97715 16.0228 0.5 10.5 0.5C4.97715 0.5 0.5 4.97715 0.5 10.5C0.5 16.0228 4.97715 20.5 10.5 20.5Z" fill="#B7B7B7"/>
<path d="M6.65002 6.64999L14.35 14.35" stroke="white" stroke-linecap="round"/>
<path d="M14.35 6.64999L6.65002 14.35" stroke="white" stroke-linecap="round"/>
</svg>
