<svg xmlns="http://www.w3.org/2000/svg" viewBox="0 0 140 56.32"><defs><style>.cls-1{fill:#eb7c7f;}.cls-2,.cls-4{fill:#fff;}.cls-3{fill:#de2529;}.cls-4{font-size:22px;font-family:NotoSansCJKjp-Medium-83pv-RKSJ-H, Noto Sans CJK JP;}</style></defs><g id="レイヤー_2" data-name="レイヤー 2"><g id="contents_03"><g id="goal"><rect class="cls-1" width="140" height="48" rx="24"/><g id="keiro"><path class="cls-2" d="M25.1,31.05a69.5,69.5,0,0,0,4.54-6.31,4.93,4.93,0,0,0-1-5.83,5.07,5.07,0,0,0-7.16,0,5,5,0,0,0-1,5.83A69.5,69.5,0,0,0,25.1,31.05Zm0-11.63A3.08,3.08,0,1,1,22,22.49,3.07,3.07,0,0,1,25.1,19.42Z"/><path class="cls-3" d="M55.39,24.7a68.62,68.62,0,0,0,4.54-6.32,4.94,4.94,0,0,0-1-5.82,5,5,0,0,0-7.15,0,4.92,4.92,0,0,0-1,5.82A66.7,66.7,0,0,0,55.39,24.7Zm0-11.64a3.08,3.08,0,1,1-3.08,3.08A3.08,3.08,0,0,1,55.39,13.06Z"/><path class="cls-2" d="M25.43,37.07a1.32,1.32,0,0,1-.35-2.59l4.26-1.15A1.32,1.32,0,1,1,30,35.89L25.77,37A1.37,1.37,0,0,1,25.43,37.07Zm8.51-2.28a1.32,1.32,0,0,1-.34-2.6l4.25-1.14a1.33,1.33,0,0,1,.69,2.56l-4.26,1.14A1.32,1.32,0,0,1,33.94,34.79Zm8.51-2.28a1.32,1.32,0,0,1-.34-2.6l4.26-1.14a1.32,1.32,0,0,1,.68,2.56l-4.26,1.14A1.32,1.32,0,0,1,42.45,32.51ZM51,30.23a1.32,1.32,0,0,1-.34-2.6l4.26-1.14a1.32,1.32,0,0,1,1.62.94A1.31,1.31,0,0,1,55.56,29l-4.25,1.15A1.39,1.39,0,0,1,51,30.23Z"/></g><text class="cls-4" transform="translate(71.31 33.29)">Goal</text></g></g></g></svg>