<svg xmlns="http://www.w3.org/2000/svg" viewBox="0 0 140 54.43"><defs><style>.cls-1{fill:#ede7e3;}.cls-2,.cls-3{fill:#beb8b4;}.cls-3{font-size:22px;font-family:NotoSansCJKjp-Medium-83pv-RKSJ-H, Noto Sans CJK JP;}</style></defs><g id="レイヤー_2" data-name="レイヤー 2"><g id="contents_02"><g id="none"><path class="cls-1" d="M24,47.5a23.5,23.5,0,0,1,0-47h92a23.5,23.5,0,0,1,0,47Z"/><path class="cls-2" d="M116,1a23,23,0,0,1,0,46H24A23,23,0,0,1,24,1h92m0-1H24a24,24,0,0,0,0,48h92a24,24,0,0,0,0-48Z"/><g id="keiro"><path class="cls-2" d="M25.1,30.94a68.62,68.62,0,0,0,4.54-6.32,4.92,4.92,0,0,0-1-5.82,5.07,5.07,0,0,0-7.16,0,5,5,0,0,0-1,5.82A68.62,68.62,0,0,0,25.1,30.94Zm0-11.63A3.08,3.08,0,1,1,22,22.38,3.07,3.07,0,0,1,25.1,19.31Z"/><path class="cls-2" d="M55.39,24.58a69.5,69.5,0,0,0,4.54-6.31,5,5,0,0,0-1-5.83,5.06,5.06,0,0,0-7.15,0,4.93,4.93,0,0,0-1,5.83A67.53,67.53,0,0,0,55.39,24.58Zm0-11.63A3.08,3.08,0,1,1,52.31,16,3.08,3.08,0,0,1,55.39,13Z"/><path class="cls-2" d="M25.43,37a1.32,1.32,0,0,1-.35-2.6l4.26-1.14A1.32,1.32,0,0,1,30,35.78l-4.25,1.14A1.37,1.37,0,0,1,25.43,37Zm8.51-2.28a1.32,1.32,0,0,1-.34-2.6l4.25-1.14a1.33,1.33,0,0,1,.69,2.56l-4.26,1.14A1.32,1.32,0,0,1,33.94,34.68Zm8.51-2.28a1.32,1.32,0,0,1-.34-2.6l4.26-1.14a1.32,1.32,0,1,1,.68,2.55l-4.26,1.15A1.32,1.32,0,0,1,42.45,32.4ZM51,30.12a1.32,1.32,0,0,1-.34-2.6l4.26-1.14a1.32,1.32,0,1,1,.68,2.55l-4.25,1.14A1.41,1.41,0,0,1,51,30.12Z"/></g><text class="cls-3" transform="translate(83.59 31.4)">---</text></g></g></g></svg>