<svg xmlns="http://www.w3.org/2000/svg" width="32.735" height="42" viewBox="0 0 32.735 42">
  <g id="save_plan" transform="translate(-1670.17 -3924.095)">
    <path id="パス_1772" data-name="パス 1772" d="M1699.367,3946.176a2.744,2.744,0,0,0-.514-.265q-.522.6-.951,1.065a1.466,1.466,0,0,1,1.409,1.465v14.922a1.466,1.466,0,0,1-.649,1.221,1.466,1.466,0,0,1-.822.25h-3.5v-14.881a2.793,2.793,0,0,1-.645.078,3.456,3.456,0,0,1-2.542-1.332v16.135h-11.565v-17.865h9.909c-.34-.37-.718-.795-1.118-1.26H1672.9a2.731,2.731,0,0,0-2.731,2.732v14.922a2.731,2.731,0,0,0,2.731,2.732h24.939a2.731,2.731,0,0,0,2.732-2.732v-14.922a2.733,2.733,0,0,0-1.205-2.265Zm-22.966,18.658h-3.5a1.465,1.465,0,0,1-.572-.115,1.486,1.486,0,0,1-.649-.534,1.461,1.461,0,0,1-.25-.822v-14.922a1.451,1.451,0,0,1,.115-.573,1.489,1.489,0,0,1,.534-.648,1.457,1.457,0,0,1,.822-.251h3.5Z" fill="#fff"/>
    <path id="パス_1773" data-name="パス 1773" d="M1680.849,3943.3v1.483h1.927V3943.6c0-.291.4-.479.642-.543a7.8,7.8,0,0,1,1.952-.124s.344-.019.774-.01c-.542-.734-1.016-1.44-1.445-2.127C1681.052,3940.92,1680.849,3942.109,1680.849,3943.3Z" fill="#fff"/>
    <path id="パス_1774" data-name="パス 1774" d="M1700.155,3926.77a9.14,9.14,0,0,0-12.922,0,8.912,8.912,0,0,0-1.734,10.51,92.149,92.149,0,0,0,7.561,10.254.822.822,0,0,0,1.271,0,92.165,92.165,0,0,0,7.56-10.254A8.908,8.908,0,0,0,1700.155,3926.77Z" fill="#fff"/>
    <path id="パス_1775" data-name="パス 1775" d="M1698.774,3930.215l-4.445,7.7a2.008,2.008,0,0,1-.328.424l-.041.041a1.029,1.029,0,0,1-.191.164,1.984,1.984,0,0,1-.53.277,1.931,1.931,0,0,1-.5.1c-.026,0-.05.007-.076.008a1.994,1.994,0,0,1-.523-.042l-.08-.02a1.918,1.918,0,0,1-.473-.183.415.415,0,0,1-.044-.03,1.886,1.886,0,0,1-.4-.277l-1.942-1.956a1.971,1.971,0,0,1,0-2.8l.041-.041,3.323,3.323,3.419-5.95A2.039,2.039,0,0,1,1698.774,3930.215Z" fill="#db8989"/>
  </g>
</svg>
