<svg xmlns="http://www.w3.org/2000/svg" width="295" height="34" viewBox="0 0 295 34">
  <g id="グループ_180" data-name="グループ 180" transform="translate(-67 -710)">
    <path id="パス_105" data-name="パス 105" d="M4,0H73.877V34H4a4,4,0,0,1-4-4V4A4,4,0,0,1,4,0Z" transform="translate(67 710)" fill="#d17877" opacity="0.466"/>
    <rect id="長方形_245" data-name="長方形 245" width="74" height="34" transform="translate(141 710)" fill="#abd9d9" opacity="0.763"/>
    <rect id="長方形_246" data-name="長方形 246" width="73" height="34" transform="translate(215 710)" fill="#f6c57d" opacity="0.745"/>
    <path id="長方形_247" data-name="長方形 247" d="M0,0H68a5,5,0,0,1,5,5V29a5,5,0,0,1-5,5H0a0,0,0,0,1,0,0V0A0,0,0,0,1,0,0Z" transform="translate(289 710)" fill="#c1c1c1"/>
  </g>
</svg>
