<svg xmlns="http://www.w3.org/2000/svg" width="30.08" height="30" viewBox="0 0 30.08 30">
  <path id="パス_1763" data-name="パス 1763" d="M1322.075,3937.511a6.66,6.66,0,1,0-6.66-6.66,6.769,6.769,0,0,0,.289,1.956l-6.751,4.077a5.932,5.932,0,1,0,.14,7.855l5.1,2.69a5.208,5.208,0,1,0,1.018-1.827l-4.978-2.9a5.909,5.909,0,0,0,.278-1.806,5.758,5.758,0,0,0-.267-1.752l6.933-3.778A6.637,6.637,0,0,0,1322.075,3937.511Zm-3.2-9.854a4.518,4.518,0,1,1,3.2,7.71,4.449,4.449,0,0,1-2.925-1.082h-.006a3.54,3.54,0,0,1-.268-.241,4.528,4.528,0,0,1-1.248-2.4,4.333,4.333,0,0,1-.07-.793A4.506,4.506,0,0,1,1318.876,3927.657Zm-10.571,13.915a3.731,3.731,0,0,1-1.045,2c-.043.043-.091.086-.139.129a3.788,3.788,0,1,1-.059-5.669c.07.058.134.118.2.182a3.772,3.772,0,0,1,1.045,1.982,3.7,3.7,0,0,1,.064.7A3.557,3.557,0,0,1,1308.305,3941.572Zm7.839,6.886a3.031,3.031,0,0,1,.852-1.629,1.091,1.091,0,0,1,.123-.113,2.992,2.992,0,0,1,2.036-.782,3.053,3.053,0,1,1-3.059,3.059A2.934,2.934,0,0,1,1316.144,3948.458Z" transform="translate(-1298.65 -3924.191)" fill="#bfa060"/>
</svg>
