<svg xmlns="http://www.w3.org/2000/svg" viewBox="0 0 160 34"><defs><style>.cls-1{fill:#fff;}.cls-2{fill:#bdbab8;}.cls-3{fill:#dd7274;}.cls-4{isolation:isolate;}.cls-5{fill:#bebebe;}</style></defs><g id="レイヤー_2" data-name="レイヤー 2"><g id="レイヤー_1-2" data-name="レイヤー 1"><g id="レイヤー_2-2" data-name="レイヤー 2"><g id="myplan"><g id="btn_on" data-name="btn on"><path class="cls-1" d="M17,33.5a16.5,16.5,0,0,1,0-33H143a16.5,16.5,0,0,1,0,33Z"/><path class="cls-2" d="M143,1a16,16,0,0,1,0,32H17A16,16,0,0,1,17,1H143m0-1H17a17,17,0,0,0,0,34H143a17,17,0,0,0,0-34Z"/><path class="cls-3" d="M17,0H63A17,17,0,0,1,80,17h0A17,17,0,0,1,63,34H17A17,17,0,0,1,0,17H0A17,17,0,0,1,17,0Z"/><g class="cls-4"><path class="cls-1" d="M18,9a24.52,24.52,0,0,1-5.52,8.2,9.72,9.72,0,0,0-1.42-1.06,19.74,19.74,0,0,0,5.32-7.6Zm5.58,9.86a44.71,44.71,0,0,1,4.84,6.64L27,26.36c-.26-.48-.6-1.06-1-1.66-5,.3-10.36.54-13.92.72l-.2-1.56,2.74-.08a59,59,0,0,0,3.78-8.56l1.72.42a85.41,85.41,0,0,1-3.84,8.06c2.7-.1,5.78-.24,8.8-.38-.9-1.3-1.92-2.66-2.86-3.78ZM23.44,8.58A30.91,30.91,0,0,0,29.1,16a6.73,6.73,0,0,0-1.24,1.26A42.72,42.72,0,0,1,22,9.18Z"/><path class="cls-1" d="M33.3,15.54V26.28H31.84V8.86h7.24v6.68Zm0-5.54v1.62h4.38V10Zm4.38,4.4V12.68H33.3V14.4Zm5,7V25.9H41.32V21.44H38.48a6.41,6.41,0,0,1-2.68,4.72,5.21,5.21,0,0,0-1-.88,5,5,0,0,0,2.36-3.84h-2.5V20.18h2.54V18H35.06V16.8h9.86V18H42.64v2.16h2.72v1.26Zm-1.32-1.26V18h-2.8v2.16Zm6.94,4.16c0,.88-.2,1.36-.78,1.62a9.29,9.29,0,0,1-3.1.26,4.91,4.91,0,0,0-.48-1.48c1.1,0,2.18,0,2.48,0s.42-.12.42-.44V15.56h-6V8.86h7.42ZM42.26,10v1.62H46.8V10Zm4.54,4.42V12.68H42.26v1.74Z"/><path class="cls-1" d="M68,11.56v9.36H66.46V19.78H60.72v6.48H59.18V19.78H53.46V21H52V11.56h7.18V8h1.54v3.56Zm-8.8,6.76V13H53.46v5.3Zm7.28,0V13H60.72v5.3Z"/></g><g class="cls-4"><path class="cls-5" d="M99.86,20.3l-2.1.4a9.19,9.19,0,0,1-5.1,5.78,6.84,6.84,0,0,0-1-1.12A8.15,8.15,0,0,0,96.08,21c-1.8.34-3.5.66-4.9.9l-.32-1.48c1.48-.2,3.52-.52,5.68-.88a10.32,10.32,0,0,0,.24-2.18v-.52H91.84V15.5h4.94V12.42H91.6V11h5.18V8.12h1.46v9.26a13.77,13.77,0,0,1-.14,1.92l1.7-.3Zm9.22,1.12H103v4.84h-1.5V8.12H103V11h5.72v1.38H103V15.5h5.3v1.36H103V20h6.06Z"/><path class="cls-5" d="M118,9a24.52,24.52,0,0,1-5.52,8.2,9.72,9.72,0,0,0-1.42-1.06,19.74,19.74,0,0,0,5.32-7.6Zm5.58,9.86a44.71,44.71,0,0,1,4.84,6.64l-1.46.82c-.26-.48-.6-1.06-1-1.66-5,.3-10.36.54-13.92.72l-.2-1.56,2.74-.08a59,59,0,0,0,3.78-8.56l1.72.42a85.41,85.41,0,0,1-3.84,8.06c2.7-.1,5.78-.24,8.8-.38-.9-1.3-1.92-2.66-2.86-3.78Zm-.14-10.32A30.91,30.91,0,0,0,129.1,16a6.73,6.73,0,0,0-1.24,1.26A42.72,42.72,0,0,1,122,9.18Z"/><path class="cls-5" d="M133.3,15.54V26.28h-1.46V8.86h7.24v6.68Zm0-5.54v1.62h4.38V10Zm4.38,4.4V12.68H133.3V14.4Zm5,7V25.9h-1.32V21.44h-2.84a6.41,6.41,0,0,1-2.68,4.72,5.21,5.21,0,0,0-1-.88,5,5,0,0,0,2.36-3.84h-2.5V20.18h2.54V18h-2.16V16.8h9.86V18h-2.28v2.16h2.72v1.26Zm-1.32-1.26V18h-2.8v2.16Zm6.94,4.16c0,.88-.2,1.36-.78,1.62a9.29,9.29,0,0,1-3.1.26,4.91,4.91,0,0,0-.48-1.48c1.1,0,2.18,0,2.48,0s.42-.12.42-.44V15.56h-6V8.86h7.42Zm-6-14.34v1.62h4.54V10Zm4.54,4.42V12.68h-4.54v1.74Z"/></g></g></g></g></g></g></svg>