<svg xmlns="http://www.w3.org/2000/svg" viewBox="0 0 160 34"><defs><style>.cls-1{fill:#fff;}.cls-2{fill:#bdbab8;}.cls-3{fill:#5e5e5e;}.cls-4{fill:#bebebe;}</style></defs><g id="レイヤー_2" data-name="レイヤー 2"><g id="レイヤー_1-2" data-name="レイヤー 1"><g id="レイヤー_2-2" data-name="レイヤー 2"><g id="レイヤー_1-2-2" data-name="レイヤー 1-2"><g id="レイヤー_2-2-2" data-name="レイヤー 2-2"><g id="myplan"><g id="btn_off" data-name="btn off"><path class="cls-1" d="M17,33.5a16.5,16.5,0,0,1,0-33H143a16.5,16.5,0,0,1,0,33Z"/><path class="cls-2" d="M143,1a16,16,0,0,1,0,32H17A16,16,0,0,1,17,1H143m0-1H17A17,17,0,0,0,0,17H0A17,17,0,0,0,17,34H143a17,17,0,0,0,17-17h0A17,17,0,0,0,143,0Z"/><path class="cls-3" d="M97,0h46a17,17,0,0,1,17,17h0a17,17,0,0,1-17,17H97A17,17,0,0,1,80,17h0A17,17,0,0,1,97,0Z"/><path class="cls-1" d="M99.86,20.3l-2.1.4a9.21,9.21,0,0,1-5.1,5.78,7.09,7.09,0,0,0-1-1.12A8.14,8.14,0,0,0,96.08,21c-1.8.34-3.5.66-4.9.9l-.32-1.48c1.48-.2,3.52-.52,5.68-.88a10,10,0,0,0,.24-2.18v-.52H91.84V15.5h4.94V12.42H91.6V11h5.18V8.12h1.46v9.26a13.78,13.78,0,0,1-.14,1.92l1.7-.3Zm9.22,1.12H103v4.84h-1.5V8.12H103V11h5.72v1.38H103V15.5h5.3v1.36H103V20h6.06Z"/><path class="cls-1" d="M118,9a24.42,24.42,0,0,1-5.52,8.2,9.71,9.71,0,0,0-1.42-1.06,19.68,19.68,0,0,0,5.32-7.6Zm5.58,9.86a45.11,45.11,0,0,1,4.84,6.64l-1.46.82c-.26-.48-.6-1.06-1-1.66-5,.3-10.36.54-13.92.72l-.2-1.56,2.74-.08a59.36,59.36,0,0,0,3.78-8.56l1.72.42a86.13,86.13,0,0,1-3.84,8.06c2.7-.1,5.78-.24,8.8-.38-.9-1.3-1.92-2.66-2.86-3.78Zm-.14-10.32A31,31,0,0,0,129.1,16a6.73,6.73,0,0,0-1.24,1.26A43,43,0,0,1,122,9.18Z"/><path class="cls-1" d="M133.3,15.54V26.28h-1.46V8.86h7.24v6.68Zm0-5.54v1.62h4.38V10Zm4.38,4.4V12.68H133.3V14.4Zm5,7v4.5h-1.32V21.44h-2.84a6.41,6.41,0,0,1-2.68,4.72,5.26,5.26,0,0,0-1-.88,5,5,0,0,0,2.36-3.84h-2.5V20.18h2.54V18h-2.16V16.8h9.86V18h-2.28v2.16h2.72v1.26Zm-1.32-1.26V18h-2.8v2.16Zm6.94,4.16c0,.88-.2,1.36-.78,1.62a9.25,9.25,0,0,1-3.1.26,4.76,4.76,0,0,0-.48-1.48h2.48c.3,0,.42-.12.42-.44v-8.7h-6V8.86h7.42ZM142.3,10v1.62h4.54V10Zm4.54,4.42v-1.7H142.3v1.74Z"/></g><path class="cls-4" d="M21.53,18.83l-2.26.82v5.89c0,1.41-.65,1.62-3.24,1.58a6.1,6.1,0,0,0-.43-1.21c.92,0,1.75,0,2,0s.37-.1.37-.37V20.1c-.92.33-1.76.62-2.42.84a.32.32,0,0,1-.24.31l-.54-1.54c.88-.24,2-.57,3.2-1V14.18H15V13h3V9l1.68.1c0,.16-.12.23-.39.27V13h2.24v1.23H19.27v4.16l2.1-.66Zm9.31-1.31.88.39c0,.1-.12.14-.18.2A12.88,12.88,0,0,1,28,23.65,13.79,13.79,0,0,0,33.26,26a4.85,4.85,0,0,0-.88,1.17,14,14,0,0,1-5.44-2.63,16.94,16.94,0,0,1-5.58,2.63A4.14,4.14,0,0,0,20.63,26,15.1,15.1,0,0,0,26,23.61a12.89,12.89,0,0,1-2.91-4.53l1-.29H22.33V17.58h8.28ZM24.75,11v.76a6,6,0,0,1-2.67,5.25,5.41,5.41,0,0,0-.9-.95,4.75,4.75,0,0,0,2.32-4.32v-2h6.44v4.82c0,.43.08.51.45.51h1.17c.39,0,.47-.29.51-2.4a4,4,0,0,0,1.11.51c-.1,2.42-.41,3-1.48,3H30.2c-1.18,0-1.53-.33-1.53-1.64V11Zm-.49,7.75a11.4,11.4,0,0,0,2.72,4,10.85,10.85,0,0,0,2.9-4Z"/><path class="cls-4" d="M38.85,16v1.27c.58.54,2.22,2.36,2.59,2.85l-.8,1a22.46,22.46,0,0,0-1.79-2.53v8.58H37.58V18.32A21.58,21.58,0,0,1,35,23.59a5.76,5.76,0,0,0-.7-1.17,21.54,21.54,0,0,0,3-6.46H34.55V14.73h3V11.37c-.9.28-1.82.51-2.7.71a3,3,0,0,0-.42-1A24,24,0,0,0,40.37,9l1.15,1a.58.58,0,0,1-.39.08,14.9,14.9,0,0,1-2.28.93v3.75H41.4V16Zm8.62-4.84h5.12v1.07H41.44V11.12H46.2V9l1.66.1c0,.14-.13.23-.39.27ZM52,18.65v7.17c0,1.3-.64,1.32-2.89,1.32a3.47,3.47,0,0,0-.37-1.05l1.11,0c.82,0,.92,0,.92-.29V19.75H42.93v7.39h-1.2V18.65ZM43.14,13.4h7.49v4H43.14Zm6.32,3v-2H44.25v2Zm-.13,8.51h-4v1h-1V21h5Zm-1-3h-3V24h3Z"/><path class="cls-4" d="M63.64,12.56h7.3v9.2H69.59V20.6h-6v6.5H62.27V20.6H56.4v1.25H55.09V12.56h7.18V9L64,9.11c0,.14-.14.23-.39.27ZM56.4,19.3h5.87V13.85H56.4Zm7.24,0h6V13.85h-6Z"/></g></g></g></g></g></g></svg>