<svg xmlns="http://www.w3.org/2000/svg" viewBox="0 0 160 34"><defs><style>.cls-1{fill:#fff;}.cls-2{fill:#bdbab8;}.cls-3{fill:#dd7274;}.cls-4{fill:#bebebe;}</style></defs><g id="レイヤー_2" data-name="レイヤー 2"><g id="レイヤー_1-2" data-name="レイヤー 1"><g id="レイヤー_2-2" data-name="レイヤー 2"><g id="レイヤー_1-2-2" data-name="レイヤー 1-2"><g id="レイヤー_2-2-2" data-name="レイヤー 2-2"><g id="myplan"><g id="btn_on" data-name="btn on"><path class="cls-1" d="M17,33.5a16.5,16.5,0,0,1,0-33H143a16.5,16.5,0,0,1,0,33Z"/><path class="cls-2" d="M143,1a16,16,0,0,1,0,32H17A16,16,0,0,1,17,1H143m0-1H17a17,17,0,0,0,0,34H143a17,17,0,0,0,0-34Z"/><path class="cls-3" d="M17,0H63A17,17,0,0,1,80,17h0A17,17,0,0,1,63,34H17A17,17,0,0,1,0,17H0A17,17,0,0,1,17,0Z"/><path class="cls-4" d="M99.86,20.3l-2.1.4a9.21,9.21,0,0,1-5.1,5.78,7.09,7.09,0,0,0-1-1.12A8.14,8.14,0,0,0,96.08,21c-1.8.34-3.5.66-4.9.9l-.32-1.48c1.48-.2,3.52-.52,5.68-.88a10,10,0,0,0,.24-2.18v-.52H91.84V15.5h4.94V12.42H91.6V11h5.18V8.12h1.46v9.26a13.78,13.78,0,0,1-.14,1.92l1.7-.3Zm9.22,1.12H103v4.84h-1.5V8.12H103V11h5.72v1.38H103V15.5h5.3v1.36H103V20h6.06Z"/><path class="cls-4" d="M118,9a24.42,24.42,0,0,1-5.52,8.2,9.71,9.71,0,0,0-1.42-1.06,19.68,19.68,0,0,0,5.32-7.6Zm5.58,9.86a45.11,45.11,0,0,1,4.84,6.64l-1.46.82c-.26-.48-.6-1.06-1-1.66-5,.3-10.36.54-13.92.72l-.2-1.56,2.74-.08a59.36,59.36,0,0,0,3.78-8.56l1.72.42a86.13,86.13,0,0,1-3.84,8.06c2.7-.1,5.78-.24,8.8-.38-.9-1.3-1.92-2.66-2.86-3.78Zm-.14-10.32A31,31,0,0,0,129.1,16a6.73,6.73,0,0,0-1.24,1.26A43,43,0,0,1,122,9.18Z"/><path class="cls-4" d="M133.3,15.54V26.28h-1.46V8.86h7.24v6.68Zm0-5.54v1.62h4.38V10Zm4.38,4.4V12.68H133.3V14.4Zm5,7v4.5h-1.32V21.44h-2.84a6.41,6.41,0,0,1-2.68,4.72,5.26,5.26,0,0,0-1-.88,5,5,0,0,0,2.36-3.84h-2.5V20.18h2.54V18h-2.16V16.8h9.86V18h-2.28v2.16h2.72v1.26Zm-1.32-1.26V18h-2.8v2.16Zm6.94,4.16c0,.88-.2,1.36-.78,1.62a9.25,9.25,0,0,1-3.1.26,4.76,4.76,0,0,0-.48-1.48h2.48c.3,0,.42-.12.42-.44v-8.7h-6V8.86h7.42ZM142.3,10v1.62h4.54V10Zm4.54,4.42v-1.7H142.3v1.74Z"/><path class="cls-1" d="M18.67,17.94l-2.26.82v5.89c0,1.41-.64,1.62-3.24,1.58A5.52,5.52,0,0,0,12.74,25c.92,0,1.76,0,2,0s.37-.09.37-.37V19.21c-.92.33-1.75.62-2.42.84a.32.32,0,0,1-.23.31l-.55-1.54c.88-.24,2-.57,3.2-1V13.29h-3V12.06h3V8.12l1.68.1c0,.16-.12.23-.39.27v3.57h2.24v1.23H16.41v4.16l2.11-.66ZM28,16.63l.88.39c0,.1-.12.14-.17.2a12.93,12.93,0,0,1-3.56,5.54,13.79,13.79,0,0,0,5.27,2.32,4.85,4.85,0,0,0-.88,1.17,14.09,14.09,0,0,1-5.44-2.63,16.94,16.94,0,0,1-5.58,2.63,4.35,4.35,0,0,0-.72-1.15,15.13,15.13,0,0,0,5.32-2.38,12.73,12.73,0,0,1-2.9-4.53l1-.29H19.47V16.69h8.28Zm-6.09-6.48v.76a6,6,0,0,1-2.67,5.25,5.07,5.07,0,0,0-.9-.95,4.75,4.75,0,0,0,2.32-4.32v-2h6.45v4.82c0,.43.07.51.44.51H28.7c.4,0,.47-.29.51-2.4a4.14,4.14,0,0,0,1.11.51c-.09,2.42-.41,3-1.48,3h-1.5c-1.17,0-1.52-.33-1.52-1.64V10.15Zm-.48,7.75a11.38,11.38,0,0,0,2.71,4,11,11,0,0,0,2.91-4Z"/><path class="cls-1" d="M36,15.07v1.27c.58.55,2.22,2.36,2.6,2.85l-.81,1A23.41,23.41,0,0,0,36,17.67v8.58H34.72V17.43a21.58,21.58,0,0,1-2.54,5.27,5,5,0,0,0-.7-1.17,21.79,21.79,0,0,0,3.05-6.46H31.7V13.84h3V10.48c-.9.28-1.81.51-2.69.71a3.29,3.29,0,0,0-.43-1A24,24,0,0,0,37.51,8.1l1.15,1a.56.56,0,0,1-.39.08,14.1,14.1,0,0,1-2.28.93v3.75h2.56v1.23Zm8.63-4.84h5.11V11.3H38.59V10.23h4.76V8.14l1.66.1c0,.14-.14.23-.39.27Zm4.54,7.53v7.17c0,1.3-.64,1.32-2.89,1.32a3.22,3.22,0,0,0-.37-1.05l1.12,0c.82,0,.91,0,.91-.29V18.86H40.07v7.39H38.88V17.76Zm-8.88-5.25h7.5v4h-7.5Zm6.33,3v-2H41.4v2ZM46.47,24h-4v1h-1V20.07h5Zm-1-3h-3v2.11h3Z"/><path class="cls-1" d="M60.78,11.67h7.3v9.2H66.73V19.72h-6v6.49H59.41V19.72H53.54V21H52.23V11.67h7.18V8.1l1.76.12c0,.14-.14.23-.39.27Zm-7.24,6.74h5.87V13H53.54Zm7.24,0h6V13h-6Z"/></g></g></g></g></g></g></g></svg>