<svg xmlns="http://www.w3.org/2000/svg" width="24" height="24" viewBox="0 0 24 24">
  <g id="time_w" transform="translate(-1119.506 -544.108)">
    <path id="パス_1842" data-name="パス 1842" d="M1131.406,556.979a.763.763,0,1,0-.762-.762A.763.763,0,0,0,1131.406,556.979Z" fill="#fff"/>
    <path id="パス_1843" data-name="パス 1843" d="M1129.477,555.733a.544.544,0,0,0,.08.066,1.918,1.918,0,0,0-.048.418,1.9,1.9,0,1,0,3.556-.918l5.3-5.295a.567.567,0,1,0-.8-.8l-5.315,5.315a1.879,1.879,0,0,0-1.7.01l-3.092-2.97a.568.568,0,0,0-.794.008l-.276.276a.568.568,0,0,0,0,.8Zm1.929-.279a.763.763,0,1,1-.762.763A.763.763,0,0,1,1131.406,555.454Z" fill="#fff"/>
    <path id="パス_1844" data-name="パス 1844" d="M1131.506,568.108a12,12,0,1,0-12-12A12.014,12.014,0,0,0,1131.506,568.108Zm-10.861-12.194h.671a.568.568,0,0,0,0-1.135h-.591a10.88,10.88,0,0,1,10.116-9.515v.382a.567.567,0,0,0,1.134,0v-.392a10.878,10.878,0,0,1,10.383,10.323h-.636a.567.567,0,1,0,0,1.134h.632a10.878,10.878,0,0,1-10.379,10.25v-.548a.567.567,0,1,0-1.134,0v.538a10.878,10.878,0,0,1-10.2-10.843C1120.64,556.043,1120.644,555.979,1120.645,555.914Z" fill="#fff"/>
  </g>
</svg>
