<svg xmlns="http://www.w3.org/2000/svg" viewBox="0 0 54.6 40.45"><defs><style>.cls-1{opacity:0.52;}.cls-2{fill:none;stroke:#000;stroke-linecap:round;stroke-linejoin:round;stroke-width:8.6px;}.cls-3{opacity:0.67;}</style></defs><g id="レイヤー_2" data-name="レイヤー 2"><g id="レイヤー_1-2" data-name="レイヤー 1"><g class="cls-1"><line class="cls-2" x1="4.3" y1="36.15" x2="27.3" y2="19.15"/><line class="cls-2" x1="50.3" y1="36.15" x2="27.3" y2="19.15"/></g><g class="cls-3"><path d="M7.93,8.42A1.92,1.92,0,0,1,6.1,7.23l.09,1.23V9.87H4.61V1.81H6.19v.41l-.06.51A1.76,1.76,0,0,1,7.85,1.66c1.82,0,2.59,1.61,2.59,3.26S9.57,8.42,7.93,8.42ZM7.57,3c-1,0-1.38,1.09-1.38,2S6.36,7.1,7.5,7.1,8.85,5.83,8.85,5,8.51,3,7.57,3Z"/><path d="M15.61,8.26a1.68,1.68,0,0,1-.19-.93,2,2,0,0,1-2.09,1.09c-1.77,0-2.25-1.08-2.25-1.9,0-1.48,1.33-1.93,2.77-2.13.69-.1,1.47-.23,1.47-.83s-.55-.67-1-.67a1.8,1.8,0,0,0-1.24.4.89.89,0,0,0-.25.63H11.36a2.46,2.46,0,0,1,2.77-2.26c1.49,0,2.79.64,2.79,2.31V7.52a.8.8,0,0,0,.36.74ZM14.18,5.38c-.6.1-1.48.32-1.48,1.1a.92.92,0,0,0,1,.81c.65,0,1.61-.41,1.61-1.31V5.25l.09-.42A1.67,1.67,0,0,1,14.18,5.38Z"/><path d="M23.2,3.19a1.35,1.35,0,0,1,.08.48c0,1-.76,2-2.62,2a3.47,3.47,0,0,1-.68,0c-.3.09-.42.17-.42.34s.53.36,1,.39c1.65.12,2.37.19,2.85.67a1.51,1.51,0,0,1,.41,1c0,1.15-1.26,1.76-3.27,1.76-1.51,0-2.75-.32-2.75-1.38a1.08,1.08,0,0,1,1-1.1c-.31-.11-.85-.3-.85-.89s.59-1,.95-1.21A1.71,1.71,0,0,1,18,3.73c0-1.37,1.26-2.07,2.74-2.07a2.59,2.59,0,0,1,1.9.63A1.38,1.38,0,0,1,24,1.66V2.82A.82.82,0,0,0,23.2,3.19Zm-2.51-.34c-.86,0-1.25.42-1.25.9,0,.76.89.78,1.18.78s1.23,0,1.23-.84C21.85,3.08,21.3,2.85,20.69,2.85Zm.42,4.78-1,0c-.44.16-.64.25-.64.59s0,.52,1.34.52,1.29-.24,1.29-.51S21.55,7.68,21.11,7.63Z"/><path d="M26,5.51c.06.32.3,1.63,1.57,1.63a1.19,1.19,0,0,0,1.18-.78h1.59a2.81,2.81,0,0,1-2.85,2.06c-1.75,0-3.07-1.16-3.07-3.37s1.43-3.39,3-3.39a2.76,2.76,0,0,1,2.38,1.22,4.76,4.76,0,0,1,.64,2.63ZM27.45,3C26.28,3,26.08,4.07,26,4.47h2.75C28.71,3.47,28.25,3,27.45,3Z"/><path d="M37.34,3.08V6.64c0,.29.12.42.4.42h.68v1.2h-1c-1.26,0-1.69-.5-1.69-1.52V3.08h-.89V1.81h.89V0h1.58V1.81h1.12V3.08Z"/><path d="M42.3,8.42A3.1,3.1,0,0,1,39,5.09a3.27,3.27,0,0,1,3.38-3.43,3.22,3.22,0,0,1,3.37,3.4A3.18,3.18,0,0,1,42.3,8.42Zm0-5.51A1.87,1.87,0,0,0,40.57,5c0,1.22.67,2.13,1.81,2.13,1.49,0,1.72-1.32,1.72-2.12C44.1,3.56,43.22,2.91,42.33,2.91Z"/><path d="M50,8.42a2,2,0,0,1-1.41-.56,2.15,2.15,0,0,1-.42-.63l.09,1.23V9.87H46.63V1.81h1.58v.41l-.05.51a1.73,1.73,0,0,1,1.71-1.07c1.82,0,2.59,1.61,2.59,3.26S51.6,8.42,50,8.42ZM49.59,3c-.94,0-1.38,1.09-1.38,2s.17,2.06,1.31,2.06S50.88,5.83,50.88,5,50.53,3,49.59,3Z"/></g></g></g></svg>