<svg xmlns="http://www.w3.org/2000/svg" xmlns:xlink="http://www.w3.org/1999/xlink" viewBox="0 0 80 80"><defs><style>.cls-1{fill:none;}.cls-2{fill:#1aa1f1;}.cls-3{clip-path:url(#clip-path);}.cls-4{fill:#fff;}</style><clipPath id="clip-path"><rect class="cls-1" x="20" y="23.76" width="40" height="32.49"/></clipPath></defs><g id="レイヤー_2" data-name="レイヤー 2"><g id="spot_detail"><g id="contents"><g id="titter"><circle class="cls-2" cx="40" cy="40" r="40"/><g id="twitter-wh"><g class="cls-3"><g class="cls-3"><path class="cls-4" d="M55.89,31.85c0,.36,0,.71,0,1.07,0,10.84-8.24,23.32-23.32,23.32A23.12,23.12,0,0,1,20,52.56a16.11,16.11,0,0,0,2,.1,16.42,16.42,0,0,0,10.18-3.5,8.2,8.2,0,0,1-7.67-5.68A11.31,11.31,0,0,0,26,43.6a8.58,8.58,0,0,0,2.16-.28,8.2,8.2,0,0,1-6.58-8v-.1a8.27,8.27,0,0,0,3.71,1,8.24,8.24,0,0,1-2.54-11A23.27,23.27,0,0,0,39.7,33.83,9,9,0,0,1,39.49,32a8.21,8.21,0,0,1,14.19-5.6,16.44,16.44,0,0,0,5.2-2,8.15,8.15,0,0,1-3.6,4.51A16,16,0,0,0,60,27.61a17.43,17.43,0,0,1-4.11,4.24"/></g></g></g></g></g></g></g></svg>