<svg xmlns="http://www.w3.org/2000/svg" viewBox="0 0 80 52"><defs><style>.cls-1{fill:#fff;}.cls-2{fill:#675837;}</style></defs><g id="レイヤー_2" data-name="レイヤー 2"><g id="guide"><rect class="cls-1" width="80" height="52" rx="6"/><g id="users"><path class="cls-2" d="M25.45,13.15,24.16,23.86H23a.72.72,0,0,1-.82-.8l.1-1.55a6,6,0,0,1-1.83,1.88A3.9,3.9,0,0,1,18.4,24a2.7,2.7,0,0,1-1.19-.26,2.17,2.17,0,0,1-.86-.79,3.35,3.35,0,0,1-.47-1.28,6.61,6.61,0,0,1,0-1.73l.81-6.8h2.25L18.12,20a3,3,0,0,0,.13,1.67,1,1,0,0,0,1,.52,2,2,0,0,0,.91-.24,3.83,3.83,0,0,0,.91-.7,5.26,5.26,0,0,0,.82-1.09,7.2,7.2,0,0,0,.64-1.43l.66-5.53Z"/><path class="cls-2" d="M34.24,15a1,1,0,0,1-.19.21.49.49,0,0,1-.25.06.71.71,0,0,1-.35-.11L33,14.94a3.49,3.49,0,0,0-.58-.24,2.76,2.76,0,0,0-1.61,0,1.91,1.91,0,0,0-.6.32,1.22,1.22,0,0,0-.38.47,1.27,1.27,0,0,0-.13.58.93.93,0,0,0,.18.58,1.55,1.55,0,0,0,.49.41,4.44,4.44,0,0,0,.69.33l.79.3a8.25,8.25,0,0,1,.8.37,2.87,2.87,0,0,1,.69.49,2.1,2.1,0,0,1,.49.7,2.4,2.4,0,0,1,.18,1,3.59,3.59,0,0,1-.3,1.45,3.44,3.44,0,0,1-.86,1.21,4,4,0,0,1-1.35.83,4.77,4.77,0,0,1-1.77.31,4.43,4.43,0,0,1-1.85-.37,3.84,3.84,0,0,1-1.31-.94l.55-.86a1,1,0,0,1,.24-.25.64.64,0,0,1,.34-.09.57.57,0,0,1,.37.15l.42.31a3.15,3.15,0,0,0,.61.32,2.62,2.62,0,0,0,.92.14,2.65,2.65,0,0,0,.84-.13,1.74,1.74,0,0,0,.62-.37,1.55,1.55,0,0,0,.39-.53,1.57,1.57,0,0,0,.14-.64,1.07,1.07,0,0,0-.19-.63,1.62,1.62,0,0,0-.49-.44,3.89,3.89,0,0,0-.68-.32l-.79-.28a7.83,7.83,0,0,1-.79-.34,2.91,2.91,0,0,1-.69-.47,2.14,2.14,0,0,1-.48-.69,2.27,2.27,0,0,1-.19-1A3.54,3.54,0,0,1,28,15.25a3.68,3.68,0,0,1,.79-1.16,4,4,0,0,1,1.26-.81,4.56,4.56,0,0,1,1.7-.3,4.39,4.39,0,0,1,1.76.33,4.19,4.19,0,0,1,1.3.9Z"/><path class="cls-2" d="M44.81,21.87a11.27,11.27,0,0,1-1.07,1,6.2,6.2,0,0,1-1.08.67,5.48,5.48,0,0,1-1.14.39,6.61,6.61,0,0,1-1.3.12,4.3,4.3,0,0,1-1.68-.31,3.73,3.73,0,0,1-1.28-.89,3.94,3.94,0,0,1-.81-1.38,5.53,5.53,0,0,1-.29-1.83A7.58,7.58,0,0,1,36.34,18a8.07,8.07,0,0,1,.52-1.55A7.49,7.49,0,0,1,37.69,15,5.4,5.4,0,0,1,38.81,14a4.82,4.82,0,0,1,1.37-.71A4.73,4.73,0,0,1,41.79,13a3.88,3.88,0,0,1,1.44.24,3.11,3.11,0,0,1,1,.6,2.51,2.51,0,0,1,.61.83,2.2,2.2,0,0,1,.2.88,2.91,2.91,0,0,1-.29,1.29,2.69,2.69,0,0,1-1,1.06,7.11,7.11,0,0,1-2,.82,22,22,0,0,1-3.32.56.53.53,0,0,0,0,.13v.14a3,3,0,0,0,.58,2,2.14,2.14,0,0,0,1.73.68,3.29,3.29,0,0,0,1.21-.2,4.19,4.19,0,0,0,.82-.44c.23-.15.43-.3.6-.43a.88.88,0,0,1,.54-.2.55.55,0,0,1,.41.21ZM41.67,14.6a2.45,2.45,0,0,0-1.09.24,3,3,0,0,0-.89.66,4.22,4.22,0,0,0-.68,1,5.24,5.24,0,0,0-.45,1.28,21.63,21.63,0,0,0,2.33-.42,5.4,5.4,0,0,0,1.35-.51,1.44,1.44,0,0,0,.63-.58,1.37,1.37,0,0,0,.16-.66.91.91,0,0,0-.07-.35.88.88,0,0,0-.24-.34,1.22,1.22,0,0,0-.42-.24A1.74,1.74,0,0,0,41.67,14.6Z"/><path class="cls-2" d="M49.84,15.91a7.94,7.94,0,0,1,.88-1.46,4.47,4.47,0,0,1,1-1,2.45,2.45,0,0,1,1.07-.41,2.17,2.17,0,0,1,1.11.18l-.41,2.16a2.1,2.1,0,0,0-2.33.35,6.51,6.51,0,0,0-1.62,3.31L49,23.86H46.77l1.29-10.74H49.2a.81.81,0,0,1,.56.19.74.74,0,0,1,.19.57Z"/><path class="cls-2" d="M57.53,8a3.92,3.92,0,0,1,.38,1.54,4.28,4.28,0,0,1-.23,1.5,5.51,5.51,0,0,1-.78,1.42,7.2,7.2,0,0,1-1.26,1.27l-.6-.4A.31.31,0,0,1,54.9,13a.41.41,0,0,1,.05-.18l.18-.23a4.79,4.79,0,0,0,.43-.59,3.41,3.41,0,0,0,.37-.82,3.2,3.2,0,0,0,.14-1,2.7,2.7,0,0,0-.27-1.12.34.34,0,0,1,0-.35.56.56,0,0,1,.33-.26Z"/><path class="cls-2" d="M63.6,15a.78.78,0,0,1-.19.21.49.49,0,0,1-.25.06.65.65,0,0,1-.34-.11l-.43-.25a3.17,3.17,0,0,0-.58-.24,2.47,2.47,0,0,0-.81-.12,2.43,2.43,0,0,0-.79.12,1.86,1.86,0,0,0-.61.32,1.32,1.32,0,0,0-.38.47,1.27,1.27,0,0,0-.13.58.93.93,0,0,0,.18.58,1.67,1.67,0,0,0,.49.41,4.44,4.44,0,0,0,.69.33l.8.3a8.08,8.08,0,0,1,.79.37,2.87,2.87,0,0,1,.69.49,2.1,2.1,0,0,1,.49.7,2.4,2.4,0,0,1,.18,1,3.59,3.59,0,0,1-.3,1.45,3.32,3.32,0,0,1-.86,1.21,4,4,0,0,1-1.35.83,4.77,4.77,0,0,1-1.77.31,4.38,4.38,0,0,1-1.84-.37A3.78,3.78,0,0,1,56,22.71l.56-.86a1,1,0,0,1,.24-.25.58.58,0,0,1,.33-.09.57.57,0,0,1,.37.15c.12.09.26.2.43.31a2.79,2.79,0,0,0,.6.32,2.93,2.93,0,0,0,1.76,0,1.65,1.65,0,0,0,.62-.37,1.55,1.55,0,0,0,.39-.53,1.57,1.57,0,0,0,.14-.64,1,1,0,0,0-.19-.63,1.71,1.71,0,0,0-.48-.44,4.38,4.38,0,0,0-.69-.32l-.79-.28a7.83,7.83,0,0,1-.79-.34,2.66,2.66,0,0,1-.68-.47,2,2,0,0,1-.49-.69,2.27,2.27,0,0,1-.19-1,3.37,3.37,0,0,1,.28-1.35,3.49,3.49,0,0,1,.78-1.16,4.26,4.26,0,0,1,1.26-.81,4.57,4.57,0,0,1,1.71-.3,4.34,4.34,0,0,1,1.75.33,4.19,4.19,0,0,1,1.3.9Z"/><path class="cls-2" d="M19,42.16A11.15,11.15,0,0,0,26.1,35c.14-.49.09-.94-.58-1-1.76-.05-4.61.06-7.2.15a.9.9,0,1,1,0-1.79c2.37-.1,5.74-.12,8-.09a1.9,1.9,0,0,1,2,2.6,13.79,13.79,0,0,1-8.5,9C18.25,44.48,17.58,42.59,19,42.16Zm10.7-9.45a1.9,1.9,0,0,1,0-3.8,1.9,1.9,0,1,1,0,3.8Zm0-2.83a.93.93,0,0,0-.92.94.92.92,0,0,0,1.84,0A.94.94,0,0,0,29.65,29.88Z"/><path class="cls-2" d="M36.43,44c-1.48.45-2.14-1.33-.7-1.71,3.55-1,5.83-3.13,6.64-5.42.18-.49.09-.78-.59-.79-1.84,0-5.19,0-7.11.09a.86.86,0,1,1-.06-1.7c2.32-.05,5.35-.07,7.8-.05,1.8,0,2.68,1,1.94,2.79C43.09,40.2,40.9,42.61,36.43,44Zm5.73-11.24c-1.7,0-4.18.06-6.13,0-1.18,0-1.26-1.69.13-1.67,1.73,0,4.25,0,6.07,0a.87.87,0,0,1,1,.83C43.2,32.33,42.89,32.74,42.16,32.74Z"/><path class="cls-2" d="M53.06,36a6.68,6.68,0,0,0-2.66-1.33c-1.08-.25-.63-2.07.74-1.69a11.59,11.59,0,0,1,3.17,1.36,1.08,1.08,0,0,1,.23,1.5A1,1,0,0,1,53.06,36ZM52,43.46a1,1,0,1,1-.62-2c3.62-.92,7.26-4.64,9.08-8.17a1,1,0,1,1,1.64,1.06C59.81,38.45,56.09,42.14,52,43.46Z"/></g></g></g></svg>