<svg xmlns="http://www.w3.org/2000/svg" viewBox="0 0 80 52"><defs><style>.cls-1{fill:#fff;}.cls-2,.cls-3{fill:#675837;}.cls-3{font-size:22.93px;font-family:Lato-Semibold, Lato;font-weight:600;}</style></defs><g id="レイヤー_2" data-name="レイヤー 2"><g id="レイヤー_1-2" data-name="レイヤー 1"><rect class="cls-1" width="80" height="52" rx="6"/><path class="cls-2" d="M25.45,13.15,24.16,23.86H23a.72.72,0,0,1-.82-.61.61.61,0,0,1,0-.19l.1-1.55a6,6,0,0,1-1.83,1.88A3.9,3.9,0,0,1,18.4,24a2.58,2.58,0,0,1-1.19-.26,2.18,2.18,0,0,1-.86-.79,3.47,3.47,0,0,1-.47-1.28,6.27,6.27,0,0,1,0-1.73l.81-6.8h2.25L18.12,20a3,3,0,0,0,.13,1.67,1,1,0,0,0,1,.52,2.06,2.06,0,0,0,.91-.24,3.87,3.87,0,0,0,.91-.7,5.11,5.11,0,0,0,.82-1.09,7.35,7.35,0,0,0,.64-1.43l.66-5.53Z"/><path class="cls-2" d="M34.24,15a1,1,0,0,1-.19.21.54.54,0,0,1-.25.06.76.76,0,0,1-.35-.11L33,14.94a3.23,3.23,0,0,0-.58-.24,2.76,2.76,0,0,0-1.61,0,1.93,1.93,0,0,0-.6.32,1.26,1.26,0,0,0-.38.47,1.29,1.29,0,0,0-.13.58.93.93,0,0,0,.18.58,1.49,1.49,0,0,0,.49.41,4.37,4.37,0,0,0,.69.33l.79.3a8.25,8.25,0,0,1,.8.37,2.79,2.79,0,0,1,.69.49,2.11,2.11,0,0,1,.49.7,2.46,2.46,0,0,1,.18,1,3.62,3.62,0,0,1-.3,1.45,3.57,3.57,0,0,1-.86,1.21,4,4,0,0,1-1.35.83,4.89,4.89,0,0,1-1.77.31,4.5,4.5,0,0,1-1.85-.37,3.94,3.94,0,0,1-1.31-.94l.55-.86a1,1,0,0,1,.24-.25.67.67,0,0,1,.34-.09.56.56,0,0,1,.37.15l.42.31a3,3,0,0,0,.61.32,2.93,2.93,0,0,0,1.76,0,1.71,1.71,0,0,0,.62-.37,1.55,1.55,0,0,0,.39-.53,1.57,1.57,0,0,0,.14-.64,1.09,1.09,0,0,0-.19-.63,1.59,1.59,0,0,0-.49-.44,3.51,3.51,0,0,0-.68-.32l-.79-.28a7.83,7.83,0,0,1-.79-.34,2.91,2.91,0,0,1-.69-.47,2.2,2.2,0,0,1-.48-.69,2.29,2.29,0,0,1-.19-1A3.4,3.4,0,0,1,28,15.25a3.68,3.68,0,0,1,.79-1.16,4,4,0,0,1,1.26-.81,4.48,4.48,0,0,1,1.7-.3,4.44,4.44,0,0,1,1.76.33,4,4,0,0,1,1.3.9Z"/><path class="cls-2" d="M44.81,21.87a10.13,10.13,0,0,1-1.07,1,6.7,6.7,0,0,1-1.08.67,5.68,5.68,0,0,1-1.14.39,7.07,7.07,0,0,1-1.3.12,4.36,4.36,0,0,1-1.68-.31,3.79,3.79,0,0,1-1.28-.89,3.93,3.93,0,0,1-.81-1.38,5.43,5.43,0,0,1-.29-1.83A7.56,7.56,0,0,1,36.34,18a7.85,7.85,0,0,1,.52-1.55A7.45,7.45,0,0,1,37.69,15a5.35,5.35,0,0,1,1.12-1,4.83,4.83,0,0,1,1.37-.71A4.67,4.67,0,0,1,41.79,13a3.93,3.93,0,0,1,1.44.24,3.17,3.17,0,0,1,1,.6,2.39,2.39,0,0,1,.61.83,2.26,2.26,0,0,1,.2.88,3,3,0,0,1-.29,1.29,2.69,2.69,0,0,1-1,1.06,7.27,7.27,0,0,1-2,.82,21.92,21.92,0,0,1-3.32.56.29.29,0,0,0,0,.13v.14a3,3,0,0,0,.58,2,2.13,2.13,0,0,0,1.73.68A3.34,3.34,0,0,0,42,22a4.32,4.32,0,0,0,.82-.44c.23-.15.43-.3.6-.43a.82.82,0,0,1,.54-.2.55.55,0,0,1,.41.21ZM41.67,14.6a2.55,2.55,0,0,0-1.09.24,2.91,2.91,0,0,0-.89.66,4.53,4.53,0,0,0-.68,1,5.42,5.42,0,0,0-.45,1.28,23.22,23.22,0,0,0,2.33-.42,5.52,5.52,0,0,0,1.35-.51,1.47,1.47,0,0,0,.63-.58,1.37,1.37,0,0,0,.16-.66.84.84,0,0,0-.07-.35.81.81,0,0,0-.24-.34,1.18,1.18,0,0,0-.42-.24A1.68,1.68,0,0,0,41.67,14.6Z"/><path class="cls-2" d="M49.84,15.91a8,8,0,0,1,.88-1.46,4.74,4.74,0,0,1,1-1A2.46,2.46,0,0,1,52.79,13a2.12,2.12,0,0,1,1.11.18l-.41,2.16a2.1,2.1,0,0,0-2.33.35A6.46,6.46,0,0,0,49.54,19L49,23.86H46.77l1.29-10.74H49.2a.83.83,0,0,1,.56.19.74.74,0,0,1,.19.57Z"/><path class="cls-2" d="M57.53,8a3.93,3.93,0,0,1,.38,1.54,4.24,4.24,0,0,1-.23,1.5,5.46,5.46,0,0,1-.78,1.42,7.57,7.57,0,0,1-1.26,1.27l-.6-.4A.31.31,0,0,1,54.9,13a.41.41,0,0,1,.05-.18l.18-.23a4.94,4.94,0,0,0,.43-.59,3.56,3.56,0,0,0,.37-.82,3.06,3.06,0,0,0,.14-1,2.71,2.71,0,0,0-.27-1.12.36.36,0,0,1,0-.35.54.54,0,0,1,.33-.26Z"/><path class="cls-2" d="M63.6,15a.76.76,0,0,1-.19.21.54.54,0,0,1-.25.06.6.6,0,0,1-.34-.11l-.43-.25a3,3,0,0,0-.58-.24,2.49,2.49,0,0,0-.81-.12,2.61,2.61,0,0,0-.79.12,2,2,0,0,0-.61.32,1.43,1.43,0,0,0-.38.47,1.29,1.29,0,0,0-.13.58.93.93,0,0,0,.18.58,1.6,1.6,0,0,0,.49.41,4.37,4.37,0,0,0,.69.33l.8.3A8.08,8.08,0,0,1,62,18a2.79,2.79,0,0,1,.69.49,2.11,2.11,0,0,1,.49.7,2.46,2.46,0,0,1,.18,1,3.62,3.62,0,0,1-.3,1.45,3.35,3.35,0,0,1-.86,1.21,4,4,0,0,1-1.35.83,4.89,4.89,0,0,1-1.77.31,4.48,4.48,0,0,1-1.84-.37A3.83,3.83,0,0,1,56,22.71l.56-.86a1,1,0,0,1,.24-.25.63.63,0,0,1,.33-.09.56.56,0,0,1,.37.15c.12.09.26.2.43.31a2.89,2.89,0,0,0,.6.32,2.94,2.94,0,0,0,1.76,0,1.71,1.71,0,0,0,.62-.37,1.55,1.55,0,0,0,.39-.53,1.57,1.57,0,0,0,.14-.64,1,1,0,0,0-.19-.63,1.55,1.55,0,0,0-.48-.44,4.32,4.32,0,0,0-.69-.32l-.79-.28a7.83,7.83,0,0,1-.79-.34,2.66,2.66,0,0,1-.68-.47,2,2,0,0,1-.49-.69,2.29,2.29,0,0,1-.19-1,3.33,3.33,0,0,1,.28-1.35,3.39,3.39,0,0,1,.78-1.16,4.31,4.31,0,0,1,1.26-.81,4.57,4.57,0,0,1,1.71-.3,4.36,4.36,0,0,1,1.75.33,4,4,0,0,1,1.3.9Z"/><text class="cls-3" transform="translate(11.38 45.57)">PLAN</text></g></g></svg>