<svg xmlns="http://www.w3.org/2000/svg" viewBox="0 0 63 63"><defs><style>.cls-1{fill:#cf7877;}.cls-2{fill:none;stroke:#fff;stroke-width:2px;}.cls-3{fill:#fff;}</style></defs><g id="レイヤー_2" data-name="レイヤー 2"><g id="レイヤー_1-2" data-name="レイヤー 1"><g id="グループ_50" data-name="グループ 50"><g id="楕円形_2" data-name="楕円形 2"><circle class="cls-1" cx="31.5" cy="31.5" r="31.5"/><circle class="cls-2" cx="31.5" cy="31.5" r="30.5"/></g><path class="cls-3" d="M21.62,20.62c.17,0,.42,0,.69-.05a.85.85,0,0,1,0-.23,1.44,1.44,0,1,1,1.44,1.43h-.16l-.09.35a12.11,12.11,0,0,1-1.8,4.37,9.45,9.45,0,0,1-4.82,3.31l-1.31-1.43a7.86,7.86,0,0,0,4.7-2.81,7.81,7.81,0,0,0,1.42-3.39H16.07c-.55,0-1.12,0-1.43.05V20.52a12.84,12.84,0,0,0,1.43.1Zm2.78-.28a.69.69,0,1,0-1.37,0,.69.69,0,0,0,1.37,0Z"/><path class="cls-3" d="M36.24,23.41a4.23,4.23,0,0,0-.23.5,8.64,8.64,0,0,1-1.78,3.33A9,9,0,0,1,30,29.83l-1.2-1.36a8,8,0,0,0,4.16-2.1,5.24,5.24,0,0,0,1.24-2.07H28.36c-.29,0-.89,0-1.39.06V22.8c.5.05,1,.07,1.39.07h5.93a2.59,2.59,0,0,0,.88-.12Zm-8.17-3.48a9.7,9.7,0,0,0,1.25.06h4.61a10.9,10.9,0,0,0,1.3-.06v1.55c-.32,0-.89,0-1.32,0H29.32c-.39,0-.9,0-1.25,0Z"/><path class="cls-3" d="M43.38,26.43a11.29,11.29,0,0,0,4.36-4.66l.94,1.69a12.81,12.81,0,0,1-4.44,4.44,13.06,13.06,0,0,1-4.45,1.69l-1-1.59A12.18,12.18,0,0,0,43.38,26.43Zm0-3.88-1.22,1.26a25,25,0,0,0-3-2.59L40.29,20A25.83,25.83,0,0,1,43.38,22.55Z"/><path class="cls-3" d="M21.3,40.17a10.49,10.49,0,0,1-.72,3.08,7.56,7.56,0,0,0-1-.48A9.06,9.06,0,0,0,20.2,40Zm1.32-1v5h-1.2V39.32l-1.58.12-.15-1.24.95-.05c.16-.21.33-.45.48-.69a10,10,0,0,0-1.39-1.74l.68-.92a3.71,3.71,0,0,1,.29.27A15,15,0,0,0,21.57,33l1.21.42c-.44.83-.93,1.78-1.35,2.45.15.17.28.34.39.49.39-.67.75-1.36,1-2L24,34.9c-.45.74-1,1.54-1.49,2.29l.93-.38a10.29,10.29,0,0,1,1,2.62l-1,.43c0-.21-.09-.43-.16-.69Zm.23-1.2a9,9,0,0,0-.36-.83c-.22.32-.42.62-.64.89ZM30.75,43c0,.47-.05.78-.33,1a1.65,1.65,0,0,1-1,.22,4.87,4.87,0,0,0-.33-1.07v1h-.88V42h-.52v2h-.86V42h-.48v2.14h-1V41.52a7.6,7.6,0,0,1-1,2.59,4.89,4.89,0,0,0-1.05-.75,5.32,5.32,0,0,0,.58-1.14l-.64.2a8.63,8.63,0,0,0-.55-2.2l.94-.28a9.17,9.17,0,0,1,.49,1.51,14.39,14.39,0,0,0,.36-3.58V35.38h6v3H25.7c0,.17,0,.34,0,.52h5.06Zm0-9.32v1.22H24V33.64Zm-5.08,2.87v.79h3.44v-.79ZM26.83,41V40h-.48v1Zm1.38,0V40h-.52v1Zm.88-1v1h.5V40Zm0,3h.41c.06,0,.09,0,.09-.12V42h-.5Z"/><path class="cls-3" d="M39.23,41.44a14.27,14.27,0,0,0,3.83,1.45A5.61,5.61,0,0,0,42.18,44a13,13,0,0,1-4.12-2v2.1h-1.4v-2a13.17,13.17,0,0,1-4.14,2,7.22,7.22,0,0,0-.91-1.17,14.48,14.48,0,0,0,4-1.48H32V40.3h4.65v-.47h-3.3V36.6c-.21.2-.44.39-.68.58a4.82,4.82,0,0,0-1-1A9.67,9.67,0,0,0,34.51,33l1.48.28c-.19.34-.41.68-.65,1H37a8.48,8.48,0,0,0,.53-1.3l1.61.19c-.21.39-.43.77-.65,1.11h3.59v1.1H38.35v.49h3.18v.94H38.35v.5h3.19v.94H38.35v.51h4.11v1.08h-4.4v.47h4.72v1.14ZM37,35.37H34.72v.49H37Zm0,1.43H34.72v.5H37Zm-2.26,2H37v-.51H34.72Z"/></g></g></g></svg>