<?xml version="1.0" encoding="UTF-8"?>
<svg id="_レイヤー_2" data-name="レイヤー 2" xmlns="http://www.w3.org/2000/svg" viewBox="0 0 63 63">
  <defs>
    <style>
      .cls-1 {
        fill: #fff;
      }

      .cls-2 {
        fill: #c99f20;
      }

      .cls-3 {
        fill: none;
        stroke: #fff;
        stroke-width: 2px;
      }
    </style>
  </defs>
  <g id="_レイヤー_1-2" data-name="レイヤー 1">
    <g id="_グループ_50" data-name="グループ 50">
      <g id="_楕円形_2" data-name="楕円形 2">
        <circle class="cls-2" cx="31.5" cy="31.5" r="31.5"/>
        <circle class="cls-3" cx="31.5" cy="31.5" r="30.5"/>
      </g>
      <g>
        <path class="cls-1" d="m13.28,31.58v-9.82h3.18c1.21,0,1.99.05,2.36.15.56.15,1.03.47,1.41.96.38.49.57,1.13.57,1.91,0,.6-.11,1.11-.33,1.52s-.5.73-.83.97c-.34.23-.68.39-1.03.47-.47.09-1.16.14-2.06.14h-1.29v3.7h-1.98Zm1.98-8.16v2.79h1.09c.78,0,1.3-.05,1.57-.15.26-.1.47-.26.62-.48.15-.22.22-.47.22-.76,0-.36-.1-.65-.31-.88-.21-.23-.48-.38-.8-.44-.24-.04-.71-.07-1.43-.07h-.96Z"/>
        <path class="cls-1" d="m22.48,31.58v-9.74h1.98v8.08h4.93v1.65h-6.91Z"/>
        <path class="cls-1" d="m39.66,31.58h-2.16l-.86-2.23h-3.92l-.81,2.23h-2.1l3.82-9.82h2.1l3.93,9.82Zm-3.65-3.88l-1.35-3.64-1.33,3.64h2.68Z"/>
        <path class="cls-1" d="m40.73,31.58v-9.82h1.93l4.02,6.56v-6.56h1.84v9.82h-1.99l-3.96-6.4v6.4h-1.84Z"/>
        <path class="cls-1" d="m17.33,35.29h3.8c.75,0,1.31.03,1.68.09.37.06.7.19.99.39.29.2.53.46.73.79.19.33.29.7.29,1.11,0,.44-.12.85-.36,1.22-.24.37-.57.65-.98.84.58.17,1.02.46,1.33.86.31.41.47.88.47,1.43,0,.43-.1.85-.3,1.26s-.48.73-.82.98-.78.39-1.29.45c-.32.03-1.09.06-2.31.06h-3.23v-9.5Zm1.92,1.58v2.2h1.26c.75,0,1.21-.01,1.39-.03.33-.04.59-.15.77-.34.19-.19.28-.44.28-.74s-.08-.53-.24-.72c-.16-.18-.4-.29-.72-.33-.19-.02-.74-.03-1.64-.03h-1.1Zm0,3.78v2.54h1.78c.69,0,1.13-.02,1.32-.06.28-.05.52-.18.7-.38.18-.2.27-.47.27-.81,0-.29-.07-.53-.21-.73-.14-.2-.34-.34-.6-.43-.26-.09-.83-.14-1.7-.14h-1.55Z"/>
        <path class="cls-1" d="m26.52,40.1c0-.97.14-1.78.43-2.44.22-.48.51-.92.88-1.3s.78-.67,1.23-.86c.59-.25,1.27-.38,2.05-.38,1.4,0,2.52.43,3.36,1.3s1.26,2.08,1.26,3.62-.42,2.73-1.25,3.6c-.83.87-1.95,1.3-3.34,1.3s-2.54-.43-3.37-1.29-1.25-2.05-1.25-3.56Zm1.98-.06c0,1.08.25,1.89.75,2.45.5.56,1.13.83,1.89.83s1.39-.28,1.88-.83.74-1.38.74-2.48-.24-1.9-.72-2.44c-.48-.53-1.11-.8-1.9-.8s-1.43.27-1.91.81c-.48.54-.73,1.36-.73,2.45Z"/>
        <path class="cls-1" d="m36.27,44.79l3.25-4.96-2.94-4.54h2.24l1.91,3.05,1.87-3.05h2.22l-2.96,4.61,3.25,4.89h-2.31l-2.11-3.29-2.11,3.29h-2.3Z"/>
      </g>
    </g>
  </g>
</svg>