<svg xmlns="http://www.w3.org/2000/svg" viewBox="0 0 160 160"><defs><style>.cls-1{fill:#dc7274;}.cls-2{fill:none;stroke:#fff;stroke-width:2px;}.cls-3{isolation:isolate;}.cls-4{fill:#fff;}</style></defs><g id="レイヤー_2" data-name="レイヤー 2"><g id="レイヤー_1-2" data-name="レイヤー 1"><g id="btn_plan" data-name="btn plan"><g id="楕円形_5-2" data-name="楕円形 5-2"><circle class="cls-1" cx="80" cy="80" r="80"/><circle class="cls-2" cx="80" cy="80" r="78"/></g><g id="My"><g class="cls-3"><g class="cls-3"><path class="cls-4" d="M61.44,31.41,54.88,47.73h-3.1L45.22,31.41h2.83a1,1,0,0,1,.66.2.93.93,0,0,1,.35.47l3.61,9.5c.15.45.28.89.4,1.33s.22.88.31,1.33c.08-.45.19-.89.31-1.32s.26-.88.41-1.34l3.68-9.5a1,1,0,0,1,.35-.48,1,1,0,0,1,.62-.19Z"/><path class="cls-4" d="M69.23,26.48a2.2,2.2,0,0,1-.18.88,2.38,2.38,0,0,1-1.25,1.22,2.11,2.11,0,0,1-.9.19,2.05,2.05,0,0,1-.88-.19,2.2,2.2,0,0,1-.71-.49,2.67,2.67,0,0,1-.49-.73,2.2,2.2,0,0,1-.18-.88,2.26,2.26,0,0,1,.18-.9,2.83,2.83,0,0,1,.49-.73,2.37,2.37,0,0,1,.71-.49,2.21,2.21,0,0,1,.88-.19,2.27,2.27,0,0,1,.9.19,2.51,2.51,0,0,1,.74.49,2.46,2.46,0,0,1,.51.73A2.26,2.26,0,0,1,69.23,26.48Zm-.57,4.93V47.73H65.22V31.41Z"/><path class="cls-4" d="M76.77,39.84a8,8,0,0,0,.43,2.41,4.84,4.84,0,0,0,1,1.68,3.67,3.67,0,0,0,1.48,1,5.24,5.24,0,0,0,1.91.33A5.64,5.64,0,0,0,83.31,45a7.41,7.41,0,0,0,1.28-.51l.93-.51a1.36,1.36,0,0,1,.7-.24.74.74,0,0,1,.64.32l1,1.27a6.09,6.09,0,0,1-1.38,1.21,7.51,7.51,0,0,1-1.63.81,9,9,0,0,1-1.77.45,12.18,12.18,0,0,1-1.78.14,8.47,8.47,0,0,1-3.14-.57,7.08,7.08,0,0,1-2.52-1.67A7.74,7.74,0,0,1,74,43a10.87,10.87,0,0,1-.6-3.76,9.14,9.14,0,0,1,.54-3.17,7.59,7.59,0,0,1,1.53-2.56,7.34,7.34,0,0,1,2.43-1.72,8,8,0,0,1,3.24-.63,7.68,7.68,0,0,1,2.79.49,6.07,6.07,0,0,1,2.21,1.43,6.61,6.61,0,0,1,1.44,2.31,8.67,8.67,0,0,1,.52,3.11,2.32,2.32,0,0,1-.17,1.08.71.71,0,0,1-.64.27ZM85,37.73a5.17,5.17,0,0,0-.25-1.61,3.85,3.85,0,0,0-.73-1.3A3.34,3.34,0,0,0,82.81,34a4,4,0,0,0-1.64-.31,4,4,0,0,0-3,1.07,5.27,5.27,0,0,0-1.36,3Z"/><path class="cls-4" d="M115.28,31.41l-5.23,16.32h-2.74c-.32,0-.54-.21-.67-.63l-3.25-10.16c-.08-.29-.16-.57-.23-.86s-.13-.57-.18-.85c-.12.58-.27,1.15-.44,1.73L99.25,47.1a.74.74,0,0,1-.75.63H95.89L90.66,31.41h2.72a1,1,0,0,1,.66.2.86.86,0,0,1,.34.47l2.72,9.5c.11.44.2.86.28,1.27s.16.82.22,1.23c.11-.41.22-.81.34-1.23s.24-.83.36-1.27L101.36,32a.82.82,0,0,1,.33-.47,1,1,0,0,1,.6-.18h1.5a1.09,1.09,0,0,1,.63.18.82.82,0,0,1,.33.47l3,9.55c.13.44.25.87.36,1.28s.21.83.31,1.25q.1-.6.24-1.23c.08-.42.19-.85.3-1.3l2.77-9.5a1,1,0,0,1,.35-.48,1,1,0,0,1,.63-.19Z"/><path class="cls-4" d="M60.1,86.13V69.71h2.41a1,1,0,0,1,1,.72l.26,1.22a8.28,8.28,0,0,1,.9-.88,5.31,5.31,0,0,1,1-.69,6.13,6.13,0,0,1,1.15-.46,5.21,5.21,0,0,1,1.35-.16,3.8,3.8,0,0,1,2.55.84,5,5,0,0,1,1.5,2.23,5.1,5.1,0,0,1,1-1.4,5.47,5.47,0,0,1,1.26-1,6.16,6.16,0,0,1,1.47-.54,6.9,6.9,0,0,1,1.56-.17,6.48,6.48,0,0,1,2.41.41,4.57,4.57,0,0,1,1.78,1.22,5.3,5.3,0,0,1,1.1,2,8.55,8.55,0,0,1,.37,2.64V86.13h-4V75.68a3.5,3.5,0,0,0-.69-2.36,2.51,2.51,0,0,0-2-.79,3,3,0,0,0-1.13.21,2.41,2.41,0,0,0-.91.6,2.57,2.57,0,0,0-.62,1,3.8,3.8,0,0,0-.22,1.36V86.13h-4V75.68a3.53,3.53,0,0,0-.67-2.4A2.45,2.45,0,0,0,67,72.53a3.22,3.22,0,0,0-1.61.42,5.3,5.3,0,0,0-1.38,1.16v12Z"/><path class="cls-4" d="M102.64,69.71,93.7,90.64a1.48,1.48,0,0,1-.46.63,1.36,1.36,0,0,1-.86.22H89.44l3.07-6.6L85.87,69.71h3.47a1.13,1.13,0,0,1,.73.22,1.37,1.37,0,0,1,.39.52L94,79a8,8,0,0,1,.3.86c.08.29.16.58.23.88.1-.3.19-.59.29-.88a9.25,9.25,0,0,1,.32-.88l3.29-8.49a1.17,1.17,0,0,1,.43-.53,1.13,1.13,0,0,1,.66-.21Z"/><path class="cls-4" d="M46.69,101.49a13,13,0,0,1,3.91.52,7.79,7.79,0,0,1,2.74,1.48,5.91,5.91,0,0,1,1.6,2.29,8.45,8.45,0,0,1,0,6,6.3,6.3,0,0,1-1.66,2.35,7.79,7.79,0,0,1-2.75,1.54,11.86,11.86,0,0,1-3.81.55H43.26v8.34H39.52v-23Zm0,11.74a7,7,0,0,0,2.2-.32,4.28,4.28,0,0,0,1.58-.9,3.67,3.67,0,0,0,1-1.42,5,5,0,0,0,.32-1.86,4.85,4.85,0,0,0-.31-1.8,3.51,3.51,0,0,0-.93-1.36,4.14,4.14,0,0,0-1.58-.86,7.43,7.43,0,0,0-2.23-.3H43.26v8.82Z"/><path class="cls-4" d="M73.65,121.39v3.14H60.34v-23h3.74v19.9Z"/><path class="cls-4" d="M97.42,124.53H94.53a1.25,1.25,0,0,1-.8-.25,1.7,1.7,0,0,1-.47-.62l-1.92-5.09H81.42l-1.92,5.09a1.43,1.43,0,0,1-.44.59,1.17,1.17,0,0,1-.8.28h-2.9l9.14-23h3.79Zm-7.08-8.64-3.17-8.42a23.15,23.15,0,0,1-.79-2.48,13.61,13.61,0,0,1-.38,1.38c-.14.43-.27.8-.38,1.12l-3.17,8.4Z"/><path class="cls-4" d="M120.46,101.49v23h-1.9a1.55,1.55,0,0,1-.74-.16,1.63,1.63,0,0,1-.57-.5l-12.66-16.26c0,.31.06.62.07.92s0,.59,0,.84v15.16h-3.3v-23h2a2.49,2.49,0,0,1,.41,0,1.4,1.4,0,0,1,.31.09,1,1,0,0,1,.28.19c.08.09.17.19.27.32l12.67,16.27c0-.33-.06-.65-.07-1s0-.62,0-.9v-15Z"/></g></g></g></g></g></g></svg>