<svg xmlns="http://www.w3.org/2000/svg" viewBox="0 0 63 63"><defs><style>.cls-1{fill:#cf7877;}.cls-2{fill:none;stroke:#fff;stroke-width:2px;}.cls-3{isolation:isolate;}.cls-4{fill:#fff;}</style></defs><g id="レイヤー_2" data-name="レイヤー 2"><g id="レイヤー_1-2" data-name="レイヤー 1"><g id="グループ_50" data-name="グループ 50"><g id="楕円形_2" data-name="楕円形 2"><circle class="cls-1" cx="31.5" cy="31.5" r="31.5"/><circle class="cls-2" cx="31.5" cy="31.5" r="30.5"/></g><g id="プラン_を見る" data-name="プラン を見る" class="cls-3"><g class="cls-3"><path class="cls-4" d="M21.7,21.28c.36,0,.5,0,.71,0a1.39,1.39,0,0,1,2.77,0,1.4,1.4,0,0,1-1.39,1.39,1.81,1.81,0,0,1-.23,0,10.76,10.76,0,0,1-6.89,8,4.3,4.3,0,0,0-1.05-1.42,8.71,8.71,0,0,0,6.26-6.46H16.17a8.38,8.38,0,0,0-1.51.08V21.2a8.44,8.44,0,0,0,1.53.08Zm1.31,0a.78.78,0,0,0,.78.79.79.79,0,0,0,.79-.79.78.78,0,0,0-.79-.78A.77.77,0,0,0,23,21.25Z"/><path class="cls-4" d="M35.28,24.21A4.76,4.76,0,0,0,35,25,8.51,8.51,0,0,1,32.16,29,10.8,10.8,0,0,1,29,30.65a4.13,4.13,0,0,0-.93-1.39,7.73,7.73,0,0,0,3.33-1.59,6.2,6.2,0,0,0,1.93-2.8H27.51a11.74,11.74,0,0,0-1.53.06V23.46a7.65,7.65,0,0,0,1.55.09h5.71a5.41,5.41,0,0,0,1.36-.11ZM27,20.57a6.12,6.12,0,0,0,1.4.09h4.18A6.27,6.27,0,0,0,34,20.57v1.48A8.94,8.94,0,0,0,32.61,22H28.37a8.79,8.79,0,0,0-1.37.06Z"/><path class="cls-4" d="M36.8,28.56a11.43,11.43,0,0,0,3.55-.89,8,8,0,0,0,3.56-2.93,9.66,9.66,0,0,0,1.22-2.4,5.12,5.12,0,0,0,1.28,1.17,10.46,10.46,0,0,1-3.81,4.7A12.73,12.73,0,0,1,38,30a4.44,4.44,0,0,0-.79.21Zm1-7.45a16.64,16.64,0,0,1,3.09,2.32l-1,1.31a12.45,12.45,0,0,0-3.06-2.44Z"/></g><g class="cls-3"><path class="cls-4" d="M15,34.38a15.4,15.4,0,0,0,2.78.15,4.43,4.43,0,0,0,.48-1.48l1.57.16a10.25,10.25,0,0,0-.48,1.08l-.1.22.75,0a15.15,15.15,0,0,0,3.14-.41l.09,1.37a9.24,9.24,0,0,0-.95.1c-.87.1-2.4.2-3.61.24a6.25,6.25,0,0,1-1.1,1.59v0l.24-.18a2.86,2.86,0,0,1,1.69-.54,1.58,1.58,0,0,1,1.72,1.27c.92-.34,1.53-.55,1.83-.65a3.79,3.79,0,0,0,.89-.36l.56,1.38a11.21,11.21,0,0,0-1.33.32c-.17.05-.77.25-1.8.61v.14c0,.31,0,.31,0,.48v.48c0,.2,0,.31,0,.39a4.06,4.06,0,0,0,0,.64l-1.39,0A10.72,10.72,0,0,0,20.07,40v-.29a7.29,7.29,0,0,0-1.15.63,1.26,1.26,0,0,0-.63,1c0,.62.58.88,2,.88a10.31,10.31,0,0,0,3.53-.51L24,43.24a3.19,3.19,0,0,0-.56,0,22,22,0,0,1-3.07.21,5.13,5.13,0,0,1-2.67-.5,1.75,1.75,0,0,1-.88-1.55,1.94,1.94,0,0,1,.53-1.33,5.89,5.89,0,0,1,2.58-1.69.66.66,0,0,0-.73-.65A4,4,0,0,0,16.71,39a5.41,5.41,0,0,0-1,1.09L14.58,39A7.61,7.61,0,0,0,15.65,38a15.3,15.3,0,0,0,1.44-2.05.65.65,0,0,1,.1-.15H17l-1.51,0H15Z"/><path class="cls-4" d="M28.49,40.46c-.57,0-1,0-1.29,0a8.88,8.88,0,0,0,.06-1.27V34.85c0-.67,0-1.19-.06-1.5a10.7,10.7,0,0,0,1.26.06H34a10.77,10.77,0,0,0,1.27-.06,13,13,0,0,0-.06,1.5v4.37a8.55,8.55,0,0,0,.06,1.27c-.31,0-.78,0-1.27,0H33v1.85c0,.33.1.37,1,.37s1.16,0,1.31-.26a3.68,3.68,0,0,0,.21-1.53,5,5,0,0,0,1.24.5c-.12,1.34-.24,1.78-.54,2.07s-.85.4-2.21.4c-2,0-2.35-.16-2.35-1.06V40.46H30.58a3.7,3.7,0,0,1-1.14,2.22,6.26,6.26,0,0,1-3,1.44,3.8,3.8,0,0,0-.7-1.18A6,6,0,0,0,28,42.15a2.42,2.42,0,0,0,1.14-1.69Zm0-5.08h5.41V34.6H28.52Zm0,1.94h5.41v-.81H28.52Zm0,2h5.41v-.85H28.52Z"/><path class="cls-4" d="M41.44,38.05A5.88,5.88,0,0,1,44,37.5c2,0,3.37,1,3.37,2.69a2.92,2.92,0,0,1-1.63,2.65,5.87,5.87,0,0,1-2.9.69A4.06,4.06,0,0,1,40.47,43a1.71,1.71,0,0,1-.72-1.38,1.84,1.84,0,0,1,2.06-1.72,2.59,2.59,0,0,1,2.08,1,3.23,3.23,0,0,1,.55,1.07c1-.37,1.43-.88,1.43-1.73s-.93-1.55-2.38-1.55a7.42,7.42,0,0,0-4.94,2l-.81-1.29a11.75,11.75,0,0,0,1.69-1.13A39.24,39.24,0,0,0,43,35.13l.22-.21v0c-.46.07-1.23.11-3.4.21a3.22,3.22,0,0,0-.57.06l-.06-1.44a10.39,10.39,0,0,0,1.41.07c1,0,2.48-.06,3.65-.14A1.72,1.72,0,0,0,45,33.5l.74,1.06a2.84,2.84,0,0,0-.62.49c-.6.55-1.47,1.33-1.88,1.68-.22.18-1.08.83-1.32,1a3.16,3.16,0,0,1-.49.31Zm.36,3c-.43,0-.71.22-.71.56s.54.75,1.43.75a3,3,0,0,0,.62-.05C42.93,41.47,42.47,41,41.8,41Z"/></g></g></g></g></g></svg>