<?xml version="1.0" encoding="utf-8"?>
<!-- Generator: Adobe Illustrator 25.2.0, SVG Export Plug-In . SVG Version: 6.00 Build 0)  -->
<svg version="1.1" id="レイヤー_1" xmlns="http://www.w3.org/2000/svg" xmlns:xlink="http://www.w3.org/1999/xlink" x="0px"
	 y="0px" viewBox="0 0 160 160" style="enable-background:new 0 0 160 160;" xml:space="preserve">
<style type="text/css">
	.st0{fill:#DC7274;}
	.st1{fill:none;stroke:#FFFFFF;stroke-width:2;}
	.st2{fill:#FFFFFF;}
	.st3{font-family:'HiraginoSans-W5-83pv-RKSJ-H';}
	.st4{font-size:28px;}
	.st5{letter-spacing:-2;}
	.st6{letter-spacing:-3;}
	.st7{letter-spacing:-1;}
	.st8{font-family:'Lato-Semibold';}
	.st9{font-size:32px;}
	.st10{letter-spacing:1;}
	.st11{font-family:'HiraginoSans-W4-83pv-RKSJ-H';}
	.st12{font-size:24px;}
	.st13{enable-background:new    ;}
</style>
<g id="guide">
	<g id="btn_plan">
		<g id="楕円形_5-2">
			<circle class="st0" cx="80" cy="80" r="80"/>
			<circle class="st1" cx="80" cy="80" r="78"/>
		</g>
		<g id="プラン">
			<text transform="matrix(1 0 0 1 36.38 96)" class="st2 st3 st4 st5">プ</text>
			<text transform="matrix(1 0 0 1 62.25 96)" class="st2 st3 st4 st6">ラ</text>
			<text transform="matrix(1 0 0 1 87.09 96)" class="st2 st3 st4 st7">ン</text>
		</g>
		<g id="My">
			<text transform="matrix(1 0 0 1 56 60)" class="st2 st8 st9 st10">m</text>
			<text transform="matrix(1 0 0 1 83.76 60)" class="st2 st8 st9">y</text>
		</g>
		<g id="を見る">
			<text transform="matrix(1 0 0 1 43.14 126)" class="st2 st11 st12 st7">を</text>
			<text transform="matrix(1 0 0 1 65.94 126)" class="st2 st11 st12 st7">見</text>
			<text transform="matrix(1 0 0 1 88.72 126)" class="st2 st11 st12 st7">る</text>
		</g>
	</g>
</g>
<g id="btn_plan_1_">
	<g id="楕円形_5-2_1_">
		<circle class="st0" cx="-108.4" cy="268.8" r="80"/>
		<circle class="st1" cx="-108.4" cy="268.8" r="78"/>
	</g>
	<g id="My_1_">
		<g class="st13">
			<path class="st2" d="M-127,220.2l-6.6,16.3h-3.1l-6.6-16.3h2.8c0.3,0,0.5,0.1,0.7,0.2c0.2,0.1,0.3,0.3,0.3,0.5l3.6,9.5
				c0.1,0.4,0.3,0.9,0.4,1.3c0.1,0.4,0.2,0.9,0.3,1.3c0.1-0.4,0.2-0.9,0.3-1.3c0.1-0.4,0.3-0.9,0.4-1.3l3.7-9.5
				c0.1-0.2,0.2-0.4,0.4-0.5s0.4-0.2,0.6-0.2H-127z"/>
			<path class="st2" d="M-119.2,215.2c0,0.3-0.1,0.6-0.2,0.9s-0.3,0.5-0.5,0.7s-0.5,0.4-0.7,0.5c-0.3,0.1-0.6,0.2-0.9,0.2
				c-0.3,0-0.6-0.1-0.9-0.2c-0.3-0.1-0.5-0.3-0.7-0.5s-0.4-0.5-0.5-0.7c-0.1-0.3-0.2-0.6-0.2-0.9c0-0.3,0.1-0.6,0.2-0.9
				c0.1-0.3,0.3-0.5,0.5-0.7s0.4-0.4,0.7-0.5c0.3-0.1,0.6-0.2,0.9-0.2c0.3,0,0.6,0.1,0.9,0.2c0.3,0.1,0.5,0.3,0.7,0.5
				s0.4,0.5,0.5,0.7S-119.2,214.9-119.2,215.2z M-119.8,220.2v16.3h-3.4v-16.3H-119.8z"/>
			<path class="st2" d="M-111.7,228.6c0,0.9,0.2,1.7,0.4,2.4c0.2,0.7,0.6,1.2,1,1.7s0.9,0.8,1.5,1c0.6,0.2,1.2,0.3,1.9,0.3
				c0.7,0,1.3-0.1,1.7-0.2c0.5-0.2,0.9-0.3,1.3-0.5c0.4-0.2,0.7-0.4,0.9-0.5c0.3-0.2,0.5-0.2,0.7-0.2c0.3,0,0.5,0.1,0.6,0.3l1,1.3
				c-0.4,0.5-0.9,0.9-1.4,1.2c-0.5,0.3-1.1,0.6-1.6,0.8c-0.6,0.2-1.2,0.4-1.8,0.4c-0.6,0.1-1.2,0.1-1.8,0.1c-1.1,0-2.2-0.2-3.1-0.6
				c-1-0.4-1.8-0.9-2.5-1.7c-0.7-0.7-1.3-1.6-1.7-2.7c-0.4-1.1-0.6-2.3-0.6-3.8c0-1.1,0.2-2.2,0.5-3.2c0.4-1,0.9-1.8,1.5-2.6
				s1.5-1.3,2.4-1.7c1-0.4,2-0.6,3.2-0.6c1,0,1.9,0.2,2.8,0.5s1.6,0.8,2.2,1.4c0.6,0.6,1.1,1.4,1.4,2.3c0.3,0.9,0.5,1.9,0.5,3.1
				c0,0.5-0.1,0.9-0.2,1.1c-0.1,0.2-0.3,0.3-0.6,0.3H-111.7z M-103.4,226.5c0-0.6-0.1-1.1-0.2-1.6c-0.2-0.5-0.4-0.9-0.7-1.3
				c-0.3-0.4-0.7-0.7-1.2-0.9s-1-0.3-1.6-0.3c-1.2,0-2.2,0.4-2.9,1.1s-1.2,1.7-1.4,3H-103.4z"/>
			<path class="st2" d="M-73.1,220.2l-5.2,16.3h-2.7c-0.3,0-0.5-0.2-0.7-0.6l-3.2-10.2c-0.1-0.3-0.2-0.6-0.2-0.9
				c-0.1-0.3-0.1-0.6-0.2-0.8c-0.1,0.6-0.3,1.2-0.4,1.7l-3.3,10.1c-0.1,0.4-0.4,0.6-0.8,0.6h-2.6l-5.2-16.3h2.7
				c0.3,0,0.5,0.1,0.7,0.2c0.2,0.1,0.3,0.3,0.3,0.5l2.7,9.5c0.1,0.4,0.2,0.9,0.3,1.3c0.1,0.4,0.2,0.8,0.2,1.2
				c0.1-0.4,0.2-0.8,0.3-1.2c0.1-0.4,0.2-0.8,0.4-1.3l3.1-9.6c0.1-0.2,0.2-0.3,0.3-0.5c0.2-0.1,0.4-0.2,0.6-0.2h1.5
				c0.2,0,0.5,0.1,0.6,0.2c0.2,0.1,0.3,0.3,0.3,0.5l3,9.6c0.1,0.4,0.2,0.9,0.4,1.3s0.2,0.8,0.3,1.2c0.1-0.4,0.2-0.8,0.2-1.2
				s0.2-0.8,0.3-1.3l2.8-9.5c0.1-0.2,0.2-0.4,0.4-0.5c0.2-0.1,0.4-0.2,0.6-0.2H-73.1z"/>
			<path class="st2" d="M-128.3,274.9v-16.4h2.4c0.5,0,0.8,0.2,1,0.7l0.3,1.2c0.3-0.3,0.6-0.6,0.9-0.9c0.3-0.3,0.7-0.5,1-0.7
				c0.4-0.2,0.7-0.3,1.2-0.5s0.9-0.2,1.4-0.2c1,0,1.9,0.3,2.6,0.8c0.7,0.6,1.2,1.3,1.5,2.2c0.3-0.5,0.6-1,1-1.4
				c0.4-0.4,0.8-0.7,1.3-1c0.5-0.2,0.9-0.4,1.5-0.5c0.5-0.1,1-0.2,1.6-0.2c0.9,0,1.7,0.1,2.4,0.4c0.7,0.3,1.3,0.7,1.8,1.2
				s0.8,1.2,1.1,2c0.3,0.8,0.4,1.6,0.4,2.6v10.4h-4v-10.4c0-1-0.2-1.8-0.7-2.4c-0.5-0.5-1.1-0.8-2-0.8c-0.4,0-0.8,0.1-1.1,0.2
				c-0.3,0.1-0.7,0.3-0.9,0.6c-0.3,0.3-0.5,0.6-0.6,1s-0.2,0.8-0.2,1.4v10.4h-4v-10.4c0-1.1-0.2-1.9-0.7-2.4
				c-0.4-0.5-1.1-0.8-1.9-0.8c-0.6,0-1.1,0.1-1.6,0.4c-0.5,0.3-1,0.7-1.4,1.2v12H-128.3z"/>
			<path class="st2" d="M-85.8,258.5l-8.9,20.9c-0.1,0.3-0.3,0.5-0.5,0.6c-0.2,0.1-0.5,0.2-0.9,0.2H-99l3.1-6.6l-6.6-15.2h3.5
				c0.3,0,0.6,0.1,0.7,0.2c0.2,0.1,0.3,0.3,0.4,0.5l3.5,8.5c0.1,0.3,0.2,0.6,0.3,0.9c0.1,0.3,0.2,0.6,0.2,0.9
				c0.1-0.3,0.2-0.6,0.3-0.9c0.1-0.3,0.2-0.6,0.3-0.9l3.3-8.5c0.1-0.2,0.2-0.4,0.4-0.5c0.2-0.1,0.4-0.2,0.7-0.2H-85.8z"/>
			<path class="st2" d="M-141.7,290.2c1.5,0,2.8,0.2,3.9,0.5c1.1,0.4,2,0.8,2.7,1.5c0.7,0.6,1.3,1.4,1.6,2.3s0.5,1.9,0.5,3
				c0,1.1-0.2,2.1-0.6,3s-0.9,1.7-1.7,2.4c-0.7,0.7-1.7,1.2-2.7,1.5c-1.1,0.4-2.4,0.6-3.8,0.6h-3.4v8.3h-3.7v-23H-141.7z
				 M-141.7,302c0.8,0,1.6-0.1,2.2-0.3c0.6-0.2,1.2-0.5,1.6-0.9c0.4-0.4,0.7-0.9,1-1.4c0.2-0.6,0.3-1.2,0.3-1.9
				c0-0.7-0.1-1.3-0.3-1.8s-0.5-1-0.9-1.4s-0.9-0.7-1.6-0.9c-0.6-0.2-1.4-0.3-2.2-0.3h-3.4v8.8H-141.7z"/>
			<path class="st2" d="M-114.8,310.2v3.1h-13.3v-23h3.7v19.9H-114.8z"/>
			<path class="st2" d="M-91,313.3h-2.9c-0.3,0-0.6-0.1-0.8-0.2c-0.2-0.2-0.4-0.4-0.5-0.6l-1.9-5.1h-9.9l-1.9,5.1
				c-0.1,0.2-0.2,0.4-0.4,0.6c-0.2,0.2-0.5,0.3-0.8,0.3h-2.9l9.1-23h3.8L-91,313.3z M-98.1,304.6l-3.2-8.4c-0.3-0.7-0.5-1.5-0.8-2.5
				c-0.1,0.5-0.2,1-0.4,1.4c-0.1,0.4-0.3,0.8-0.4,1.1l-3.2,8.4H-98.1z"/>
			<path class="st2" d="M-68,290.2v23h-1.9c-0.3,0-0.5-0.1-0.7-0.2c-0.2-0.1-0.4-0.3-0.6-0.5l-12.7-16.3c0,0.3,0.1,0.6,0.1,0.9
				c0,0.3,0,0.6,0,0.8v15.2H-87v-23h2c0.2,0,0.3,0,0.4,0c0.1,0,0.2,0,0.3,0.1c0.1,0,0.2,0.1,0.3,0.2c0.1,0.1,0.2,0.2,0.3,0.3
				l12.7,16.3c0-0.3-0.1-0.7-0.1-1c0-0.3,0-0.6,0-0.9v-15H-68z"/>
		</g>
	</g>
</g>
</svg>
