<?xml version="1.0" encoding="UTF-8"?>
<svg id="_レイヤー_2" data-name="レイヤー 2" xmlns="http://www.w3.org/2000/svg" viewBox="0 0 63 63">
  <defs>
    <style>
      .cls-1 {
        fill: #fff;
      }

      .cls-2 {
        fill: #c99f20;
      }

      .cls-3 {
        fill: none;
        stroke: #fff;
        stroke-width: 2px;
      }
    </style>
  </defs>
  <g id="_レイヤー_1-2" data-name="レイヤー 1">
    <g id="_グループ_50" data-name="グループ 50">
      <g id="_楕円形_2" data-name="楕円形 2">
        <circle class="cls-2" cx="31.5" cy="31.5" r="31.5"/>
        <circle class="cls-3" cx="31.5" cy="31.5" r="30.5"/>
      </g>
      <g>
        <path class="cls-1" d="m21.62,20.62c.17,0,.42-.01.68-.05-.01-.07-.02-.14-.02-.23,0-.79.65-1.44,1.44-1.44s1.43.65,1.43,1.44-.65,1.43-1.43,1.43c-.05,0-.11,0-.16-.01l-.1.36c-.28,1.18-.79,3.04-1.8,4.37-1.08,1.44-2.67,2.63-4.82,3.31l-1.31-1.43c2.39-.56,3.73-1.59,4.7-2.82.79-1,1.25-2.35,1.42-3.38h-5.59c-.55,0-1.12.02-1.43.05v-1.69c.35.05,1.03.1,1.43.1h5.55Zm2.78-.28c0-.38-.31-.7-.68-.7s-.7.31-.7.7.31.68.7.68.68-.31.68-.68Z"/>
        <path class="cls-1" d="m36.24,23.41c-.08.16-.18.37-.23.5-.36,1.16-.88,2.33-1.77,3.32-1.21,1.34-2.75,2.16-4.28,2.59l-1.2-1.35c1.81-.37,3.25-1.16,4.16-2.1.65-.66,1.02-1.4,1.24-2.07h-5.79c-.29,0-.89.01-1.39.06v-1.56c.5.05,1.02.07,1.39.07h5.94c.38,0,.71-.05.88-.12l1.07.66Zm-8.17-3.48c.34.05.84.06,1.25.06h4.62c.37,0,.96-.01,1.29-.06v1.55c-.32-.02-.89-.04-1.32-.04h-4.59c-.38,0-.9.01-1.25.04v-1.55Z"/>
        <path class="cls-1" d="m43.38,26.43c2.04-1.21,3.61-3.05,4.37-4.67l.94,1.69c-.91,1.62-2.51,3.27-4.44,4.44-1.21.73-2.76,1.4-4.45,1.69l-1.01-1.58c1.87-.26,3.43-.88,4.59-1.57Zm0-3.89l-1.22,1.26c-.62-.67-2.12-1.98-3-2.59l1.13-1.2c.84.56,2.4,1.81,3.09,2.53Z"/>
      </g>
      <g>
        <path class="cls-1" d="m16.67,33.88h4.19c.83,0,1.45.03,1.85.1.41.07.77.21,1.09.43.32.22.59.51.8.87.21.36.32.77.32,1.23,0,.49-.13.94-.4,1.35-.26.41-.62.72-1.08.92.64.19,1.13.5,1.47.95.34.45.51.97.51,1.58,0,.48-.11.94-.33,1.39-.22.45-.52.81-.91,1.08-.38.27-.86.43-1.42.5-.35.04-1.2.06-2.55.07h-3.57v-10.47Zm2.11,1.74v2.42h1.39c.82,0,1.34-.01,1.54-.04.36-.04.65-.17.85-.37s.31-.48.31-.82-.09-.59-.27-.79-.44-.32-.8-.37c-.21-.02-.81-.04-1.81-.04h-1.21Zm0,4.17v2.8h1.96c.76,0,1.25-.02,1.45-.06.31-.06.57-.2.77-.42.2-.22.3-.52.3-.89,0-.31-.08-.58-.23-.8-.15-.22-.37-.38-.66-.48-.29-.1-.91-.15-1.88-.15h-1.71Z"/>
        <path class="cls-1" d="m26.8,39.19c0-1.07.16-1.96.48-2.69.24-.53.56-1.01.98-1.44.41-.42.86-.74,1.35-.94.65-.28,1.41-.41,2.26-.41,1.54,0,2.78.48,3.7,1.44.93.96,1.39,2.29,1.39,3.99s-.46,3.01-1.38,3.97c-.92.96-2.15,1.43-3.69,1.43s-2.8-.48-3.72-1.43c-.92-.95-1.38-2.26-1.38-3.93Zm2.18-.07c0,1.19.27,2.08.82,2.7s1.24.92,2.09.92,1.54-.3,2.08-.91c.54-.61.81-1.52.81-2.73s-.26-2.1-.79-2.69c-.53-.59-1.23-.89-2.1-.89s-1.57.3-2.11.9-.8,1.5-.8,2.7Z"/>
        <path class="cls-1" d="m37.55,44.36l3.58-5.47-3.24-5.01h2.47l2.1,3.37,2.06-3.37h2.45l-3.26,5.09,3.58,5.39h-2.55l-2.32-3.62-2.33,3.62h-2.54Z"/>
      </g>
    </g>
  </g>
</svg>