<svg xmlns="http://www.w3.org/2000/svg" viewBox="0 0 63 63"><defs><style>.cls-1{fill:#cf7877;}.cls-2{fill:none;stroke:#fff;stroke-width:2px;}.cls-3{fill:#fff;}</style></defs><g id="レイヤー_2" data-name="レイヤー 2"><g id="レイヤー_1-2" data-name="レイヤー 1"><g id="グループ_50" data-name="グループ 50"><g id="楕円形_2" data-name="楕円形 2"><circle class="cls-1" cx="31.5" cy="31.5" r="31.5"/><circle class="cls-2" cx="31.5" cy="31.5" r="30.5"/></g><path class="cls-3" d="M21.62,20.62c.17,0,.42,0,.69-.05a.85.85,0,0,1,0-.23,1.44,1.44,0,1,1,1.44,1.43h-.16l-.09.35a12.11,12.11,0,0,1-1.8,4.37,9.45,9.45,0,0,1-4.82,3.31l-1.31-1.43a7.86,7.86,0,0,0,4.7-2.81,7.81,7.81,0,0,0,1.42-3.39H16.07c-.55,0-1.12,0-1.43.05V20.52a12.84,12.84,0,0,0,1.43.1Zm2.78-.28a.69.69,0,1,0-1.37,0,.69.69,0,0,0,1.37,0Z"/><path class="cls-3" d="M36.24,23.41a4.23,4.23,0,0,0-.23.5,8.64,8.64,0,0,1-1.78,3.33A9,9,0,0,1,30,29.83l-1.2-1.36a8,8,0,0,0,4.16-2.1,5.24,5.24,0,0,0,1.24-2.07H28.36c-.29,0-.89,0-1.39.06V22.8c.5.05,1,.07,1.39.07h5.93a2.59,2.59,0,0,0,.88-.12Zm-8.17-3.48a9.7,9.7,0,0,0,1.25.06h4.61a10.9,10.9,0,0,0,1.3-.06v1.55c-.32,0-.89,0-1.32,0H29.32c-.39,0-.9,0-1.25,0Z"/><path class="cls-3" d="M43.38,26.43a11.29,11.29,0,0,0,4.36-4.66l.94,1.69a12.81,12.81,0,0,1-4.44,4.44,13.06,13.06,0,0,1-4.45,1.69l-1-1.59A12.18,12.18,0,0,0,43.38,26.43Zm0-3.88-1.22,1.26a25,25,0,0,0-3-2.59L40.29,20A25.83,25.83,0,0,1,43.38,22.55Z"/><path class="cls-3" d="M24.11,32.91c0,.11-.14.16-.33.14a22.85,22.85,0,0,1-1.06,2.31l.47.13c0,.11-.12.18-.31.2v7.93H21.45V37.47a14.23,14.23,0,0,1-1.15,1.44,10.29,10.29,0,0,0-.72-1.45,14.86,14.86,0,0,0,2.9-5.11Zm7,2.73H27.72v1.28h3.13v1.3H27.72v1.37H31v1.33h-3.3v2.69H26.25v-8h-.63a13.18,13.18,0,0,1-1.54,2.5,8.14,8.14,0,0,0-1.08-1,13.35,13.35,0,0,0,2.3-4.69l1.72.51a.31.31,0,0,1-.34.15c-.13.39-.28.8-.44,1.2h4.91Z"/><path class="cls-3" d="M39.32,35.62A26.54,26.54,0,0,0,39.84,39,12.33,12.33,0,0,0,41,36.29l1.65.47c0,.11-.14.18-.33.17a14.16,14.16,0,0,1-2,3.86c.35.88.76,1.42,1.18,1.42s.47-.64.54-2.16a3.49,3.49,0,0,0,1.16.81c-.24,2.23-.71,2.77-1.82,2.77A2.52,2.52,0,0,1,39.38,42a10.28,10.28,0,0,1-2.06,1.66,8.94,8.94,0,0,0-.94-1.13,8.56,8.56,0,0,0,2.41-2,21.91,21.91,0,0,1-.9-4.93H34.27v1.21h2.32l.75,0v.43c-.05,2.71-.12,3.79-.4,4.16s-.71.55-2.22.52a3.41,3.41,0,0,0-.39-1.34c.44,0,.85,0,1,0a.42.42,0,0,0,.36-.14A7.06,7.06,0,0,0,36,38.15H34.27c-.05,1.75-.33,4-1.43,5.49a6,6,0,0,0-1.13-.94c1-1.41,1.13-3.47,1.13-5V34.24h4.95c0-.63-.06-1.28-.06-1.92l1.81.1c0,.13-.12.2-.34.24,0,.53,0,1.05,0,1.58h2a12.49,12.49,0,0,0-1.48-1.08l.9-.84a10.67,10.67,0,0,1,1.86,1.31l-.63.61h1v1.38Z"/></g></g></g></svg>