<?xml version="1.0" encoding="UTF-8"?>
<svg id="_レイヤー_2" data-name="レイヤー 2" xmlns="http://www.w3.org/2000/svg" viewBox="0 0 63 63">
  <defs>
    <style>
      .cls-1 {
        fill: none;
        stroke: #fff;
        stroke-width: 2px;
      }

      .cls-2 {
        fill: #c99f20;
      }

      .cls-2, .cls-3 {
        stroke-width: 0px;
      }

      .cls-3 {
        fill: #fff;
      }
    </style>
  </defs>
  <g id="_レイヤー_1-2" data-name="レイヤー 1">
    <g id="_グループ_50" data-name="グループ 50">
      <g id="_楕円形_2" data-name="楕円形 2">
        <circle class="cls-2" cx="31.5" cy="31.5" r="31.5"/>
        <circle class="cls-1" cx="31.5" cy="31.5" r="30.5"/>
      </g>
      <g>
        <path class="cls-3" d="m21.62,35.62c.17,0,.42-.01.68-.05-.01-.07-.02-.14-.02-.23,0-.79.65-1.44,1.44-1.44s1.43.65,1.43,1.44-.65,1.43-1.43,1.43c-.05,0-.11,0-.16-.01l-.1.36c-.28,1.18-.79,3.04-1.8,4.37-1.08,1.44-2.67,2.63-4.82,3.31l-1.31-1.43c2.39-.56,3.73-1.59,4.7-2.82.79-1,1.25-2.35,1.42-3.38h-5.59c-.55,0-1.12.02-1.43.05v-1.69c.35.05,1.03.1,1.43.1h5.55Zm2.78-.28c0-.38-.31-.7-.68-.7s-.7.31-.7.7.31.68.7.68.68-.31.68-.68Z"/>
        <path class="cls-3" d="m36.24,38.41c-.08.16-.18.37-.23.5-.36,1.16-.88,2.33-1.77,3.32-1.21,1.34-2.75,2.16-4.28,2.59l-1.2-1.35c1.81-.37,3.25-1.16,4.16-2.1.65-.66,1.02-1.4,1.24-2.07h-5.79c-.29,0-.89.01-1.39.06v-1.56c.5.05,1.02.07,1.39.07h5.94c.38,0,.71-.05.88-.12l1.07.66Zm-8.17-3.48c.34.05.84.06,1.25.06h4.62c.37,0,.96-.01,1.29-.06v1.55c-.32-.02-.89-.04-1.32-.04h-4.59c-.38,0-.9.01-1.25.04v-1.55Z"/>
        <path class="cls-3" d="m43.38,41.43c2.04-1.21,3.61-3.05,4.37-4.67l.94,1.69c-.91,1.62-2.51,3.27-4.44,4.44-1.21.73-2.76,1.4-4.45,1.69l-1.01-1.58c1.87-.26,3.43-.88,4.59-1.57Zm0-3.89l-1.22,1.26c-.62-.67-2.12-1.98-3-2.59l1.13-1.2c.84.56,2.4,1.81,3.09,2.53Z"/>
      </g>
      <g>
        <path class="cls-3" d="m22.03,28.92c.07-.57.1-1.09.1-1.86v-3.8c0-.94-.02-1.38-.1-1.86h2.44v.52s0,.05-.01.17v.12c.63-.69,1.38-1.01,2.36-1.01.64,0,1.17.15,1.58.44.22.16.35.31.51.62.77-.75,1.52-1.07,2.59-1.07,1.77,0,2.67.96,2.67,2.83v3.06c0,.76.02,1.27.1,1.85h-2.57c.07-.58.1-1.02.1-1.86v-2.54c0-.93-.27-1.28-.98-1.28-.63,0-1.2.49-1.51,1.32v2.52c0,.74.02,1.26.1,1.85h-2.57c.07-.56.1-1.07.1-1.86v-2.54c0-.52-.05-.75-.21-.96-.14-.2-.38-.31-.68-.31-.67,0-1.23.48-1.58,1.32v2.49c0,.78.02,1.26.1,1.86h-2.54Z"/>
        <path class="cls-3" d="m35.72,23.05c-.53-1.23-.58-1.35-.74-1.65h2.68c.06.4.22.93.48,1.59l1.14,2.85,1.1-2.8c.35-.85.46-1.21.53-1.64h2.68q-.31.64-.74,1.65l-2.83,6.53c-.49,1.16-1.38,1.69-2.79,1.69-.54,0-1.01-.06-1.69-.21l.27-1.96c.41.21.64.27.96.27.47,0,.81-.21,1-.58l.26-.53-2.31-5.21Z"/>
      </g>
    </g>
  </g>
</svg>