<?xml version="1.0" encoding="UTF-8"?>
<svg id="_レイヤー_2" data-name="レイヤー 2" xmlns="http://www.w3.org/2000/svg" viewBox="0 0 63 63">
  <defs>
    <style>
      .cls-1 {
        fill: #fff;
      }

      .cls-2 {
        fill: #c99f20;
      }

      .cls-3 {
        fill: none;
        stroke: #fff;
        stroke-width: 2px;
      }
    </style>
  </defs>
  <g id="_レイヤー_1-2" data-name="レイヤー 1">
    <g id="_グループ_50" data-name="グループ 50">
      <g id="_楕円形_2" data-name="楕円形 2">
        <circle class="cls-2" cx="31.5" cy="31.5" r="31.5"/>
        <circle class="cls-3" cx="31.5" cy="31.5" r="30.5"/>
      </g>
      <g>
        <path class="cls-1" d="m21.62,35.62c.17,0,.42-.01.68-.05-.01-.07-.02-.14-.02-.23,0-.79.65-1.44,1.44-1.44s1.43.65,1.43,1.44-.65,1.43-1.43,1.43c-.05,0-.11,0-.16-.01l-.1.36c-.28,1.18-.79,3.04-1.8,4.37-1.08,1.44-2.67,2.63-4.82,3.31l-1.31-1.43c2.39-.56,3.73-1.59,4.7-2.82.79-1,1.25-2.35,1.42-3.38h-5.59c-.55,0-1.12.02-1.43.05v-1.69c.35.05,1.03.1,1.43.1h5.55Zm2.78-.28c0-.38-.31-.7-.68-.7s-.7.31-.7.7.31.68.7.68.68-.31.68-.68Z"/>
        <path class="cls-1" d="m36.24,38.41c-.08.16-.18.37-.23.5-.36,1.16-.88,2.33-1.77,3.32-1.21,1.34-2.75,2.16-4.28,2.59l-1.2-1.35c1.81-.37,3.25-1.16,4.16-2.1.65-.66,1.02-1.4,1.24-2.07h-5.79c-.29,0-.89.01-1.39.06v-1.56c.5.05,1.02.07,1.39.07h5.94c.38,0,.71-.05.88-.12l1.07.66Zm-8.17-3.48c.34.05.84.06,1.25.06h4.62c.37,0,.96-.01,1.29-.06v1.55c-.32-.02-.89-.04-1.32-.04h-4.59c-.38,0-.9.01-1.25.04v-1.55Z"/>
        <path class="cls-1" d="m43.38,41.43c2.04-1.21,3.61-3.05,4.37-4.67l.94,1.69c-.91,1.62-2.51,3.27-4.44,4.44-1.21.73-2.76,1.4-4.45,1.69l-1.01-1.58c1.87-.26,3.43-.88,4.59-1.57Zm0-3.89l-1.22,1.26c-.62-.67-2.12-1.98-3-2.59l1.13-1.2c.84.56,2.4,1.81,3.09,2.53Z"/>
      </g>
      <path class="cls-1" d="m26.32,29.01c-.06-.42-.19-.86-.52-1.78l-1.1-3.19c-.01-.06-.37-1.17-.41-1.27q-.13-.43-.19-.6c.07.76.12,1.74.12,2.38v2.6c0,.83.02,1.36.1,1.86h-2.36c.07-.54.1-1.04.1-1.86v-6.25c0-.72-.04-1.36-.1-1.87h3.17c.08.52.18.9.46,1.69l1.8,5.17,1.79-5.17c.28-.8.37-1.19.44-1.69h3.18c-.07.58-.1,1.07-.1,1.87v6.25c0,.91.02,1.38.1,1.86h-2.36c.07-.55.1-1.01.1-1.86v-2.61c0-.29.04-1.19.06-1.56q.04-.64.05-.82c-.26.94-.38,1.37-.54,1.8l-1.16,3.29c-.3.85-.46,1.38-.52,1.76h-2.09Z"/>
      <path class="cls-1" d="m34.35,23.3c-.52-1.2-.56-1.31-.72-1.61h2.6c.06.38.22.9.47,1.55l1.1,2.77,1.07-2.72c.34-.83.44-1.18.52-1.6h2.6q-.3.62-.72,1.61l-2.75,6.34c-.48,1.13-1.34,1.64-2.71,1.64-.53,0-.98-.06-1.64-.2l.26-1.91c.4.2.62.26.94.26.46,0,.79-.2.97-.56l.25-.52-2.24-5.06Z"/>
    </g>
  </g>
</svg>