<?xml version="1.0" encoding="UTF-8"?>
<svg id="_レイヤー_2" data-name="レイヤー 2" xmlns="http://www.w3.org/2000/svg" viewBox="0 0 63 63">
  <defs>
    <style>
      .cls-1 {
        fill: #fff;
      }

      .cls-2 {
        fill: #c99f20;
      }

      .cls-3 {
        fill: none;
        stroke: #fff;
        stroke-width: 2px;
      }
    </style>
  </defs>
  <g id="_レイヤー_1-2" data-name="レイヤー 1">
    <g id="_グループ_50" data-name="グループ 50">
      <g id="_楕円形_2" data-name="楕円形 2">
        <circle class="cls-2" cx="31.5" cy="31.5" r="31.5"/>
        <circle class="cls-3" cx="31.5" cy="31.5" r="30.5"/>
      </g>
      <g>
        <path class="cls-1" d="m13.18,44.32c.07-.53.1-1.07.1-1.78v-6.49c0-.65-.02-1.19-.1-1.75.56.02,1,.04,1.76.04h2.63c2.37,0,3.68,1.14,3.68,3.23s-1.37,3.41-3.69,3.41h-1.9v1.54c0,.71.04,1.3.1,1.81h-2.58Zm4.27-5.39c.84,0,1.33-.47,1.33-1.29s-.47-1.26-1.33-1.26h-1.79v2.55h1.79Z"/>
        <path class="cls-1" d="m24.11,44.32c-.83,0-1.32.01-1.77.04.07-.42.1-.95.1-1.75v-6.33c0-.84-.02-1.36-.1-1.93h2.61c-.08.62-.1.96-.1,1.89v5.95h2.9c1.02,0,1.43-.01,1.99-.08v2.3c-.44-.06-1.03-.08-1.99-.08h-3.65Z"/>
        <path class="cls-1" d="m37.37,44.32c-.1-.58-.17-.89-.29-1.3l-.32-1.02h-3.42l-.32,1.02c-.16.48-.24.85-.3,1.3h-2.81c.18-.36.29-.65.58-1.46l2.59-7.22c.22-.59.32-.95.38-1.29h3.13c.08.35.17.66.41,1.29l2.6,7.22c.23.64.42,1.13.58,1.46h-2.81Zm-2.34-7.93l-1.12,3.6h2.25l-1.14-3.6Z"/>
        <path class="cls-1" d="m46.74,39.25c.35.52.58.9.86,1.43-.05-.55-.07-1.1-.07-1.77v-2.74c0-.79-.02-1.27-.1-1.82h2.55c-.07.54-.1,1.04-.1,1.82v6.37c0,.73.04,1.28.1,1.79h-2.63c-.22-.46-.49-.9-.9-1.52l-2.22-3.35c-.32-.48-.53-.84-.86-1.48.06.54.08,1.2.08,1.79v2.69c0,.83.02,1.36.1,1.87h-2.55c.07-.47.1-1,.1-1.88v-6.31c0-.7-.02-1.24-.1-1.79h2.6c.12.32.38.8.85,1.5l2.28,3.41Z"/>
        <g>
          <path class="cls-1" d="m20.64,26.91c.07-.57.1-1.09.1-1.86v-3.8c0-.94-.02-1.38-.1-1.86h2.44v.52s0,.05-.01.17v.12c.63-.69,1.38-1.01,2.36-1.01.64,0,1.17.15,1.58.44.22.16.35.31.51.62.77-.75,1.52-1.07,2.59-1.07,1.77,0,2.67.96,2.67,2.83v3.06c0,.76.02,1.27.1,1.85h-2.57c.07-.58.1-1.02.1-1.86v-2.54c0-.93-.27-1.28-.98-1.28-.63,0-1.2.49-1.51,1.32v2.52c0,.74.02,1.26.1,1.85h-2.57c.07-.56.1-1.07.1-1.86v-2.54c0-.52-.05-.75-.21-.96-.14-.2-.38-.31-.68-.31-.67,0-1.23.48-1.58,1.32v2.49c0,.78.02,1.26.1,1.86h-2.54Z"/>
          <path class="cls-1" d="m34.33,21.03c-.53-1.23-.58-1.35-.74-1.65h2.68c.06.4.22.93.48,1.59l1.14,2.85,1.1-2.8c.35-.85.46-1.21.53-1.64h2.68q-.31.64-.74,1.65l-2.83,6.53c-.49,1.16-1.38,1.69-2.79,1.69-.54,0-1.01-.06-1.69-.21l.27-1.96c.41.21.64.27.96.27.47,0,.81-.21,1-.58l.26-.53-2.31-5.21Z"/>
        </g>
      </g>
    </g>
  </g>
</svg>