<svg xmlns="http://www.w3.org/2000/svg" viewBox="0 0 63 63"><defs><style>.cls-1{fill:#cf7877;}.cls-2{fill:none;stroke:#fff;stroke-width:2px;}.cls-3{fill:#fff;}</style></defs><g id="レイヤー_2" data-name="レイヤー 2"><g id="レイヤー_1-2" data-name="レイヤー 1"><g id="グループ_50" data-name="グループ 50"><g id="楕円形_2" data-name="楕円形 2"><circle class="cls-1" cx="31.5" cy="31.5" r="31.5"/><circle class="cls-2" cx="31.5" cy="31.5" r="30.5"/></g><path class="cls-3" d="M15.48,24.06a4.83,4.83,0,0,0-.05,1,6.51,6.51,0,0,1-1.19,4.25,6.9,6.9,0,0,1-3.09,2.15,4.38,4.38,0,0,0-1-1.36,5.56,5.56,0,0,0,2.1-1c1.22-1,1.6-2,1.6-4.27a2.93,2.93,0,0,0-.06-.72Zm4.86-1.51a3.45,3.45,0,0,0-.47.84A7.8,7.8,0,0,1,18,25.8a7.51,7.51,0,0,1-1.44,1A4.14,4.14,0,0,0,15.5,25.7a5.54,5.54,0,0,0,1.75-1.1,5.19,5.19,0,0,0,1.14-1.52h-6.3a11.55,11.55,0,0,0-1.63.07v-1.5a10,10,0,0,0,1.66.09h6.26a3.47,3.47,0,0,0,1.16-.1Z"/><path class="cls-3" d="M24.15,21.38a10.83,10.83,0,0,0-.07,1.22L24,29.44a8.54,8.54,0,0,0,3.28-1.32,7.07,7.07,0,0,0,2.44-2.74,5.86,5.86,0,0,0,1.14,1.22,9,9,0,0,1-2.67,2.8A11,11,0,0,1,23.84,31a3.9,3.9,0,0,0-.72.2l-.77-.92a4,4,0,0,0,.11-1.24l.05-6.47a5.9,5.9,0,0,0-.06-1.24Z"/><path class="cls-3" d="M31.69,29.37a11.43,11.43,0,0,0,3.55-.89,7.94,7.94,0,0,0,3.56-2.93A10,10,0,0,0,40,23.15a5.08,5.08,0,0,0,1.27,1.17A10.51,10.51,0,0,1,37.5,29a12.89,12.89,0,0,1-4.57,1.8,4.36,4.36,0,0,0-.8.21Zm1-7.45a16.64,16.64,0,0,1,3.09,2.32l-1,1.31a12.45,12.45,0,0,0-3.06-2.44Z"/><path class="cls-3" d="M43.45,24.29a18.34,18.34,0,0,1,3.19,1.63l-.74,1.35a14.1,14.1,0,0,0-3.25-1.75Zm-.54,5.37a10.64,10.64,0,0,0,3.47-.78,8.24,8.24,0,0,0,4.85-5.29,5.73,5.73,0,0,0,1.25,1.07c-1.49,3.63-4,5.6-8.31,6.44a8.24,8.24,0,0,0-.84.2Zm1.46-8.28a20.17,20.17,0,0,1,3.19,1.55l-.76,1.32a14.36,14.36,0,0,0-3.21-1.64Zm6.24-.24a7.82,7.82,0,0,1,1.26,1.77l-.84.44a8.32,8.32,0,0,0-1.26-1.79Zm1.86,1.46a9,9,0,0,0-1.22-1.74l.8-.42a7,7,0,0,1,1.25,1.69Z"/><path class="cls-3" d="M18.56,35.25a11.92,11.92,0,0,0-.14,1.62c-.05,1.12-.12,3.55-.12,4.4a3.33,3.33,0,0,0,.31,1.93,1.9,1.9,0,0,0,1.61.63,3.08,3.08,0,0,0,2.9-2,7.8,7.8,0,0,0,.55-2,5.16,5.16,0,0,0,1.45.92,7.25,7.25,0,0,1-1.42,3.06,4.55,4.55,0,0,1-3.6,1.53,4,4,0,0,1-2.1-.53c-.83-.55-1.17-1.48-1.17-3.08,0-.63,0-1.83.09-4.84,0-.36,0-.61,0-.78a7.09,7.09,0,0,0,0-.81Z"/><path class="cls-3" d="M32,35a13.92,13.92,0,0,0-.08,1.86c0,.17,0,.21,0,.78a13,13,0,0,0,3.52-.41l.12,1.45-.78.08a25.34,25.34,0,0,1-2.82.21c0,.94.05,1.48.13,2.65a9.09,9.09,0,0,1,1.87.82,15.32,15.32,0,0,1,1.55,1,3.75,3.75,0,0,0,.36.24L35,45a4.52,4.52,0,0,0-.85-.79,7.68,7.68,0,0,0-1.58-1c-.16-.09-.25-.13-.39-.22a1.92,1.92,0,0,1,0,.39c0,1.34-.95,2.05-2.74,2.05a2.79,2.79,0,0,1-2.51-1,2.18,2.18,0,0,1-.3-1.07c0-1.25,1.23-2.15,3-2.15a4.5,4.5,0,0,1,1.11.12s0,0,0-.12c-.05-.43-.15-3.7-.17-5.2a6.66,6.66,0,0,0-.06-1.06Zm-2.42,7.53c-.9,0-1.5.36-1.5.89a.66.66,0,0,0,.41.63,2.29,2.29,0,0,0,.88.18,1.69,1.69,0,0,0,1.09-.33.83.83,0,0,0,.25-.67c0-.22,0-.55,0-.56A3.87,3.87,0,0,0,29.59,42.48Z"/><path class="cls-3" d="M37.81,38.84a7.46,7.46,0,0,0,1.39-.21,20.77,20.77,0,0,1,3.76-.4,4.28,4.28,0,0,1,2.27.49,2.46,2.46,0,0,1,1.17,2.19,4.05,4.05,0,0,1-2.28,3.45,10,10,0,0,1-3.78,1.12,3.4,3.4,0,0,0-.63-1.5,8.27,8.27,0,0,0,3.61-.91A2.48,2.48,0,0,0,44.79,41c0-.9-.64-1.35-1.89-1.35a17,17,0,0,0-4.74.82ZM39.68,35a16.25,16.25,0,0,0,5,.7H45l-.21,1.47a26.44,26.44,0,0,1-5.6-.75Z"/></g></g></g></svg>