<svg xmlns="http://www.w3.org/2000/svg" viewBox="0 0 46 46"><defs><style>.cls-1{fill:#040000;opacity:0.5;}.cls-2{fill:#fff;}.cls-3{isolation:isolate;}</style></defs><title>toDetail</title><g id="レイヤー_2" data-name="レイヤー 2"><g id="レイヤー_1-2" data-name="レイヤー 1"><g id="グループ化_310" data-name="グループ化 310"><rect id="長方形_198" data-name="長方形 198" class="cls-1" width="46" height="46"/><path id="ic_expand_more_24px" data-name="ic expand more 24px" class="cls-2" d="M27.59,13,23,17.58,18.41,13,17,14.41l6,6,6-6Z"/><g id="Info" class="cls-3"><g class="cls-3"><path class="cls-2" d="M11.84,24.54h2.07V34.91H11.84Z"/><path class="cls-2" d="M16.29,27.07H18l.14,1h.06a3.6,3.6,0,0,1,2.55-1.23c1.69,0,2.42,1.18,2.42,3.15v4.89H21.08V30.27c0-1.2-.34-1.64-1.11-1.64a2.26,2.26,0,0,0-1.64.89v5.39h-2Z"/><path class="cls-2" d="M29.45,25.33a2.46,2.46,0,0,0-.83-.17c-.61,0-.95.36-.95,1.23v.68h1.47v1.62H27.67v6.22H25.61V28.69H24.56V27.16l1.05-.08v-.65c0-1.63.76-2.9,2.74-2.9a3.88,3.88,0,0,1,1.48.29Z"/><path class="cls-2" d="M29.81,31a3.79,3.79,0,1,1,7.54,0,3.78,3.78,0,1,1-7.54,0Zm5.44,0c0-1.48-.6-2.45-1.67-2.45s-1.67,1-1.67,2.45.61,2.42,1.67,2.42S35.25,32.47,35.25,31Z"/></g></g></g></g></g></svg>