<?xml version="1.0" encoding="UTF-8"?>
<svg id="_レイヤー_2" data-name="レイヤー 2" xmlns="http://www.w3.org/2000/svg" xmlns:xlink="http://www.w3.org/1999/xlink" viewBox="0 0 176.4 103.44">
  <defs>
    <style>
      .cls-1 {
        fill: #fff;
      }

      .cls-2 {
        fill: #d36f71;
        filter: url(#drop-shadow-1);
        stroke: #fff;
        stroke-miterlimit: 10;
        stroke-width: 3px;
      }
    </style>
    <filter id="drop-shadow-1" filterUnits="userSpaceOnUse">
      <feOffset dx="2.83" dy="2.83"/>
      <feGaussianBlur result="blur" stdDeviation="2.83"/>
      <feFlood flood-color="#231815" flood-opacity=".5"/>
      <feComposite in2="blur" operator="in"/>
      <feComposite in="SourceGraphic"/>
    </filter>
  </defs>
  <g id="_レイヤー_1-2" data-name="レイヤー 1">
    <g>
      <path class="cls-2" d="m151.32,75.45h-45.72l-4.22,14.32-23.58-14.32H19.2c-6.6,0-12-5.01-12-11.14V18.52c0-6.13,5.4-11.14,12-11.14h132.11c6.6,0,12,5.01,12,11.14v45.79c0,6.13-5.4,11.14-12,11.14Z"/>
      <g>
        <path class="cls-1" d="m34.81,31.6l.46,2.51h-1.22l-.45-2.51h-6.09v-1.2h5.87l-.81-4.45h-5.06v-1.19h4.85l-.35-1.93h1.2l.35,1.93h5.39v1.19h-5.17l.81,4.45h4.36v1.2h-4.15Z"/>
        <path class="cls-1" d="m41.79,29v-1.25h10.91v1.25h-10.91Z"/>
        <path class="cls-1" d="m63.04,34.11h-5.37v-1.19h4.82l3.08-3.38v-5.25h-8.7v3.6h-1.21v-4.79h11.11v6.95l-3.74,4.06Z"/>
        <path class="cls-1" d="m69.79,29v-1.25h10.91v1.25h-10.91Z"/>
        <path class="cls-1" d="m92.6,30.31l-6.33-2.76v6.56h-1.18v-11.29h1.18v3.46l6.47,2.84h2.18v1.19h-2.33Zm-.29-5.38v-2.69h1.02v2.69h-1.02Zm1.65,0v-2.69h1.02v2.69h-1.02Z"/>
        <path class="cls-1" d="m101.44,34.39l-2.56-2.65v-5.66l1.65-1.6h-3.29v-1.16h8.69v1.16h-3.85l-2,1.88v4.96l1.92,1.9h6v1.16h-6.54Zm5.22-11.19v-1.04h2.65v1.04h-2.65Zm0,1.79v-1.02h2.65v1.02h-2.65Z"/>
        <path class="cls-1" d="m115.17,29.84l-1.23-1.91v6.64h-1.06v-7.26l-1.25,4.12-.94-.29,1.64-5.32.55.18v-.83h-1.93v-1.08h1.93v-2.17h1.06v2.17h1.23v1.08h-1.23v2.06l.45-.29,1.57,2.38-.78.52Zm.73-4.41l-.56-.9,4.19-2.94.63.85-4.26,2.98Zm3.81,5.81l-2.96,3.56-.81-.66,2.44-2.9h-2.33v-4.05h3.01v-1.22h-2.48v-.94h6.01v.94h-2.49v1.22h3.01v4.05h-3.4Zm-.64-3.17h-2.02v2.28h2.02v-2.28Zm4.27-2.69l-3.46-2.2.58-.83,3.42,2.14-.53.88Zm-1.22,2.69h-2.02v2.28h2.02v-2.28Zm.38,6.75l-2.19-2.69.81-.6,2.19,2.67-.81.62Z"/>
        <path class="cls-1" d="m136.5,27.76v-1.76h-10.49v1.75h-1.06v-2.7h5.74v-1.25h-5.37v-.97h5.37v-.88h1.15v.88h5.34v.97h-5.34v1.25h5.73v2.72h-1.06Zm.15,4.61l-.46-.7h-4.34v2.9h-1.19v-2.9h-5.56v-.99h2.65l1.33-.87-2.65-.7v-.71l3.38-2.06.52.73-2.44,1.48,2.2.6,3.21-2.1.55.85-4.27,2.77h5.98l-.74-1.12.83-.55,1.86,2.79-.84.57Zm-10.3,2.2l-.84-.69,1.67-1.81.83.67-1.65,1.82Zm9.68-.01l-1.65-1.82.84-.66,1.67,1.81-.85.67Z"/>
        <path class="cls-1" d="m28.38,52.05h.92v7.03h-1.06v-6.57l-.35,1.19-1.04-.29,2.07-7.03,1.05.24-1.6,5.43Zm4.55,7.2l-.99-.28,1.08-3.96-1.57-1.09.53-.83,1.3.92.92-3.4h-2.33l-1.05,3.46-.97-.28,1.83-6.05h-1.39v-1.02h5.03v1.02h-2.59l-.56,1.86h2.3l.07-.28.94.25-2.56,9.68Zm2.84-2.9v-9.57h1.02v9.57h-1.02Zm1.04,2.72v-1.04h1.39v-11.58h1.01v12.62h-2.4Z"/>
        <path class="cls-1" d="m51.01,58.89l-3.36-3.64-4.06,3.64h-2.35v-1.15h1.89l7.38-6.61h-9.27v-1.16h11.02v1.15l-3.78,3.39,2.98,3.24h1.78v1.15h-2.23Zm-8.74-10.7v-1.11h9.96v1.11h-9.96Z"/>
        <path class="cls-1" d="m56.93,58.89l-1.57-1.57v-10.24h1.16v9.72l.91.9h1.39v1.19h-1.89Zm1.75-9.51v-1.16h5.14v1.16h-5.14Zm7.02,5.11v2.89l-1.55,1.51h-3.29l-1.57-1.5v-2.54l1.55-1.51h3.7v-3.32h1.16v3.32h1.54v1.15h-1.54Zm-1.16,0h-3.24l-.88.85v1.62l.9.88h2.27l.95-.94v-2.42Zm-.04-5.08v-2.75h1.02v2.75h-1.02Zm1.79,0v-2.75h1.02v2.75h-1.02Z"/>
        <path class="cls-1" d="m71.54,59.15l-2.56-4.99,1.02-.6,2.63,4.97-1.09.62Z"/>
        <path class="cls-1" d="m85.96,47.47v11.04h-1.13v-12.17h3.75v1.13h-2.62Z"/>
        <path class="cls-1" d="m89.94,48.34v-1.05h5.71v-.84h1.18v.84h5.73v1.05h-12.62Zm1.36,10.63l-1-.5,1.76-3.31,1,.49-1.76,3.32Zm5.52-4.29v4.38h-1.16v-4.38h-4.92v-4.95h11.01v4.95h-4.93Zm3.8-3.92h-8.75v2.89h8.75v-2.89Zm.52,8.21l-1.76-3.32.99-.49,1.78,3.31-1.01.5Z"/>
        <path class="cls-1" d="m108.62,50.4h2.35v.99h-3.42l-1.46,1.39h4.31v6.12h-5.41v-5.08l-.7.66-.66-.79,2.45-2.3h-2.19v-.99h2.4v-1.84h-1.97v-.99h1.97v-1.12h1.02v1.12h1.93v.87l1.44-1.34.64.71-2.73,2.59Zm.77,3.33h-3.39v1.64h3.39v-1.64Zm0,2.56h-3.39v1.65h3.39v-1.65Zm-2.06-7.73v1.68l1.81-1.68h-1.81Zm8.66,9.5h-2.58v-1.08h1.9l-1.25-5.15,1.2-3.92h-2.66v11.18h-1.06v-12.21h4.24l.66.63-1.33,4.34,1.37,5.53-.5.69Z"/>
        <path class="cls-1" d="m117.88,59.21v-1.12h2.62v-10.9h1.13v12.02h-3.75Z"/>
        <path class="cls-1" d="m132.7,58.19v-1.51h1.82v1.51h-1.82Z"/>
        <path class="cls-1" d="m137.41,58.19v-1.51h1.82v1.51h-1.82Z"/>
        <path class="cls-1" d="m142.13,58.19v-1.51h1.82v1.51h-1.82Z"/>
      </g>
    </g>
  </g>
</svg>